%TF.GenerationSoftware,KiCad,Pcbnew,9.0.0*%
%TF.CreationDate,2025-12-14T14:18:45-07:00*%
%TF.ProjectId,BCP FC,42435020-4643-42e6-9b69-6361645f7063,rev?*%
%TF.SameCoordinates,Original*%
%TF.FileFunction,Paste,Bot*%
%TF.FilePolarity,Positive*%
%FSLAX46Y46*%
G04 Gerber Fmt 4.6, Leading zero omitted, Abs format (unit mm)*
G04 Created by KiCad (PCBNEW 9.0.0) date 2025-12-14 14:18:45*
%MOMM*%
%LPD*%
G01*
G04 APERTURE LIST*
G04 Aperture macros list*
%AMRoundRect*
0 Rectangle with rounded corners*
0 $1 Rounding radius*
0 $2 $3 $4 $5 $6 $7 $8 $9 X,Y pos of 4 corners*
0 Add a 4 corners polygon primitive as box body*
4,1,4,$2,$3,$4,$5,$6,$7,$8,$9,$2,$3,0*
0 Add four circle primitives for the rounded corners*
1,1,$1+$1,$2,$3*
1,1,$1+$1,$4,$5*
1,1,$1+$1,$6,$7*
1,1,$1+$1,$8,$9*
0 Add four rect primitives between the rounded corners*
20,1,$1+$1,$2,$3,$4,$5,0*
20,1,$1+$1,$4,$5,$6,$7,0*
20,1,$1+$1,$6,$7,$8,$9,0*
20,1,$1+$1,$8,$9,$2,$3,0*%
G04 Aperture macros list end*
%ADD10C,0.010000*%
%ADD11RoundRect,0.375000X0.375000X-0.625000X0.375000X0.625000X-0.375000X0.625000X-0.375000X-0.625000X0*%
%ADD12RoundRect,0.500000X1.400000X-0.500000X1.400000X0.500000X-1.400000X0.500000X-1.400000X-0.500000X0*%
%ADD13RoundRect,0.250000X-0.262500X-0.450000X0.262500X-0.450000X0.262500X0.450000X-0.262500X0.450000X0*%
%ADD14RoundRect,0.250000X0.262500X0.450000X-0.262500X0.450000X-0.262500X-0.450000X0.262500X-0.450000X0*%
%ADD15RoundRect,0.250000X-0.450000X0.262500X-0.450000X-0.262500X0.450000X-0.262500X0.450000X0.262500X0*%
%ADD16RoundRect,0.250000X0.450000X-0.262500X0.450000X0.262500X-0.450000X0.262500X-0.450000X-0.262500X0*%
%ADD17RoundRect,0.150000X0.587500X0.150000X-0.587500X0.150000X-0.587500X-0.150000X0.587500X-0.150000X0*%
%ADD18RoundRect,0.250000X-0.300000X0.300000X-0.300000X-0.300000X0.300000X-0.300000X0.300000X0.300000X0*%
%ADD19RoundRect,0.250000X-0.475000X0.250000X-0.475000X-0.250000X0.475000X-0.250000X0.475000X0.250000X0*%
%ADD20RoundRect,0.250000X0.250000X0.475000X-0.250000X0.475000X-0.250000X-0.475000X0.250000X-0.475000X0*%
%ADD21R,0.475000X0.250000*%
%ADD22R,0.250000X0.475000*%
%ADD23R,2.000000X0.800000*%
%ADD24R,1.500000X5.080000*%
%ADD25RoundRect,0.250000X0.475000X-0.250000X0.475000X0.250000X-0.475000X0.250000X-0.475000X-0.250000X0*%
%ADD26RoundRect,0.250000X-0.250000X-0.475000X0.250000X-0.475000X0.250000X0.475000X-0.250000X0.475000X0*%
G04 APERTURE END LIST*
D10*
%TO.C,U4*%
X159061000Y-107275000D02*
X158511000Y-107275000D01*
X158511000Y-105125000D01*
X159061000Y-105125000D01*
X159061000Y-107275000D01*
G36*
X159061000Y-107275000D02*
G01*
X158511000Y-107275000D01*
X158511000Y-105125000D01*
X159061000Y-105125000D01*
X159061000Y-107275000D01*
G37*
X160331000Y-107275000D02*
X159781000Y-107275000D01*
X159781000Y-105125000D01*
X160331000Y-105125000D01*
X160331000Y-107275000D01*
G36*
X160331000Y-107275000D02*
G01*
X159781000Y-107275000D01*
X159781000Y-105125000D01*
X160331000Y-105125000D01*
X160331000Y-107275000D01*
G37*
X161601000Y-107275000D02*
X161051000Y-107275000D01*
X161051000Y-105125000D01*
X161601000Y-105125000D01*
X161601000Y-107275000D01*
G36*
X161601000Y-107275000D02*
G01*
X161051000Y-107275000D01*
X161051000Y-105125000D01*
X161601000Y-105125000D01*
X161601000Y-107275000D01*
G37*
X162871000Y-107275000D02*
X162321000Y-107275000D01*
X162321000Y-105125000D01*
X162871000Y-105125000D01*
X162871000Y-107275000D01*
G36*
X162871000Y-107275000D02*
G01*
X162321000Y-107275000D01*
X162321000Y-105125000D01*
X162871000Y-105125000D01*
X162871000Y-107275000D01*
G37*
X163051000Y-101075000D02*
X159601000Y-101075000D01*
X159601000Y-98925000D01*
X163051000Y-98925000D01*
X163051000Y-101075000D01*
G36*
X163051000Y-101075000D02*
G01*
X159601000Y-101075000D01*
X159601000Y-98925000D01*
X163051000Y-98925000D01*
X163051000Y-101075000D01*
G37*
X164141000Y-107275000D02*
X163591000Y-107275000D01*
X163591000Y-105125000D01*
X164141000Y-105125000D01*
X164141000Y-107275000D01*
G36*
X164141000Y-107275000D02*
G01*
X163591000Y-107275000D01*
X163591000Y-105125000D01*
X164141000Y-105125000D01*
X164141000Y-107275000D01*
G37*
%TD*%
D11*
%TO.C,Q1*%
X177560000Y-107188000D03*
X175260000Y-107188000D03*
D12*
X175260000Y-100888000D03*
D11*
X172960000Y-107188000D03*
%TD*%
D13*
%TO.C,R8*%
X172720000Y-98552000D03*
X174545000Y-98552000D03*
%TD*%
D14*
%TO.C,R12*%
X181309000Y-87376000D03*
X179484000Y-87376000D03*
%TD*%
D15*
%TO.C,R13*%
X169672000Y-108411000D03*
X169672000Y-110236000D03*
%TD*%
%TO.C,R16*%
X175514000Y-67056000D03*
X175514000Y-68881000D03*
%TD*%
D16*
%TO.C,R14*%
X169672000Y-114300000D03*
X169672000Y-112475000D03*
%TD*%
D17*
%TO.C,Q3*%
X170531000Y-93030000D03*
X170531000Y-94930000D03*
X168656000Y-93980000D03*
%TD*%
D18*
%TO.C,D5*%
X161036000Y-112008000D03*
X161036000Y-114808000D03*
%TD*%
D15*
%TO.C,R15*%
X177038000Y-58119000D03*
X177038000Y-59944000D03*
%TD*%
D19*
%TO.C,C4*%
X163576000Y-112776000D03*
X163576000Y-114676000D03*
%TD*%
D20*
%TO.C,C3*%
X163068000Y-108712000D03*
X161168000Y-108712000D03*
%TD*%
D21*
%TO.C,U1*%
X178669500Y-57034500D03*
X178669500Y-56534500D03*
X178669500Y-56034500D03*
X178669500Y-55534500D03*
D22*
X179332000Y-55372000D03*
X179832000Y-55372000D03*
X180332000Y-55372000D03*
D21*
X180994500Y-55534500D03*
X180994500Y-56034500D03*
X180994500Y-56534500D03*
X180994500Y-57034500D03*
D22*
X180332000Y-57197000D03*
X179832000Y-57197000D03*
X179332000Y-57197000D03*
%TD*%
D23*
%TO.C,U3*%
X156972000Y-72008000D03*
X156972000Y-70008000D03*
X156972000Y-68008000D03*
X156972000Y-66008000D03*
X156972000Y-64008000D03*
X156972000Y-62008000D03*
X156972000Y-60008000D03*
X156972000Y-58008000D03*
X173172000Y-58008000D03*
X173172000Y-60008000D03*
X173172000Y-62008000D03*
X173172000Y-64008000D03*
X173172000Y-66008000D03*
X173172000Y-68008000D03*
X173172000Y-70008000D03*
X173172000Y-72008000D03*
%TD*%
D15*
%TO.C,R18*%
X154686000Y-64008000D03*
X154686000Y-65833000D03*
%TD*%
D24*
%TO.C,J10*%
X171704000Y-53368500D03*
X167454000Y-53368500D03*
X175954000Y-53368500D03*
%TD*%
D18*
%TO.C,D4*%
X165862000Y-112008000D03*
X165862000Y-114808000D03*
%TD*%
D25*
%TO.C,C11*%
X170434000Y-100076000D03*
X170434000Y-98176000D03*
%TD*%
D16*
%TO.C,R19*%
X154686000Y-62277000D03*
X154686000Y-60452000D03*
%TD*%
D18*
%TO.C,D3*%
X156972000Y-108712000D03*
X156972000Y-111512000D03*
%TD*%
D26*
%TO.C,C2*%
X178308000Y-53340000D03*
X180208000Y-53340000D03*
%TD*%
D13*
%TO.C,R11*%
X175721000Y-87376000D03*
X177546000Y-87376000D03*
%TD*%
D14*
%TO.C,R7*%
X178308000Y-98552000D03*
X176483000Y-98552000D03*
%TD*%
D11*
%TO.C,Q5*%
X177560000Y-96216000D03*
X175260000Y-96216000D03*
D12*
X175260000Y-89916000D03*
D11*
X172960000Y-96216000D03*
%TD*%
D26*
%TO.C,C10*%
X157292000Y-95250000D03*
X159192000Y-95250000D03*
%TD*%
D25*
%TO.C,C8*%
X175514000Y-65400000D03*
X175514000Y-63500000D03*
%TD*%
M02*
