%TF.GenerationSoftware,KiCad,Pcbnew,9.0.0*%
%TF.CreationDate,2025-12-14T14:18:45-07:00*%
%TF.ProjectId,BCP FC,42435020-4643-42e6-9b69-6361645f7063,rev?*%
%TF.SameCoordinates,Original*%
%TF.FileFunction,Copper,L2,Bot*%
%TF.FilePolarity,Positive*%
%FSLAX46Y46*%
G04 Gerber Fmt 4.6, Leading zero omitted, Abs format (unit mm)*
G04 Created by KiCad (PCBNEW 9.0.0) date 2025-12-14 14:18:45*
%MOMM*%
%LPD*%
G01*
G04 APERTURE LIST*
G04 Aperture macros list*
%AMRoundRect*
0 Rectangle with rounded corners*
0 $1 Rounding radius*
0 $2 $3 $4 $5 $6 $7 $8 $9 X,Y pos of 4 corners*
0 Add a 4 corners polygon primitive as box body*
4,1,4,$2,$3,$4,$5,$6,$7,$8,$9,$2,$3,0*
0 Add four circle primitives for the rounded corners*
1,1,$1+$1,$2,$3*
1,1,$1+$1,$4,$5*
1,1,$1+$1,$6,$7*
1,1,$1+$1,$8,$9*
0 Add four rect primitives between the rounded corners*
20,1,$1+$1,$2,$3,$4,$5,0*
20,1,$1+$1,$4,$5,$6,$7,0*
20,1,$1+$1,$6,$7,$8,$9,0*
20,1,$1+$1,$8,$9,$2,$3,0*%
G04 Aperture macros list end*
%TA.AperFunction,ComponentPad*%
%ADD10R,3.000000X3.000000*%
%TD*%
%TA.AperFunction,ComponentPad*%
%ADD11C,3.000000*%
%TD*%
%TA.AperFunction,HeatsinkPad*%
%ADD12O,1.000000X2.100000*%
%TD*%
%TA.AperFunction,HeatsinkPad*%
%ADD13O,1.000000X1.800000*%
%TD*%
%TA.AperFunction,ComponentPad*%
%ADD14R,1.350000X2.150000*%
%TD*%
%TA.AperFunction,ComponentPad*%
%ADD15O,1.350000X2.150000*%
%TD*%
%TA.AperFunction,ComponentPad*%
%ADD16R,2.000000X2.000000*%
%TD*%
%TA.AperFunction,ComponentPad*%
%ADD17C,2.000000*%
%TD*%
%TA.AperFunction,ComponentPad*%
%ADD18RoundRect,0.250000X0.550000X0.550000X-0.550000X0.550000X-0.550000X-0.550000X0.550000X-0.550000X0*%
%TD*%
%TA.AperFunction,ComponentPad*%
%ADD19C,1.600000*%
%TD*%
%TA.AperFunction,SMDPad,CuDef*%
%ADD20RoundRect,0.375000X0.375000X-0.625000X0.375000X0.625000X-0.375000X0.625000X-0.375000X-0.625000X0*%
%TD*%
%TA.AperFunction,SMDPad,CuDef*%
%ADD21RoundRect,0.500000X1.400000X-0.500000X1.400000X0.500000X-1.400000X0.500000X-1.400000X-0.500000X0*%
%TD*%
%TA.AperFunction,SMDPad,CuDef*%
%ADD22RoundRect,0.250000X-0.262500X-0.450000X0.262500X-0.450000X0.262500X0.450000X-0.262500X0.450000X0*%
%TD*%
%TA.AperFunction,SMDPad,CuDef*%
%ADD23RoundRect,0.250000X0.262500X0.450000X-0.262500X0.450000X-0.262500X-0.450000X0.262500X-0.450000X0*%
%TD*%
%TA.AperFunction,SMDPad,CuDef*%
%ADD24RoundRect,0.250000X-0.450000X0.262500X-0.450000X-0.262500X0.450000X-0.262500X0.450000X0.262500X0*%
%TD*%
%TA.AperFunction,SMDPad,CuDef*%
%ADD25RoundRect,0.250000X0.450000X-0.262500X0.450000X0.262500X-0.450000X0.262500X-0.450000X-0.262500X0*%
%TD*%
%TA.AperFunction,SMDPad,CuDef*%
%ADD26RoundRect,0.150000X0.587500X0.150000X-0.587500X0.150000X-0.587500X-0.150000X0.587500X-0.150000X0*%
%TD*%
%TA.AperFunction,SMDPad,CuDef*%
%ADD27RoundRect,0.250000X-0.300000X0.300000X-0.300000X-0.300000X0.300000X-0.300000X0.300000X0.300000X0*%
%TD*%
%TA.AperFunction,SMDPad,CuDef*%
%ADD28R,0.600000X2.200000*%
%TD*%
%TA.AperFunction,SMDPad,CuDef*%
%ADD29R,5.300000X4.000000*%
%TD*%
%TA.AperFunction,SMDPad,CuDef*%
%ADD30RoundRect,0.250000X-0.475000X0.250000X-0.475000X-0.250000X0.475000X-0.250000X0.475000X0.250000X0*%
%TD*%
%TA.AperFunction,SMDPad,CuDef*%
%ADD31RoundRect,0.250000X0.250000X0.475000X-0.250000X0.475000X-0.250000X-0.475000X0.250000X-0.475000X0*%
%TD*%
%TA.AperFunction,SMDPad,CuDef*%
%ADD32R,0.475000X0.250000*%
%TD*%
%TA.AperFunction,SMDPad,CuDef*%
%ADD33R,0.250000X0.475000*%
%TD*%
%TA.AperFunction,SMDPad,CuDef*%
%ADD34R,2.000000X0.800000*%
%TD*%
%TA.AperFunction,SMDPad,CuDef*%
%ADD35R,1.500000X5.080000*%
%TD*%
%TA.AperFunction,SMDPad,CuDef*%
%ADD36RoundRect,0.250000X0.475000X-0.250000X0.475000X0.250000X-0.475000X0.250000X-0.475000X-0.250000X0*%
%TD*%
%TA.AperFunction,SMDPad,CuDef*%
%ADD37RoundRect,0.250000X-0.250000X-0.475000X0.250000X-0.475000X0.250000X0.475000X-0.250000X0.475000X0*%
%TD*%
%TA.AperFunction,ViaPad*%
%ADD38C,0.600000*%
%TD*%
%TA.AperFunction,ViaPad*%
%ADD39C,1.000000*%
%TD*%
%TA.AperFunction,Conductor*%
%ADD40C,0.200000*%
%TD*%
%TA.AperFunction,Conductor*%
%ADD41C,0.508000*%
%TD*%
%TA.AperFunction,Conductor*%
%ADD42C,1.270000*%
%TD*%
G04 APERTURE END LIST*
D10*
%TO.P,I2c1,1,Pin_1*%
%TO.N,/SDA*%
X180340000Y-59944000D03*
D11*
%TO.P,I2c1,2,Pin_2*%
%TO.N,/SCL*%
X180340000Y-65024000D03*
%TD*%
D12*
%TO.P,P1,S1,SHIELD*%
%TO.N,GND*%
X159004000Y-110120000D03*
D13*
X159004000Y-114300000D03*
D12*
X167644000Y-110120000D03*
D13*
X167644000Y-114300000D03*
%TD*%
D10*
%TO.P,PYR1,1,Pin_1*%
%TO.N,Net-(PYR1-Pin_1)*%
X180340000Y-89916000D03*
D11*
%TO.P,PYR1,2,Pin_2*%
%TO.N,+BATT*%
X180340000Y-94996000D03*
%TD*%
D14*
%TO.P,C9,1*%
%TO.N,+3V3*%
X155497500Y-91694000D03*
D15*
%TO.P,C9,2*%
%TO.N,GND*%
X160497500Y-91694000D03*
%TD*%
D10*
%TO.P,BT1,1,+*%
%TO.N,+BATT*%
X179324000Y-113030000D03*
D11*
%TO.P,BT1,2,-*%
%TO.N,GND*%
X174244000Y-113030000D03*
%TD*%
D16*
%TO.P,BZ1,1,+*%
%TO.N,/BZZ*%
X168148000Y-90932000D03*
D17*
%TO.P,BZ1,2,-*%
%TO.N,GND*%
X168148000Y-97182000D03*
%TD*%
D10*
%TO.P,PYR2,1,Pin_1*%
%TO.N,Net-(PYR2-Pin_1)*%
X180340000Y-100584000D03*
D11*
%TO.P,PYR2,2,Pin_2*%
%TO.N,+BATT*%
X180340000Y-105664000D03*
%TD*%
D10*
%TO.P,A33,1,Pin_1*%
%TO.N,GND*%
X156464000Y-105636000D03*
D11*
%TO.P,A33,2,Pin_2*%
%TO.N,+3V3*%
X156464000Y-100556000D03*
%TD*%
D18*
%TO.P,U2,1,A0*%
%TO.N,GND*%
X181610000Y-85344000D03*
D19*
%TO.P,U2,2,A1*%
X181610000Y-82804000D03*
%TO.P,U2,3,A2*%
X181610000Y-80264000D03*
%TO.P,U2,4,GND*%
X181610000Y-77724000D03*
%TO.P,U2,5,SDA*%
%TO.N,/SDA*%
X173990000Y-77724000D03*
%TO.P,U2,6,SCL*%
%TO.N,/SCL*%
X173990000Y-80264000D03*
%TO.P,U2,7,WP*%
%TO.N,GND*%
X173990000Y-82804000D03*
%TO.P,U2,8,VCC*%
%TO.N,+3V3*%
X173990000Y-85344000D03*
%TD*%
D10*
%TO.P,ARM1,1,Pin_1*%
%TO.N,/ARM*%
X157988000Y-53848000D03*
D11*
%TO.P,ARM1,2,Pin_2*%
%TO.N,GND*%
X163068000Y-53848000D03*
%TD*%
D20*
%TO.P,Q1,1,G*%
%TO.N,/PYR 2*%
X177560000Y-107188000D03*
%TO.P,Q1,2,D*%
%TO.N,Net-(PYR2-Pin_1)*%
X175260000Y-107188000D03*
D21*
X175260000Y-100888000D03*
D20*
%TO.P,Q1,3,S*%
%TO.N,GND*%
X172960000Y-107188000D03*
%TD*%
D22*
%TO.P,R8,1*%
%TO.N,GND*%
X172720000Y-98552000D03*
%TO.P,R8,2*%
%TO.N,/CNT 2*%
X174545000Y-98552000D03*
%TD*%
D23*
%TO.P,R12,1*%
%TO.N,Net-(PYR1-Pin_1)*%
X181309000Y-87376000D03*
%TO.P,R12,2*%
%TO.N,/CNT 1*%
X179484000Y-87376000D03*
%TD*%
D24*
%TO.P,R13,1*%
%TO.N,GND*%
X169672000Y-108411000D03*
%TO.P,R13,2*%
%TO.N,/SBAT*%
X169672000Y-110236000D03*
%TD*%
%TO.P,R16,1*%
%TO.N,+3V3*%
X175514000Y-67056000D03*
%TO.P,R16,2*%
%TO.N,/SCL*%
X175514000Y-68881000D03*
%TD*%
D25*
%TO.P,R14,1*%
%TO.N,+BATT*%
X169672000Y-114300000D03*
%TO.P,R14,2*%
%TO.N,/SBAT*%
X169672000Y-112475000D03*
%TD*%
D26*
%TO.P,Q3,1,B*%
%TO.N,/CNT 2*%
X170531000Y-93030000D03*
%TO.P,Q3,2,E*%
%TO.N,Net-(D7-K)*%
X170531000Y-94930000D03*
%TO.P,Q3,3,C*%
%TO.N,GND*%
X168656000Y-93980000D03*
%TD*%
D27*
%TO.P,D5,1,K*%
%TO.N,Net-(D4-K)*%
X161036000Y-112008000D03*
%TO.P,D5,2,A*%
%TO.N,+5V*%
X161036000Y-114808000D03*
%TD*%
D28*
%TO.P,U4,1,IN*%
%TO.N,Net-(D4-K)*%
X163866000Y-106200000D03*
%TO.P,U4,2,OUT*%
%TO.N,Net-(D3-A)*%
X162596000Y-106200000D03*
%TO.P,U4,3,GND_3*%
%TO.N,GND*%
X161326000Y-106200000D03*
%TO.P,U4,4,NR/FB*%
%TO.N,Net-(U4-NR{slash}FB)*%
X160056000Y-106200000D03*
%TO.P,U4,5,EN*%
%TO.N,Net-(D4-K)*%
X158786000Y-106200000D03*
D29*
%TO.P,U4,6,GND_6*%
%TO.N,GND*%
X161326000Y-100000000D03*
%TD*%
D24*
%TO.P,R15,1*%
%TO.N,+3V3*%
X177038000Y-58119000D03*
%TO.P,R15,2*%
%TO.N,/SDA*%
X177038000Y-59944000D03*
%TD*%
D30*
%TO.P,C4,1*%
%TO.N,Net-(D4-K)*%
X163576000Y-112776000D03*
%TO.P,C4,2*%
%TO.N,GND*%
X163576000Y-114676000D03*
%TD*%
D31*
%TO.P,C3,1*%
%TO.N,Net-(D3-A)*%
X163068000Y-108712000D03*
%TO.P,C3,2*%
%TO.N,GND*%
X161168000Y-108712000D03*
%TD*%
D32*
%TO.P,U1,1,SDO*%
%TO.N,GND*%
X178669500Y-57034500D03*
%TO.P,U1,2,ASDX*%
%TO.N,unconnected-(U1-ASDX-Pad2)*%
X178669500Y-56534500D03*
%TO.P,U1,3,ASCX*%
%TO.N,unconnected-(U1-ASCX-Pad3)*%
X178669500Y-56034500D03*
%TO.P,U1,4,INT1*%
%TO.N,unconnected-(U1-INT1-Pad4)*%
X178669500Y-55534500D03*
D33*
%TO.P,U1,5,VDDIO*%
%TO.N,+3V3*%
X179332000Y-55372000D03*
%TO.P,U1,6,GNDIO*%
%TO.N,GND*%
X179832000Y-55372000D03*
%TO.P,U1,7,GND*%
X180332000Y-55372000D03*
D32*
%TO.P,U1,8,VDD*%
%TO.N,+3V3*%
X180994500Y-55534500D03*
%TO.P,U1,9,INT2*%
%TO.N,unconnected-(U1-INT2-Pad9)*%
X180994500Y-56034500D03*
%TO.P,U1,10,OSCB*%
%TO.N,unconnected-(U1-OSCB-Pad10)*%
X180994500Y-56534500D03*
%TO.P,U1,11,OSDO*%
%TO.N,unconnected-(U1-OSDO-Pad11)*%
X180994500Y-57034500D03*
D33*
%TO.P,U1,12,CSB*%
%TO.N,+3V3*%
X180332000Y-57197000D03*
%TO.P,U1,13,SCX*%
%TO.N,/SCL*%
X179832000Y-57197000D03*
%TO.P,U1,14,SDX*%
%TO.N,/SDA*%
X179332000Y-57197000D03*
%TD*%
D34*
%TO.P,U3,1,GND*%
%TO.N,GND*%
X156972000Y-72008000D03*
%TO.P,U3,2,MISO*%
%TO.N,/MISO*%
X156972000Y-70008000D03*
%TO.P,U3,3,MOSI*%
%TO.N,/MOSI*%
X156972000Y-68008000D03*
%TO.P,U3,4,SCK*%
%TO.N,/CLK*%
X156972000Y-66008000D03*
%TO.P,U3,5,NSS*%
%TO.N,/CS*%
X156972000Y-64008000D03*
%TO.P,U3,6,RESET*%
%TO.N,Net-(U3-RESET)*%
X156972000Y-62008000D03*
%TO.P,U3,7,DIO5*%
%TO.N,unconnected-(U3-DIO5-Pad7)*%
X156972000Y-60008000D03*
%TO.P,U3,8,GND*%
%TO.N,GND*%
X156972000Y-58008000D03*
%TO.P,U3,9,ANT*%
%TO.N,Net-(J10-In)*%
X173172000Y-58008000D03*
%TO.P,U3,10,GND*%
%TO.N,GND*%
X173172000Y-60008000D03*
%TO.P,U3,11,DIO3*%
%TO.N,unconnected-(U3-DIO3-Pad11)*%
X173172000Y-62008000D03*
%TO.P,U3,12,DIO4*%
%TO.N,unconnected-(U3-DIO4-Pad12)*%
X173172000Y-64008000D03*
%TO.P,U3,13,3.3V*%
%TO.N,+3V3*%
X173172000Y-66008000D03*
%TO.P,U3,14,DIO0*%
%TO.N,unconnected-(U3-DIO0-Pad14)*%
X173172000Y-68008000D03*
%TO.P,U3,15,DIO1*%
%TO.N,unconnected-(U3-DIO1-Pad15)*%
X173172000Y-70008000D03*
%TO.P,U3,16,DIO2*%
%TO.N,unconnected-(U3-DIO2-Pad16)*%
X173172000Y-72008000D03*
%TD*%
D24*
%TO.P,R18,1*%
%TO.N,+3V3*%
X154686000Y-64008000D03*
%TO.P,R18,2*%
%TO.N,/CS*%
X154686000Y-65833000D03*
%TD*%
D35*
%TO.P,J10,1,In*%
%TO.N,Net-(J10-In)*%
X171704000Y-53368500D03*
%TO.P,J10,2,Ext*%
%TO.N,GND*%
X167454000Y-53368500D03*
X175954000Y-53368500D03*
%TD*%
D27*
%TO.P,D4,1,K*%
%TO.N,Net-(D4-K)*%
X165862000Y-112008000D03*
%TO.P,D4,2,A*%
%TO.N,+BATT*%
X165862000Y-114808000D03*
%TD*%
D36*
%TO.P,C11,1*%
%TO.N,Net-(U4-NR{slash}FB)*%
X170434000Y-100076000D03*
%TO.P,C11,2*%
%TO.N,GND*%
X170434000Y-98176000D03*
%TD*%
D25*
%TO.P,R19,1*%
%TO.N,+3V3*%
X154686000Y-62277000D03*
%TO.P,R19,2*%
%TO.N,Net-(U3-RESET)*%
X154686000Y-60452000D03*
%TD*%
D27*
%TO.P,D3,1,K*%
%TO.N,+3V3*%
X156972000Y-108712000D03*
%TO.P,D3,2,A*%
%TO.N,Net-(D3-A)*%
X156972000Y-111512000D03*
%TD*%
D37*
%TO.P,C2,1*%
%TO.N,+3V3*%
X178308000Y-53340000D03*
%TO.P,C2,2*%
%TO.N,GND*%
X180208000Y-53340000D03*
%TD*%
D22*
%TO.P,R11,1*%
%TO.N,GND*%
X175721000Y-87376000D03*
%TO.P,R11,2*%
%TO.N,/CNT 1*%
X177546000Y-87376000D03*
%TD*%
D23*
%TO.P,R7,1*%
%TO.N,Net-(PYR2-Pin_1)*%
X178308000Y-98552000D03*
%TO.P,R7,2*%
%TO.N,/CNT 2*%
X176483000Y-98552000D03*
%TD*%
D20*
%TO.P,Q5,1,G*%
%TO.N,/PYR 1*%
X177560000Y-96216000D03*
%TO.P,Q5,2,D*%
%TO.N,Net-(PYR1-Pin_1)*%
X175260000Y-96216000D03*
D21*
X175260000Y-89916000D03*
D20*
%TO.P,Q5,3,S*%
%TO.N,GND*%
X172960000Y-96216000D03*
%TD*%
D37*
%TO.P,C10,1*%
%TO.N,+3V3*%
X157292000Y-95250000D03*
%TO.P,C10,2*%
%TO.N,GND*%
X159192000Y-95250000D03*
%TD*%
D36*
%TO.P,C8,1*%
%TO.N,+3V3*%
X175514000Y-65400000D03*
%TO.P,C8,2*%
%TO.N,GND*%
X175514000Y-63500000D03*
%TD*%
D38*
%TO.N,GND*%
X156972000Y-71120000D03*
X172466000Y-74930000D03*
X160020000Y-108212062D03*
X179324000Y-53340000D03*
%TO.N,/BZZ*%
X165073235Y-77496765D03*
X169418000Y-87884000D03*
%TO.N,+5V*%
X161036000Y-113538000D03*
D39*
%TO.N,+3V3*%
X154559000Y-86233000D03*
X176784000Y-65278000D03*
D38*
X164084000Y-87860000D03*
D39*
X179324000Y-67056000D03*
D38*
X177546000Y-56896000D03*
X156718000Y-62992000D03*
%TO.N,/ARM*%
X170780000Y-80772000D03*
%TO.N,/SCL*%
X175260000Y-75946000D03*
%TO.N,/SDA*%
X174491000Y-74168000D03*
%TO.N,Net-(P1-D-)*%
X172977579Y-86871579D03*
X170434000Y-75880002D03*
%TO.N,Net-(P1-D+)*%
X172338397Y-86316163D03*
X169640664Y-75983071D03*
%TO.N,/PYR 1*%
X177546000Y-94234000D03*
%TO.N,/PYR 2*%
X175468543Y-102642000D03*
%TO.N,/CNT 1*%
X177546000Y-86106000D03*
%TO.N,/CNT 2*%
X173736000Y-98552000D03*
X171710000Y-96092527D03*
%TO.N,/SBAT*%
X165409000Y-100413735D03*
%TO.N,/MOSI*%
X167894000Y-77562000D03*
%TO.N,/CS*%
X170434000Y-82550000D03*
%TO.N,/CLK*%
X169927000Y-79248000D03*
%TO.N,/MISO*%
X155956000Y-88138000D03*
%TO.N,Net-(D7-K)*%
X171196000Y-97028000D03*
%TD*%
D40*
%TO.N,GND*%
X180208000Y-55248000D02*
X180332000Y-55372000D01*
D41*
X174627000Y-58863000D02*
X174627000Y-54949500D01*
X175514000Y-63500000D02*
X175514000Y-62040000D01*
D40*
X156972000Y-72008000D02*
X156972000Y-71120000D01*
D41*
X161326000Y-92522500D02*
X160497500Y-91694000D01*
D40*
X159165000Y-112937000D02*
X159004000Y-112776000D01*
D41*
X158908000Y-58008000D02*
X163068000Y-53848000D01*
X167454000Y-53622500D02*
X167454000Y-54600000D01*
D40*
X163023943Y-114676000D02*
X161284943Y-112937000D01*
D41*
X170434000Y-98176000D02*
X169142000Y-98176000D01*
X158321000Y-103779000D02*
X158321000Y-101267000D01*
D40*
X177723160Y-58932500D02*
X174696500Y-58932500D01*
D41*
X172720000Y-98552000D02*
X172720000Y-96456000D01*
X172720000Y-96456000D02*
X172960000Y-96216000D01*
X158321000Y-101267000D02*
X158833000Y-100755000D01*
X161326000Y-106200000D02*
X161326000Y-108554000D01*
X172905000Y-96161000D02*
X172960000Y-96216000D01*
D40*
X163576000Y-114676000D02*
X164580160Y-114676000D01*
D41*
X160668062Y-108212062D02*
X160020000Y-108212062D01*
X161326000Y-94488000D02*
X161326000Y-92522500D01*
X173482000Y-60008000D02*
X174627000Y-58863000D01*
X169142000Y-98176000D02*
X168148000Y-97182000D01*
D42*
X172960000Y-111746000D02*
X174244000Y-113030000D01*
D41*
X172720000Y-98552000D02*
X170810000Y-98552000D01*
X172720000Y-106948000D02*
X172960000Y-107188000D01*
D40*
X159192000Y-92999500D02*
X160497500Y-91694000D01*
D41*
X167454000Y-54600000D02*
X172862000Y-60008000D01*
X175721000Y-87376000D02*
X174542154Y-87376000D01*
D40*
X167644000Y-110120000D02*
X167963000Y-110120000D01*
D41*
X175721000Y-87376000D02*
X176784000Y-86313000D01*
D40*
X178669500Y-57034500D02*
X178669500Y-57986160D01*
D41*
X166085000Y-99245000D02*
X168148000Y-97182000D01*
D40*
X172466000Y-74930000D02*
X171871000Y-74335000D01*
X171871000Y-65307000D02*
X173707000Y-65307000D01*
D41*
X161326000Y-108554000D02*
X161168000Y-108712000D01*
X172960000Y-106680000D02*
X172720000Y-106440000D01*
D40*
X163576000Y-114676000D02*
X163023943Y-114676000D01*
X169672000Y-108411000D02*
X171737000Y-108411000D01*
X171737000Y-108411000D02*
X172960000Y-107188000D01*
D41*
X158833000Y-100755000D02*
X160571000Y-100755000D01*
X173172000Y-60008000D02*
X173482000Y-60008000D01*
D40*
X164580160Y-114676000D02*
X167644000Y-111612160D01*
X168148000Y-94488000D02*
X168148000Y-97182000D01*
D41*
X175514000Y-62040000D02*
X173482000Y-60008000D01*
X174627000Y-54949500D02*
X175954000Y-53622500D01*
X161326000Y-100000000D02*
X161326000Y-94488000D01*
D40*
X159192000Y-95250000D02*
X159192000Y-92999500D01*
D41*
X172905000Y-89013154D02*
X172905000Y-96161000D01*
D40*
X159004000Y-112776000D02*
X159004000Y-114300000D01*
D41*
X156972000Y-58008000D02*
X158908000Y-58008000D01*
X158504062Y-108212062D02*
X156464000Y-106172000D01*
D40*
X178669500Y-57986160D02*
X177723160Y-58932500D01*
X180208000Y-53340000D02*
X180208000Y-55248000D01*
X179832000Y-55372000D02*
X180084000Y-55372000D01*
D41*
X162081000Y-99245000D02*
X166085000Y-99245000D01*
D40*
X171871000Y-74335000D02*
X171871000Y-65307000D01*
X159004000Y-110120000D02*
X159004000Y-112776000D01*
D41*
X176784000Y-82550000D02*
X181610000Y-77724000D01*
D40*
X167644000Y-111612160D02*
X167644000Y-110120000D01*
D41*
X170810000Y-98552000D02*
X170434000Y-98176000D01*
D40*
X180084000Y-55372000D02*
X180208000Y-55248000D01*
D41*
X176784000Y-86313000D02*
X176784000Y-82550000D01*
D40*
X173707000Y-65307000D02*
X175514000Y-63500000D01*
D41*
X161168000Y-108712000D02*
X160668062Y-108212062D01*
X156464000Y-106172000D02*
X156464000Y-105636000D01*
X174542154Y-87376000D02*
X172905000Y-89013154D01*
D40*
X167454000Y-53622500D02*
X163293500Y-53622500D01*
X168656000Y-93980000D02*
X168148000Y-94488000D01*
D41*
X160571000Y-100755000D02*
X161326000Y-100000000D01*
X172720000Y-98552000D02*
X172720000Y-106948000D01*
D40*
X161284943Y-112937000D02*
X159165000Y-112937000D01*
X174696500Y-58932500D02*
X174627000Y-58863000D01*
D42*
X172960000Y-107188000D02*
X172960000Y-111746000D01*
D41*
X156464000Y-105636000D02*
X158321000Y-103779000D01*
D40*
X179324000Y-53340000D02*
X180208000Y-53340000D01*
X163293500Y-53622500D02*
X163068000Y-53848000D01*
D41*
X172862000Y-60008000D02*
X173172000Y-60008000D01*
X161326000Y-100000000D02*
X162081000Y-99245000D01*
X160020000Y-108212062D02*
X158504062Y-108212062D01*
D40*
%TO.N,+BATT*%
X168471000Y-113099000D02*
X169672000Y-114300000D01*
D42*
X179324000Y-106680000D02*
X180340000Y-105664000D01*
D40*
X167021000Y-113099000D02*
X168471000Y-113099000D01*
X169672000Y-114300000D02*
X170203000Y-114831000D01*
D42*
X179324000Y-113030000D02*
X179324000Y-106680000D01*
D40*
X165862000Y-114258000D02*
X167021000Y-113099000D01*
X170203000Y-114831000D02*
X177523000Y-114831000D01*
X165862000Y-114808000D02*
X165862000Y-114258000D01*
X177523000Y-114831000D02*
X179324000Y-113030000D01*
%TO.N,/BZZ*%
X169418000Y-87884000D02*
X169418000Y-81381840D01*
X165073235Y-78159395D02*
X165073235Y-77496765D01*
X167036160Y-79000000D02*
X165913840Y-79000000D01*
X165913840Y-79000000D02*
X165073235Y-78159395D01*
X169418000Y-81381840D02*
X167036160Y-79000000D01*
D41*
%TO.N,Net-(D3-A)*%
X163068000Y-108712000D02*
X163068000Y-106672000D01*
D40*
X158672214Y-108769000D02*
X159569000Y-108769000D01*
X156972000Y-111512000D02*
X157988000Y-110496000D01*
D41*
X163068000Y-106672000D02*
X162596000Y-106200000D01*
D40*
X159569000Y-108769000D02*
X160538000Y-109738000D01*
X162042000Y-109738000D02*
X163068000Y-108712000D01*
X157988000Y-109453214D02*
X158672214Y-108769000D01*
X160538000Y-109738000D02*
X162042000Y-109738000D01*
X157988000Y-110496000D02*
X157988000Y-109453214D01*
%TO.N,+5V*%
X161036000Y-114560000D02*
X161036000Y-113538000D01*
D41*
%TO.N,+3V3*%
X164084000Y-88646000D02*
X158242000Y-88646000D01*
X173990000Y-86925476D02*
X172269476Y-88646000D01*
D40*
X180994500Y-55534500D02*
X181009000Y-55520000D01*
D41*
X164084000Y-87860000D02*
X164084000Y-88646000D01*
D40*
X177546000Y-57611000D02*
X177038000Y-58119000D01*
D41*
X154509000Y-102511000D02*
X156464000Y-100556000D01*
X155751500Y-91694000D02*
X155751500Y-89585800D01*
X175514000Y-65400000D02*
X176662000Y-65400000D01*
X173172000Y-66008000D02*
X175482000Y-66008000D01*
X173990000Y-85344000D02*
X173990000Y-86925476D01*
X180340000Y-74115002D02*
X180340000Y-77991322D01*
D40*
X175636000Y-65278000D02*
X175514000Y-65400000D01*
D41*
X155630000Y-108712000D02*
X154509000Y-107591000D01*
X154509000Y-107591000D02*
X154509000Y-102511000D01*
X175514000Y-67056000D02*
X175514000Y-66040000D01*
X156691300Y-88646000D02*
X155751500Y-89585800D01*
D40*
X154686000Y-62277000D02*
X154686000Y-64008000D01*
D41*
X176662000Y-65400000D02*
X176784000Y-65278000D01*
D40*
X177546000Y-56896000D02*
X177546000Y-57611000D01*
X177038000Y-58119000D02*
X177038000Y-54610000D01*
X181533000Y-57460500D02*
X181533000Y-55608500D01*
D41*
X180340000Y-77991322D02*
X176490323Y-81841000D01*
X176075000Y-82256322D02*
X176075000Y-82256323D01*
X180340000Y-68072000D02*
X180340000Y-69820998D01*
X155497500Y-91694000D02*
X155497500Y-95250000D01*
D40*
X180693160Y-52314000D02*
X179334000Y-52314000D01*
D41*
X154559000Y-86233000D02*
X154910000Y-86584000D01*
X179324000Y-67056000D02*
X180340000Y-68072000D01*
X155497500Y-95250000D02*
X155497500Y-99589500D01*
D40*
X180332000Y-57197000D02*
X180595500Y-57460500D01*
X154686000Y-62277000D02*
X155401000Y-62992000D01*
D41*
X158242000Y-88646000D02*
X156691300Y-88646000D01*
X156972000Y-108712000D02*
X155630000Y-108712000D01*
X176490323Y-81841000D02*
X176075000Y-82256322D01*
X172269476Y-88646000D02*
X164084000Y-88646000D01*
X180340000Y-69820998D02*
X181263000Y-70743998D01*
X175482000Y-66008000D02*
X175514000Y-66040000D01*
D40*
X177038000Y-54610000D02*
X178308000Y-53340000D01*
X175514000Y-66040000D02*
X175514000Y-65400000D01*
D41*
X181263000Y-70743998D02*
X181263000Y-73192002D01*
X176075000Y-83259000D02*
X173990000Y-85344000D01*
X176075000Y-82843678D02*
X176075000Y-83259000D01*
X154910000Y-88159732D02*
X155751500Y-89001232D01*
D40*
X155401000Y-62992000D02*
X156718000Y-62992000D01*
X179332000Y-55372000D02*
X179332000Y-54364000D01*
X181009000Y-52629840D02*
X180693160Y-52314000D01*
D41*
X155751500Y-89001232D02*
X155751500Y-89585800D01*
D40*
X181533000Y-55608500D02*
X181459000Y-55534500D01*
D41*
X181263000Y-73192002D02*
X180340000Y-74115002D01*
X155497500Y-99589500D02*
X156464000Y-100556000D01*
D40*
X181009000Y-55520000D02*
X181009000Y-52629840D01*
X180595500Y-57460500D02*
X181533000Y-57460500D01*
X181459000Y-55534500D02*
X180994500Y-55534500D01*
D41*
X176075000Y-82256323D02*
X176075000Y-82843678D01*
D40*
X179332000Y-54364000D02*
X178308000Y-53340000D01*
X157292000Y-95250000D02*
X155497500Y-95250000D01*
D41*
X154910000Y-86584000D02*
X154910000Y-88159732D01*
D40*
X179334000Y-52314000D02*
X178308000Y-53340000D01*
%TO.N,/ARM*%
X155671000Y-56165000D02*
X155671000Y-58709000D01*
X158698100Y-66599900D02*
X159806000Y-67707800D01*
X158698100Y-59732100D02*
X158698100Y-66599900D01*
X169037900Y-76717700D02*
X170929000Y-78608800D01*
X159913000Y-72497000D02*
X165520100Y-72497000D01*
X157988000Y-53848000D02*
X155671000Y-56165000D01*
X170929000Y-80623000D02*
X170780000Y-80772000D01*
X159806000Y-67707800D02*
X159806000Y-72390000D01*
X169037900Y-76014800D02*
X169037900Y-76717700D01*
X170929000Y-78608800D02*
X170929000Y-80623000D01*
X157675000Y-58709000D02*
X158698100Y-59732100D01*
X159806000Y-72390000D02*
X159913000Y-72497000D01*
X155671000Y-58709000D02*
X157675000Y-58709000D01*
X165520100Y-72497000D02*
X169037900Y-76014800D01*
%TO.N,/SCL*%
X175260000Y-78994000D02*
X175260000Y-75946000D01*
X176254400Y-68881000D02*
X180111400Y-65024000D01*
X180111400Y-65024000D02*
X180340000Y-65024000D01*
X175514000Y-68881000D02*
X176254400Y-68881000D01*
X182141000Y-58143000D02*
X182141000Y-63223000D01*
X179832000Y-57661500D02*
X180313500Y-58143000D01*
X180313500Y-58143000D02*
X182141000Y-58143000D01*
X182141000Y-63223000D02*
X180340000Y-65024000D01*
X179832000Y-57197000D02*
X179832000Y-57661500D01*
X173990000Y-80264000D02*
X175260000Y-78994000D01*
X175260000Y-69135000D02*
X175514000Y-68881000D01*
X175260000Y-75946000D02*
X175260000Y-69135000D01*
%TO.N,/SDA*%
X176199160Y-68067500D02*
X178539000Y-65727660D01*
X179332000Y-58936000D02*
X180340000Y-59944000D01*
X174513000Y-77201000D02*
X174513000Y-68383340D01*
X178539000Y-61745000D02*
X180340000Y-59944000D01*
X173990000Y-77724000D02*
X174513000Y-77201000D01*
X177038000Y-59944000D02*
X180340000Y-59944000D01*
X179332000Y-57197000D02*
X179332000Y-58936000D01*
X174828840Y-68067500D02*
X176199160Y-68067500D01*
X174513000Y-68383340D02*
X174828840Y-68067500D01*
X178539000Y-65727660D02*
X178539000Y-61745000D01*
%TO.N,Net-(J10-In)*%
X171704000Y-56540000D02*
X173172000Y-58008000D01*
X171704000Y-53622500D02*
X171704000Y-56540000D01*
%TO.N,Net-(P1-D-)*%
X172977579Y-86871579D02*
X172977579Y-85888629D01*
X172889000Y-79807950D02*
X172977579Y-79719371D01*
X172977579Y-79719371D02*
X172977579Y-78423581D01*
X172889000Y-84887950D02*
X172977579Y-84799371D01*
X172889000Y-80720050D02*
X172889000Y-79807950D01*
X172977579Y-80808629D02*
X172889000Y-80720050D01*
X172977579Y-85888629D02*
X172889000Y-85800050D01*
X172977579Y-78423581D02*
X170434000Y-75880002D01*
X172977579Y-82259371D02*
X172977579Y-80808629D01*
X172889000Y-83260050D02*
X172889000Y-82347950D01*
X172889000Y-82347950D02*
X172977579Y-82259371D01*
X172977579Y-83348629D02*
X172889000Y-83260050D01*
X172977579Y-84799371D02*
X172977579Y-83348629D01*
X172889000Y-85800050D02*
X172889000Y-84887950D01*
%TO.N,Net-(P1-D+)*%
X169640664Y-75983071D02*
X172338397Y-78680804D01*
X172338397Y-78680804D02*
X172338397Y-86316163D01*
%TO.N,/PYR 1*%
X177546000Y-96202000D02*
X177560000Y-96216000D01*
X177546000Y-94234000D02*
X177546000Y-96202000D01*
%TO.N,/PYR 2*%
X177560000Y-104916000D02*
X177560000Y-106680000D01*
X176784000Y-103957457D02*
X176784000Y-104140000D01*
X176784000Y-104140000D02*
X177560000Y-104916000D01*
X175468543Y-102642000D02*
X176784000Y-103957457D01*
%TO.N,/CNT 1*%
X177546000Y-86106000D02*
X177546000Y-87376000D01*
X179484000Y-87376000D02*
X177546000Y-87376000D01*
D41*
%TO.N,/CNT 2*%
X174545000Y-98552000D02*
X176483000Y-98552000D01*
D40*
X173736000Y-98552000D02*
X174545000Y-98552000D01*
X170531000Y-93030000D02*
X171710000Y-94209000D01*
X171710000Y-94209000D02*
X171710000Y-96092527D01*
%TO.N,/SBAT*%
X169672000Y-110236000D02*
X167386000Y-107950000D01*
X166116000Y-107950000D02*
X164846000Y-106680000D01*
X169672000Y-112475000D02*
X169672000Y-110236000D01*
X164846000Y-100976735D02*
X165409000Y-100413735D01*
X167386000Y-107950000D02*
X166116000Y-107950000D01*
X164846000Y-106680000D02*
X164846000Y-100976735D01*
%TO.N,Net-(U4-NR{slash}FB)*%
X164445000Y-100527792D02*
X164445000Y-102255000D01*
X170170735Y-99812735D02*
X165160057Y-99812735D01*
X160558900Y-104398000D02*
X160056000Y-104900900D01*
X165160057Y-99812735D02*
X164445000Y-100527792D01*
X162302000Y-104398000D02*
X160558900Y-104398000D01*
X170434000Y-100076000D02*
X170170735Y-99812735D01*
X160056000Y-104900900D02*
X160056000Y-106200000D01*
X164445000Y-102255000D02*
X162302000Y-104398000D01*
%TO.N,Net-(U3-RESET)*%
X155416000Y-60452000D02*
X156972000Y-62008000D01*
X154686000Y-60452000D02*
X155416000Y-60452000D01*
%TO.N,/MOSI*%
X164232073Y-74273158D02*
X164232073Y-73914000D01*
X165049215Y-74625215D02*
X164584130Y-74625215D01*
X164232073Y-73914000D02*
X158496000Y-73914000D01*
X158306000Y-68008000D02*
X156972000Y-68008000D01*
X166872943Y-77078998D02*
X166872943Y-76448943D01*
X167894000Y-77562000D02*
X167498160Y-77562000D01*
X167191945Y-77398000D02*
X166872943Y-77078998D01*
X164584130Y-74625215D02*
X164232073Y-74273158D01*
X158496000Y-73914000D02*
X158496000Y-68198000D01*
X166872943Y-76448943D02*
X165049215Y-74625215D01*
X167498160Y-77562000D02*
X167334160Y-77398000D01*
X167334160Y-77398000D02*
X167191945Y-77398000D01*
X158496000Y-68198000D02*
X158306000Y-68008000D01*
%TO.N,/CS*%
X154686000Y-65833000D02*
X155147000Y-65833000D01*
X159405000Y-72898000D02*
X159405000Y-67873900D01*
X170180000Y-82296000D02*
X170180000Y-79844943D01*
X155147000Y-65833000D02*
X156972000Y-64008000D01*
X158273000Y-64293000D02*
X157988000Y-64008000D01*
X168636900Y-76883800D02*
X168636900Y-76180900D01*
X169819000Y-78065900D02*
X168636900Y-76883800D01*
X168636900Y-76180900D02*
X165354000Y-72898000D01*
X170180000Y-78486000D02*
X169819000Y-78125000D01*
X158273000Y-66741900D02*
X158273000Y-64293000D01*
X157988000Y-64008000D02*
X156972000Y-64008000D01*
X169819000Y-78125000D02*
X169819000Y-78065900D01*
X170528000Y-79496943D02*
X170528000Y-78999057D01*
X159405000Y-67873900D02*
X158273000Y-66741900D01*
X165354000Y-72898000D02*
X159405000Y-72898000D01*
X170180000Y-78651057D02*
X170180000Y-78486000D01*
X170434000Y-82550000D02*
X170180000Y-82296000D01*
X170180000Y-79844943D02*
X170528000Y-79496943D01*
X170528000Y-78999057D02*
X170180000Y-78651057D01*
%TO.N,/CLK*%
X169418000Y-78232000D02*
X168235900Y-77049900D01*
X169927000Y-79248000D02*
X169418000Y-78739000D01*
X168235900Y-76347000D02*
X165294900Y-73406000D01*
X165294900Y-73406000D02*
X159004000Y-73406000D01*
X159004000Y-73406000D02*
X159004000Y-68040000D01*
X168235900Y-77049900D02*
X168235900Y-76347000D01*
X159004000Y-68040000D02*
X156972000Y-66008000D01*
X169418000Y-78739000D02*
X169418000Y-78232000D01*
%TO.N,/MISO*%
X155465000Y-87647000D02*
X155465000Y-71515000D01*
X155465000Y-71515000D02*
X156972000Y-70008000D01*
X155956000Y-88138000D02*
X155465000Y-87647000D01*
%TO.N,Net-(D4-K)*%
X162052000Y-112776000D02*
X161036000Y-111760000D01*
X163869000Y-106203000D02*
X163866000Y-106200000D01*
X160725000Y-104799000D02*
X163197000Y-104799000D01*
X158786000Y-106200000D02*
X158786000Y-107000000D01*
X160725000Y-107601000D02*
X160725000Y-104799000D01*
X163866000Y-105468000D02*
X163866000Y-106200000D01*
X165862000Y-111760000D02*
X164592000Y-111760000D01*
X163576000Y-112776000D02*
X162052000Y-112776000D01*
X158786000Y-107000000D02*
X159387000Y-107601000D01*
X161586000Y-111760000D02*
X163869000Y-109477000D01*
X163869000Y-109477000D02*
X163869000Y-106203000D01*
X164592000Y-111760000D02*
X163576000Y-112776000D01*
X161036000Y-111760000D02*
X161586000Y-111760000D01*
X159387000Y-107601000D02*
X160725000Y-107601000D01*
X163197000Y-104799000D02*
X163866000Y-105468000D01*
%TO.N,Net-(D7-K)*%
X170531000Y-94930000D02*
X170531000Y-96363000D01*
X170531000Y-96363000D02*
X171196000Y-97028000D01*
D41*
%TO.N,Net-(PYR1-Pin_1)*%
X181309000Y-88947000D02*
X180340000Y-89916000D01*
D42*
X175260000Y-96216000D02*
X175260000Y-89916000D01*
X180340000Y-89916000D02*
X175260000Y-89916000D01*
D41*
X181309000Y-87376000D02*
X181309000Y-88947000D01*
D42*
%TO.N,Net-(PYR2-Pin_1)*%
X175260000Y-107188000D02*
X175260000Y-106188000D01*
X175260000Y-106188000D02*
X174244000Y-105172000D01*
X174244000Y-105172000D02*
X174244000Y-101904000D01*
X175260000Y-100888000D02*
X180036000Y-100888000D01*
X180036000Y-100888000D02*
X180340000Y-100584000D01*
D41*
X178308000Y-98552000D02*
X180340000Y-100584000D01*
D42*
X175464000Y-100584000D02*
X175260000Y-100380000D01*
X174244000Y-101904000D02*
X175260000Y-100888000D01*
%TD*%
M02*
