M48
INCH
T1C0.0118
T2C0.0138
T3C0.0197
T4C0.0236
T5C0.0315
T6C0.0394
T7C0.0598
%
G90
G05
T1
X6.14Y-3.47
X6.17Y-2.48
X6.18Y-2.8
X6.3Y-4.2603
X6.34Y-4.47
X6.46Y-3.4591
X6.4989Y-3.0511
X6.5122Y-3.9533
X6.61Y-3.0536
X6.67Y-3.46
X6.6788Y-2.9915
X6.69Y-3.12
X6.71Y-2.9874
X6.71Y-3.25
X6.7236Y-3.18
X6.74Y-3.82
X6.7602Y-3.7832
X6.785Y-3.3983
X6.79Y-2.95
X6.8101Y-3.4201
X6.84Y-3.88
X6.8697Y-2.92
X6.9Y-2.99
X6.9082Y-4.041
X6.99Y-2.24
X6.99Y-3.39
X6.99Y-3.71
X7.06Y-2.1
T3
X6.085Y-3.395
X6.96Y-2.57
X7.06Y-2.64
T5
X6.85Y-3.06
X6.85Y-3.16
X6.85Y-3.26
X6.85Y-3.36
X7.15Y-3.06
X7.15Y-3.16
X7.15Y-3.26
X7.15Y-3.36
T6
X6.62Y-3.58
X6.62Y-3.8261
T7
X6.16Y-3.9589
X6.16Y-4.1589
X6.22Y-2.12
X6.42Y-2.12
X6.86Y-4.45
X7.06Y-4.45
X7.1Y-2.36
X7.1Y-2.56
X7.1Y-3.54
X7.1Y-3.74
X7.1Y-3.96
X7.1Y-4.16
T2
G00X6.1219Y-3.6257
M15
G01X6.1219Y-3.5943
M16
G05
G00X6.3188Y-3.6248
M15
G01X6.3188Y-3.5952
M16
G05
T4
G00X6.26Y-4.3138
M15
G01X6.26Y-4.3571
M16
G05
G00X6.26Y-4.4843
M15
G01X6.26Y-4.5157
M16
G05
G00X6.6002Y-4.3138
M15
G01X6.6002Y-4.3571
M16
G05
G00X6.6002Y-4.4843
M15
G01X6.6002Y-4.5157
M16
G05
M30
