%TF.GenerationSoftware,KiCad,Pcbnew,9.0.0*%
%TF.CreationDate,2025-12-14T14:18:45-07:00*%
%TF.ProjectId,BCP FC,42435020-4643-42e6-9b69-6361645f7063,rev?*%
%TF.SameCoordinates,Original*%
%TF.FileFunction,Soldermask,Top*%
%TF.FilePolarity,Negative*%
%FSLAX46Y46*%
G04 Gerber Fmt 4.6, Leading zero omitted, Abs format (unit mm)*
G04 Created by KiCad (PCBNEW 9.0.0) date 2025-12-14 14:18:45*
%MOMM*%
%LPD*%
G01*
G04 APERTURE LIST*
G04 Aperture macros list*
%AMRoundRect*
0 Rectangle with rounded corners*
0 $1 Rounding radius*
0 $2 $3 $4 $5 $6 $7 $8 $9 X,Y pos of 4 corners*
0 Add a 4 corners polygon primitive as box body*
4,1,4,$2,$3,$4,$5,$6,$7,$8,$9,$2,$3,0*
0 Add four circle primitives for the rounded corners*
1,1,$1+$1,$2,$3*
1,1,$1+$1,$4,$5*
1,1,$1+$1,$6,$7*
1,1,$1+$1,$8,$9*
0 Add four rect primitives between the rounded corners*
20,1,$1+$1,$2,$3,$4,$5,0*
20,1,$1+$1,$4,$5,$6,$7,0*
20,1,$1+$1,$6,$7,$8,$9,0*
20,1,$1+$1,$8,$9,$2,$3,0*%
%AMFreePoly0*
4,1,6,0.725000,-0.725000,-0.725000,-0.725000,-0.725000,0.125000,-0.125000,0.725000,0.725000,0.725000,0.725000,-0.725000,0.725000,-0.725000,$1*%
G04 Aperture macros list end*
%ADD10RoundRect,0.250000X0.450000X-0.262500X0.450000X0.262500X-0.450000X0.262500X-0.450000X-0.262500X0*%
%ADD11R,3.000000X3.000000*%
%ADD12C,3.000000*%
%ADD13RoundRect,0.250000X0.475000X-0.250000X0.475000X0.250000X-0.475000X0.250000X-0.475000X-0.250000X0*%
%ADD14C,0.650000*%
%ADD15RoundRect,0.150000X-0.150000X-0.425000X0.150000X-0.425000X0.150000X0.425000X-0.150000X0.425000X0*%
%ADD16RoundRect,0.075000X-0.075000X-0.500000X0.075000X-0.500000X0.075000X0.500000X-0.075000X0.500000X0*%
%ADD17O,1.000000X2.100000*%
%ADD18O,1.000000X1.800000*%
%ADD19R,1.350000X2.150000*%
%ADD20O,1.350000X2.150000*%
%ADD21R,2.000000X2.000000*%
%ADD22C,2.000000*%
%ADD23RoundRect,0.243750X0.456250X-0.243750X0.456250X0.243750X-0.456250X0.243750X-0.456250X-0.243750X0*%
%ADD24RoundRect,0.250000X-0.475000X0.250000X-0.475000X-0.250000X0.475000X-0.250000X0.475000X0.250000X0*%
%ADD25R,0.400000X0.800000*%
%ADD26R,0.800000X0.400000*%
%ADD27FreePoly0,90.000000*%
%ADD28R,1.450000X1.450000*%
%ADD29R,0.700000X0.700000*%
%ADD30RoundRect,0.250000X0.550000X0.550000X-0.550000X0.550000X-0.550000X-0.550000X0.550000X-0.550000X0*%
%ADD31C,1.600000*%
%ADD32RoundRect,0.250000X0.250000X0.475000X-0.250000X0.475000X-0.250000X-0.475000X0.250000X-0.475000X0*%
%ADD33RoundRect,0.200000X0.800000X-0.200000X0.800000X0.200000X-0.800000X0.200000X-0.800000X-0.200000X0*%
%ADD34RoundRect,0.250000X-0.450000X0.262500X-0.450000X-0.262500X0.450000X-0.262500X0.450000X0.262500X0*%
%ADD35RoundRect,0.024930X-0.252070X-0.267070X0.252070X-0.267070X0.252070X0.267070X-0.252070X0.267070X0*%
%ADD36RoundRect,0.000001X-0.900000X-0.750000X0.900000X-0.750000X0.900000X0.750000X-0.900000X0.750000X0*%
%ADD37RoundRect,0.000001X-0.750000X-0.900000X0.750000X-0.900000X0.750000X0.900000X-0.750000X0.900000X0*%
%ADD38R,1.500000X5.080000*%
G04 APERTURE END LIST*
D10*
%TO.C,R6*%
X156972000Y-111402500D03*
X156972000Y-109577500D03*
%TD*%
D11*
%TO.C,I2c1*%
X180340000Y-59944000D03*
D12*
X180340000Y-65024000D03*
%TD*%
D13*
%TO.C,C7*%
X178562000Y-56134000D03*
X178562000Y-54234000D03*
%TD*%
D14*
%TO.C,P1*%
X160434000Y-110620000D03*
X166214000Y-110620000D03*
D15*
X160124000Y-109545000D03*
X160924000Y-109545000D03*
D16*
X162074000Y-109545000D03*
X163074000Y-109545000D03*
X163574000Y-109545000D03*
X164574000Y-109545000D03*
D15*
X165724000Y-109545000D03*
X166524000Y-109545000D03*
X166524000Y-109545000D03*
X165724000Y-109545000D03*
D16*
X165074000Y-109545000D03*
X164074000Y-109545000D03*
X162574000Y-109545000D03*
X161574000Y-109545000D03*
D15*
X160924000Y-109545000D03*
X160124000Y-109545000D03*
D17*
X159004000Y-110120000D03*
D18*
X159004000Y-114300000D03*
D17*
X167644000Y-110120000D03*
D18*
X167644000Y-114300000D03*
%TD*%
D11*
%TO.C,PYR1*%
X180340000Y-89916000D03*
D12*
X180340000Y-94996000D03*
%TD*%
D19*
%TO.C,C9*%
X155497500Y-91694000D03*
D20*
X160497500Y-91694000D03*
%TD*%
D11*
%TO.C,BT1*%
X179324000Y-113030000D03*
D12*
X174244000Y-113030000D03*
%TD*%
D10*
%TO.C,R9*%
X169672000Y-111476800D03*
X169672000Y-109651800D03*
%TD*%
D21*
%TO.C,BZ1*%
X168148000Y-90932000D03*
D22*
X168148000Y-97182000D03*
%TD*%
D11*
%TO.C,PYR2*%
X180340000Y-100584000D03*
D12*
X180340000Y-105664000D03*
%TD*%
D23*
%TO.C,D6*%
X156972000Y-115008500D03*
X156972000Y-113133500D03*
%TD*%
D24*
%TO.C,C5*%
X173482000Y-99822000D03*
X173482000Y-101722000D03*
%TD*%
D25*
%TO.C,U7*%
X162566000Y-86780000D03*
X163366000Y-86780000D03*
X164166000Y-86780000D03*
X164966000Y-86780000D03*
X165766000Y-86780000D03*
X166566000Y-86780000D03*
X167366000Y-86780000D03*
X168166000Y-86780000D03*
X168966000Y-86780000D03*
X169766000Y-86780000D03*
X170566000Y-86780000D03*
D26*
X171466000Y-85680000D03*
X171466000Y-84880000D03*
X171466000Y-84080000D03*
X171466000Y-83280000D03*
X171466000Y-82480000D03*
X171466000Y-81680000D03*
X171466000Y-80880000D03*
X171466000Y-80080000D03*
X171466000Y-79280000D03*
X171466000Y-78480000D03*
X171466000Y-77680000D03*
X171466000Y-76880000D03*
X171466000Y-76080000D03*
D25*
X170566000Y-74980000D03*
X169766000Y-74980000D03*
X168966000Y-74980000D03*
X168166000Y-74980000D03*
X167366000Y-74980000D03*
X166566000Y-74980000D03*
X165766000Y-74980000D03*
X164966000Y-74980000D03*
X164166000Y-74980000D03*
X163366000Y-74980000D03*
X162566000Y-74980000D03*
D26*
X161666000Y-76080000D03*
X161666000Y-76880000D03*
X161666000Y-77680000D03*
X161666000Y-78480000D03*
X161666000Y-79280000D03*
X161666000Y-80080000D03*
X161666000Y-80880000D03*
X161666000Y-81680000D03*
X161666000Y-82480000D03*
X161666000Y-83280000D03*
X161666000Y-84080000D03*
X161666000Y-84880000D03*
X161666000Y-85680000D03*
D27*
X164591000Y-82855000D03*
D28*
X166566000Y-82855000D03*
X168541000Y-82855000D03*
X164591000Y-80880000D03*
X166566000Y-80880000D03*
X168541000Y-80880000D03*
X164591000Y-78905000D03*
X166566000Y-78905000D03*
X168541000Y-78905000D03*
D29*
X161616000Y-74930000D03*
X171516000Y-74930000D03*
X171516000Y-86830000D03*
X161616000Y-86830000D03*
%TD*%
D11*
%TO.C,A33*%
X156464000Y-105636000D03*
D12*
X156464000Y-100556000D03*
%TD*%
D23*
%TO.C,D7*%
X169672000Y-115062000D03*
X169672000Y-113187000D03*
%TD*%
D30*
%TO.C,U2*%
X181610000Y-85344000D03*
D31*
X181610000Y-82804000D03*
X181610000Y-80264000D03*
X181610000Y-77724000D03*
X173990000Y-77724000D03*
X173990000Y-80264000D03*
X173990000Y-82804000D03*
X173990000Y-85344000D03*
%TD*%
D32*
%TO.C,C6*%
X163317000Y-101473000D03*
X161417000Y-101473000D03*
%TD*%
D33*
%TO.C,SW1*%
X173990000Y-107442000D03*
X173990000Y-103242000D03*
%TD*%
%TO.C,SW2*%
X162306000Y-107442000D03*
X162306000Y-103242000D03*
%TD*%
D34*
%TO.C,R20*%
X161544000Y-97743000D03*
X161544000Y-99568000D03*
%TD*%
D35*
%TO.C,U9*%
X180334000Y-55380000D03*
X180334000Y-55880000D03*
X180599000Y-56395000D03*
X181099000Y-56395000D03*
X181599000Y-56395000D03*
X181864000Y-55880000D03*
X181864000Y-55380000D03*
X181599000Y-54865000D03*
X181099000Y-54865000D03*
X180599000Y-54865000D03*
%TD*%
D36*
%TO.C,U5*%
X159091000Y-62236000D03*
X159091000Y-64136000D03*
X159091000Y-66036000D03*
X159091000Y-67936000D03*
X159091000Y-69836000D03*
D37*
X161891000Y-72636000D03*
X163791000Y-72636000D03*
X165691000Y-72636000D03*
X167591000Y-72636000D03*
X169491000Y-72636000D03*
D36*
X172291000Y-69836000D03*
X172291000Y-67936000D03*
X172291000Y-66036000D03*
X172291000Y-64136000D03*
X172291000Y-62236000D03*
D37*
X169491000Y-59436000D03*
X167591000Y-59436000D03*
X165691000Y-59436000D03*
X163791000Y-59436000D03*
X161891000Y-59436000D03*
%TD*%
D11*
%TO.C,ARM1*%
X157988000Y-53848000D03*
D12*
X163068000Y-53848000D03*
%TD*%
D38*
%TO.C,J10*%
X167454000Y-53368500D03*
X175954000Y-53368500D03*
%TD*%
M02*
