%TF.GenerationSoftware,KiCad,Pcbnew,9.0.0*%
%TF.CreationDate,2025-12-14T14:18:45-07:00*%
%TF.ProjectId,BCP FC,42435020-4643-42e6-9b69-6361645f7063,rev?*%
%TF.SameCoordinates,Original*%
%TF.FileFunction,Legend,Bot*%
%TF.FilePolarity,Positive*%
%FSLAX46Y46*%
G04 Gerber Fmt 4.6, Leading zero omitted, Abs format (unit mm)*
G04 Created by KiCad (PCBNEW 9.0.0) date 2025-12-14 14:18:45*
%MOMM*%
%LPD*%
G01*
G04 APERTURE LIST*
G04 Aperture macros list*
%AMRoundRect*
0 Rectangle with rounded corners*
0 $1 Rounding radius*
0 $2 $3 $4 $5 $6 $7 $8 $9 X,Y pos of 4 corners*
0 Add a 4 corners polygon primitive as box body*
4,1,4,$2,$3,$4,$5,$6,$7,$8,$9,$2,$3,0*
0 Add four circle primitives for the rounded corners*
1,1,$1+$1,$2,$3*
1,1,$1+$1,$4,$5*
1,1,$1+$1,$6,$7*
1,1,$1+$1,$8,$9*
0 Add four rect primitives between the rounded corners*
20,1,$1+$1,$2,$3,$4,$5,0*
20,1,$1+$1,$4,$5,$6,$7,0*
20,1,$1+$1,$6,$7,$8,$9,0*
20,1,$1+$1,$8,$9,$2,$3,0*%
G04 Aperture macros list end*
%ADD10C,0.200000*%
%ADD11C,0.150000*%
%ADD12C,0.120000*%
%ADD13C,0.127000*%
%ADD14C,0.010000*%
%ADD15R,3.000000X3.000000*%
%ADD16C,3.000000*%
%ADD17C,0.650000*%
%ADD18O,1.000000X2.100000*%
%ADD19O,1.000000X1.800000*%
%ADD20R,1.350000X2.150000*%
%ADD21O,1.350000X2.150000*%
%ADD22R,2.000000X2.000000*%
%ADD23C,2.000000*%
%ADD24RoundRect,0.250000X0.550000X0.550000X-0.550000X0.550000X-0.550000X-0.550000X0.550000X-0.550000X0*%
%ADD25C,1.600000*%
%ADD26RoundRect,0.375000X0.375000X-0.625000X0.375000X0.625000X-0.375000X0.625000X-0.375000X-0.625000X0*%
%ADD27RoundRect,0.500000X1.400000X-0.500000X1.400000X0.500000X-1.400000X0.500000X-1.400000X-0.500000X0*%
%ADD28RoundRect,0.250000X-0.262500X-0.450000X0.262500X-0.450000X0.262500X0.450000X-0.262500X0.450000X0*%
%ADD29RoundRect,0.250000X0.262500X0.450000X-0.262500X0.450000X-0.262500X-0.450000X0.262500X-0.450000X0*%
%ADD30RoundRect,0.250000X-0.450000X0.262500X-0.450000X-0.262500X0.450000X-0.262500X0.450000X0.262500X0*%
%ADD31RoundRect,0.250000X0.450000X-0.262500X0.450000X0.262500X-0.450000X0.262500X-0.450000X-0.262500X0*%
%ADD32RoundRect,0.150000X0.587500X0.150000X-0.587500X0.150000X-0.587500X-0.150000X0.587500X-0.150000X0*%
%ADD33RoundRect,0.250000X-0.300000X0.300000X-0.300000X-0.300000X0.300000X-0.300000X0.300000X0.300000X0*%
%ADD34RoundRect,0.250000X-0.475000X0.250000X-0.475000X-0.250000X0.475000X-0.250000X0.475000X0.250000X0*%
%ADD35RoundRect,0.250000X0.250000X0.475000X-0.250000X0.475000X-0.250000X-0.475000X0.250000X-0.475000X0*%
%ADD36R,0.475000X0.250000*%
%ADD37R,0.250000X0.475000*%
%ADD38R,2.000000X0.800000*%
%ADD39R,1.500000X5.080000*%
%ADD40RoundRect,0.250000X0.475000X-0.250000X0.475000X0.250000X-0.475000X0.250000X-0.475000X-0.250000X0*%
%ADD41RoundRect,0.250000X-0.250000X-0.475000X0.250000X-0.475000X0.250000X0.475000X-0.250000X0.475000X0*%
G04 APERTURE END LIST*
D10*
G36*
X155296770Y-80141928D02*
G01*
X155244152Y-80093055D01*
X155207561Y-80029638D01*
X155186376Y-79957770D01*
X155179259Y-79881810D01*
X155189792Y-79792600D01*
X155203500Y-79751358D01*
X155223223Y-79714931D01*
X155249567Y-79683774D01*
X155282849Y-79659335D01*
X155321944Y-79643837D01*
X155369769Y-79638361D01*
X155417419Y-79644573D01*
X155454984Y-79662057D01*
X155484898Y-79690842D01*
X155521004Y-79747660D01*
X155553958Y-79820902D01*
X155610561Y-79990895D01*
X155643247Y-80080071D01*
X155685941Y-80160796D01*
X155741571Y-80231829D01*
X155813619Y-80290947D01*
X155869040Y-80318854D01*
X155938385Y-80336883D01*
X156025011Y-80343429D01*
X156103581Y-80338208D01*
X156172555Y-80323283D01*
X156233381Y-80299373D01*
X156315146Y-80247364D01*
X156380934Y-80180763D01*
X156431782Y-80101124D01*
X156468861Y-80007656D01*
X156490739Y-79907134D01*
X156498170Y-79799927D01*
X156492982Y-79708424D01*
X156477539Y-79619777D01*
X156451825Y-79533397D01*
X156414111Y-79452460D01*
X156362462Y-79379302D01*
X156295754Y-79313029D01*
X156102589Y-79512423D01*
X156167853Y-79568223D01*
X156216986Y-79639368D01*
X156247636Y-79720478D01*
X156257836Y-79806247D01*
X156254725Y-79852211D01*
X156245288Y-79898571D01*
X156229479Y-79942901D01*
X156207644Y-79982468D01*
X156179037Y-80016637D01*
X156143713Y-80043376D01*
X156102699Y-80060532D01*
X156054778Y-80066457D01*
X156002744Y-80060170D01*
X155961722Y-80042574D01*
X155929115Y-80013976D01*
X155889496Y-79956823D01*
X155854835Y-79883825D01*
X155797316Y-79713832D01*
X155764813Y-79624573D01*
X155722944Y-79543839D01*
X155668316Y-79472850D01*
X155597372Y-79413779D01*
X155542528Y-79385906D01*
X155473524Y-79367863D01*
X155386896Y-79361298D01*
X155311354Y-79366887D01*
X155245610Y-79382848D01*
X155188052Y-79408467D01*
X155111251Y-79463179D01*
X155048833Y-79532298D01*
X155000794Y-79613609D01*
X154966127Y-79707512D01*
X154945733Y-79807146D01*
X154938924Y-79909012D01*
X154947930Y-80024882D01*
X154974828Y-80136708D01*
X155003694Y-80207393D01*
X155042818Y-80273297D01*
X155092797Y-80335002D01*
X155296770Y-80141928D01*
G37*
G36*
X156463000Y-80882808D02*
G01*
X155847508Y-80882808D01*
X155847508Y-81071669D01*
X155843266Y-81187826D01*
X155830838Y-81297258D01*
X155805931Y-81400509D01*
X155767091Y-81487126D01*
X155731575Y-81537786D01*
X155687593Y-81580994D01*
X155634284Y-81617277D01*
X155575136Y-81642816D01*
X155501009Y-81659475D01*
X155408512Y-81665546D01*
X155327246Y-81660028D01*
X155259367Y-81644587D01*
X155202615Y-81620391D01*
X155128030Y-81567382D01*
X155070907Y-81499766D01*
X155029325Y-81419493D01*
X155000840Y-81324552D01*
X154985241Y-81223674D01*
X154979957Y-81117831D01*
X154979957Y-81071669D01*
X155208568Y-81071669D01*
X155214796Y-81180754D01*
X155225017Y-81235521D01*
X155242640Y-81283611D01*
X155268991Y-81325689D01*
X155304464Y-81359174D01*
X155349453Y-81380617D01*
X155412725Y-81388574D01*
X155481277Y-81379697D01*
X155528221Y-81356060D01*
X155564076Y-81319088D01*
X155590045Y-81272071D01*
X155606383Y-81218979D01*
X155614775Y-81159780D01*
X155618896Y-81042269D01*
X155618896Y-80882808D01*
X155208568Y-80882808D01*
X155208568Y-81071669D01*
X154979957Y-81071669D01*
X154979957Y-80618385D01*
X156463000Y-80618385D01*
X156463000Y-80882808D01*
G37*
G36*
X154979957Y-81900660D02*
G01*
X154979957Y-82884898D01*
X155220292Y-82884898D01*
X155220292Y-82165083D01*
X155583725Y-82165083D01*
X155583725Y-82847071D01*
X155824060Y-82847071D01*
X155824060Y-82165083D01*
X156222665Y-82165083D01*
X156222665Y-82922633D01*
X156463000Y-82922633D01*
X156463000Y-81900660D01*
X154979957Y-81900660D01*
G37*
G36*
X155326171Y-84202801D02*
G01*
X155270792Y-84145165D01*
X155232659Y-84092648D01*
X155208660Y-84044349D01*
X155186512Y-83966994D01*
X155179259Y-83890110D01*
X155189764Y-83778600D01*
X155220017Y-83681282D01*
X155268853Y-83594181D01*
X155332949Y-83520814D01*
X155410603Y-83461558D01*
X155501202Y-83416950D01*
X155600028Y-83389572D01*
X155708106Y-83380222D01*
X155824036Y-83389651D01*
X155927650Y-83416950D01*
X156021933Y-83461742D01*
X156101123Y-83520814D01*
X156166194Y-83594205D01*
X156216070Y-83681282D01*
X156247082Y-83778652D01*
X156257836Y-83890110D01*
X156247233Y-83978507D01*
X156214879Y-84065323D01*
X156181934Y-84118722D01*
X156136718Y-84171439D01*
X156077401Y-84223776D01*
X156232740Y-84442037D01*
X156318187Y-84368729D01*
X156385024Y-84287166D01*
X156434973Y-84196482D01*
X156469959Y-84098330D01*
X156491044Y-83995840D01*
X156498170Y-83888003D01*
X156491764Y-83774384D01*
X156473088Y-83669490D01*
X156442666Y-83572197D01*
X156399975Y-83479857D01*
X156347643Y-83397630D01*
X156285496Y-83324535D01*
X156213802Y-83260779D01*
X156132734Y-83206621D01*
X156041314Y-83161869D01*
X155944693Y-83129736D01*
X155839646Y-83109963D01*
X155724867Y-83103159D01*
X155607250Y-83109974D01*
X155499769Y-83129761D01*
X155401093Y-83161869D01*
X155307555Y-83206738D01*
X155225119Y-83260916D01*
X155152698Y-83324535D01*
X155089900Y-83397703D01*
X155037244Y-83479932D01*
X154994520Y-83572197D01*
X154964047Y-83669494D01*
X154945341Y-83774387D01*
X154938924Y-83888003D01*
X154945067Y-83987649D01*
X154963089Y-84080716D01*
X154992688Y-84168180D01*
X155035236Y-84249708D01*
X155095230Y-84329624D01*
X155175046Y-84408515D01*
X155326171Y-84202801D01*
G37*
G36*
X155296770Y-85348697D02*
G01*
X155244152Y-85299824D01*
X155207561Y-85236407D01*
X155186376Y-85164539D01*
X155179259Y-85088579D01*
X155189792Y-84999369D01*
X155203500Y-84958127D01*
X155223223Y-84921700D01*
X155249567Y-84890543D01*
X155282849Y-84866104D01*
X155321944Y-84850606D01*
X155369769Y-84845130D01*
X155417419Y-84851342D01*
X155454984Y-84868826D01*
X155484898Y-84897611D01*
X155521004Y-84954429D01*
X155553958Y-85027671D01*
X155610561Y-85197664D01*
X155643247Y-85286840D01*
X155685941Y-85367565D01*
X155741571Y-85438598D01*
X155813619Y-85497716D01*
X155869040Y-85525623D01*
X155938385Y-85543652D01*
X156025011Y-85550198D01*
X156103581Y-85544977D01*
X156172555Y-85530052D01*
X156233381Y-85506142D01*
X156315146Y-85454133D01*
X156380934Y-85387532D01*
X156431782Y-85307893D01*
X156468861Y-85214425D01*
X156490739Y-85113903D01*
X156498170Y-85006696D01*
X156492982Y-84915193D01*
X156477539Y-84826546D01*
X156451825Y-84740166D01*
X156414111Y-84659229D01*
X156362462Y-84586071D01*
X156295754Y-84519798D01*
X156102589Y-84719192D01*
X156167853Y-84774992D01*
X156216986Y-84846137D01*
X156247636Y-84927247D01*
X156257836Y-85013016D01*
X156254725Y-85058980D01*
X156245288Y-85105340D01*
X156229479Y-85149670D01*
X156207644Y-85189237D01*
X156179037Y-85223406D01*
X156143713Y-85250145D01*
X156102699Y-85267301D01*
X156054778Y-85273226D01*
X156002744Y-85266939D01*
X155961722Y-85249343D01*
X155929115Y-85220745D01*
X155889496Y-85163592D01*
X155854835Y-85090594D01*
X155797316Y-84920601D01*
X155764813Y-84831342D01*
X155722944Y-84750608D01*
X155668316Y-84679619D01*
X155597372Y-84620548D01*
X155542528Y-84592675D01*
X155473524Y-84574632D01*
X155386896Y-84568067D01*
X155311354Y-84573656D01*
X155245610Y-84589617D01*
X155188052Y-84615236D01*
X155111251Y-84669948D01*
X155048833Y-84739067D01*
X155000794Y-84820378D01*
X154966127Y-84914281D01*
X154945733Y-85013915D01*
X154938924Y-85115781D01*
X154947930Y-85231651D01*
X154974828Y-85343477D01*
X155003694Y-85414162D01*
X155042818Y-85480066D01*
X155092797Y-85541771D01*
X155296770Y-85348697D01*
G37*
G36*
X157705933Y-78730164D02*
G01*
X157872751Y-78548325D01*
X157778962Y-78469984D01*
X157552304Y-78745551D01*
X157552304Y-78864498D01*
X158541000Y-78864498D01*
X158541000Y-78730164D01*
X157705933Y-78730164D01*
G37*
G36*
X158333882Y-79286794D02*
G01*
X158367143Y-79313613D01*
X158393568Y-79344495D01*
X158413749Y-79379850D01*
X158433035Y-79437623D01*
X158439394Y-79496659D01*
X158436852Y-79530246D01*
X158429014Y-79565230D01*
X158415933Y-79598752D01*
X158397812Y-79628856D01*
X158374571Y-79654922D01*
X158346460Y-79675750D01*
X158314049Y-79689255D01*
X158275691Y-79693946D01*
X158239499Y-79689565D01*
X158211247Y-79677350D01*
X158189046Y-79657554D01*
X158162265Y-79617939D01*
X158139098Y-79567306D01*
X158100019Y-79449765D01*
X158077210Y-79388270D01*
X158047324Y-79332284D01*
X158008167Y-79283128D01*
X157956771Y-79242036D01*
X157917158Y-79222793D01*
X157866787Y-79210237D01*
X157803020Y-79205644D01*
X157759190Y-79210137D01*
X157710330Y-79224512D01*
X157663762Y-79248528D01*
X157620448Y-79283985D01*
X157583862Y-79329129D01*
X157552366Y-79388215D01*
X157537651Y-79431523D01*
X157528278Y-79482174D01*
X157524949Y-79541417D01*
X157530570Y-79621255D01*
X157547175Y-79696694D01*
X157566627Y-79743296D01*
X157596298Y-79786476D01*
X157637423Y-79826814D01*
X157735975Y-79717699D01*
X157701394Y-79687744D01*
X157673571Y-79646319D01*
X157656078Y-79597825D01*
X157650002Y-79541417D01*
X157654031Y-79488099D01*
X157664778Y-79448360D01*
X157682126Y-79414165D01*
X157702697Y-79388887D01*
X157727132Y-79369595D01*
X157752523Y-79357441D01*
X157778867Y-79350487D01*
X157801676Y-79348343D01*
X157842222Y-79352790D01*
X157873811Y-79365100D01*
X157898519Y-79384735D01*
X157928540Y-79424632D01*
X157953290Y-79474983D01*
X157972952Y-79530285D01*
X157991087Y-79592463D01*
X158011331Y-79654159D01*
X158037859Y-79710005D01*
X158073000Y-79759411D01*
X158118765Y-79800253D01*
X158154492Y-79819516D01*
X158200345Y-79832052D01*
X158258960Y-79836645D01*
X158327528Y-79829626D01*
X158387310Y-79809351D01*
X158440214Y-79777134D01*
X158483541Y-79735895D01*
X158517732Y-79686151D01*
X158543503Y-79626780D01*
X158559117Y-79562316D01*
X158564447Y-79492446D01*
X158560688Y-79429665D01*
X158549558Y-79369662D01*
X158531108Y-79311951D01*
X158504454Y-79258286D01*
X158470315Y-79213412D01*
X158428342Y-79176274D01*
X158333882Y-79286794D01*
G37*
G36*
X157481963Y-80401518D02*
G01*
X157481963Y-80527425D01*
X158541000Y-80527425D01*
X158541000Y-80401518D01*
X157481963Y-80401518D01*
G37*
G36*
X157876659Y-80736619D02*
G01*
X157876659Y-80862526D01*
X158541000Y-80862526D01*
X158541000Y-80736619D01*
X157876659Y-80736619D01*
G37*
G36*
X157640232Y-80707249D02*
G01*
X157605391Y-80714030D01*
X157575569Y-80734543D01*
X157555157Y-80764542D01*
X157548397Y-80799634D01*
X157555154Y-80834673D01*
X157575569Y-80864663D01*
X157605391Y-80885176D01*
X157640232Y-80891958D01*
X157675084Y-80885178D01*
X157704956Y-80864663D01*
X157725323Y-80834678D01*
X157732067Y-80799634D01*
X157725320Y-80764537D01*
X157704956Y-80734543D01*
X157675084Y-80714028D01*
X157640232Y-80707249D01*
G37*
G36*
X158935696Y-81187858D02*
G01*
X158444890Y-81187858D01*
X158444890Y-81190667D01*
X158476397Y-81215804D01*
X158503577Y-81247671D01*
X158526589Y-81287203D01*
X158549080Y-81352067D01*
X158556631Y-81421476D01*
X158549794Y-81495850D01*
X158530131Y-81560694D01*
X158498281Y-81618753D01*
X158456797Y-81667001D01*
X158406140Y-81705783D01*
X158346399Y-81734840D01*
X158280950Y-81752574D01*
X158208829Y-81758653D01*
X158137886Y-81752600D01*
X158072664Y-81734840D01*
X158012805Y-81705814D01*
X157961594Y-81667001D01*
X157919539Y-81618697D01*
X157887589Y-81560694D01*
X157867879Y-81495847D01*
X157861027Y-81421476D01*
X157862716Y-81406150D01*
X157978264Y-81406150D01*
X157982772Y-81454756D01*
X157995727Y-81497008D01*
X158016551Y-81534764D01*
X158043233Y-81565579D01*
X158075983Y-81590185D01*
X158115895Y-81608993D01*
X158159842Y-81620434D01*
X158208829Y-81624381D01*
X158257816Y-81620434D01*
X158301764Y-81608993D01*
X158341675Y-81590185D01*
X158374426Y-81565579D01*
X158401108Y-81534764D01*
X158421931Y-81497008D01*
X158434886Y-81454756D01*
X158439394Y-81406150D01*
X158434886Y-81357482D01*
X158421931Y-81315169D01*
X158401115Y-81277454D01*
X158374426Y-81246598D01*
X158341680Y-81222041D01*
X158301764Y-81203245D01*
X158257816Y-81191804D01*
X158208829Y-81187858D01*
X158159842Y-81191804D01*
X158115895Y-81203245D01*
X158075978Y-81222041D01*
X158043233Y-81246598D01*
X158016544Y-81277454D01*
X157995727Y-81315169D01*
X157982772Y-81357482D01*
X157978264Y-81406150D01*
X157862716Y-81406150D01*
X157868294Y-81355533D01*
X157890398Y-81290684D01*
X157912991Y-81250688D01*
X157940377Y-81217609D01*
X157972769Y-81190667D01*
X157972769Y-81187858D01*
X157876659Y-81187858D01*
X157876659Y-81061951D01*
X158935696Y-81061951D01*
X158935696Y-81187858D01*
G37*
G36*
X158279624Y-81891527D02*
G01*
X158345056Y-81911916D01*
X158404624Y-81944436D01*
X158455392Y-81986776D01*
X158497071Y-82038225D01*
X158529398Y-82098700D01*
X158549725Y-82165004D01*
X158556631Y-82237186D01*
X158549725Y-82309368D01*
X158529398Y-82375672D01*
X158497071Y-82436147D01*
X158455392Y-82487596D01*
X158404624Y-82529936D01*
X158345056Y-82562456D01*
X158279624Y-82582845D01*
X158208829Y-82589751D01*
X158138138Y-82582829D01*
X158073336Y-82562456D01*
X158014210Y-82530009D01*
X157962999Y-82487596D01*
X157920737Y-82436095D01*
X157888260Y-82375672D01*
X157867934Y-82309368D01*
X157861027Y-82237186D01*
X157978264Y-82237186D01*
X157982774Y-82285845D01*
X157995727Y-82328105D01*
X158016551Y-82365861D01*
X158043233Y-82396677D01*
X158075978Y-82421234D01*
X158115895Y-82440030D01*
X158159842Y-82451471D01*
X158208829Y-82455417D01*
X158257816Y-82451471D01*
X158301764Y-82440030D01*
X158341680Y-82421234D01*
X158374426Y-82396677D01*
X158401108Y-82365861D01*
X158421931Y-82328105D01*
X158434885Y-82285845D01*
X158439394Y-82237186D01*
X158434886Y-82188518D01*
X158421931Y-82146206D01*
X158401111Y-82108501D01*
X158374426Y-82077695D01*
X158341680Y-82053138D01*
X158301764Y-82034342D01*
X158257816Y-82022901D01*
X158208829Y-82018955D01*
X158159842Y-82022901D01*
X158115895Y-82034342D01*
X158075978Y-82053138D01*
X158043233Y-82077695D01*
X158016547Y-82108501D01*
X157995727Y-82146206D01*
X157982772Y-82188518D01*
X157978264Y-82237186D01*
X157861027Y-82237186D01*
X157867934Y-82165004D01*
X157888260Y-82098700D01*
X157920737Y-82038277D01*
X157962999Y-81986776D01*
X158014210Y-81944363D01*
X158073336Y-81911916D01*
X158138138Y-81891543D01*
X158208829Y-81884621D01*
X158279624Y-81891527D01*
G37*
G36*
X158117526Y-83112057D02*
G01*
X158185771Y-83124948D01*
X158250106Y-83146136D01*
X158311208Y-83175355D01*
X158365969Y-83210750D01*
X158414970Y-83252443D01*
X158457891Y-83300336D01*
X158494400Y-83354465D01*
X158524635Y-83415475D01*
X158546505Y-83479976D01*
X158559873Y-83549202D01*
X158564447Y-83623936D01*
X158559874Y-83698629D01*
X158546506Y-83767835D01*
X158524635Y-83832336D01*
X158494398Y-83893343D01*
X158457888Y-83947451D01*
X158414970Y-83995307D01*
X158365966Y-84037036D01*
X158311204Y-84072451D01*
X158250106Y-84101675D01*
X158185771Y-84122862D01*
X158117526Y-84135754D01*
X158044698Y-84140143D01*
X157971870Y-84135754D01*
X157903625Y-84122862D01*
X157839290Y-84101675D01*
X157778192Y-84072451D01*
X157723430Y-84037036D01*
X157674426Y-83995307D01*
X157631508Y-83947451D01*
X157594998Y-83893343D01*
X157564761Y-83832336D01*
X157542890Y-83767835D01*
X157529522Y-83698629D01*
X157524949Y-83623936D01*
X157650002Y-83623936D01*
X157653657Y-83680107D01*
X157664265Y-83731148D01*
X157681509Y-83777809D01*
X157718624Y-83841768D01*
X157766200Y-83895290D01*
X157823651Y-83938377D01*
X157891497Y-83970822D01*
X157965313Y-83990700D01*
X158044698Y-83997444D01*
X158124092Y-83990701D01*
X158197960Y-83970822D01*
X158265765Y-83938383D01*
X158323257Y-83895290D01*
X158370798Y-83841775D01*
X158407948Y-83777809D01*
X158425158Y-83731151D01*
X158435746Y-83680109D01*
X158439394Y-83623936D01*
X158435745Y-83567721D01*
X158425157Y-83516661D01*
X158407948Y-83470002D01*
X158370801Y-83406025D01*
X158323257Y-83352460D01*
X158265772Y-83309401D01*
X158197960Y-83276928D01*
X158124094Y-83257095D01*
X158044698Y-83250366D01*
X157965310Y-83257096D01*
X157891497Y-83276928D01*
X157823644Y-83309407D01*
X157766200Y-83352460D01*
X157718621Y-83406032D01*
X157681509Y-83470002D01*
X157664266Y-83516664D01*
X157653658Y-83567724D01*
X157650002Y-83623936D01*
X157524949Y-83623936D01*
X157529523Y-83549202D01*
X157542891Y-83479976D01*
X157564761Y-83415475D01*
X157594996Y-83354465D01*
X157631505Y-83300336D01*
X157674426Y-83252443D01*
X157723427Y-83210750D01*
X157778188Y-83175355D01*
X157839290Y-83146136D01*
X157903625Y-83124948D01*
X157971870Y-83112057D01*
X158044698Y-83107668D01*
X158117526Y-83112057D01*
G37*
G36*
X157552304Y-84333767D02*
G01*
X157552304Y-84510049D01*
X158365023Y-85055626D01*
X158365023Y-85058435D01*
X157552304Y-85058435D01*
X157552304Y-85192769D01*
X158541000Y-85192769D01*
X158541000Y-85022104D01*
X157728281Y-84470909D01*
X157728281Y-84468100D01*
X158541000Y-84468100D01*
X158541000Y-84333767D01*
X157552304Y-84333767D01*
G37*
G36*
X157552304Y-85447514D02*
G01*
X157552304Y-85581848D01*
X158415947Y-85581848D01*
X158415947Y-86036506D01*
X158541000Y-86036506D01*
X158541000Y-85447514D01*
X157552304Y-85447514D01*
G37*
G36*
X158119253Y-86251684D02*
G01*
X157552304Y-85876771D01*
X157552304Y-86048840D01*
X157986629Y-86318850D01*
X157552304Y-86597287D01*
X157552304Y-86760930D01*
X158119253Y-86386017D01*
X158541000Y-86386017D01*
X158541000Y-86251684D01*
X158119253Y-86251684D01*
G37*
G36*
X159232304Y-78356778D02*
G01*
X159232304Y-78496668D01*
X160022674Y-78714899D01*
X160022674Y-78717708D01*
X159232304Y-78951387D01*
X159232304Y-79105260D01*
X160022674Y-79338878D01*
X160022674Y-79341687D01*
X159232304Y-79559918D01*
X159232304Y-79699808D01*
X160221000Y-79411663D01*
X160221000Y-79270307D01*
X159413838Y-79029728D01*
X159413838Y-79026919D01*
X160221000Y-78787683D01*
X160221000Y-78646389D01*
X159232304Y-78356778D01*
G37*
G36*
X159556659Y-79806542D02*
G01*
X159556659Y-79932450D01*
X160221000Y-79932450D01*
X160221000Y-79806542D01*
X159556659Y-79806542D01*
G37*
G36*
X159320232Y-79777172D02*
G01*
X159285391Y-79783953D01*
X159255569Y-79804466D01*
X159235157Y-79834465D01*
X159228397Y-79869557D01*
X159235154Y-79904597D01*
X159255569Y-79934587D01*
X159285391Y-79955100D01*
X159320232Y-79961881D01*
X159355084Y-79955102D01*
X159384956Y-79934587D01*
X159405323Y-79904601D01*
X159412067Y-79869557D01*
X159405320Y-79834460D01*
X159384956Y-79804466D01*
X159355084Y-79783951D01*
X159320232Y-79777172D01*
G37*
G36*
X159232304Y-80164053D02*
G01*
X159232304Y-80786628D01*
X159357357Y-80786628D01*
X159357357Y-80298386D01*
X159666080Y-80298386D01*
X159666080Y-80753044D01*
X159791132Y-80753044D01*
X159791132Y-80298386D01*
X160221000Y-80298386D01*
X160221000Y-80164053D01*
X159232304Y-80164053D01*
G37*
G36*
X159556659Y-80944714D02*
G01*
X159556659Y-81070621D01*
X160221000Y-81070621D01*
X160221000Y-80944714D01*
X159556659Y-80944714D01*
G37*
G36*
X159320232Y-80915344D02*
G01*
X159285391Y-80922125D01*
X159255569Y-80942638D01*
X159235157Y-80972637D01*
X159228397Y-81007729D01*
X159235154Y-81042768D01*
X159255569Y-81072758D01*
X159285391Y-81093271D01*
X159320232Y-81100052D01*
X159355084Y-81093273D01*
X159384956Y-81072758D01*
X159405323Y-81042773D01*
X159412067Y-81007729D01*
X159405320Y-80972632D01*
X159384956Y-80942638D01*
X159355084Y-80922123D01*
X159320232Y-80915344D01*
G37*
G36*
X159232304Y-81691059D02*
G01*
X159232304Y-82330426D01*
X159357357Y-82330426D01*
X159357357Y-81825393D01*
X159654356Y-81825393D01*
X159654356Y-82295438D01*
X159779408Y-82295438D01*
X159779408Y-81825393D01*
X160095947Y-81825393D01*
X160095947Y-82355583D01*
X160221000Y-82355583D01*
X160221000Y-81691059D01*
X159232304Y-81691059D01*
G37*
G36*
X159556659Y-82513730D02*
G01*
X159556659Y-82639637D01*
X159659974Y-82639637D01*
X159659974Y-82642446D01*
X159627413Y-82661686D01*
X159598844Y-82688786D01*
X159573939Y-82724939D01*
X159555942Y-82765310D01*
X159544865Y-82810250D01*
X159541027Y-82860677D01*
X159544727Y-82907501D01*
X159555743Y-82952329D01*
X159574515Y-82993754D01*
X159601172Y-83029266D01*
X159635609Y-83058325D01*
X159680246Y-83081717D01*
X159731169Y-83096121D01*
X159794246Y-83101317D01*
X160221000Y-83101317D01*
X160221000Y-82975410D01*
X159829051Y-82975410D01*
X159784778Y-82972039D01*
X159749977Y-82962832D01*
X159719599Y-82947748D01*
X159696793Y-82929248D01*
X159679240Y-82906624D01*
X159667362Y-82880949D01*
X159660552Y-82853251D01*
X159658264Y-82824285D01*
X159661491Y-82786148D01*
X159670904Y-82751562D01*
X159687074Y-82720197D01*
X159710776Y-82692760D01*
X159740986Y-82670830D01*
X159780080Y-82653620D01*
X159824213Y-82643374D01*
X159879426Y-82639637D01*
X160221000Y-82639637D01*
X160221000Y-82513730D01*
X159556659Y-82513730D01*
G37*
G36*
X160085649Y-83263964D02*
G01*
X160124585Y-83277416D01*
X160158602Y-83298991D01*
X160186561Y-83327059D01*
X160208273Y-83360799D01*
X160224114Y-83400515D01*
X160233462Y-83443287D01*
X160236631Y-83488686D01*
X160229721Y-83561160D01*
X160210192Y-83621555D01*
X160189145Y-83657079D01*
X160159427Y-83690110D01*
X160119700Y-83720900D01*
X160119700Y-83723709D01*
X160221000Y-83727922D01*
X160221000Y-83839847D01*
X160165068Y-83835633D01*
X160100649Y-83834229D01*
X159762067Y-83834229D01*
X159719544Y-83830191D01*
X159678841Y-83818109D01*
X159641494Y-83797845D01*
X159608194Y-83768467D01*
X159581177Y-83731237D01*
X159559224Y-83682432D01*
X159545902Y-83627094D01*
X159541027Y-83557197D01*
X159547047Y-83487761D01*
X159565452Y-83417307D01*
X159596094Y-83351386D01*
X159638725Y-83294208D01*
X159716882Y-83369740D01*
X159690748Y-83404728D01*
X159666690Y-83445272D01*
X159649532Y-83494915D01*
X159644476Y-83523412D01*
X159642632Y-83558601D01*
X159645801Y-83597507D01*
X159654539Y-83628577D01*
X159668785Y-83655841D01*
X159686779Y-83677486D01*
X159708403Y-83694703D01*
X159732270Y-83706856D01*
X159757697Y-83714273D01*
X159782645Y-83716687D01*
X159810672Y-83716687D01*
X159810672Y-83649520D01*
X159904461Y-83649520D01*
X159904461Y-83716687D01*
X159945616Y-83716687D01*
X159978510Y-83714266D01*
X160012233Y-83706856D01*
X160044239Y-83693953D01*
X160073294Y-83674677D01*
X160097789Y-83649286D01*
X160117868Y-83615937D01*
X160130454Y-83577169D01*
X160135026Y-83527826D01*
X160131909Y-83484520D01*
X160123394Y-83450381D01*
X160110357Y-83423596D01*
X160091017Y-83402705D01*
X160064792Y-83389816D01*
X160029330Y-83385128D01*
X159993951Y-83391408D01*
X159966254Y-83409613D01*
X159944658Y-83436966D01*
X159927786Y-83472566D01*
X159916458Y-83512363D01*
X159909285Y-83557868D01*
X159904461Y-83649520D01*
X159810672Y-83649520D01*
X159810672Y-83624363D01*
X159813717Y-83550087D01*
X159822517Y-83482336D01*
X159838627Y-83418805D01*
X159861535Y-83366199D01*
X159893039Y-83321372D01*
X159931816Y-83287858D01*
X159961789Y-83272369D01*
X159997110Y-83262657D01*
X160038978Y-83259220D01*
X160085649Y-83263964D01*
G37*
G36*
X160221000Y-84143196D02*
G01*
X160124890Y-84143196D01*
X160124890Y-84146005D01*
X160157287Y-84172945D01*
X160184693Y-84206024D01*
X160207322Y-84246022D01*
X160229379Y-84310868D01*
X160236631Y-84376815D01*
X160229794Y-84451189D01*
X160210131Y-84516033D01*
X160178133Y-84574038D01*
X160136064Y-84622340D01*
X160084967Y-84661195D01*
X160025727Y-84690178D01*
X159960858Y-84707898D01*
X159888829Y-84713992D01*
X159816708Y-84707912D01*
X159751259Y-84690178D01*
X159691529Y-84661118D01*
X159640923Y-84622340D01*
X159599403Y-84574085D01*
X159567589Y-84516033D01*
X159547879Y-84451186D01*
X159541027Y-84376815D01*
X159542695Y-84361488D01*
X159658264Y-84361488D01*
X159662772Y-84410094D01*
X159675727Y-84452347D01*
X159696551Y-84490102D01*
X159723233Y-84520918D01*
X159755983Y-84545524D01*
X159795895Y-84564332D01*
X159839842Y-84575773D01*
X159888829Y-84579719D01*
X159937816Y-84575773D01*
X159981764Y-84564332D01*
X160021675Y-84545524D01*
X160054426Y-84520918D01*
X160081108Y-84490102D01*
X160101931Y-84452347D01*
X160114886Y-84410094D01*
X160119394Y-84361488D01*
X160114886Y-84312821D01*
X160101931Y-84270508D01*
X160081115Y-84232792D01*
X160054426Y-84201937D01*
X160021680Y-84177379D01*
X159981764Y-84158584D01*
X159937816Y-84147143D01*
X159888829Y-84143196D01*
X159839842Y-84147143D01*
X159795895Y-84158584D01*
X159755978Y-84177379D01*
X159723233Y-84201937D01*
X159696544Y-84232792D01*
X159675727Y-84270508D01*
X159662772Y-84312821D01*
X159658264Y-84361488D01*
X159542695Y-84361488D01*
X159548579Y-84307405D01*
X159571069Y-84242542D01*
X159594081Y-84203009D01*
X159621261Y-84171143D01*
X159652769Y-84146005D01*
X159652769Y-84143196D01*
X159161963Y-84143196D01*
X159161963Y-84017289D01*
X160221000Y-84017289D01*
X160221000Y-84143196D01*
G37*
G36*
X159161963Y-84881909D02*
G01*
X159161963Y-85007816D01*
X160221000Y-85007816D01*
X160221000Y-84881909D01*
X159161963Y-84881909D01*
G37*
G36*
X159960953Y-85174104D02*
G01*
X160026399Y-85191792D01*
X160086142Y-85220896D01*
X160136797Y-85259691D01*
X160178202Y-85308201D01*
X160210131Y-85367402D01*
X160229796Y-85433637D01*
X160236631Y-85509430D01*
X160230821Y-85584224D01*
X160214179Y-85649600D01*
X160187336Y-85707153D01*
X160150168Y-85758112D01*
X160101809Y-85803254D01*
X160029513Y-85708121D01*
X160069737Y-85669422D01*
X160100405Y-85628315D01*
X160120269Y-85582020D01*
X160127210Y-85526221D01*
X160123736Y-85483503D01*
X160113349Y-85442263D01*
X160096526Y-85403822D01*
X160074515Y-85370944D01*
X160046940Y-85343163D01*
X160014126Y-85321241D01*
X159977149Y-85307170D01*
X159935724Y-85302373D01*
X159935724Y-85834028D01*
X159890905Y-85834028D01*
X159827107Y-85829653D01*
X159764265Y-85816504D01*
X159704992Y-85793529D01*
X159652341Y-85759840D01*
X159607741Y-85715726D01*
X159571863Y-85659822D01*
X159555305Y-85618135D01*
X159544773Y-85568947D01*
X159541027Y-85510834D01*
X159541291Y-85508025D01*
X159642632Y-85508025D01*
X159646478Y-85553724D01*
X159657226Y-85591251D01*
X159674792Y-85624334D01*
X159697465Y-85650724D01*
X159725200Y-85671446D01*
X159757793Y-85686384D01*
X159793611Y-85695559D01*
X159834119Y-85699695D01*
X159834119Y-85302373D01*
X159801100Y-85305941D01*
X159766830Y-85317027D01*
X159734523Y-85334616D01*
X159705098Y-85358304D01*
X159680180Y-85387521D01*
X159659974Y-85423395D01*
X159647064Y-85463321D01*
X159642632Y-85508025D01*
X159541291Y-85508025D01*
X159547802Y-85438765D01*
X159567589Y-85373692D01*
X159599374Y-85314807D01*
X159640923Y-85265248D01*
X159691550Y-85224926D01*
X159751259Y-85193929D01*
X159816802Y-85174631D01*
X159888829Y-85168039D01*
X159960953Y-85174104D01*
G37*
G36*
X159960861Y-85958809D02*
G01*
X160025727Y-85976483D01*
X160084973Y-86005501D01*
X160136064Y-86044322D01*
X160178136Y-86092673D01*
X160210131Y-86150689D01*
X160229794Y-86215534D01*
X160236631Y-86289908D01*
X160229380Y-86355801D01*
X160207322Y-86420639D01*
X160184690Y-86460676D01*
X160157283Y-86493774D01*
X160124890Y-86520717D01*
X160124890Y-86523526D01*
X160221000Y-86523526D01*
X160221000Y-86649433D01*
X159161963Y-86649433D01*
X159161963Y-86523526D01*
X159652769Y-86523526D01*
X159652769Y-86520717D01*
X159621261Y-86495580D01*
X159594081Y-86463713D01*
X159571069Y-86424180D01*
X159548579Y-86359317D01*
X159542701Y-86305295D01*
X159658264Y-86305295D01*
X159662774Y-86353954D01*
X159675727Y-86396214D01*
X159696551Y-86433970D01*
X159723233Y-86464786D01*
X159755978Y-86489343D01*
X159795895Y-86508139D01*
X159839842Y-86519580D01*
X159888829Y-86523526D01*
X159937816Y-86519580D01*
X159981764Y-86508139D01*
X160021680Y-86489343D01*
X160054426Y-86464786D01*
X160081108Y-86433970D01*
X160101931Y-86396214D01*
X160114885Y-86353954D01*
X160119394Y-86305295D01*
X160114886Y-86256627D01*
X160101931Y-86214315D01*
X160081111Y-86176610D01*
X160054426Y-86145804D01*
X160021680Y-86121247D01*
X159981764Y-86102451D01*
X159937816Y-86091010D01*
X159888829Y-86087064D01*
X159839842Y-86091010D01*
X159795895Y-86102451D01*
X159755978Y-86121247D01*
X159723233Y-86145804D01*
X159696547Y-86176610D01*
X159675727Y-86214315D01*
X159662772Y-86256627D01*
X159658264Y-86305295D01*
X159542701Y-86305295D01*
X159541027Y-86289908D01*
X159547879Y-86215537D01*
X159567589Y-86150689D01*
X159599400Y-86092626D01*
X159640923Y-86044322D01*
X159691523Y-86005578D01*
X159751259Y-85976483D01*
X159816706Y-85958795D01*
X159888829Y-85952730D01*
X159960861Y-85958809D01*
G37*
G36*
X161280687Y-77095616D02*
G01*
X161327378Y-77105125D01*
X161368062Y-77120237D01*
X161423173Y-77152752D01*
X161466369Y-77192289D01*
X161499941Y-77239097D01*
X161523217Y-77290902D01*
X161536999Y-77345650D01*
X161541474Y-77398613D01*
X161535564Y-77458769D01*
X161519004Y-77507728D01*
X161519004Y-77513346D01*
X161901000Y-77264340D01*
X161901000Y-77422426D01*
X161504715Y-77672836D01*
X161436144Y-77713442D01*
X161368184Y-77744888D01*
X161296071Y-77765160D01*
X161257180Y-77770341D01*
X161212051Y-77772182D01*
X161141771Y-77765161D01*
X161080405Y-77744888D01*
X161025569Y-77712708D01*
X160979593Y-77671432D01*
X160942673Y-77621739D01*
X160915174Y-77563721D01*
X160898456Y-77500601D01*
X160892765Y-77432257D01*
X160892770Y-77432196D01*
X161010002Y-77432196D01*
X161013999Y-77476944D01*
X161025511Y-77516155D01*
X161044152Y-77551537D01*
X161068498Y-77581245D01*
X161098412Y-77605249D01*
X161134016Y-77623194D01*
X161173305Y-77634140D01*
X161217120Y-77637910D01*
X161260934Y-77634140D01*
X161300223Y-77623194D01*
X161335827Y-77605249D01*
X161365741Y-77581245D01*
X161390087Y-77551537D01*
X161408728Y-77516155D01*
X161420240Y-77476944D01*
X161424237Y-77432196D01*
X161420242Y-77387494D01*
X161408728Y-77348238D01*
X161390090Y-77312907D01*
X161365741Y-77283208D01*
X161335830Y-77259191D01*
X161300223Y-77241198D01*
X161260937Y-77230298D01*
X161217120Y-77226544D01*
X161173302Y-77230298D01*
X161134016Y-77241198D01*
X161098409Y-77259191D01*
X161068498Y-77283208D01*
X161044149Y-77312907D01*
X161025511Y-77348238D01*
X161013997Y-77387494D01*
X161010002Y-77432196D01*
X160892770Y-77432196D01*
X160898307Y-77363835D01*
X160914564Y-77300732D01*
X160941569Y-77242746D01*
X160978433Y-77193021D01*
X161025093Y-77151968D01*
X161083030Y-77119565D01*
X161148639Y-77099403D01*
X161226950Y-77092271D01*
X161280687Y-77095616D01*
G37*
G36*
X161484244Y-77871901D02*
G01*
X161572554Y-77882519D01*
X161659485Y-77902614D01*
X161739005Y-77934237D01*
X161787638Y-77962821D01*
X161829884Y-77997458D01*
X161866317Y-78038468D01*
X161893476Y-78085211D01*
X161910548Y-78141557D01*
X161916631Y-78209865D01*
X161910545Y-78278214D01*
X161893471Y-78334557D01*
X161866317Y-78381263D01*
X161829878Y-78422306D01*
X161787632Y-78456941D01*
X161739005Y-78485493D01*
X161659481Y-78517163D01*
X161572554Y-78537273D01*
X161484244Y-78547891D01*
X161404698Y-78551256D01*
X161291430Y-78545638D01*
X161233111Y-78537780D01*
X161176026Y-78525366D01*
X161120452Y-78508201D01*
X161067643Y-78486226D01*
X161018914Y-78458036D01*
X160977395Y-78423212D01*
X160942968Y-78381534D01*
X160915846Y-78332292D01*
X160898830Y-78277000D01*
X160892771Y-78209926D01*
X161010002Y-78209926D01*
X161015115Y-78253801D01*
X161029602Y-78289672D01*
X161052424Y-78320515D01*
X161082114Y-78346336D01*
X161116710Y-78366954D01*
X161156303Y-78383400D01*
X161241666Y-78405076D01*
X161328433Y-78414846D01*
X161404698Y-78416983D01*
X161520897Y-78410694D01*
X161587044Y-78400683D01*
X161650345Y-78383400D01*
X161708512Y-78356972D01*
X161756041Y-78321118D01*
X161779720Y-78291155D01*
X161794250Y-78254722D01*
X161799394Y-78209926D01*
X161794252Y-78165129D01*
X161779722Y-78128674D01*
X161756041Y-78098674D01*
X161708516Y-78062868D01*
X161650345Y-78036453D01*
X161587044Y-78019170D01*
X161520897Y-78009159D01*
X161404698Y-78002870D01*
X161328433Y-78004946D01*
X161241666Y-78014776D01*
X161156303Y-78036453D01*
X161116710Y-78052899D01*
X161082114Y-78073517D01*
X161052424Y-78099338D01*
X161029602Y-78130181D01*
X161015115Y-78166052D01*
X161010002Y-78209926D01*
X160892771Y-78209926D01*
X160892765Y-78209865D01*
X160898828Y-78142785D01*
X160915846Y-78087500D01*
X160942965Y-78038247D01*
X160977395Y-77996519D01*
X161018910Y-77961743D01*
X161067643Y-77933566D01*
X161120450Y-77911576D01*
X161176026Y-77894365D01*
X161233108Y-77881982D01*
X161291430Y-77874093D01*
X161404698Y-77868536D01*
X161484244Y-77871901D01*
G37*
G36*
X161484244Y-78649570D02*
G01*
X161572554Y-78660188D01*
X161659485Y-78680284D01*
X161739005Y-78711907D01*
X161787638Y-78740490D01*
X161829884Y-78775127D01*
X161866317Y-78816137D01*
X161893476Y-78862880D01*
X161910548Y-78919226D01*
X161916631Y-78987535D01*
X161910545Y-79055884D01*
X161893471Y-79112226D01*
X161866317Y-79158932D01*
X161829878Y-79199975D01*
X161787632Y-79234610D01*
X161739005Y-79263163D01*
X161659481Y-79294832D01*
X161572554Y-79314942D01*
X161484244Y-79325560D01*
X161404698Y-79328925D01*
X161291430Y-79323307D01*
X161233111Y-79315449D01*
X161176026Y-79303035D01*
X161120452Y-79285870D01*
X161067643Y-79263895D01*
X161018914Y-79235706D01*
X160977395Y-79200881D01*
X160942968Y-79159203D01*
X160915846Y-79109961D01*
X160898830Y-79054669D01*
X160892771Y-78987596D01*
X161010002Y-78987596D01*
X161015115Y-79031470D01*
X161029602Y-79067341D01*
X161052424Y-79098184D01*
X161082114Y-79124005D01*
X161116710Y-79144623D01*
X161156303Y-79161069D01*
X161241666Y-79182746D01*
X161328433Y-79192515D01*
X161404698Y-79194653D01*
X161520897Y-79188363D01*
X161587044Y-79178353D01*
X161650345Y-79161069D01*
X161708512Y-79134641D01*
X161756041Y-79098787D01*
X161779720Y-79068824D01*
X161794250Y-79032392D01*
X161799394Y-78987596D01*
X161794252Y-78942798D01*
X161779722Y-78906344D01*
X161756041Y-78876343D01*
X161708516Y-78840538D01*
X161650345Y-78814122D01*
X161587044Y-78796839D01*
X161520897Y-78786828D01*
X161404698Y-78780539D01*
X161328433Y-78782615D01*
X161241666Y-78792446D01*
X161156303Y-78814122D01*
X161116710Y-78830568D01*
X161082114Y-78851186D01*
X161052424Y-78877007D01*
X161029602Y-78907850D01*
X161015115Y-78943721D01*
X161010002Y-78987596D01*
X160892771Y-78987596D01*
X160892765Y-78987535D01*
X160898828Y-78920454D01*
X160915846Y-78865169D01*
X160942965Y-78815916D01*
X160977395Y-78774188D01*
X161018910Y-78739412D01*
X161067643Y-78711235D01*
X161120450Y-78689246D01*
X161176026Y-78672034D01*
X161233108Y-78659651D01*
X161291430Y-78651762D01*
X161404698Y-78646205D01*
X161484244Y-78649570D01*
G37*
G36*
X160912304Y-79493850D02*
G01*
X160912304Y-79693885D01*
X161660787Y-80008653D01*
X161660787Y-80014270D01*
X160912304Y-80326230D01*
X160912304Y-80526326D01*
X161901000Y-80526326D01*
X161901000Y-80391992D01*
X161088281Y-80391992D01*
X161088281Y-80389183D01*
X161901000Y-80054815D01*
X161901000Y-79965300D01*
X161088281Y-79630931D01*
X161088281Y-79628123D01*
X161901000Y-79628123D01*
X161901000Y-79493850D01*
X160912304Y-79493850D01*
G37*
G36*
X160912304Y-80771729D02*
G01*
X160912304Y-80906062D01*
X161322632Y-80906062D01*
X161322632Y-81419461D01*
X160912304Y-81419461D01*
X160912304Y-81553794D01*
X161901000Y-81553794D01*
X161901000Y-81419461D01*
X161447685Y-81419461D01*
X161447685Y-80906062D01*
X161901000Y-80906062D01*
X161901000Y-80771729D01*
X160912304Y-80771729D01*
G37*
G36*
X161787366Y-81729954D02*
G01*
X161346080Y-82106272D01*
X161346080Y-81742533D01*
X161236659Y-81742533D01*
X161236659Y-82260206D01*
X161348889Y-82260206D01*
X161791579Y-81881019D01*
X161791579Y-82279745D01*
X161901000Y-82279745D01*
X161901000Y-81729954D01*
X161787366Y-81729954D01*
G37*
G36*
X161901000Y-82875637D02*
G01*
X161654803Y-82973578D01*
X161654803Y-83445028D01*
X161901000Y-83544373D01*
X161901000Y-83701055D01*
X160912304Y-83277172D01*
X160912304Y-83208601D01*
X161085473Y-83208601D01*
X161085473Y-83211409D01*
X161537566Y-83396057D01*
X161537566Y-83021144D01*
X161085473Y-83208601D01*
X160912304Y-83208601D01*
X160912304Y-83155417D01*
X161901000Y-82718955D01*
X161901000Y-82875637D01*
G37*
G36*
X161236659Y-83797470D02*
G01*
X161236659Y-83923377D01*
X161339974Y-83923377D01*
X161339974Y-83926186D01*
X161307413Y-83945426D01*
X161278844Y-83972526D01*
X161253939Y-84008679D01*
X161235942Y-84049050D01*
X161224865Y-84093990D01*
X161221027Y-84144417D01*
X161224727Y-84191241D01*
X161235743Y-84236069D01*
X161254515Y-84277494D01*
X161281172Y-84313006D01*
X161315609Y-84342065D01*
X161360246Y-84365457D01*
X161411169Y-84379861D01*
X161474246Y-84385057D01*
X161901000Y-84385057D01*
X161901000Y-84259150D01*
X161509051Y-84259150D01*
X161464778Y-84255779D01*
X161429977Y-84246572D01*
X161399599Y-84231488D01*
X161376793Y-84212988D01*
X161359240Y-84190364D01*
X161347362Y-84164689D01*
X161340552Y-84136991D01*
X161338264Y-84108025D01*
X161341491Y-84069888D01*
X161350904Y-84035302D01*
X161367074Y-84003937D01*
X161390776Y-83976500D01*
X161420986Y-83954570D01*
X161460080Y-83937360D01*
X161504213Y-83927114D01*
X161559426Y-83923377D01*
X161901000Y-83923377D01*
X161901000Y-83797470D01*
X161236659Y-83797470D01*
G37*
G36*
X161346080Y-84930513D02*
G01*
X161346080Y-84750017D01*
X161646865Y-84750017D01*
X161702186Y-84751422D01*
X161728489Y-84754845D01*
X161751157Y-84761924D01*
X161770781Y-84773496D01*
X161786144Y-84789890D01*
X161795669Y-84811485D01*
X161799394Y-84845150D01*
X161795242Y-84891251D01*
X161789224Y-84914194D01*
X161779855Y-84934665D01*
X161894283Y-84934665D01*
X161904548Y-84910219D01*
X161911746Y-84876596D01*
X161916631Y-84821336D01*
X161910888Y-84753227D01*
X161896359Y-84708740D01*
X161872507Y-84673448D01*
X161843908Y-84650000D01*
X161810125Y-84635058D01*
X161771917Y-84627590D01*
X161691500Y-84624110D01*
X161346080Y-84624110D01*
X161346080Y-84478602D01*
X161236659Y-84478602D01*
X161236659Y-84624110D01*
X161049080Y-84624110D01*
X161049080Y-84750017D01*
X161236659Y-84750017D01*
X161236659Y-84930513D01*
X161346080Y-84930513D01*
G37*
G36*
X161640953Y-85059798D02*
G01*
X161706399Y-85077486D01*
X161766142Y-85106590D01*
X161816797Y-85145385D01*
X161858202Y-85193895D01*
X161890131Y-85253096D01*
X161909796Y-85319331D01*
X161916631Y-85395124D01*
X161910821Y-85469918D01*
X161894179Y-85535294D01*
X161867336Y-85592847D01*
X161830168Y-85643806D01*
X161781809Y-85688948D01*
X161709513Y-85593815D01*
X161749737Y-85555116D01*
X161780405Y-85514009D01*
X161800269Y-85467714D01*
X161807210Y-85411915D01*
X161803736Y-85369197D01*
X161793349Y-85327957D01*
X161776526Y-85289516D01*
X161754515Y-85256638D01*
X161726940Y-85228857D01*
X161694126Y-85206934D01*
X161657149Y-85192864D01*
X161615724Y-85188067D01*
X161615724Y-85719722D01*
X161570905Y-85719722D01*
X161507107Y-85715347D01*
X161444265Y-85702198D01*
X161384992Y-85679223D01*
X161332341Y-85645534D01*
X161287741Y-85601420D01*
X161251863Y-85545516D01*
X161235305Y-85503829D01*
X161224773Y-85454641D01*
X161221027Y-85396528D01*
X161221291Y-85393719D01*
X161322632Y-85393719D01*
X161326478Y-85439418D01*
X161337226Y-85476945D01*
X161354792Y-85510027D01*
X161377465Y-85536418D01*
X161405200Y-85557140D01*
X161437793Y-85572078D01*
X161473611Y-85581253D01*
X161514119Y-85585389D01*
X161514119Y-85188067D01*
X161481100Y-85191635D01*
X161446830Y-85202721D01*
X161414523Y-85220310D01*
X161385098Y-85243998D01*
X161360180Y-85273215D01*
X161339974Y-85309089D01*
X161327064Y-85349015D01*
X161322632Y-85393719D01*
X161221291Y-85393719D01*
X161227802Y-85324458D01*
X161247589Y-85259386D01*
X161279374Y-85200501D01*
X161320923Y-85150942D01*
X161371550Y-85110620D01*
X161431259Y-85079623D01*
X161496802Y-85060325D01*
X161568829Y-85053733D01*
X161640953Y-85059798D01*
G37*
G36*
X161236659Y-85870603D02*
G01*
X161236659Y-85996511D01*
X161339974Y-85996511D01*
X161339974Y-85999319D01*
X161307413Y-86018559D01*
X161278844Y-86045659D01*
X161253939Y-86081812D01*
X161235942Y-86122183D01*
X161224865Y-86167124D01*
X161221027Y-86217550D01*
X161224727Y-86264374D01*
X161235743Y-86309202D01*
X161254515Y-86350627D01*
X161281172Y-86386139D01*
X161315609Y-86415198D01*
X161360246Y-86438590D01*
X161411169Y-86452994D01*
X161474246Y-86458191D01*
X161901000Y-86458191D01*
X161901000Y-86332283D01*
X161509051Y-86332283D01*
X161464778Y-86328913D01*
X161429977Y-86319705D01*
X161399599Y-86304622D01*
X161376793Y-86286122D01*
X161359240Y-86263497D01*
X161347362Y-86237822D01*
X161340552Y-86210124D01*
X161338264Y-86181158D01*
X161341491Y-86143022D01*
X161350904Y-86108435D01*
X161367074Y-86077071D01*
X161390776Y-86049633D01*
X161420986Y-86027703D01*
X161460080Y-86010493D01*
X161504213Y-86000247D01*
X161559426Y-85996511D01*
X161901000Y-85996511D01*
X161901000Y-85870603D01*
X161236659Y-85870603D01*
G37*
G36*
X161236659Y-86648273D02*
G01*
X161236659Y-86774180D01*
X161339974Y-86774180D01*
X161339974Y-86776989D01*
X161307413Y-86796228D01*
X161278844Y-86823328D01*
X161253939Y-86859482D01*
X161235942Y-86899852D01*
X161224865Y-86944793D01*
X161221027Y-86995220D01*
X161224727Y-87042044D01*
X161235743Y-87086872D01*
X161254515Y-87128297D01*
X161281172Y-87163808D01*
X161315609Y-87192867D01*
X161360246Y-87216259D01*
X161411169Y-87230663D01*
X161474246Y-87235860D01*
X161901000Y-87235860D01*
X161901000Y-87109953D01*
X161509051Y-87109953D01*
X161464778Y-87106582D01*
X161429977Y-87097374D01*
X161399599Y-87082291D01*
X161376793Y-87063791D01*
X161359240Y-87041166D01*
X161347362Y-87015492D01*
X161340552Y-86987793D01*
X161338264Y-86958827D01*
X161341491Y-86920691D01*
X161350904Y-86886104D01*
X161367074Y-86854740D01*
X161390776Y-86827303D01*
X161420986Y-86805373D01*
X161460080Y-86788163D01*
X161504213Y-86777916D01*
X161559426Y-86774180D01*
X161901000Y-86774180D01*
X161901000Y-86648273D01*
X161236659Y-86648273D01*
G37*
G36*
X161765649Y-87398507D02*
G01*
X161804585Y-87411959D01*
X161838602Y-87433534D01*
X161866561Y-87461601D01*
X161888273Y-87495342D01*
X161904114Y-87535057D01*
X161913462Y-87577830D01*
X161916631Y-87623229D01*
X161909721Y-87695702D01*
X161890192Y-87756097D01*
X161869145Y-87791622D01*
X161839427Y-87824652D01*
X161799700Y-87855443D01*
X161799700Y-87858252D01*
X161901000Y-87862465D01*
X161901000Y-87974389D01*
X161845068Y-87970176D01*
X161780649Y-87968772D01*
X161442067Y-87968772D01*
X161399544Y-87964734D01*
X161358841Y-87952652D01*
X161321494Y-87932387D01*
X161288194Y-87903009D01*
X161261177Y-87865779D01*
X161239224Y-87816975D01*
X161225902Y-87761637D01*
X161221027Y-87691739D01*
X161227047Y-87622304D01*
X161245452Y-87551849D01*
X161276094Y-87485929D01*
X161318725Y-87428751D01*
X161396882Y-87504283D01*
X161370748Y-87539270D01*
X161346690Y-87579815D01*
X161329532Y-87629457D01*
X161324476Y-87657954D01*
X161322632Y-87693143D01*
X161325801Y-87732049D01*
X161334539Y-87763119D01*
X161348785Y-87790383D01*
X161366779Y-87812029D01*
X161388403Y-87829246D01*
X161412270Y-87841399D01*
X161437697Y-87848816D01*
X161462645Y-87851230D01*
X161490672Y-87851230D01*
X161490672Y-87784063D01*
X161584461Y-87784063D01*
X161584461Y-87851230D01*
X161625616Y-87851230D01*
X161658510Y-87848808D01*
X161692233Y-87841399D01*
X161724239Y-87828496D01*
X161753294Y-87809220D01*
X161777789Y-87783828D01*
X161797868Y-87750479D01*
X161810454Y-87711711D01*
X161815026Y-87662369D01*
X161811909Y-87619062D01*
X161803394Y-87584923D01*
X161790357Y-87558138D01*
X161771017Y-87537248D01*
X161744792Y-87524359D01*
X161709330Y-87519670D01*
X161673951Y-87525950D01*
X161646254Y-87544155D01*
X161624658Y-87571509D01*
X161607786Y-87607109D01*
X161596458Y-87646906D01*
X161589285Y-87692411D01*
X161584461Y-87784063D01*
X161490672Y-87784063D01*
X161490672Y-87758906D01*
X161493717Y-87684629D01*
X161502517Y-87616879D01*
X161518627Y-87553348D01*
X161541535Y-87500741D01*
X161573039Y-87455914D01*
X161611816Y-87422400D01*
X161641789Y-87406912D01*
X161677110Y-87397200D01*
X161718978Y-87393763D01*
X161765649Y-87398507D01*
G37*
G36*
X162592304Y-75126788D02*
G01*
X162592304Y-75326823D01*
X163340787Y-75641591D01*
X163340787Y-75647209D01*
X162592304Y-75959168D01*
X162592304Y-76159264D01*
X163581000Y-76159264D01*
X163581000Y-76024930D01*
X162768281Y-76024930D01*
X162768281Y-76022122D01*
X163581000Y-75687753D01*
X163581000Y-75598238D01*
X162768281Y-75263870D01*
X162768281Y-75261061D01*
X163581000Y-75261061D01*
X163581000Y-75126788D01*
X162592304Y-75126788D01*
G37*
G36*
X163445649Y-76345053D02*
G01*
X163484585Y-76358505D01*
X163518602Y-76380080D01*
X163546561Y-76408147D01*
X163568273Y-76441888D01*
X163584114Y-76481603D01*
X163593462Y-76524376D01*
X163596631Y-76569775D01*
X163589721Y-76642249D01*
X163570192Y-76702643D01*
X163549145Y-76738168D01*
X163519427Y-76771198D01*
X163479700Y-76801989D01*
X163479700Y-76804798D01*
X163581000Y-76809011D01*
X163581000Y-76920935D01*
X163525068Y-76916722D01*
X163460649Y-76915318D01*
X163122067Y-76915318D01*
X163079544Y-76911280D01*
X163038841Y-76899198D01*
X163001494Y-76878933D01*
X162968194Y-76849555D01*
X162941177Y-76812325D01*
X162919224Y-76763521D01*
X162905902Y-76708183D01*
X162901027Y-76638285D01*
X162907047Y-76568850D01*
X162925452Y-76498395D01*
X162956094Y-76432475D01*
X162998725Y-76375297D01*
X163076882Y-76450829D01*
X163050748Y-76485817D01*
X163026690Y-76526361D01*
X163009532Y-76576003D01*
X163004476Y-76604500D01*
X163002632Y-76639690D01*
X163005801Y-76678595D01*
X163014539Y-76709665D01*
X163028785Y-76736929D01*
X163046779Y-76758575D01*
X163068403Y-76775792D01*
X163092270Y-76787945D01*
X163117697Y-76795362D01*
X163142645Y-76797776D01*
X163170672Y-76797776D01*
X163170672Y-76730609D01*
X163264461Y-76730609D01*
X163264461Y-76797776D01*
X163305616Y-76797776D01*
X163338510Y-76795354D01*
X163372233Y-76787945D01*
X163404239Y-76775042D01*
X163433294Y-76755766D01*
X163457789Y-76730374D01*
X163477868Y-76697026D01*
X163490454Y-76658257D01*
X163495026Y-76608915D01*
X163491909Y-76565608D01*
X163483394Y-76531470D01*
X163470357Y-76504684D01*
X163451017Y-76483794D01*
X163424792Y-76470905D01*
X163389330Y-76466216D01*
X163353951Y-76472496D01*
X163326254Y-76490701D01*
X163304658Y-76518055D01*
X163287786Y-76553655D01*
X163276458Y-76593452D01*
X163269285Y-76638957D01*
X163264461Y-76730609D01*
X163170672Y-76730609D01*
X163170672Y-76705452D01*
X163173717Y-76631175D01*
X163182517Y-76563425D01*
X163198627Y-76499894D01*
X163221535Y-76447287D01*
X163253039Y-76402461D01*
X163291816Y-76368946D01*
X163321789Y-76353458D01*
X163357110Y-76343746D01*
X163398978Y-76340309D01*
X163445649Y-76345053D01*
G37*
G36*
X163226420Y-77280278D02*
G01*
X162916659Y-77045194D01*
X162916659Y-77207493D01*
X163152109Y-77368388D01*
X162916659Y-77526474D01*
X162916659Y-77678943D01*
X163226420Y-77452347D01*
X163581000Y-77720953D01*
X163581000Y-77558653D01*
X163302074Y-77362771D01*
X163581000Y-77166949D01*
X163581000Y-77011610D01*
X163226420Y-77280278D01*
G37*
G36*
X163338711Y-78323622D02*
G01*
X163384490Y-78342511D01*
X163419108Y-78363835D01*
X163444590Y-78387308D01*
X163462922Y-78415938D01*
X163474934Y-78454362D01*
X163479394Y-78505522D01*
X163476031Y-78543724D01*
X163466144Y-78578917D01*
X163450304Y-78611464D01*
X163429813Y-78639794D01*
X163404389Y-78663534D01*
X163373882Y-78681804D01*
X163339610Y-78693238D01*
X163300487Y-78697191D01*
X163260204Y-78693980D01*
X163227876Y-78685110D01*
X163201935Y-78671302D01*
X163169386Y-78641693D01*
X163146003Y-78604807D01*
X163130609Y-78562688D01*
X163121579Y-78515292D01*
X163115961Y-78418755D01*
X162998725Y-78418755D01*
X162995796Y-78492212D01*
X162988222Y-78544662D01*
X162974680Y-78590309D01*
X162958119Y-78621598D01*
X162935811Y-78645565D01*
X162909087Y-78660738D01*
X162878505Y-78669063D01*
X162843264Y-78671973D01*
X162792153Y-78666143D01*
X162752942Y-78650065D01*
X162722791Y-78624407D01*
X162700553Y-78590710D01*
X162686944Y-78551566D01*
X162682186Y-78505522D01*
X162685683Y-78470115D01*
X162696005Y-78437455D01*
X162713327Y-78406848D01*
X162749236Y-78368370D01*
X162795515Y-78340414D01*
X162749658Y-78203332D01*
X162691088Y-78234804D01*
X162645149Y-78274508D01*
X162610134Y-78322950D01*
X162585229Y-78378097D01*
X162570117Y-78437682D01*
X162564949Y-78502713D01*
X162569022Y-78561942D01*
X162581069Y-78618118D01*
X162601717Y-78670455D01*
X162630712Y-78715326D01*
X162668396Y-78752746D01*
X162715342Y-78781822D01*
X162769331Y-78799887D01*
X162834960Y-78806307D01*
X162885569Y-78801036D01*
X162931810Y-78785505D01*
X162974789Y-78759412D01*
X163011487Y-78724978D01*
X163039297Y-78684487D01*
X163058747Y-78636986D01*
X163061556Y-78636986D01*
X163073594Y-78681179D01*
X163092270Y-78719540D01*
X163117475Y-78753193D01*
X163148140Y-78781089D01*
X163183465Y-78803086D01*
X163222878Y-78818885D01*
X163264958Y-78828268D01*
X163310195Y-78831464D01*
X163378388Y-78824353D01*
X163435248Y-78804170D01*
X163484741Y-78772137D01*
X163524702Y-78731385D01*
X163555704Y-78682922D01*
X163578496Y-78626483D01*
X163592035Y-78565915D01*
X163596631Y-78501309D01*
X163590632Y-78427198D01*
X163573295Y-78361223D01*
X163545035Y-78301945D01*
X163516157Y-78262937D01*
X163480021Y-78230175D01*
X163435735Y-78203270D01*
X163381942Y-78182327D01*
X163338711Y-78323622D01*
G37*
G36*
X163588815Y-79090117D02*
G01*
X163582068Y-79055020D01*
X163561704Y-79025026D01*
X163531836Y-79004559D01*
X163496980Y-78997793D01*
X163462134Y-79004561D01*
X163432317Y-79025026D01*
X163411905Y-79055025D01*
X163405145Y-79090117D01*
X163411907Y-79125199D01*
X163432317Y-79155147D01*
X163462139Y-79175660D01*
X163496980Y-79182441D01*
X163531832Y-79175662D01*
X163561704Y-79155147D01*
X163582066Y-79125203D01*
X163588815Y-79090117D01*
G37*
G36*
X163338711Y-79490126D02*
G01*
X163384490Y-79509014D01*
X163419108Y-79530339D01*
X163444590Y-79553812D01*
X163462922Y-79582442D01*
X163474934Y-79620866D01*
X163479394Y-79672026D01*
X163476031Y-79710228D01*
X163466144Y-79745421D01*
X163450304Y-79777968D01*
X163429813Y-79806298D01*
X163404389Y-79830037D01*
X163373882Y-79848308D01*
X163339610Y-79859742D01*
X163300487Y-79863695D01*
X163260204Y-79860484D01*
X163227876Y-79851613D01*
X163201935Y-79837805D01*
X163169386Y-79808197D01*
X163146003Y-79771310D01*
X163130609Y-79729192D01*
X163121579Y-79681795D01*
X163115961Y-79585258D01*
X162998725Y-79585258D01*
X162995796Y-79658715D01*
X162988222Y-79711166D01*
X162974680Y-79756813D01*
X162958119Y-79788102D01*
X162935811Y-79812069D01*
X162909087Y-79827242D01*
X162878505Y-79835567D01*
X162843264Y-79838477D01*
X162792153Y-79832647D01*
X162752942Y-79816569D01*
X162722791Y-79790911D01*
X162700553Y-79757213D01*
X162686944Y-79718070D01*
X162682186Y-79672026D01*
X162685683Y-79636619D01*
X162696005Y-79603959D01*
X162713327Y-79573352D01*
X162749236Y-79534874D01*
X162795515Y-79506917D01*
X162749658Y-79369836D01*
X162691088Y-79401308D01*
X162645149Y-79441012D01*
X162610134Y-79489454D01*
X162585229Y-79544601D01*
X162570117Y-79604186D01*
X162564949Y-79669217D01*
X162569022Y-79728445D01*
X162581069Y-79784622D01*
X162601717Y-79836959D01*
X162630712Y-79881830D01*
X162668396Y-79919250D01*
X162715342Y-79948325D01*
X162769331Y-79966391D01*
X162834960Y-79972811D01*
X162885569Y-79967539D01*
X162931810Y-79952009D01*
X162974789Y-79925916D01*
X163011487Y-79891482D01*
X163039297Y-79850991D01*
X163058747Y-79803489D01*
X163061556Y-79803489D01*
X163073594Y-79847683D01*
X163092270Y-79886043D01*
X163117475Y-79919697D01*
X163148140Y-79947593D01*
X163183465Y-79969589D01*
X163222878Y-79985389D01*
X163264958Y-79994771D01*
X163310195Y-79997968D01*
X163378388Y-79990857D01*
X163435248Y-79970674D01*
X163484741Y-79938641D01*
X163524702Y-79897889D01*
X163555704Y-79849426D01*
X163578496Y-79792987D01*
X163592035Y-79732419D01*
X163596631Y-79667812D01*
X163590632Y-79593702D01*
X163573295Y-79527726D01*
X163545035Y-79468449D01*
X163516157Y-79429441D01*
X163480021Y-79396679D01*
X163435735Y-79369774D01*
X163381942Y-79348831D01*
X163338711Y-79490126D01*
G37*
G36*
X162916659Y-80077530D02*
G01*
X162916659Y-80223037D01*
X163425417Y-80421668D01*
X162916659Y-80611933D01*
X162916659Y-80746267D01*
X163581000Y-80486026D01*
X163581000Y-80347540D01*
X162916659Y-80077530D01*
G37*
G36*
X163319624Y-81220348D02*
G01*
X163385056Y-81240736D01*
X163444624Y-81273257D01*
X163495392Y-81315597D01*
X163537071Y-81367046D01*
X163569398Y-81427521D01*
X163589725Y-81493825D01*
X163596631Y-81566007D01*
X163589725Y-81638189D01*
X163569398Y-81704492D01*
X163537071Y-81764968D01*
X163495392Y-81816417D01*
X163444624Y-81858757D01*
X163385056Y-81891277D01*
X163319624Y-81911666D01*
X163248829Y-81918571D01*
X163178138Y-81911649D01*
X163113336Y-81891277D01*
X163054210Y-81858830D01*
X163002999Y-81816417D01*
X162960737Y-81764915D01*
X162928260Y-81704492D01*
X162907934Y-81638189D01*
X162901027Y-81566007D01*
X163018264Y-81566007D01*
X163022774Y-81614666D01*
X163035727Y-81656926D01*
X163056551Y-81694682D01*
X163083233Y-81725497D01*
X163115978Y-81750055D01*
X163155895Y-81768850D01*
X163199842Y-81780291D01*
X163248829Y-81784238D01*
X163297816Y-81780291D01*
X163341764Y-81768850D01*
X163381680Y-81750055D01*
X163414426Y-81725497D01*
X163441108Y-81694682D01*
X163461931Y-81656926D01*
X163474885Y-81614666D01*
X163479394Y-81566007D01*
X163474886Y-81517339D01*
X163461931Y-81475026D01*
X163441111Y-81437322D01*
X163414426Y-81406516D01*
X163381680Y-81381959D01*
X163341764Y-81363163D01*
X163297816Y-81351722D01*
X163248829Y-81347776D01*
X163199842Y-81351722D01*
X163155895Y-81363163D01*
X163115978Y-81381959D01*
X163083233Y-81406516D01*
X163056547Y-81437322D01*
X163035727Y-81475026D01*
X163022772Y-81517339D01*
X163018264Y-81566007D01*
X162901027Y-81566007D01*
X162907934Y-81493825D01*
X162928260Y-81427521D01*
X162960737Y-81367098D01*
X163002999Y-81315597D01*
X163054210Y-81273184D01*
X163113336Y-81240736D01*
X163178138Y-81220364D01*
X163248829Y-81213442D01*
X163319624Y-81220348D01*
G37*
G36*
X163581000Y-82664611D02*
G01*
X163581000Y-82538704D01*
X163477990Y-82538704D01*
X163477990Y-82535895D01*
X163510466Y-82516658D01*
X163538975Y-82489541D01*
X163563841Y-82453341D01*
X163581767Y-82413016D01*
X163592806Y-82368096D01*
X163596631Y-82317664D01*
X163592893Y-82269712D01*
X163581915Y-82225279D01*
X163563185Y-82184475D01*
X163536486Y-82149076D01*
X163502059Y-82120013D01*
X163457474Y-82096624D01*
X163406497Y-82082219D01*
X163343412Y-82077024D01*
X162916659Y-82077024D01*
X162916659Y-82202931D01*
X163308608Y-82202931D01*
X163352888Y-82206300D01*
X163387742Y-82215510D01*
X163418080Y-82230586D01*
X163440926Y-82249093D01*
X163458434Y-82271704D01*
X163470296Y-82297331D01*
X163477108Y-82325082D01*
X163479394Y-82354056D01*
X163476182Y-82392195D01*
X163466816Y-82426780D01*
X163450595Y-82458135D01*
X163426882Y-82485520D01*
X163396676Y-82507501D01*
X163357639Y-82524721D01*
X163313453Y-82534969D01*
X163258233Y-82538704D01*
X162916659Y-82538704D01*
X162916659Y-82664611D01*
X163581000Y-82664611D01*
G37*
G36*
X163026080Y-83210066D02*
G01*
X163026080Y-83029571D01*
X163326865Y-83029571D01*
X163382186Y-83030975D01*
X163408489Y-83034399D01*
X163431157Y-83041478D01*
X163450781Y-83053049D01*
X163466144Y-83069444D01*
X163475669Y-83091039D01*
X163479394Y-83124704D01*
X163475242Y-83170804D01*
X163469224Y-83193748D01*
X163459855Y-83214219D01*
X163574283Y-83214219D01*
X163584548Y-83189773D01*
X163591746Y-83156150D01*
X163596631Y-83100890D01*
X163590888Y-83032781D01*
X163576359Y-82988294D01*
X163552507Y-82953002D01*
X163523908Y-82929554D01*
X163490125Y-82914612D01*
X163451917Y-82907144D01*
X163371500Y-82903664D01*
X163026080Y-82903664D01*
X163026080Y-82758156D01*
X162916659Y-82758156D01*
X162916659Y-82903664D01*
X162729080Y-82903664D01*
X162729080Y-83029571D01*
X162916659Y-83029571D01*
X162916659Y-83210066D01*
X163026080Y-83210066D01*
G37*
G36*
X163975696Y-83498395D02*
G01*
X163484890Y-83498395D01*
X163484890Y-83501204D01*
X163516397Y-83526341D01*
X163543577Y-83558208D01*
X163566589Y-83597741D01*
X163589080Y-83662604D01*
X163596631Y-83732013D01*
X163589794Y-83806388D01*
X163570131Y-83871232D01*
X163538281Y-83929290D01*
X163496797Y-83977539D01*
X163446140Y-84016320D01*
X163386399Y-84045377D01*
X163320950Y-84063111D01*
X163248829Y-84069191D01*
X163177886Y-84063137D01*
X163112664Y-84045377D01*
X163052805Y-84016352D01*
X163001594Y-83977539D01*
X162959539Y-83929234D01*
X162927589Y-83871232D01*
X162907879Y-83806384D01*
X162901027Y-83732013D01*
X162902716Y-83716687D01*
X163018264Y-83716687D01*
X163022772Y-83765293D01*
X163035727Y-83807546D01*
X163056551Y-83845301D01*
X163083233Y-83876117D01*
X163115983Y-83900722D01*
X163155895Y-83919531D01*
X163199842Y-83930972D01*
X163248829Y-83934918D01*
X163297816Y-83930972D01*
X163341764Y-83919531D01*
X163381675Y-83900722D01*
X163414426Y-83876117D01*
X163441108Y-83845301D01*
X163461931Y-83807546D01*
X163474886Y-83765293D01*
X163479394Y-83716687D01*
X163474886Y-83668020D01*
X163461931Y-83625707D01*
X163441115Y-83587991D01*
X163414426Y-83557136D01*
X163381680Y-83532578D01*
X163341764Y-83513782D01*
X163297816Y-83502341D01*
X163248829Y-83498395D01*
X163199842Y-83502341D01*
X163155895Y-83513782D01*
X163115978Y-83532578D01*
X163083233Y-83557136D01*
X163056544Y-83587991D01*
X163035727Y-83625707D01*
X163022772Y-83668020D01*
X163018264Y-83716687D01*
X162902716Y-83716687D01*
X162908294Y-83666070D01*
X162930398Y-83601221D01*
X162952991Y-83561225D01*
X162980377Y-83528146D01*
X163012769Y-83501204D01*
X163012769Y-83498395D01*
X162916659Y-83498395D01*
X162916659Y-83372488D01*
X163975696Y-83372488D01*
X163975696Y-83498395D01*
G37*
G36*
X163581000Y-84814925D02*
G01*
X163581000Y-84689018D01*
X163477990Y-84689018D01*
X163477990Y-84686209D01*
X163510466Y-84666972D01*
X163538975Y-84639855D01*
X163563841Y-84603655D01*
X163581767Y-84563330D01*
X163592806Y-84518411D01*
X163596631Y-84467978D01*
X163592893Y-84420026D01*
X163581915Y-84375593D01*
X163563185Y-84334789D01*
X163536486Y-84299390D01*
X163502059Y-84270327D01*
X163457474Y-84246938D01*
X163406497Y-84232533D01*
X163343412Y-84227338D01*
X162916659Y-84227338D01*
X162916659Y-84353245D01*
X163308608Y-84353245D01*
X163352888Y-84356615D01*
X163387742Y-84365824D01*
X163418080Y-84380900D01*
X163440926Y-84399407D01*
X163458434Y-84422018D01*
X163470296Y-84447645D01*
X163477108Y-84475396D01*
X163479394Y-84504370D01*
X163476182Y-84542509D01*
X163466816Y-84577094D01*
X163450595Y-84608449D01*
X163426882Y-84635834D01*
X163396676Y-84657815D01*
X163357639Y-84675035D01*
X163313453Y-84685283D01*
X163258233Y-84689018D01*
X162916659Y-84689018D01*
X162916659Y-84814925D01*
X163581000Y-84814925D01*
G37*
G36*
X163026080Y-85360380D02*
G01*
X163026080Y-85179885D01*
X163326865Y-85179885D01*
X163382186Y-85181289D01*
X163408489Y-85184713D01*
X163431157Y-85191792D01*
X163450781Y-85203363D01*
X163466144Y-85219758D01*
X163475669Y-85241353D01*
X163479394Y-85275018D01*
X163475242Y-85321118D01*
X163469224Y-85344062D01*
X163459855Y-85364533D01*
X163574283Y-85364533D01*
X163584548Y-85340087D01*
X163591746Y-85306464D01*
X163596631Y-85251204D01*
X163590888Y-85183095D01*
X163576359Y-85138608D01*
X163552507Y-85103316D01*
X163523908Y-85079868D01*
X163490125Y-85064926D01*
X163451917Y-85057458D01*
X163371500Y-85053978D01*
X163026080Y-85053978D01*
X163026080Y-84908470D01*
X162916659Y-84908470D01*
X162916659Y-85053978D01*
X162729080Y-85053978D01*
X162729080Y-85179885D01*
X162916659Y-85179885D01*
X162916659Y-85360380D01*
X163026080Y-85360380D01*
G37*
G36*
X162916659Y-85921406D02*
G01*
X162916659Y-86047313D01*
X163581000Y-86047313D01*
X163581000Y-85921406D01*
X162916659Y-85921406D01*
G37*
G36*
X162680232Y-85892036D02*
G01*
X162645391Y-85898817D01*
X162615569Y-85919330D01*
X162595157Y-85949329D01*
X162588397Y-85984421D01*
X162595154Y-86019461D01*
X162615569Y-86049451D01*
X162645391Y-86069964D01*
X162680232Y-86076745D01*
X162715084Y-86069966D01*
X162744956Y-86049451D01*
X162765323Y-86019465D01*
X162772067Y-85984421D01*
X162765320Y-85949324D01*
X162744956Y-85919330D01*
X162715084Y-85898815D01*
X162680232Y-85892036D01*
G37*
G36*
X163084698Y-86599302D02*
G01*
X163058883Y-86574444D01*
X163037376Y-86543981D01*
X163023318Y-86508594D01*
X163018264Y-86463564D01*
X163023134Y-86420953D01*
X163036949Y-86385895D01*
X163051652Y-86367360D01*
X163069526Y-86356710D01*
X163091659Y-86353044D01*
X163118291Y-86357895D01*
X163138737Y-86371912D01*
X163154891Y-86392376D01*
X163167863Y-86416731D01*
X163184471Y-86471991D01*
X163194119Y-86522366D01*
X163217994Y-86598570D01*
X163234351Y-86632258D01*
X163254447Y-86660180D01*
X163279212Y-86683174D01*
X163309157Y-86700724D01*
X163343566Y-86711504D01*
X163387681Y-86715440D01*
X163440843Y-86709204D01*
X163483730Y-86691626D01*
X163520136Y-86664277D01*
X163549004Y-86630077D01*
X163570514Y-86590164D01*
X163585396Y-86544042D01*
X163593830Y-86495555D01*
X163596631Y-86446834D01*
X163590024Y-86367457D01*
X163571535Y-86301998D01*
X163550969Y-86263259D01*
X163520765Y-86226306D01*
X163479394Y-86190806D01*
X163401237Y-86285939D01*
X163430128Y-86318350D01*
X163455703Y-86354449D01*
X163473165Y-86395265D01*
X163479394Y-86446834D01*
X163474571Y-86495072D01*
X163459306Y-86538425D01*
X163447353Y-86555743D01*
X163432927Y-86569199D01*
X163415815Y-86578095D01*
X163396047Y-86581106D01*
X163370411Y-86576611D01*
X163350251Y-86563582D01*
X163334199Y-86544507D01*
X163321797Y-86521633D01*
X163305066Y-86469854D01*
X163294564Y-86421616D01*
X163272154Y-86344679D01*
X163257224Y-86310013D01*
X163238510Y-86280321D01*
X163214832Y-86255250D01*
X163185326Y-86235564D01*
X163150625Y-86223264D01*
X163105520Y-86218772D01*
X163056108Y-86224409D01*
X163015150Y-86240449D01*
X162979913Y-86265666D01*
X162951464Y-86297785D01*
X162929578Y-86335561D01*
X162913667Y-86378934D01*
X162904170Y-86424716D01*
X162901027Y-86470586D01*
X162907362Y-86536422D01*
X162926307Y-86599302D01*
X162946784Y-86637433D01*
X162974560Y-86669882D01*
X163010387Y-86697244D01*
X163084698Y-86599302D01*
G37*
G36*
X163164244Y-87212724D02*
G01*
X163252554Y-87223343D01*
X163339485Y-87243438D01*
X163419005Y-87275061D01*
X163467638Y-87303645D01*
X163509884Y-87338282D01*
X163546317Y-87379292D01*
X163573476Y-87426035D01*
X163590548Y-87482381D01*
X163596631Y-87550689D01*
X163590545Y-87619038D01*
X163573471Y-87675381D01*
X163546317Y-87722087D01*
X163509878Y-87763129D01*
X163467632Y-87797765D01*
X163419005Y-87826317D01*
X163339481Y-87857987D01*
X163252554Y-87878097D01*
X163164244Y-87888715D01*
X163084698Y-87892080D01*
X162971430Y-87886462D01*
X162913111Y-87878604D01*
X162856026Y-87866190D01*
X162800452Y-87849025D01*
X162747643Y-87827050D01*
X162698914Y-87798860D01*
X162657395Y-87764035D01*
X162622968Y-87722358D01*
X162595846Y-87673116D01*
X162578830Y-87617824D01*
X162572771Y-87550750D01*
X162690002Y-87550750D01*
X162695115Y-87594625D01*
X162709602Y-87630496D01*
X162732424Y-87661339D01*
X162762114Y-87687160D01*
X162796710Y-87707778D01*
X162836303Y-87724224D01*
X162921666Y-87745900D01*
X163008433Y-87755670D01*
X163084698Y-87757807D01*
X163200897Y-87751518D01*
X163267044Y-87741507D01*
X163330345Y-87724224D01*
X163388512Y-87697795D01*
X163436041Y-87661942D01*
X163459720Y-87631979D01*
X163474250Y-87595546D01*
X163479394Y-87550750D01*
X163474252Y-87505953D01*
X163459722Y-87469498D01*
X163436041Y-87439498D01*
X163388516Y-87403692D01*
X163330345Y-87377277D01*
X163267044Y-87359993D01*
X163200897Y-87349983D01*
X163084698Y-87343693D01*
X163008433Y-87345770D01*
X162921666Y-87355600D01*
X162836303Y-87377277D01*
X162796710Y-87393723D01*
X162762114Y-87414341D01*
X162732424Y-87440162D01*
X162709602Y-87471005D01*
X162695115Y-87506876D01*
X162690002Y-87550750D01*
X162572771Y-87550750D01*
X162572765Y-87550689D01*
X162578828Y-87483609D01*
X162595846Y-87428324D01*
X162622965Y-87379071D01*
X162657395Y-87337343D01*
X162698910Y-87302567D01*
X162747643Y-87274390D01*
X162800450Y-87252400D01*
X162856026Y-87235189D01*
X162913108Y-87222806D01*
X162971430Y-87214916D01*
X163084698Y-87209360D01*
X163164244Y-87212724D01*
G37*
G36*
X163588815Y-88133941D02*
G01*
X163582068Y-88098844D01*
X163561704Y-88068850D01*
X163531836Y-88048383D01*
X163496980Y-88041617D01*
X163462134Y-88048385D01*
X163432317Y-88068850D01*
X163411905Y-88098849D01*
X163405145Y-88133941D01*
X163411907Y-88169023D01*
X163432317Y-88198971D01*
X163462139Y-88219484D01*
X163496980Y-88226265D01*
X163531832Y-88219486D01*
X163561704Y-88198971D01*
X163582066Y-88169028D01*
X163588815Y-88133941D01*
G37*
G36*
X162717357Y-88987265D02*
G01*
X162717357Y-88585729D01*
X162965019Y-88581516D01*
X162956654Y-88609482D01*
X162949632Y-88646546D01*
X162945419Y-88683671D01*
X162944014Y-88714445D01*
X162950128Y-88782060D01*
X162967706Y-88841024D01*
X162996427Y-88893869D01*
X163034628Y-88938233D01*
X163081587Y-88973831D01*
X163137821Y-89000515D01*
X163199871Y-89016598D01*
X163270323Y-89022191D01*
X163341671Y-89015174D01*
X163404168Y-88994897D01*
X163460101Y-88962423D01*
X163507360Y-88920037D01*
X163545370Y-88868905D01*
X163573611Y-88809517D01*
X163590761Y-88744795D01*
X163596631Y-88673840D01*
X163590763Y-88608191D01*
X163573538Y-88547945D01*
X163544913Y-88491940D01*
X163505730Y-88443309D01*
X163456788Y-88404811D01*
X163396596Y-88375864D01*
X163350434Y-88511541D01*
X163394064Y-88532521D01*
X163426324Y-88556337D01*
X163449292Y-88582860D01*
X163465561Y-88614051D01*
X163475775Y-88650949D01*
X163479394Y-88694845D01*
X163475895Y-88733215D01*
X163465473Y-88769644D01*
X163448425Y-88803090D01*
X163425722Y-88831255D01*
X163397408Y-88854248D01*
X163362341Y-88872532D01*
X163323044Y-88883925D01*
X163277284Y-88887919D01*
X163223514Y-88883244D01*
X163179757Y-88870210D01*
X163144027Y-88849641D01*
X163114923Y-88821424D01*
X163085900Y-88774456D01*
X163067723Y-88717707D01*
X163061251Y-88648683D01*
X163064141Y-88608645D01*
X163074318Y-88552818D01*
X163090386Y-88496340D01*
X163112053Y-88444435D01*
X162592304Y-88455609D01*
X162592304Y-88987265D01*
X162717357Y-88987265D01*
G37*
G36*
X163581000Y-89264053D02*
G01*
X163334803Y-89361994D01*
X163334803Y-89833444D01*
X163581000Y-89932790D01*
X163581000Y-90089472D01*
X162592304Y-89665588D01*
X162592304Y-89597017D01*
X162765473Y-89597017D01*
X162765473Y-89599826D01*
X163217566Y-89784473D01*
X163217566Y-89409561D01*
X162765473Y-89597017D01*
X162592304Y-89597017D01*
X162592304Y-89543833D01*
X163581000Y-89107371D01*
X163581000Y-89264053D01*
G37*
G36*
X165120316Y-76109194D02*
G01*
X164723604Y-76506517D01*
X164680923Y-76547061D01*
X164632563Y-76582049D01*
X164579318Y-76606534D01*
X164550750Y-76613333D01*
X164520455Y-76615632D01*
X164485319Y-76612206D01*
X164454632Y-76602321D01*
X164427341Y-76586503D01*
X164404928Y-76565990D01*
X164387045Y-76541079D01*
X164373421Y-76511401D01*
X164365026Y-76479257D01*
X164362186Y-76444967D01*
X164366970Y-76397937D01*
X164380591Y-76358337D01*
X164402730Y-76324617D01*
X164432484Y-76297287D01*
X164469271Y-76277224D01*
X164514593Y-76264472D01*
X164502015Y-76118964D01*
X164439543Y-76133873D01*
X164388198Y-76157432D01*
X164343744Y-76189830D01*
X164307842Y-76228751D01*
X164280080Y-76274158D01*
X164260337Y-76326693D01*
X164248905Y-76383429D01*
X164244949Y-76446372D01*
X164249417Y-76509355D01*
X164262474Y-76567333D01*
X164284402Y-76620983D01*
X164314253Y-76666679D01*
X164352540Y-76704668D01*
X164399616Y-76733846D01*
X164453605Y-76751911D01*
X164519234Y-76758331D01*
X164567139Y-76754578D01*
X164610947Y-76743615D01*
X164652456Y-76726648D01*
X164691425Y-76705147D01*
X164728082Y-76679705D01*
X164762805Y-76650620D01*
X164828568Y-76586262D01*
X165143763Y-76260259D01*
X165143763Y-76758331D01*
X165261000Y-76758331D01*
X165261000Y-76109194D01*
X165120316Y-76109194D01*
G37*
G36*
X165261000Y-77472985D02*
G01*
X164827224Y-77472985D01*
X164827224Y-77687003D01*
X164823971Y-77750232D01*
X164815014Y-77801829D01*
X164801334Y-77843685D01*
X164770961Y-77900120D01*
X164735450Y-77940894D01*
X164692862Y-77971289D01*
X164645752Y-77990597D01*
X164596210Y-78001180D01*
X164549764Y-78004580D01*
X164503319Y-78001180D01*
X164453777Y-77990597D01*
X164406667Y-77971289D01*
X164364079Y-77940894D01*
X164328580Y-77900118D01*
X164298255Y-77843685D01*
X164284543Y-77801826D01*
X164275565Y-77750228D01*
X164272304Y-77687003D01*
X164272304Y-77649268D01*
X164389541Y-77649268D01*
X164395891Y-77726876D01*
X164405013Y-77763756D01*
X164419094Y-77795386D01*
X164439473Y-77822345D01*
X164467577Y-77843685D01*
X164502164Y-77856936D01*
X164549764Y-77861881D01*
X164597374Y-77856938D01*
X164632013Y-77843685D01*
X164660079Y-77822352D01*
X164680495Y-77795386D01*
X164694544Y-77763761D01*
X164703698Y-77726876D01*
X164709988Y-77649268D01*
X164709988Y-77472985D01*
X164389541Y-77472985D01*
X164389541Y-77649268D01*
X164272304Y-77649268D01*
X164272304Y-77338652D01*
X165261000Y-77338652D01*
X165261000Y-77472985D01*
G37*
G36*
X164596659Y-78056176D02*
G01*
X164596659Y-78201684D01*
X165115064Y-78398910D01*
X165115064Y-78401719D01*
X164596659Y-78589236D01*
X164596659Y-78724913D01*
X165403698Y-78410145D01*
X165482894Y-78375158D01*
X165516428Y-78354892D01*
X165543833Y-78331743D01*
X165566068Y-78304230D01*
X165583034Y-78270927D01*
X165593286Y-78232943D01*
X165597078Y-78183488D01*
X165593597Y-78126824D01*
X165588191Y-78098649D01*
X165578943Y-78071564D01*
X165464454Y-78086951D01*
X165476067Y-78125093D01*
X165479841Y-78162483D01*
X165477747Y-78190554D01*
X165472086Y-78212125D01*
X165462575Y-78231136D01*
X165449677Y-78247113D01*
X165415300Y-78271599D01*
X165370481Y-78291199D01*
X165265335Y-78331804D01*
X164596659Y-78056176D01*
G37*
G36*
X164596659Y-78835433D02*
G01*
X164596659Y-78961340D01*
X164699974Y-78961340D01*
X164699974Y-78964149D01*
X164674707Y-78978768D01*
X164651736Y-78997671D01*
X164631578Y-79019908D01*
X164614611Y-79044566D01*
X164590125Y-79101230D01*
X164583279Y-79132160D01*
X164581027Y-79162780D01*
X164583183Y-79192726D01*
X164589332Y-79218772D01*
X164723726Y-79213155D01*
X164716704Y-79182380D01*
X164713896Y-79151606D01*
X164720271Y-79092215D01*
X164737865Y-79046144D01*
X164765797Y-79010311D01*
X164803501Y-78984657D01*
X164855714Y-78967702D01*
X164927120Y-78961340D01*
X165261000Y-78961340D01*
X165261000Y-78835433D01*
X164596659Y-78835433D01*
G37*
G36*
X164999624Y-79302553D02*
G01*
X165065056Y-79322942D01*
X165124624Y-79355462D01*
X165175392Y-79397802D01*
X165217071Y-79449251D01*
X165249398Y-79509727D01*
X165269725Y-79576030D01*
X165276631Y-79648212D01*
X165269725Y-79720395D01*
X165249398Y-79786698D01*
X165217071Y-79847173D01*
X165175392Y-79898622D01*
X165124624Y-79940962D01*
X165065056Y-79973483D01*
X164999624Y-79993871D01*
X164928829Y-80000777D01*
X164858138Y-79993855D01*
X164793336Y-79973483D01*
X164734210Y-79941035D01*
X164682999Y-79898622D01*
X164640737Y-79847121D01*
X164608260Y-79786698D01*
X164587934Y-79720395D01*
X164581027Y-79648212D01*
X164698264Y-79648212D01*
X164702774Y-79696872D01*
X164715727Y-79739132D01*
X164736551Y-79776887D01*
X164763233Y-79807703D01*
X164795978Y-79832260D01*
X164835895Y-79851056D01*
X164879842Y-79862497D01*
X164928829Y-79866443D01*
X164977816Y-79862497D01*
X165021764Y-79851056D01*
X165061680Y-79832260D01*
X165094426Y-79807703D01*
X165121108Y-79776887D01*
X165141931Y-79739132D01*
X165154885Y-79696872D01*
X165159394Y-79648212D01*
X165154886Y-79599545D01*
X165141931Y-79557232D01*
X165121111Y-79519528D01*
X165094426Y-79488722D01*
X165061680Y-79464164D01*
X165021764Y-79445369D01*
X164977816Y-79433928D01*
X164928829Y-79429981D01*
X164879842Y-79433928D01*
X164835895Y-79445369D01*
X164795978Y-79464164D01*
X164763233Y-79488722D01*
X164736547Y-79519528D01*
X164715727Y-79557232D01*
X164702772Y-79599545D01*
X164698264Y-79648212D01*
X164581027Y-79648212D01*
X164587934Y-79576030D01*
X164608260Y-79509727D01*
X164640737Y-79449304D01*
X164682999Y-79397802D01*
X164734210Y-79355389D01*
X164793336Y-79322942D01*
X164858138Y-79302570D01*
X164928829Y-79295648D01*
X164999624Y-79302553D01*
G37*
G36*
X164764698Y-80511794D02*
G01*
X164738883Y-80486936D01*
X164717376Y-80456473D01*
X164703318Y-80421086D01*
X164698264Y-80376056D01*
X164703134Y-80333445D01*
X164716949Y-80298387D01*
X164731652Y-80279852D01*
X164749526Y-80269201D01*
X164771659Y-80265536D01*
X164798291Y-80270387D01*
X164818737Y-80284404D01*
X164834891Y-80304868D01*
X164847863Y-80329222D01*
X164864471Y-80384482D01*
X164874119Y-80434857D01*
X164897994Y-80511061D01*
X164914351Y-80544750D01*
X164934447Y-80572671D01*
X164959212Y-80595665D01*
X164989157Y-80613216D01*
X165023566Y-80623996D01*
X165067681Y-80627931D01*
X165120843Y-80621696D01*
X165163730Y-80604118D01*
X165200136Y-80576769D01*
X165229004Y-80542569D01*
X165250514Y-80502656D01*
X165265396Y-80456534D01*
X165273830Y-80408047D01*
X165276631Y-80359325D01*
X165270024Y-80279948D01*
X165251535Y-80214489D01*
X165230969Y-80175750D01*
X165200765Y-80138798D01*
X165159394Y-80103298D01*
X165081237Y-80198430D01*
X165110128Y-80230842D01*
X165135703Y-80266940D01*
X165153165Y-80307757D01*
X165159394Y-80359325D01*
X165154571Y-80407563D01*
X165139306Y-80450916D01*
X165127353Y-80468234D01*
X165112927Y-80481691D01*
X165095815Y-80490587D01*
X165076047Y-80493598D01*
X165050411Y-80489103D01*
X165030251Y-80476073D01*
X165014199Y-80456999D01*
X165001797Y-80434125D01*
X164985066Y-80382345D01*
X164974564Y-80334107D01*
X164952154Y-80257171D01*
X164937224Y-80222505D01*
X164918510Y-80192813D01*
X164894832Y-80167742D01*
X164865326Y-80148055D01*
X164830625Y-80135756D01*
X164785520Y-80131264D01*
X164736108Y-80136901D01*
X164695150Y-80152940D01*
X164659913Y-80178158D01*
X164631464Y-80210276D01*
X164609578Y-80248053D01*
X164593667Y-80291426D01*
X164584170Y-80337208D01*
X164581027Y-80383078D01*
X164587362Y-80448914D01*
X164606307Y-80511794D01*
X164626784Y-80549925D01*
X164654560Y-80582374D01*
X164690387Y-80609735D01*
X164764698Y-80511794D01*
G37*
G36*
X164979632Y-81467394D02*
G01*
X164979632Y-81123256D01*
X164862395Y-81123256D01*
X164862395Y-81467394D01*
X164979632Y-81467394D01*
G37*
G36*
X164272304Y-82032022D02*
G01*
X164272304Y-82166356D01*
X165261000Y-82166356D01*
X165261000Y-82032022D01*
X164272304Y-82032022D01*
G37*
G36*
X165120316Y-82357903D02*
G01*
X164723604Y-82755226D01*
X164680923Y-82795770D01*
X164632563Y-82830758D01*
X164579318Y-82855243D01*
X164550750Y-82862042D01*
X164520455Y-82864341D01*
X164485319Y-82860915D01*
X164454632Y-82851030D01*
X164427341Y-82835212D01*
X164404928Y-82814699D01*
X164387045Y-82789788D01*
X164373421Y-82760110D01*
X164365026Y-82727966D01*
X164362186Y-82693676D01*
X164366970Y-82646646D01*
X164380591Y-82607046D01*
X164402730Y-82573326D01*
X164432484Y-82545996D01*
X164469271Y-82525933D01*
X164514593Y-82513181D01*
X164502015Y-82367673D01*
X164439543Y-82382582D01*
X164388198Y-82406141D01*
X164343744Y-82438539D01*
X164307842Y-82477460D01*
X164280080Y-82522867D01*
X164260337Y-82575402D01*
X164248905Y-82632138D01*
X164244949Y-82695081D01*
X164249417Y-82758064D01*
X164262474Y-82816042D01*
X164284402Y-82869692D01*
X164314253Y-82915388D01*
X164352540Y-82953377D01*
X164399616Y-82982555D01*
X164453605Y-83000620D01*
X164519234Y-83007040D01*
X164567139Y-83003287D01*
X164610947Y-82992324D01*
X164652456Y-82975357D01*
X164691425Y-82953856D01*
X164728082Y-82928414D01*
X164762805Y-82899329D01*
X164828568Y-82834971D01*
X165143763Y-82508968D01*
X165143763Y-83007040D01*
X165261000Y-83007040D01*
X165261000Y-82357903D01*
X165120316Y-82357903D01*
G37*
G36*
X164483330Y-83888268D02*
G01*
X164449809Y-83857852D01*
X164421917Y-83822568D01*
X164399372Y-83781900D01*
X164377287Y-83716245D01*
X164370002Y-83649032D01*
X164373648Y-83593766D01*
X164384246Y-83543389D01*
X164401509Y-83497174D01*
X164438877Y-83434052D01*
X164487543Y-83381098D01*
X164546312Y-83338587D01*
X164615649Y-83306237D01*
X164691048Y-83286435D01*
X164773124Y-83279676D01*
X164849842Y-83286045D01*
X164921441Y-83304833D01*
X164987529Y-83335822D01*
X165044600Y-83377617D01*
X165091933Y-83430055D01*
X165128620Y-83493694D01*
X165145413Y-83540331D01*
X165155799Y-83591844D01*
X165159394Y-83649032D01*
X165155296Y-83705016D01*
X165143511Y-83754556D01*
X165124468Y-83798692D01*
X165098235Y-83839158D01*
X165065763Y-83875432D01*
X165026526Y-83907808D01*
X165111584Y-84021136D01*
X165155487Y-83981935D01*
X165182906Y-83950914D01*
X165212639Y-83907808D01*
X165238705Y-83858613D01*
X165262831Y-83796555D01*
X165278735Y-83728562D01*
X165284447Y-83646223D01*
X165279268Y-83568880D01*
X165264232Y-83498565D01*
X165239750Y-83434221D01*
X165206452Y-83373775D01*
X165167379Y-83320368D01*
X165122392Y-83273387D01*
X165071748Y-83232516D01*
X165017151Y-83198799D01*
X164958199Y-83171965D01*
X164896421Y-83152394D01*
X164834853Y-83140817D01*
X164773063Y-83136977D01*
X164697423Y-83141312D01*
X164627114Y-83153988D01*
X164561427Y-83174713D01*
X164498934Y-83203620D01*
X164443261Y-83238801D01*
X164393754Y-83280348D01*
X164350453Y-83328313D01*
X164313956Y-83382441D01*
X164284089Y-83443380D01*
X164262633Y-83507863D01*
X164249467Y-83577545D01*
X164244949Y-83653245D01*
X164249096Y-83717843D01*
X164261572Y-83781796D01*
X164282624Y-83845587D01*
X164312455Y-83905177D01*
X164350852Y-83956406D01*
X164398273Y-84000192D01*
X164483330Y-83888268D01*
G37*
G36*
X164837526Y-84514988D02*
G01*
X164905771Y-84527880D01*
X164970106Y-84549067D01*
X165031208Y-84578287D01*
X165085969Y-84613681D01*
X165134970Y-84655374D01*
X165177891Y-84703267D01*
X165214400Y-84757396D01*
X165244635Y-84818406D01*
X165266505Y-84882907D01*
X165279873Y-84952134D01*
X165284447Y-85026867D01*
X165279874Y-85101560D01*
X165266506Y-85170766D01*
X165244635Y-85235267D01*
X165214398Y-85296274D01*
X165177888Y-85350382D01*
X165134970Y-85398238D01*
X165085966Y-85439967D01*
X165031204Y-85475382D01*
X164970106Y-85504606D01*
X164905771Y-85525794D01*
X164837526Y-85538685D01*
X164764698Y-85543074D01*
X164691870Y-85538685D01*
X164623625Y-85525794D01*
X164559290Y-85504606D01*
X164498192Y-85475382D01*
X164443430Y-85439967D01*
X164394426Y-85398238D01*
X164351508Y-85350382D01*
X164314998Y-85296274D01*
X164284761Y-85235267D01*
X164262890Y-85170766D01*
X164249522Y-85101560D01*
X164244949Y-85026867D01*
X164370002Y-85026867D01*
X164373657Y-85083038D01*
X164384265Y-85134079D01*
X164401509Y-85180740D01*
X164438624Y-85244699D01*
X164486200Y-85298221D01*
X164543651Y-85341308D01*
X164611497Y-85373753D01*
X164685313Y-85393631D01*
X164764698Y-85400376D01*
X164844092Y-85393632D01*
X164917960Y-85373753D01*
X164985765Y-85341315D01*
X165043257Y-85298221D01*
X165090798Y-85244706D01*
X165127948Y-85180740D01*
X165145158Y-85134082D01*
X165155746Y-85083041D01*
X165159394Y-85026867D01*
X165155745Y-84970653D01*
X165145157Y-84919592D01*
X165127948Y-84872933D01*
X165090801Y-84808956D01*
X165043257Y-84755391D01*
X164985772Y-84712332D01*
X164917960Y-84679859D01*
X164844094Y-84660026D01*
X164764698Y-84653298D01*
X164685310Y-84660027D01*
X164611497Y-84679859D01*
X164543644Y-84712338D01*
X164486200Y-84755391D01*
X164438621Y-84808963D01*
X164401509Y-84872933D01*
X164384266Y-84919595D01*
X164373658Y-84970655D01*
X164370002Y-85026867D01*
X164244949Y-85026867D01*
X164249523Y-84952134D01*
X164262891Y-84882907D01*
X164284761Y-84818406D01*
X164314996Y-84757396D01*
X164351505Y-84703267D01*
X164394426Y-84655374D01*
X164443427Y-84613681D01*
X164498188Y-84578287D01*
X164559290Y-84549067D01*
X164623625Y-84527880D01*
X164691870Y-84514988D01*
X164764698Y-84510599D01*
X164837526Y-84514988D01*
G37*
G36*
X165261000Y-86292106D02*
G01*
X165261000Y-86166199D01*
X165157990Y-86166199D01*
X165157990Y-86163390D01*
X165190466Y-86144153D01*
X165218975Y-86117036D01*
X165243841Y-86080836D01*
X165261767Y-86040511D01*
X165272806Y-85995592D01*
X165276631Y-85945159D01*
X165272893Y-85897208D01*
X165261915Y-85852774D01*
X165243185Y-85811970D01*
X165216486Y-85776571D01*
X165182059Y-85747508D01*
X165137474Y-85724119D01*
X165086497Y-85709714D01*
X165023412Y-85704519D01*
X164596659Y-85704519D01*
X164596659Y-85830426D01*
X164988608Y-85830426D01*
X165032888Y-85833796D01*
X165067742Y-85843005D01*
X165098080Y-85858081D01*
X165120926Y-85876588D01*
X165138434Y-85899199D01*
X165150296Y-85924826D01*
X165157108Y-85952577D01*
X165159394Y-85981551D01*
X165156182Y-86019691D01*
X165146816Y-86054275D01*
X165130595Y-86085630D01*
X165106882Y-86113015D01*
X165076676Y-86134996D01*
X165037639Y-86152216D01*
X164993453Y-86162464D01*
X164938233Y-86166199D01*
X164596659Y-86166199D01*
X164596659Y-86292106D01*
X165261000Y-86292106D01*
G37*
G36*
X164706080Y-86837562D02*
G01*
X164706080Y-86657066D01*
X165006865Y-86657066D01*
X165062186Y-86658470D01*
X165088489Y-86661894D01*
X165111157Y-86668973D01*
X165130781Y-86680544D01*
X165146144Y-86696939D01*
X165155669Y-86718534D01*
X165159394Y-86752199D01*
X165155242Y-86798300D01*
X165149224Y-86821243D01*
X165139855Y-86841714D01*
X165254283Y-86841714D01*
X165264548Y-86817268D01*
X165271746Y-86783645D01*
X165276631Y-86728385D01*
X165270888Y-86660276D01*
X165256359Y-86615789D01*
X165232507Y-86580497D01*
X165203908Y-86557049D01*
X165170125Y-86542107D01*
X165131917Y-86534639D01*
X165051500Y-86531159D01*
X164706080Y-86531159D01*
X164706080Y-86385651D01*
X164596659Y-86385651D01*
X164596659Y-86531159D01*
X164409080Y-86531159D01*
X164409080Y-86657066D01*
X164596659Y-86657066D01*
X164596659Y-86837562D01*
X164706080Y-86837562D01*
G37*
G36*
X165655696Y-87125890D02*
G01*
X165164890Y-87125890D01*
X165164890Y-87128699D01*
X165196397Y-87153837D01*
X165223577Y-87185703D01*
X165246589Y-87225236D01*
X165269080Y-87290099D01*
X165276631Y-87359509D01*
X165269794Y-87433883D01*
X165250131Y-87498727D01*
X165218281Y-87556786D01*
X165176797Y-87605034D01*
X165126140Y-87643815D01*
X165066399Y-87672872D01*
X165000950Y-87690606D01*
X164928829Y-87696686D01*
X164857886Y-87690632D01*
X164792664Y-87672872D01*
X164732805Y-87643847D01*
X164681594Y-87605034D01*
X164639539Y-87556730D01*
X164607589Y-87498727D01*
X164587879Y-87433880D01*
X164581027Y-87359509D01*
X164582716Y-87344182D01*
X164698264Y-87344182D01*
X164702772Y-87392788D01*
X164715727Y-87435041D01*
X164736551Y-87472796D01*
X164763233Y-87503612D01*
X164795983Y-87528217D01*
X164835895Y-87547026D01*
X164879842Y-87558467D01*
X164928829Y-87562413D01*
X164977816Y-87558467D01*
X165021764Y-87547026D01*
X165061675Y-87528217D01*
X165094426Y-87503612D01*
X165121108Y-87472796D01*
X165141931Y-87435041D01*
X165154886Y-87392788D01*
X165159394Y-87344182D01*
X165154886Y-87295515D01*
X165141931Y-87253202D01*
X165121115Y-87215486D01*
X165094426Y-87184631D01*
X165061680Y-87160073D01*
X165021764Y-87141278D01*
X164977816Y-87129837D01*
X164928829Y-87125890D01*
X164879842Y-87129837D01*
X164835895Y-87141278D01*
X164795978Y-87160073D01*
X164763233Y-87184631D01*
X164736544Y-87215486D01*
X164715727Y-87253202D01*
X164702772Y-87295515D01*
X164698264Y-87344182D01*
X164582716Y-87344182D01*
X164588294Y-87293565D01*
X164610398Y-87228716D01*
X164632991Y-87188720D01*
X164660377Y-87155641D01*
X164692769Y-87128699D01*
X164692769Y-87125890D01*
X164596659Y-87125890D01*
X164596659Y-86999983D01*
X165655696Y-86999983D01*
X165655696Y-87125890D01*
G37*
G36*
X165261000Y-88442420D02*
G01*
X165261000Y-88316513D01*
X165157990Y-88316513D01*
X165157990Y-88313704D01*
X165190466Y-88294467D01*
X165218975Y-88267350D01*
X165243841Y-88231150D01*
X165261767Y-88190825D01*
X165272806Y-88145906D01*
X165276631Y-88095473D01*
X165272893Y-88047522D01*
X165261915Y-88003088D01*
X165243185Y-87962284D01*
X165216486Y-87926885D01*
X165182059Y-87897822D01*
X165137474Y-87874433D01*
X165086497Y-87860028D01*
X165023412Y-87854833D01*
X164596659Y-87854833D01*
X164596659Y-87980740D01*
X164988608Y-87980740D01*
X165032888Y-87984110D01*
X165067742Y-87993319D01*
X165098080Y-88008395D01*
X165120926Y-88026902D01*
X165138434Y-88049513D01*
X165150296Y-88075140D01*
X165157108Y-88102891D01*
X165159394Y-88131865D01*
X165156182Y-88170005D01*
X165146816Y-88204589D01*
X165130595Y-88235944D01*
X165106882Y-88263329D01*
X165076676Y-88285310D01*
X165037639Y-88302530D01*
X164993453Y-88312778D01*
X164938233Y-88316513D01*
X164596659Y-88316513D01*
X164596659Y-88442420D01*
X165261000Y-88442420D01*
G37*
G36*
X164706080Y-88987876D02*
G01*
X164706080Y-88807380D01*
X165006865Y-88807380D01*
X165062186Y-88808785D01*
X165088489Y-88812208D01*
X165111157Y-88819287D01*
X165130781Y-88830858D01*
X165146144Y-88847253D01*
X165155669Y-88868848D01*
X165159394Y-88902513D01*
X165155242Y-88948614D01*
X165149224Y-88971557D01*
X165139855Y-88992028D01*
X165254283Y-88992028D01*
X165264548Y-88967582D01*
X165271746Y-88933959D01*
X165276631Y-88878699D01*
X165270888Y-88810590D01*
X165256359Y-88766103D01*
X165232507Y-88730811D01*
X165203908Y-88707363D01*
X165170125Y-88692421D01*
X165131917Y-88684953D01*
X165051500Y-88681473D01*
X164706080Y-88681473D01*
X164706080Y-88535965D01*
X164596659Y-88535965D01*
X164596659Y-88681473D01*
X164409080Y-88681473D01*
X164409080Y-88807380D01*
X164596659Y-88807380D01*
X164596659Y-88987876D01*
X164706080Y-88987876D01*
G37*
G36*
X166698711Y-78064724D02*
G01*
X166744490Y-78083613D01*
X166779108Y-78104937D01*
X166804590Y-78128410D01*
X166822922Y-78157040D01*
X166834934Y-78195464D01*
X166839394Y-78246624D01*
X166836031Y-78284826D01*
X166826144Y-78320019D01*
X166810304Y-78352566D01*
X166789813Y-78380896D01*
X166764389Y-78404636D01*
X166733882Y-78422906D01*
X166699610Y-78434340D01*
X166660487Y-78438293D01*
X166620204Y-78435082D01*
X166587876Y-78426212D01*
X166561935Y-78412404D01*
X166529386Y-78382795D01*
X166506003Y-78345909D01*
X166490609Y-78303790D01*
X166481579Y-78256394D01*
X166475961Y-78159857D01*
X166358725Y-78159857D01*
X166355796Y-78233314D01*
X166348222Y-78285764D01*
X166334680Y-78331411D01*
X166318119Y-78362700D01*
X166295811Y-78386667D01*
X166269087Y-78401840D01*
X166238505Y-78410165D01*
X166203264Y-78413075D01*
X166152153Y-78407245D01*
X166112942Y-78391168D01*
X166082791Y-78365509D01*
X166060553Y-78331812D01*
X166046944Y-78292668D01*
X166042186Y-78246624D01*
X166045683Y-78211217D01*
X166056005Y-78178557D01*
X166073327Y-78147950D01*
X166109236Y-78109472D01*
X166155515Y-78081516D01*
X166109658Y-77944434D01*
X166051088Y-77975906D01*
X166005149Y-78015610D01*
X165970134Y-78064052D01*
X165945229Y-78119199D01*
X165930117Y-78178784D01*
X165924949Y-78243815D01*
X165929022Y-78303044D01*
X165941069Y-78359220D01*
X165961717Y-78411557D01*
X165990712Y-78456428D01*
X166028396Y-78493848D01*
X166075342Y-78522924D01*
X166129331Y-78540989D01*
X166194960Y-78547409D01*
X166245569Y-78542138D01*
X166291810Y-78526607D01*
X166334789Y-78500514D01*
X166371487Y-78466080D01*
X166399297Y-78425589D01*
X166418747Y-78378088D01*
X166421556Y-78378088D01*
X166433594Y-78422281D01*
X166452270Y-78460642D01*
X166477475Y-78494295D01*
X166508140Y-78522191D01*
X166543465Y-78544188D01*
X166582878Y-78559987D01*
X166624958Y-78569370D01*
X166670195Y-78572566D01*
X166738388Y-78565455D01*
X166795248Y-78545272D01*
X166844741Y-78513239D01*
X166884702Y-78472487D01*
X166915704Y-78424025D01*
X166938496Y-78367585D01*
X166952035Y-78307017D01*
X166956631Y-78242411D01*
X166950632Y-78168300D01*
X166933295Y-78102325D01*
X166905035Y-78043047D01*
X166876157Y-78004039D01*
X166840021Y-77971277D01*
X166795735Y-77944372D01*
X166741942Y-77923429D01*
X166698711Y-78064724D01*
G37*
G36*
X166524244Y-78687672D02*
G01*
X166612554Y-78698290D01*
X166699485Y-78718385D01*
X166779005Y-78750008D01*
X166827638Y-78778592D01*
X166869884Y-78813229D01*
X166906317Y-78854239D01*
X166933476Y-78900982D01*
X166950548Y-78957328D01*
X166956631Y-79025636D01*
X166950545Y-79093985D01*
X166933471Y-79150328D01*
X166906317Y-79197034D01*
X166869878Y-79238077D01*
X166827632Y-79272712D01*
X166779005Y-79301264D01*
X166699481Y-79332934D01*
X166612554Y-79353044D01*
X166524244Y-79363662D01*
X166444698Y-79367027D01*
X166331430Y-79361409D01*
X166273111Y-79353551D01*
X166216026Y-79341137D01*
X166160452Y-79323972D01*
X166107643Y-79301997D01*
X166058914Y-79273807D01*
X166017395Y-79238983D01*
X165982968Y-79197305D01*
X165955846Y-79148063D01*
X165938830Y-79092771D01*
X165932771Y-79025697D01*
X166050002Y-79025697D01*
X166055115Y-79069572D01*
X166069602Y-79105443D01*
X166092424Y-79136286D01*
X166122114Y-79162107D01*
X166156710Y-79182725D01*
X166196303Y-79199171D01*
X166281666Y-79220847D01*
X166368433Y-79230617D01*
X166444698Y-79232754D01*
X166560897Y-79226465D01*
X166627044Y-79216454D01*
X166690345Y-79199171D01*
X166748512Y-79172743D01*
X166796041Y-79136889D01*
X166819720Y-79106926D01*
X166834250Y-79070493D01*
X166839394Y-79025697D01*
X166834252Y-78980900D01*
X166819722Y-78944445D01*
X166796041Y-78914445D01*
X166748516Y-78878639D01*
X166690345Y-78852224D01*
X166627044Y-78834941D01*
X166560897Y-78824930D01*
X166444698Y-78818641D01*
X166368433Y-78820717D01*
X166281666Y-78830547D01*
X166196303Y-78852224D01*
X166156710Y-78868670D01*
X166122114Y-78889288D01*
X166092424Y-78915109D01*
X166069602Y-78945952D01*
X166055115Y-78981823D01*
X166050002Y-79025697D01*
X165932771Y-79025697D01*
X165932765Y-79025636D01*
X165938828Y-78958556D01*
X165955846Y-78903271D01*
X165982965Y-78854018D01*
X166017395Y-78812290D01*
X166058910Y-78777514D01*
X166107643Y-78749337D01*
X166160450Y-78727347D01*
X166216026Y-78710136D01*
X166273108Y-78697753D01*
X166331430Y-78689864D01*
X166444698Y-78684307D01*
X166524244Y-78687672D01*
G37*
G36*
X166276659Y-79509543D02*
G01*
X166276659Y-79627084D01*
X166381378Y-79627084D01*
X166381378Y-79629893D01*
X166367078Y-79636543D01*
X166346390Y-79651570D01*
X166326417Y-79670934D01*
X166306518Y-79696327D01*
X166289356Y-79725370D01*
X166274339Y-79760685D01*
X166264461Y-79799026D01*
X166261027Y-79842507D01*
X166264736Y-79891109D01*
X166275197Y-79932170D01*
X166291802Y-79967009D01*
X166315071Y-79997848D01*
X166345494Y-80025325D01*
X166384126Y-80049563D01*
X166346135Y-80074270D01*
X166315619Y-80104418D01*
X166291802Y-80140483D01*
X166268535Y-80200343D01*
X166261027Y-80259429D01*
X166264177Y-80310312D01*
X166272867Y-80351733D01*
X166286245Y-80385336D01*
X166315840Y-80429527D01*
X166352680Y-80462273D01*
X166396348Y-80485707D01*
X166446408Y-80500741D01*
X166499446Y-80508589D01*
X166554852Y-80511244D01*
X166941000Y-80511244D01*
X166941000Y-80385336D01*
X166571460Y-80385336D01*
X166498676Y-80380451D01*
X166465206Y-80372761D01*
X166437065Y-80360179D01*
X166413214Y-80341764D01*
X166394384Y-80316765D01*
X166382679Y-80285970D01*
X166378264Y-80242637D01*
X166382290Y-80197595D01*
X166393369Y-80162144D01*
X166410657Y-80134250D01*
X166434257Y-80112517D01*
X166473387Y-80091476D01*
X166520790Y-80078146D01*
X166578421Y-80073377D01*
X166941000Y-80073377D01*
X166941000Y-79947409D01*
X166593869Y-79947409D01*
X166507041Y-79942524D01*
X166469593Y-79934928D01*
X166439142Y-79922924D01*
X166413555Y-79905064D01*
X166394384Y-79880975D01*
X166382700Y-79850759D01*
X166378264Y-79807519D01*
X166381577Y-79774527D01*
X166391575Y-79742428D01*
X166408105Y-79713042D01*
X166431509Y-79687168D01*
X166460889Y-79666339D01*
X166499347Y-79649433D01*
X166542731Y-79639176D01*
X166596617Y-79635450D01*
X166941000Y-79635450D01*
X166941000Y-79509543D01*
X166276659Y-79509543D01*
G37*
G36*
X166276659Y-80701448D02*
G01*
X166276659Y-80818990D01*
X166381378Y-80818990D01*
X166381378Y-80821798D01*
X166367078Y-80828448D01*
X166346390Y-80843475D01*
X166326417Y-80862839D01*
X166306518Y-80888232D01*
X166289356Y-80917275D01*
X166274339Y-80952590D01*
X166264461Y-80990931D01*
X166261027Y-81034412D01*
X166264736Y-81083014D01*
X166275197Y-81124075D01*
X166291802Y-81158914D01*
X166315071Y-81189753D01*
X166345494Y-81217230D01*
X166384126Y-81241469D01*
X166346135Y-81266175D01*
X166315619Y-81296323D01*
X166291802Y-81332388D01*
X166268535Y-81392248D01*
X166261027Y-81451334D01*
X166264177Y-81502217D01*
X166272867Y-81543638D01*
X166286245Y-81577241D01*
X166315840Y-81621432D01*
X166352680Y-81654178D01*
X166396348Y-81677613D01*
X166446408Y-81692646D01*
X166499446Y-81700494D01*
X166554852Y-81703149D01*
X166941000Y-81703149D01*
X166941000Y-81577241D01*
X166571460Y-81577241D01*
X166498676Y-81572357D01*
X166465206Y-81564666D01*
X166437065Y-81552084D01*
X166413214Y-81533669D01*
X166394384Y-81508670D01*
X166382679Y-81477875D01*
X166378264Y-81434543D01*
X166382290Y-81389500D01*
X166393369Y-81354049D01*
X166410657Y-81326155D01*
X166434257Y-81304422D01*
X166473387Y-81283381D01*
X166520790Y-81270051D01*
X166578421Y-81265282D01*
X166941000Y-81265282D01*
X166941000Y-81139314D01*
X166593869Y-81139314D01*
X166507041Y-81134429D01*
X166469593Y-81126833D01*
X166439142Y-81114829D01*
X166413555Y-81096969D01*
X166394384Y-81072880D01*
X166382700Y-81042664D01*
X166378264Y-80999424D01*
X166381577Y-80966432D01*
X166391575Y-80934333D01*
X166408105Y-80904947D01*
X166431509Y-80879073D01*
X166460889Y-80858244D01*
X166499347Y-80841338D01*
X166542731Y-80831081D01*
X166596617Y-80827355D01*
X166941000Y-80827355D01*
X166941000Y-80701448D01*
X166276659Y-80701448D01*
G37*
G36*
X166586420Y-82464087D02*
G01*
X166276659Y-82229003D01*
X166276659Y-82391303D01*
X166512109Y-82552198D01*
X166276659Y-82710284D01*
X166276659Y-82862753D01*
X166586420Y-82636156D01*
X166941000Y-82904762D01*
X166941000Y-82742463D01*
X166662074Y-82546580D01*
X166941000Y-82350759D01*
X166941000Y-82195420D01*
X166586420Y-82464087D01*
G37*
G36*
X166708555Y-83357768D02*
G01*
X166769724Y-83378044D01*
X166824332Y-83410215D01*
X166870169Y-83451500D01*
X166906931Y-83501182D01*
X166934344Y-83559211D01*
X166950969Y-83622334D01*
X166956631Y-83690736D01*
X166951302Y-83759139D01*
X166935687Y-83822200D01*
X166909359Y-83880182D01*
X166872917Y-83929911D01*
X166826514Y-83970975D01*
X166768930Y-84003367D01*
X166726697Y-84018152D01*
X166678845Y-84027417D01*
X166624461Y-84030661D01*
X166571055Y-84027317D01*
X166524648Y-84017809D01*
X166484204Y-84002695D01*
X166429408Y-83970184D01*
X166386507Y-83930643D01*
X166353112Y-83883834D01*
X166329965Y-83831969D01*
X166316277Y-83777279D01*
X166311830Y-83724319D01*
X166315118Y-83690675D01*
X166429066Y-83690675D01*
X166433034Y-83735428D01*
X166444454Y-83774633D01*
X166462902Y-83810027D01*
X166487013Y-83839724D01*
X166516629Y-83863731D01*
X166551921Y-83881673D01*
X166590839Y-83892620D01*
X166634230Y-83896388D01*
X166677631Y-83892621D01*
X166716601Y-83881673D01*
X166751852Y-83863737D01*
X166781509Y-83839724D01*
X166805585Y-83810033D01*
X166824068Y-83774633D01*
X166835442Y-83735431D01*
X166839394Y-83690675D01*
X166835445Y-83645963D01*
X166824068Y-83606716D01*
X166805588Y-83571368D01*
X166781509Y-83541687D01*
X166751854Y-83517660D01*
X166716601Y-83499677D01*
X166677634Y-83488774D01*
X166634230Y-83485022D01*
X166590836Y-83488775D01*
X166551921Y-83499677D01*
X166516627Y-83517666D01*
X166487013Y-83541687D01*
X166462899Y-83571374D01*
X166444454Y-83606716D01*
X166433031Y-83645966D01*
X166429066Y-83690675D01*
X166315118Y-83690675D01*
X166317710Y-83664155D01*
X166334178Y-83615204D01*
X166334178Y-83609586D01*
X165952304Y-83858592D01*
X165952304Y-83700506D01*
X166347062Y-83450096D01*
X166416122Y-83409490D01*
X166483105Y-83377983D01*
X166554913Y-83357711D01*
X166593666Y-83352574D01*
X166638566Y-83350750D01*
X166708555Y-83357768D01*
G37*
G36*
X166077357Y-84738416D02*
G01*
X166077357Y-84336880D01*
X166325019Y-84332667D01*
X166316654Y-84360633D01*
X166309632Y-84397697D01*
X166305419Y-84434822D01*
X166304014Y-84465596D01*
X166310128Y-84533211D01*
X166327706Y-84592175D01*
X166356427Y-84645020D01*
X166394628Y-84689384D01*
X166441587Y-84724982D01*
X166497821Y-84751666D01*
X166559871Y-84767749D01*
X166630323Y-84773342D01*
X166701671Y-84766324D01*
X166764168Y-84746048D01*
X166820101Y-84713574D01*
X166867360Y-84671188D01*
X166905370Y-84620056D01*
X166933611Y-84560668D01*
X166950761Y-84495946D01*
X166956631Y-84424991D01*
X166950763Y-84359342D01*
X166933538Y-84299096D01*
X166904913Y-84243091D01*
X166865730Y-84194460D01*
X166816788Y-84155962D01*
X166756596Y-84127015D01*
X166710434Y-84262692D01*
X166754064Y-84283671D01*
X166786324Y-84307488D01*
X166809292Y-84334010D01*
X166825561Y-84365202D01*
X166835775Y-84402100D01*
X166839394Y-84445996D01*
X166835895Y-84484366D01*
X166825473Y-84520795D01*
X166808425Y-84554241D01*
X166785722Y-84582405D01*
X166757408Y-84605399D01*
X166722341Y-84623682D01*
X166683044Y-84635076D01*
X166637284Y-84639070D01*
X166583514Y-84634395D01*
X166539757Y-84621361D01*
X166504027Y-84600792D01*
X166474923Y-84572575D01*
X166445900Y-84525607D01*
X166427723Y-84468858D01*
X166421251Y-84399834D01*
X166424141Y-84359796D01*
X166434318Y-84303969D01*
X166450386Y-84247491D01*
X166472053Y-84195586D01*
X165952304Y-84206760D01*
X165952304Y-84738416D01*
X166077357Y-84738416D01*
G37*
G36*
X166276659Y-84952250D02*
G01*
X166276659Y-85069792D01*
X166381378Y-85069792D01*
X166381378Y-85072601D01*
X166367078Y-85079251D01*
X166346390Y-85094277D01*
X166326417Y-85113642D01*
X166306518Y-85139035D01*
X166289356Y-85168078D01*
X166274339Y-85203393D01*
X166264461Y-85241733D01*
X166261027Y-85285214D01*
X166264736Y-85333817D01*
X166275197Y-85374878D01*
X166291802Y-85409717D01*
X166315071Y-85440555D01*
X166345494Y-85468033D01*
X166384126Y-85492271D01*
X166346135Y-85516977D01*
X166315619Y-85547126D01*
X166291802Y-85583190D01*
X166268535Y-85643051D01*
X166261027Y-85702137D01*
X166264177Y-85753020D01*
X166272867Y-85794441D01*
X166286245Y-85828044D01*
X166315840Y-85872234D01*
X166352680Y-85904980D01*
X166396348Y-85928415D01*
X166446408Y-85943449D01*
X166499446Y-85951297D01*
X166554852Y-85953951D01*
X166941000Y-85953951D01*
X166941000Y-85828044D01*
X166571460Y-85828044D01*
X166498676Y-85823159D01*
X166465206Y-85815469D01*
X166437065Y-85802887D01*
X166413214Y-85784471D01*
X166394384Y-85759473D01*
X166382679Y-85728678D01*
X166378264Y-85685345D01*
X166382290Y-85640302D01*
X166393369Y-85604852D01*
X166410657Y-85576957D01*
X166434257Y-85555225D01*
X166473387Y-85534183D01*
X166520790Y-85520853D01*
X166578421Y-85516085D01*
X166941000Y-85516085D01*
X166941000Y-85390117D01*
X166593869Y-85390117D01*
X166507041Y-85385232D01*
X166469593Y-85377635D01*
X166439142Y-85365631D01*
X166413555Y-85347771D01*
X166394384Y-85323682D01*
X166382700Y-85293466D01*
X166378264Y-85250226D01*
X166381577Y-85217234D01*
X166391575Y-85185136D01*
X166408105Y-85155749D01*
X166431509Y-85129876D01*
X166460889Y-85109047D01*
X166499347Y-85092140D01*
X166542731Y-85081883D01*
X166596617Y-85078157D01*
X166941000Y-85078157D01*
X166941000Y-84952250D01*
X166276659Y-84952250D01*
G37*
G36*
X166276659Y-86144155D02*
G01*
X166276659Y-86261697D01*
X166381378Y-86261697D01*
X166381378Y-86264506D01*
X166367078Y-86271156D01*
X166346390Y-86286182D01*
X166326417Y-86305547D01*
X166306518Y-86330940D01*
X166289356Y-86359983D01*
X166274339Y-86395298D01*
X166264461Y-86433638D01*
X166261027Y-86477119D01*
X166264736Y-86525722D01*
X166275197Y-86566783D01*
X166291802Y-86601622D01*
X166315071Y-86632461D01*
X166345494Y-86659938D01*
X166384126Y-86684176D01*
X166346135Y-86708882D01*
X166315619Y-86739031D01*
X166291802Y-86775096D01*
X166268535Y-86834956D01*
X166261027Y-86894042D01*
X166264177Y-86944925D01*
X166272867Y-86986346D01*
X166286245Y-87019949D01*
X166315840Y-87064139D01*
X166352680Y-87096886D01*
X166396348Y-87120320D01*
X166446408Y-87135354D01*
X166499446Y-87143202D01*
X166554852Y-87145856D01*
X166941000Y-87145856D01*
X166941000Y-87019949D01*
X166571460Y-87019949D01*
X166498676Y-87015064D01*
X166465206Y-87007374D01*
X166437065Y-86994792D01*
X166413214Y-86976377D01*
X166394384Y-86951378D01*
X166382679Y-86920583D01*
X166378264Y-86877250D01*
X166382290Y-86832207D01*
X166393369Y-86796757D01*
X166410657Y-86768862D01*
X166434257Y-86747130D01*
X166473387Y-86726088D01*
X166520790Y-86712758D01*
X166578421Y-86707990D01*
X166941000Y-86707990D01*
X166941000Y-86582022D01*
X166593869Y-86582022D01*
X166507041Y-86577137D01*
X166469593Y-86569540D01*
X166439142Y-86557536D01*
X166413555Y-86539677D01*
X166394384Y-86515588D01*
X166382700Y-86485371D01*
X166378264Y-86442132D01*
X166381577Y-86409139D01*
X166391575Y-86377041D01*
X166408105Y-86347654D01*
X166431509Y-86321781D01*
X166460889Y-86300952D01*
X166499347Y-86284045D01*
X166542731Y-86273788D01*
X166596617Y-86270062D01*
X166941000Y-86270062D01*
X166941000Y-86144155D01*
X166276659Y-86144155D01*
G37*
G36*
X169312304Y-75776474D02*
G01*
X169312304Y-75976509D01*
X170060787Y-76291277D01*
X170060787Y-76296895D01*
X169312304Y-76608854D01*
X169312304Y-76808950D01*
X170301000Y-76808950D01*
X170301000Y-76674616D01*
X169488281Y-76674616D01*
X169488281Y-76671808D01*
X170301000Y-76337439D01*
X170301000Y-76247924D01*
X169488281Y-75913556D01*
X169488281Y-75910747D01*
X170301000Y-75910747D01*
X170301000Y-75776474D01*
X169312304Y-75776474D01*
G37*
G36*
X170165649Y-76994739D02*
G01*
X170204585Y-77008191D01*
X170238602Y-77029766D01*
X170266561Y-77057833D01*
X170288273Y-77091574D01*
X170304114Y-77131289D01*
X170313462Y-77174062D01*
X170316631Y-77219461D01*
X170309721Y-77291935D01*
X170290192Y-77352329D01*
X170269145Y-77387854D01*
X170239427Y-77420884D01*
X170199700Y-77451675D01*
X170199700Y-77454484D01*
X170301000Y-77458697D01*
X170301000Y-77570621D01*
X170245068Y-77566408D01*
X170180649Y-77565004D01*
X169842067Y-77565004D01*
X169799544Y-77560966D01*
X169758841Y-77548884D01*
X169721494Y-77528619D01*
X169688194Y-77499241D01*
X169661177Y-77462011D01*
X169639224Y-77413207D01*
X169625902Y-77357869D01*
X169621027Y-77287971D01*
X169627047Y-77218536D01*
X169645452Y-77148081D01*
X169676094Y-77082161D01*
X169718725Y-77024983D01*
X169796882Y-77100515D01*
X169770748Y-77135503D01*
X169746690Y-77176047D01*
X169729532Y-77225689D01*
X169724476Y-77254186D01*
X169722632Y-77289376D01*
X169725801Y-77328281D01*
X169734539Y-77359351D01*
X169748785Y-77386615D01*
X169766779Y-77408261D01*
X169788403Y-77425478D01*
X169812270Y-77437631D01*
X169837697Y-77445048D01*
X169862645Y-77447462D01*
X169890672Y-77447462D01*
X169890672Y-77380295D01*
X169984461Y-77380295D01*
X169984461Y-77447462D01*
X170025616Y-77447462D01*
X170058510Y-77445040D01*
X170092233Y-77437631D01*
X170124239Y-77424728D01*
X170153294Y-77405452D01*
X170177789Y-77380060D01*
X170197868Y-77346712D01*
X170210454Y-77307943D01*
X170215026Y-77258601D01*
X170211909Y-77215294D01*
X170203394Y-77181156D01*
X170190357Y-77154370D01*
X170171017Y-77133480D01*
X170144792Y-77120591D01*
X170109330Y-77115902D01*
X170073951Y-77122182D01*
X170046254Y-77140387D01*
X170024658Y-77167741D01*
X170007786Y-77203341D01*
X169996458Y-77243138D01*
X169989285Y-77288643D01*
X169984461Y-77380295D01*
X169890672Y-77380295D01*
X169890672Y-77355138D01*
X169893717Y-77280861D01*
X169902517Y-77213111D01*
X169918627Y-77149580D01*
X169941535Y-77096973D01*
X169973039Y-77052147D01*
X170011816Y-77018632D01*
X170041789Y-77003144D01*
X170077110Y-76993432D01*
X170118978Y-76989995D01*
X170165649Y-76994739D01*
G37*
G36*
X170040861Y-77721963D02*
G01*
X170105727Y-77739637D01*
X170164973Y-77768655D01*
X170216064Y-77807476D01*
X170258136Y-77855827D01*
X170290131Y-77913844D01*
X170309794Y-77978688D01*
X170316631Y-78053062D01*
X170309380Y-78118955D01*
X170287322Y-78183793D01*
X170264690Y-78223830D01*
X170237283Y-78256928D01*
X170204890Y-78283871D01*
X170204890Y-78286680D01*
X170301000Y-78286680D01*
X170301000Y-78412587D01*
X169241963Y-78412587D01*
X169241963Y-78286680D01*
X169732769Y-78286680D01*
X169732769Y-78283871D01*
X169701261Y-78258734D01*
X169674081Y-78226867D01*
X169651069Y-78187334D01*
X169628579Y-78122471D01*
X169622701Y-78068449D01*
X169738264Y-78068449D01*
X169742774Y-78117109D01*
X169755727Y-78159369D01*
X169776551Y-78197124D01*
X169803233Y-78227940D01*
X169835978Y-78252497D01*
X169875895Y-78271293D01*
X169919842Y-78282734D01*
X169968829Y-78286680D01*
X170017816Y-78282734D01*
X170061764Y-78271293D01*
X170101680Y-78252497D01*
X170134426Y-78227940D01*
X170161108Y-78197124D01*
X170181931Y-78159369D01*
X170194885Y-78117109D01*
X170199394Y-78068449D01*
X170194886Y-78019782D01*
X170181931Y-77977469D01*
X170161111Y-77939765D01*
X170134426Y-77908959D01*
X170101680Y-77884401D01*
X170061764Y-77865606D01*
X170017816Y-77854165D01*
X169968829Y-77850218D01*
X169919842Y-77854165D01*
X169875895Y-77865606D01*
X169835978Y-77884401D01*
X169803233Y-77908959D01*
X169776547Y-77939765D01*
X169755727Y-77977469D01*
X169742772Y-78019782D01*
X169738264Y-78068449D01*
X169622701Y-78068449D01*
X169621027Y-78053062D01*
X169627879Y-77978691D01*
X169647589Y-77913844D01*
X169679400Y-77855780D01*
X169720923Y-77807476D01*
X169771523Y-77768732D01*
X169831259Y-77739637D01*
X169896706Y-77721949D01*
X169968829Y-77715885D01*
X170040861Y-77721963D01*
G37*
G36*
X170040953Y-78569777D02*
G01*
X170106399Y-78587465D01*
X170166142Y-78616570D01*
X170216797Y-78655365D01*
X170258202Y-78703874D01*
X170290131Y-78763076D01*
X170309796Y-78829310D01*
X170316631Y-78905103D01*
X170310821Y-78979898D01*
X170294179Y-79045274D01*
X170267336Y-79102827D01*
X170230168Y-79153785D01*
X170181809Y-79198927D01*
X170109513Y-79103795D01*
X170149737Y-79065096D01*
X170180405Y-79023988D01*
X170200269Y-78977694D01*
X170207210Y-78921895D01*
X170203736Y-78879176D01*
X170193349Y-78837936D01*
X170176526Y-78799496D01*
X170154515Y-78766617D01*
X170126940Y-78738837D01*
X170094126Y-78716914D01*
X170057149Y-78702843D01*
X170015724Y-78698046D01*
X170015724Y-79229702D01*
X169970905Y-79229702D01*
X169907107Y-79225326D01*
X169844265Y-79212177D01*
X169784992Y-79189203D01*
X169732341Y-79155513D01*
X169687741Y-79111400D01*
X169651863Y-79055496D01*
X169635305Y-79013808D01*
X169624773Y-78964620D01*
X169621027Y-78906508D01*
X169621291Y-78903699D01*
X169722632Y-78903699D01*
X169726478Y-78949398D01*
X169737226Y-78986924D01*
X169754792Y-79020007D01*
X169777465Y-79046398D01*
X169805200Y-79067119D01*
X169837793Y-79082057D01*
X169873611Y-79091232D01*
X169914119Y-79095368D01*
X169914119Y-78698046D01*
X169881100Y-78701614D01*
X169846830Y-78712701D01*
X169814523Y-78730290D01*
X169785098Y-78753978D01*
X169760180Y-78783195D01*
X169739974Y-78819069D01*
X169727064Y-78858994D01*
X169722632Y-78903699D01*
X169621291Y-78903699D01*
X169627802Y-78834438D01*
X169647589Y-78769365D01*
X169679374Y-78710480D01*
X169720923Y-78660921D01*
X169771550Y-78620599D01*
X169831259Y-78589602D01*
X169896802Y-78570305D01*
X169968829Y-78563713D01*
X170040953Y-78569777D01*
G37*
G36*
X170091505Y-79744765D02*
G01*
X170143402Y-79758915D01*
X170191580Y-79782924D01*
X170234993Y-79817717D01*
X170270903Y-79862047D01*
X170300023Y-79919138D01*
X170317966Y-79984079D01*
X170324447Y-80064585D01*
X170319612Y-80129773D01*
X170305868Y-80185935D01*
X170283903Y-80234578D01*
X170254045Y-80279443D01*
X170215712Y-80323922D01*
X170167887Y-80368179D01*
X170301000Y-80489934D01*
X170301000Y-80670368D01*
X170068602Y-80445176D01*
X169773435Y-80636785D01*
X169773435Y-80484316D01*
X169974935Y-80359814D01*
X169770870Y-80163931D01*
X169726846Y-80238058D01*
X169700556Y-80272771D01*
X169670914Y-80303821D01*
X169637676Y-80330433D01*
X169601061Y-80351387D01*
X169561091Y-80364943D01*
X169516430Y-80369583D01*
X169462883Y-80364278D01*
X169418611Y-80349311D01*
X169379990Y-80325227D01*
X169348697Y-80294051D01*
X169324454Y-80256529D01*
X169306748Y-80212169D01*
X169296310Y-80164443D01*
X169292867Y-80115021D01*
X169410002Y-80115021D01*
X169413425Y-80149387D01*
X169423101Y-80177882D01*
X169438700Y-80201727D01*
X169459789Y-80220219D01*
X169485212Y-80231388D01*
X169516308Y-80235311D01*
X169548412Y-80231521D01*
X169575781Y-80220595D01*
X169600360Y-80204073D01*
X169622676Y-80183531D01*
X169660412Y-80133828D01*
X169691186Y-80081377D01*
X169657662Y-80049198D01*
X169832359Y-80049198D01*
X170081181Y-80288434D01*
X170127404Y-80245752D01*
X170167338Y-80195377D01*
X170196036Y-80136637D01*
X170204357Y-80104312D01*
X170207210Y-80068798D01*
X170203876Y-80033178D01*
X170193960Y-79999555D01*
X170178053Y-79968285D01*
X170156896Y-79940082D01*
X170131112Y-79916267D01*
X170101636Y-79898133D01*
X170069070Y-79886626D01*
X170033798Y-79882746D01*
X169997425Y-79886522D01*
X169965959Y-79897401D01*
X169937452Y-79914370D01*
X169912104Y-79935869D01*
X169868751Y-79989725D01*
X169832359Y-80049198D01*
X169657662Y-80049198D01*
X169656198Y-80047793D01*
X169617058Y-80016347D01*
X169573705Y-79992594D01*
X169550723Y-79985793D01*
X169526139Y-79983496D01*
X169490737Y-79988114D01*
X169462646Y-80001143D01*
X169440105Y-80022636D01*
X169423493Y-80050080D01*
X169413456Y-80080594D01*
X169410002Y-80115021D01*
X169292867Y-80115021D01*
X169292765Y-80113556D01*
X169296669Y-80061452D01*
X169308152Y-80012867D01*
X169327217Y-79967753D01*
X169352910Y-79928908D01*
X169385568Y-79896324D01*
X169425572Y-79870839D01*
X169471179Y-79854775D01*
X169524796Y-79849163D01*
X169572265Y-79853173D01*
X169613858Y-79864699D01*
X169650642Y-79883418D01*
X169702480Y-79920586D01*
X169754079Y-79965300D01*
X169776752Y-79921459D01*
X169802988Y-79879266D01*
X169832968Y-79840319D01*
X169865942Y-79807214D01*
X169902823Y-79779574D01*
X169943550Y-79758243D01*
X169987808Y-79744720D01*
X170037889Y-79740047D01*
X170091505Y-79744765D01*
G37*
G36*
X170301000Y-81501405D02*
G01*
X170296027Y-81589267D01*
X170281807Y-81666929D01*
X170259112Y-81735756D01*
X170227440Y-81800989D01*
X170190426Y-81857323D01*
X170148103Y-81905688D01*
X170099604Y-81947858D01*
X170047150Y-81982251D01*
X169990323Y-82009247D01*
X169930364Y-82028715D01*
X169869293Y-82040343D01*
X169806652Y-82044234D01*
X169759663Y-82041893D01*
X169706085Y-82034404D01*
X169652040Y-82021594D01*
X169597214Y-82002225D01*
X169544034Y-81976181D01*
X169491090Y-81941408D01*
X169442854Y-81898556D01*
X169399621Y-81844871D01*
X169364462Y-81782920D01*
X169336057Y-81707729D01*
X169318619Y-81625096D01*
X169312304Y-81523753D01*
X169312304Y-81513983D01*
X169437357Y-81513983D01*
X169442352Y-81593563D01*
X169456104Y-81657959D01*
X169477229Y-81709866D01*
X169506716Y-81757927D01*
X169539113Y-81796968D01*
X169574438Y-81828079D01*
X169634007Y-81864246D01*
X169695460Y-81886148D01*
X169757415Y-81898007D01*
X169806652Y-81901535D01*
X169867459Y-81897559D01*
X169920952Y-81886181D01*
X169968219Y-81867952D01*
X170012180Y-81842671D01*
X170050477Y-81812413D01*
X170083623Y-81776972D01*
X170123680Y-81715549D01*
X170152866Y-81643371D01*
X170170079Y-81565560D01*
X170175947Y-81481804D01*
X170175947Y-81312544D01*
X169437357Y-81312544D01*
X169437357Y-81513983D01*
X169312304Y-81513983D01*
X169312304Y-81178210D01*
X170301000Y-81178210D01*
X170301000Y-81501405D01*
G37*
G36*
X170040953Y-82171871D02*
G01*
X170106399Y-82189559D01*
X170166142Y-82218663D01*
X170216797Y-82257458D01*
X170258202Y-82305968D01*
X170290131Y-82365169D01*
X170309796Y-82431404D01*
X170316631Y-82507197D01*
X170310821Y-82581991D01*
X170294179Y-82647367D01*
X170267336Y-82704920D01*
X170230168Y-82755879D01*
X170181809Y-82801021D01*
X170109513Y-82705888D01*
X170149737Y-82667189D01*
X170180405Y-82626082D01*
X170200269Y-82579787D01*
X170207210Y-82523988D01*
X170203736Y-82481270D01*
X170193349Y-82440030D01*
X170176526Y-82401589D01*
X170154515Y-82368711D01*
X170126940Y-82340930D01*
X170094126Y-82319008D01*
X170057149Y-82304937D01*
X170015724Y-82300140D01*
X170015724Y-82831795D01*
X169970905Y-82831795D01*
X169907107Y-82827420D01*
X169844265Y-82814271D01*
X169784992Y-82791296D01*
X169732341Y-82757607D01*
X169687741Y-82713493D01*
X169651863Y-82657589D01*
X169635305Y-82615902D01*
X169624773Y-82566714D01*
X169621027Y-82508601D01*
X169621291Y-82505792D01*
X169722632Y-82505792D01*
X169726478Y-82551491D01*
X169737226Y-82589018D01*
X169754792Y-82622101D01*
X169777465Y-82648491D01*
X169805200Y-82669213D01*
X169837793Y-82684151D01*
X169873611Y-82693326D01*
X169914119Y-82697462D01*
X169914119Y-82300140D01*
X169881100Y-82303708D01*
X169846830Y-82314794D01*
X169814523Y-82332383D01*
X169785098Y-82356071D01*
X169760180Y-82385288D01*
X169739974Y-82421162D01*
X169727064Y-82461088D01*
X169722632Y-82505792D01*
X169621291Y-82505792D01*
X169627802Y-82436532D01*
X169647589Y-82371459D01*
X169679374Y-82312574D01*
X169720923Y-82263015D01*
X169771550Y-82222693D01*
X169831259Y-82191696D01*
X169896802Y-82172398D01*
X169968829Y-82165806D01*
X170040953Y-82171871D01*
G37*
G36*
X169804698Y-83335241D02*
G01*
X169778883Y-83310383D01*
X169757376Y-83279920D01*
X169743318Y-83244533D01*
X169738264Y-83199503D01*
X169743134Y-83156892D01*
X169756949Y-83121834D01*
X169771652Y-83103299D01*
X169789526Y-83092648D01*
X169811659Y-83088983D01*
X169838291Y-83093834D01*
X169858737Y-83107851D01*
X169874891Y-83128315D01*
X169887863Y-83152669D01*
X169904471Y-83207929D01*
X169914119Y-83258304D01*
X169937994Y-83334508D01*
X169954351Y-83368197D01*
X169974447Y-83396118D01*
X169999212Y-83419112D01*
X170029157Y-83436663D01*
X170063566Y-83447443D01*
X170107681Y-83451378D01*
X170160843Y-83445143D01*
X170203730Y-83427565D01*
X170240136Y-83400216D01*
X170269004Y-83366016D01*
X170290514Y-83326103D01*
X170305396Y-83279981D01*
X170313830Y-83231494D01*
X170316631Y-83182772D01*
X170310024Y-83103395D01*
X170291535Y-83037936D01*
X170270969Y-82999197D01*
X170240765Y-82962245D01*
X170199394Y-82926745D01*
X170121237Y-83021877D01*
X170150128Y-83054289D01*
X170175703Y-83090387D01*
X170193165Y-83131204D01*
X170199394Y-83182772D01*
X170194571Y-83231010D01*
X170179306Y-83274363D01*
X170167353Y-83291681D01*
X170152927Y-83305138D01*
X170135815Y-83314034D01*
X170116047Y-83317045D01*
X170090411Y-83312550D01*
X170070251Y-83299520D01*
X170054199Y-83280446D01*
X170041797Y-83257572D01*
X170025066Y-83205792D01*
X170014564Y-83157554D01*
X169992154Y-83080618D01*
X169977224Y-83045952D01*
X169958510Y-83016260D01*
X169934832Y-82991189D01*
X169905326Y-82971502D01*
X169870625Y-82959203D01*
X169825520Y-82954711D01*
X169776108Y-82960348D01*
X169735150Y-82976387D01*
X169699913Y-83001605D01*
X169671464Y-83033723D01*
X169649578Y-83071500D01*
X169633667Y-83114873D01*
X169624170Y-83160655D01*
X169621027Y-83206525D01*
X169627362Y-83272361D01*
X169646307Y-83335241D01*
X169666784Y-83373372D01*
X169694560Y-83405821D01*
X169730387Y-83433182D01*
X169804698Y-83335241D01*
G37*
G36*
X169636659Y-83613800D02*
G01*
X169636659Y-83739707D01*
X170301000Y-83739707D01*
X170301000Y-83613800D01*
X169636659Y-83613800D01*
G37*
G36*
X169400232Y-83584430D02*
G01*
X169365391Y-83591211D01*
X169335569Y-83611724D01*
X169315157Y-83641722D01*
X169308397Y-83676815D01*
X169315154Y-83711854D01*
X169335569Y-83741844D01*
X169365391Y-83762357D01*
X169400232Y-83769138D01*
X169435084Y-83762359D01*
X169464956Y-83741844D01*
X169485323Y-83711859D01*
X169492067Y-83676815D01*
X169485320Y-83641718D01*
X169464956Y-83611724D01*
X169435084Y-83591209D01*
X169400232Y-83584430D01*
G37*
G36*
X170039840Y-83913364D02*
G01*
X170104018Y-83932109D01*
X170162377Y-83962431D01*
X170211668Y-84002085D01*
X170251972Y-84050849D01*
X170282987Y-84109063D01*
X170302237Y-84173341D01*
X170308815Y-84244130D01*
X170301657Y-84311078D01*
X170280178Y-84374922D01*
X170257576Y-84413535D01*
X170228200Y-84446217D01*
X170191396Y-84473535D01*
X170191396Y-84477748D01*
X170289642Y-84477748D01*
X170331501Y-84474951D01*
X170373173Y-84466513D01*
X170412350Y-84451273D01*
X170446812Y-84428045D01*
X170475536Y-84396892D01*
X170499447Y-84354650D01*
X170514299Y-84304998D01*
X170519841Y-84238512D01*
X170512679Y-84168514D01*
X170492120Y-84108392D01*
X170458514Y-84054035D01*
X170410420Y-84002085D01*
X170517399Y-83916722D01*
X170558104Y-83966502D01*
X170588755Y-84016509D01*
X170610333Y-84067115D01*
X170630173Y-84148793D01*
X170637078Y-84241321D01*
X170630579Y-84320093D01*
X170611860Y-84389576D01*
X170581187Y-84452443D01*
X170541090Y-84504309D01*
X170491503Y-84546346D01*
X170433196Y-84577765D01*
X170368493Y-84597000D01*
X170295199Y-84603655D01*
X169636659Y-84603655D01*
X169636659Y-84477748D01*
X169732891Y-84477748D01*
X169732891Y-84474939D01*
X169700460Y-84447992D01*
X169673034Y-84414894D01*
X169650398Y-84374861D01*
X169628293Y-84310020D01*
X169622724Y-84259517D01*
X169738264Y-84259517D01*
X169742789Y-84308173D01*
X169755788Y-84350436D01*
X169776624Y-84388187D01*
X169803355Y-84419008D01*
X169836110Y-84443562D01*
X169876078Y-84462361D01*
X169920086Y-84473802D01*
X169969135Y-84477748D01*
X170033945Y-84470747D01*
X170086959Y-84450996D01*
X170130762Y-84419008D01*
X170156825Y-84387834D01*
X170175671Y-84351583D01*
X170187433Y-84309261D01*
X170191579Y-84259517D01*
X170187433Y-84209773D01*
X170175671Y-84167451D01*
X170156825Y-84131200D01*
X170130762Y-84100026D01*
X170086959Y-84068038D01*
X170033945Y-84048286D01*
X169969135Y-84041286D01*
X169920086Y-84045232D01*
X169876078Y-84056673D01*
X169836110Y-84075472D01*
X169803355Y-84100026D01*
X169776620Y-84130837D01*
X169755788Y-84168536D01*
X169742787Y-84210852D01*
X169738264Y-84259517D01*
X169622724Y-84259517D01*
X169621027Y-84244130D01*
X169627879Y-84169759D01*
X169647589Y-84104911D01*
X169679596Y-84046900D01*
X169721717Y-83998543D01*
X169772930Y-83959768D01*
X169832847Y-83930705D01*
X169898127Y-83912991D01*
X169969135Y-83906952D01*
X170039840Y-83913364D01*
G37*
G36*
X169636659Y-84793981D02*
G01*
X169636659Y-84919889D01*
X169739974Y-84919889D01*
X169739974Y-84922697D01*
X169707413Y-84941937D01*
X169678844Y-84969037D01*
X169653939Y-85005190D01*
X169635942Y-85045561D01*
X169624865Y-85090502D01*
X169621027Y-85140928D01*
X169624727Y-85187752D01*
X169635743Y-85232580D01*
X169654515Y-85274005D01*
X169681172Y-85309517D01*
X169715609Y-85338576D01*
X169760246Y-85361968D01*
X169811169Y-85376372D01*
X169874246Y-85381569D01*
X170301000Y-85381569D01*
X170301000Y-85255661D01*
X169909051Y-85255661D01*
X169864778Y-85252291D01*
X169829977Y-85243083D01*
X169799599Y-85228000D01*
X169776793Y-85209499D01*
X169759240Y-85186875D01*
X169747362Y-85161200D01*
X169740552Y-85133502D01*
X169738264Y-85104536D01*
X169741491Y-85066400D01*
X169750904Y-85031813D01*
X169767074Y-85000449D01*
X169790776Y-84973011D01*
X169820986Y-84951081D01*
X169860080Y-84933871D01*
X169904213Y-84923625D01*
X169959426Y-84919889D01*
X170301000Y-84919889D01*
X170301000Y-84793981D01*
X169636659Y-84793981D01*
G37*
G36*
X170040953Y-85538514D02*
G01*
X170106399Y-85556202D01*
X170166142Y-85585307D01*
X170216797Y-85624102D01*
X170258202Y-85672611D01*
X170290131Y-85731813D01*
X170309796Y-85798047D01*
X170316631Y-85873840D01*
X170310821Y-85948635D01*
X170294179Y-86014010D01*
X170267336Y-86071564D01*
X170230168Y-86122522D01*
X170181809Y-86167664D01*
X170109513Y-86072532D01*
X170149737Y-86033832D01*
X170180405Y-85992725D01*
X170200269Y-85946431D01*
X170207210Y-85890632D01*
X170203736Y-85847913D01*
X170193349Y-85806673D01*
X170176526Y-85768233D01*
X170154515Y-85735354D01*
X170126940Y-85707574D01*
X170094126Y-85685651D01*
X170057149Y-85671580D01*
X170015724Y-85666783D01*
X170015724Y-86198439D01*
X169970905Y-86198439D01*
X169907107Y-86194063D01*
X169844265Y-86180914D01*
X169784992Y-86157940D01*
X169732341Y-86124250D01*
X169687741Y-86080136D01*
X169651863Y-86024233D01*
X169635305Y-85982545D01*
X169624773Y-85933357D01*
X169621027Y-85875244D01*
X169621291Y-85872436D01*
X169722632Y-85872436D01*
X169726478Y-85918134D01*
X169737226Y-85955661D01*
X169754792Y-85988744D01*
X169777465Y-86015135D01*
X169805200Y-86035856D01*
X169837793Y-86050794D01*
X169873611Y-86059969D01*
X169914119Y-86064105D01*
X169914119Y-85666783D01*
X169881100Y-85670351D01*
X169846830Y-85681438D01*
X169814523Y-85699027D01*
X169785098Y-85722715D01*
X169760180Y-85751932D01*
X169739974Y-85787805D01*
X169727064Y-85827731D01*
X169722632Y-85872436D01*
X169621291Y-85872436D01*
X169627802Y-85803175D01*
X169647589Y-85738102D01*
X169679374Y-85679217D01*
X169720923Y-85629658D01*
X169771550Y-85589336D01*
X169831259Y-85558339D01*
X169896802Y-85539042D01*
X169968829Y-85532450D01*
X170040953Y-85538514D01*
G37*
G36*
X170040861Y-86323219D02*
G01*
X170105727Y-86340893D01*
X170164973Y-86369911D01*
X170216064Y-86408732D01*
X170258136Y-86457083D01*
X170290131Y-86515100D01*
X170309794Y-86579944D01*
X170316631Y-86654318D01*
X170309380Y-86720211D01*
X170287322Y-86785049D01*
X170264690Y-86825086D01*
X170237283Y-86858185D01*
X170204890Y-86885128D01*
X170204890Y-86887936D01*
X170301000Y-86887936D01*
X170301000Y-87013844D01*
X169241963Y-87013844D01*
X169241963Y-86887936D01*
X169732769Y-86887936D01*
X169732769Y-86885128D01*
X169701261Y-86859990D01*
X169674081Y-86828123D01*
X169651069Y-86788591D01*
X169628579Y-86723727D01*
X169622701Y-86669705D01*
X169738264Y-86669705D01*
X169742774Y-86718365D01*
X169755727Y-86760625D01*
X169776551Y-86798380D01*
X169803233Y-86829196D01*
X169835978Y-86853753D01*
X169875895Y-86872549D01*
X169919842Y-86883990D01*
X169968829Y-86887936D01*
X170017816Y-86883990D01*
X170061764Y-86872549D01*
X170101680Y-86853753D01*
X170134426Y-86829196D01*
X170161108Y-86798380D01*
X170181931Y-86760625D01*
X170194885Y-86718365D01*
X170199394Y-86669705D01*
X170194886Y-86621038D01*
X170181931Y-86578725D01*
X170161111Y-86541021D01*
X170134426Y-86510215D01*
X170101680Y-86485657D01*
X170061764Y-86466862D01*
X170017816Y-86455421D01*
X169968829Y-86451474D01*
X169919842Y-86455421D01*
X169875895Y-86466862D01*
X169835978Y-86485657D01*
X169803233Y-86510215D01*
X169776547Y-86541021D01*
X169755727Y-86578725D01*
X169742772Y-86621038D01*
X169738264Y-86669705D01*
X169622701Y-86669705D01*
X169621027Y-86654318D01*
X169627879Y-86579947D01*
X169647589Y-86515100D01*
X169679400Y-86457037D01*
X169720923Y-86408732D01*
X169771523Y-86369988D01*
X169831259Y-86340893D01*
X169896706Y-86323205D01*
X169968829Y-86317141D01*
X170040861Y-86323219D01*
G37*
G36*
X170301000Y-87718912D02*
G01*
X170204890Y-87718912D01*
X170204890Y-87721720D01*
X170237287Y-87748661D01*
X170264693Y-87781740D01*
X170287322Y-87821738D01*
X170309379Y-87886584D01*
X170316631Y-87952530D01*
X170309794Y-88026904D01*
X170290131Y-88091748D01*
X170258133Y-88149753D01*
X170216064Y-88198055D01*
X170164967Y-88236910D01*
X170105727Y-88265893D01*
X170040858Y-88283613D01*
X169968829Y-88289707D01*
X169896708Y-88283627D01*
X169831259Y-88265893D01*
X169771529Y-88236833D01*
X169720923Y-88198055D01*
X169679403Y-88149800D01*
X169647589Y-88091748D01*
X169627879Y-88026901D01*
X169621027Y-87952530D01*
X169622695Y-87937204D01*
X169738264Y-87937204D01*
X169742772Y-87985810D01*
X169755727Y-88028062D01*
X169776551Y-88065818D01*
X169803233Y-88096633D01*
X169835983Y-88121239D01*
X169875895Y-88140047D01*
X169919842Y-88151488D01*
X169968829Y-88155435D01*
X170017816Y-88151488D01*
X170061764Y-88140047D01*
X170101675Y-88121239D01*
X170134426Y-88096633D01*
X170161108Y-88065818D01*
X170181931Y-88028062D01*
X170194886Y-87985810D01*
X170199394Y-87937204D01*
X170194886Y-87888536D01*
X170181931Y-87846223D01*
X170161115Y-87808508D01*
X170134426Y-87777652D01*
X170101680Y-87753094D01*
X170061764Y-87734299D01*
X170017816Y-87722858D01*
X169968829Y-87718912D01*
X169919842Y-87722858D01*
X169875895Y-87734299D01*
X169835978Y-87753094D01*
X169803233Y-87777652D01*
X169776544Y-87808508D01*
X169755727Y-87846223D01*
X169742772Y-87888536D01*
X169738264Y-87937204D01*
X169622695Y-87937204D01*
X169628579Y-87883121D01*
X169651069Y-87818257D01*
X169674081Y-87778724D01*
X169701261Y-87746858D01*
X169732769Y-87721720D01*
X169732769Y-87718912D01*
X169241963Y-87718912D01*
X169241963Y-87593004D01*
X170301000Y-87593004D01*
X170301000Y-87718912D01*
G37*
G36*
X169636659Y-88368109D02*
G01*
X169636659Y-88513617D01*
X170155064Y-88710843D01*
X170155064Y-88713652D01*
X169636659Y-88901169D01*
X169636659Y-89036846D01*
X170443698Y-88722078D01*
X170522894Y-88687090D01*
X170556428Y-88666825D01*
X170583833Y-88643676D01*
X170606068Y-88616163D01*
X170623034Y-88582860D01*
X170633286Y-88544876D01*
X170637078Y-88495421D01*
X170633597Y-88438756D01*
X170628191Y-88410581D01*
X170618943Y-88383496D01*
X170504454Y-88398884D01*
X170516067Y-88437026D01*
X170519841Y-88474416D01*
X170517747Y-88502486D01*
X170512086Y-88524058D01*
X170502575Y-88543069D01*
X170489677Y-88559046D01*
X170455300Y-88583531D01*
X170410481Y-88603132D01*
X170305335Y-88643737D01*
X169636659Y-88368109D01*
G37*
G36*
X170992304Y-77069495D02*
G01*
X170992304Y-77269530D01*
X171740787Y-77584298D01*
X171740787Y-77589916D01*
X170992304Y-77901875D01*
X170992304Y-78101971D01*
X171981000Y-78101971D01*
X171981000Y-77967637D01*
X171168281Y-77967637D01*
X171168281Y-77964829D01*
X171981000Y-77630460D01*
X171981000Y-77540945D01*
X171168281Y-77206577D01*
X171168281Y-77203768D01*
X171981000Y-77203768D01*
X171981000Y-77069495D01*
X170992304Y-77069495D01*
G37*
G36*
X171845649Y-78287760D02*
G01*
X171884585Y-78301212D01*
X171918602Y-78322787D01*
X171946561Y-78350854D01*
X171968273Y-78384595D01*
X171984114Y-78424310D01*
X171993462Y-78467083D01*
X171996631Y-78512482D01*
X171989721Y-78584956D01*
X171970192Y-78645350D01*
X171949145Y-78680875D01*
X171919427Y-78713905D01*
X171879700Y-78744696D01*
X171879700Y-78747505D01*
X171981000Y-78751718D01*
X171981000Y-78863642D01*
X171925068Y-78859429D01*
X171860649Y-78858025D01*
X171522067Y-78858025D01*
X171479544Y-78853987D01*
X171438841Y-78841905D01*
X171401494Y-78821640D01*
X171368194Y-78792262D01*
X171341177Y-78755032D01*
X171319224Y-78706228D01*
X171305902Y-78650890D01*
X171301027Y-78580992D01*
X171307047Y-78511557D01*
X171325452Y-78441102D01*
X171356094Y-78375182D01*
X171398725Y-78318004D01*
X171476882Y-78393536D01*
X171450748Y-78428524D01*
X171426690Y-78469068D01*
X171409532Y-78518710D01*
X171404476Y-78547207D01*
X171402632Y-78582397D01*
X171405801Y-78621302D01*
X171414539Y-78652372D01*
X171428785Y-78679636D01*
X171446779Y-78701282D01*
X171468403Y-78718499D01*
X171492270Y-78730652D01*
X171517697Y-78738069D01*
X171542645Y-78740483D01*
X171570672Y-78740483D01*
X171570672Y-78673316D01*
X171664461Y-78673316D01*
X171664461Y-78740483D01*
X171705616Y-78740483D01*
X171738510Y-78738061D01*
X171772233Y-78730652D01*
X171804239Y-78717749D01*
X171833294Y-78698473D01*
X171857789Y-78673081D01*
X171877868Y-78639733D01*
X171890454Y-78600964D01*
X171895026Y-78551622D01*
X171891909Y-78508315D01*
X171883394Y-78474177D01*
X171870357Y-78447391D01*
X171851017Y-78426501D01*
X171824792Y-78413612D01*
X171789330Y-78408923D01*
X171753951Y-78415203D01*
X171726254Y-78433408D01*
X171704658Y-78460762D01*
X171687786Y-78496362D01*
X171676458Y-78536159D01*
X171669285Y-78581664D01*
X171664461Y-78673316D01*
X171570672Y-78673316D01*
X171570672Y-78648159D01*
X171573717Y-78573882D01*
X171582517Y-78506132D01*
X171598627Y-78442601D01*
X171621535Y-78389994D01*
X171653039Y-78345168D01*
X171691816Y-78311653D01*
X171721789Y-78296165D01*
X171757110Y-78286453D01*
X171798978Y-78283016D01*
X171845649Y-78287760D01*
G37*
G36*
X171316659Y-79041085D02*
G01*
X171316659Y-79166992D01*
X171419974Y-79166992D01*
X171419974Y-79169801D01*
X171394707Y-79184419D01*
X171371736Y-79203323D01*
X171351578Y-79225559D01*
X171334611Y-79250218D01*
X171310125Y-79306882D01*
X171303279Y-79337812D01*
X171301027Y-79368431D01*
X171303183Y-79398378D01*
X171309332Y-79424424D01*
X171443726Y-79418806D01*
X171436704Y-79388032D01*
X171433896Y-79357257D01*
X171440271Y-79297866D01*
X171457865Y-79251796D01*
X171485797Y-79215963D01*
X171523501Y-79190308D01*
X171575714Y-79173354D01*
X171647120Y-79166992D01*
X171981000Y-79166992D01*
X171981000Y-79041085D01*
X171316659Y-79041085D01*
G37*
G36*
X171492514Y-80007737D02*
G01*
X171459888Y-79971120D01*
X171437193Y-79934281D01*
X171423256Y-79893388D01*
X171418264Y-79842690D01*
X171423223Y-79793169D01*
X171437193Y-79752442D01*
X171459704Y-79717030D01*
X171489094Y-79688084D01*
X171524157Y-79665498D01*
X171564749Y-79648883D01*
X171608188Y-79638971D01*
X171653714Y-79635633D01*
X171699017Y-79639525D01*
X171741336Y-79651020D01*
X171780302Y-79669705D01*
X171813510Y-79694373D01*
X171840930Y-79725011D01*
X171861870Y-79761479D01*
X171874870Y-79802406D01*
X171879394Y-79849651D01*
X171874396Y-79900307D01*
X171860527Y-79940570D01*
X171837696Y-79976354D01*
X171805145Y-80010546D01*
X171894599Y-80100061D01*
X171927865Y-80065211D01*
X171953783Y-80027322D01*
X171972878Y-79985999D01*
X171990622Y-79919456D01*
X171996631Y-79848246D01*
X171990160Y-79773614D01*
X171971474Y-79707623D01*
X171940953Y-79648000D01*
X171900766Y-79597836D01*
X171851094Y-79557151D01*
X171791589Y-79526456D01*
X171725591Y-79507772D01*
X171650905Y-79501299D01*
X171576182Y-79507756D01*
X171509611Y-79526456D01*
X171449312Y-79557011D01*
X171399030Y-79597104D01*
X171358143Y-79646746D01*
X171326917Y-79706219D01*
X171307711Y-79772423D01*
X171301027Y-79848246D01*
X171307531Y-79919563D01*
X171326917Y-79987404D01*
X171347164Y-80029778D01*
X171373371Y-80068131D01*
X171405869Y-80102869D01*
X171492514Y-80007737D01*
G37*
G36*
X171719624Y-80182315D02*
G01*
X171785056Y-80202704D01*
X171844624Y-80235224D01*
X171895392Y-80277564D01*
X171937071Y-80329013D01*
X171969398Y-80389488D01*
X171989725Y-80455792D01*
X171996631Y-80527974D01*
X171989725Y-80600156D01*
X171969398Y-80666460D01*
X171937071Y-80726935D01*
X171895392Y-80778384D01*
X171844624Y-80820724D01*
X171785056Y-80853244D01*
X171719624Y-80873633D01*
X171648829Y-80880539D01*
X171578138Y-80873617D01*
X171513336Y-80853244D01*
X171454210Y-80820797D01*
X171402999Y-80778384D01*
X171360737Y-80726883D01*
X171328260Y-80666460D01*
X171307934Y-80600156D01*
X171301027Y-80527974D01*
X171418264Y-80527974D01*
X171422774Y-80576633D01*
X171435727Y-80618893D01*
X171456551Y-80656649D01*
X171483233Y-80687465D01*
X171515978Y-80712022D01*
X171555895Y-80730818D01*
X171599842Y-80742259D01*
X171648829Y-80746205D01*
X171697816Y-80742259D01*
X171741764Y-80730818D01*
X171781680Y-80712022D01*
X171814426Y-80687465D01*
X171841108Y-80656649D01*
X171861931Y-80618893D01*
X171874885Y-80576633D01*
X171879394Y-80527974D01*
X171874886Y-80479306D01*
X171861931Y-80436994D01*
X171841111Y-80399289D01*
X171814426Y-80368484D01*
X171781680Y-80343926D01*
X171741764Y-80325130D01*
X171697816Y-80313689D01*
X171648829Y-80309743D01*
X171599842Y-80313689D01*
X171555895Y-80325130D01*
X171515978Y-80343926D01*
X171483233Y-80368484D01*
X171456547Y-80399289D01*
X171435727Y-80436994D01*
X171422772Y-80479306D01*
X171418264Y-80527974D01*
X171301027Y-80527974D01*
X171307934Y-80455792D01*
X171328260Y-80389488D01*
X171360737Y-80329065D01*
X171402999Y-80277564D01*
X171454210Y-80235151D01*
X171513336Y-80202704D01*
X171578138Y-80182331D01*
X171648829Y-80175410D01*
X171719624Y-80182315D01*
G37*
G36*
X170992304Y-81460005D02*
G01*
X170992304Y-82082580D01*
X171117357Y-82082580D01*
X171117357Y-81594338D01*
X171426080Y-81594338D01*
X171426080Y-82048996D01*
X171551132Y-82048996D01*
X171551132Y-81594338D01*
X171981000Y-81594338D01*
X171981000Y-81460005D01*
X170992304Y-81460005D01*
G37*
G36*
X171316659Y-82240666D02*
G01*
X171316659Y-82366573D01*
X171981000Y-82366573D01*
X171981000Y-82240666D01*
X171316659Y-82240666D01*
G37*
G36*
X171080232Y-82211296D02*
G01*
X171045391Y-82218077D01*
X171015569Y-82238590D01*
X170995157Y-82268589D01*
X170988397Y-82303681D01*
X170995154Y-82338720D01*
X171015569Y-82368710D01*
X171045391Y-82389223D01*
X171080232Y-82396004D01*
X171115084Y-82389225D01*
X171144956Y-82368710D01*
X171165323Y-82338725D01*
X171172067Y-82303681D01*
X171165320Y-82268584D01*
X171144956Y-82238590D01*
X171115084Y-82218075D01*
X171080232Y-82211296D01*
G37*
G36*
X171484698Y-82918562D02*
G01*
X171458883Y-82893704D01*
X171437376Y-82863241D01*
X171423318Y-82827854D01*
X171418264Y-82782824D01*
X171423134Y-82740213D01*
X171436949Y-82705155D01*
X171451652Y-82686620D01*
X171469526Y-82675970D01*
X171491659Y-82672304D01*
X171518291Y-82677155D01*
X171538737Y-82691172D01*
X171554891Y-82711636D01*
X171567863Y-82735990D01*
X171584471Y-82791250D01*
X171594119Y-82841626D01*
X171617994Y-82917829D01*
X171634351Y-82951518D01*
X171654447Y-82979440D01*
X171679212Y-83002433D01*
X171709157Y-83019984D01*
X171743566Y-83030764D01*
X171787681Y-83034699D01*
X171840843Y-83028464D01*
X171883730Y-83010886D01*
X171920136Y-82983537D01*
X171949004Y-82949337D01*
X171970514Y-82909424D01*
X171985396Y-82863302D01*
X171993830Y-82814815D01*
X171996631Y-82766093D01*
X171990024Y-82686716D01*
X171971535Y-82621257D01*
X171950969Y-82582518D01*
X171920765Y-82545566D01*
X171879394Y-82510066D01*
X171801237Y-82605198D01*
X171830128Y-82637610D01*
X171855703Y-82673709D01*
X171873165Y-82714525D01*
X171879394Y-82766093D01*
X171874571Y-82814331D01*
X171859306Y-82857684D01*
X171847353Y-82875003D01*
X171832927Y-82888459D01*
X171815815Y-82897355D01*
X171796047Y-82900366D01*
X171770411Y-82895871D01*
X171750251Y-82882841D01*
X171734199Y-82863767D01*
X171721797Y-82840893D01*
X171705066Y-82789113D01*
X171694564Y-82740875D01*
X171672154Y-82663939D01*
X171657224Y-82629273D01*
X171638510Y-82599581D01*
X171614832Y-82574510D01*
X171585326Y-82554823D01*
X171550625Y-82542524D01*
X171505520Y-82538032D01*
X171456108Y-82543669D01*
X171415150Y-82559708D01*
X171379913Y-82584926D01*
X171351464Y-82617044D01*
X171329578Y-82654821D01*
X171313667Y-82698194D01*
X171304170Y-82743976D01*
X171301027Y-82789846D01*
X171307362Y-82855682D01*
X171326307Y-82918562D01*
X171346784Y-82956693D01*
X171374560Y-82989142D01*
X171410387Y-83016503D01*
X171484698Y-82918562D01*
G37*
G36*
X171484698Y-83539916D02*
G01*
X171458883Y-83515058D01*
X171437376Y-83484595D01*
X171423318Y-83449208D01*
X171418264Y-83404178D01*
X171423134Y-83361566D01*
X171436949Y-83326509D01*
X171451652Y-83307974D01*
X171469526Y-83297323D01*
X171491659Y-83293658D01*
X171518291Y-83298508D01*
X171538737Y-83312526D01*
X171554891Y-83332989D01*
X171567863Y-83357344D01*
X171584471Y-83412604D01*
X171594119Y-83462979D01*
X171617994Y-83539183D01*
X171634351Y-83572871D01*
X171654447Y-83600793D01*
X171679212Y-83623787D01*
X171709157Y-83641338D01*
X171743566Y-83652118D01*
X171787681Y-83656053D01*
X171840843Y-83649818D01*
X171883730Y-83632240D01*
X171920136Y-83604891D01*
X171949004Y-83570690D01*
X171970514Y-83530778D01*
X171985396Y-83484656D01*
X171993830Y-83436169D01*
X171996631Y-83387447D01*
X171990024Y-83308070D01*
X171971535Y-83242611D01*
X171950969Y-83203872D01*
X171920765Y-83166920D01*
X171879394Y-83131420D01*
X171801237Y-83226552D01*
X171830128Y-83258964D01*
X171855703Y-83295062D01*
X171873165Y-83335879D01*
X171879394Y-83387447D01*
X171874571Y-83435685D01*
X171859306Y-83479038D01*
X171847353Y-83496356D01*
X171832927Y-83509813D01*
X171815815Y-83518708D01*
X171796047Y-83521720D01*
X171770411Y-83517225D01*
X171750251Y-83504195D01*
X171734199Y-83485121D01*
X171721797Y-83462247D01*
X171705066Y-83410467D01*
X171694564Y-83362229D01*
X171672154Y-83285293D01*
X171657224Y-83250627D01*
X171638510Y-83220935D01*
X171614832Y-83195864D01*
X171585326Y-83176177D01*
X171550625Y-83163878D01*
X171505520Y-83159385D01*
X171456108Y-83165023D01*
X171415150Y-83181062D01*
X171379913Y-83206279D01*
X171351464Y-83238398D01*
X171329578Y-83276175D01*
X171313667Y-83319548D01*
X171304170Y-83365330D01*
X171301027Y-83411200D01*
X171307362Y-83477035D01*
X171326307Y-83539916D01*
X171346784Y-83578047D01*
X171374560Y-83610496D01*
X171410387Y-83637857D01*
X171484698Y-83539916D01*
G37*
G36*
X171719624Y-83783431D02*
G01*
X171785056Y-83803820D01*
X171844624Y-83836341D01*
X171895392Y-83878681D01*
X171937071Y-83930130D01*
X171969398Y-83990605D01*
X171989725Y-84056908D01*
X171996631Y-84129091D01*
X171989725Y-84201273D01*
X171969398Y-84267576D01*
X171937071Y-84328052D01*
X171895392Y-84379501D01*
X171844624Y-84421841D01*
X171785056Y-84454361D01*
X171719624Y-84474750D01*
X171648829Y-84481655D01*
X171578138Y-84474733D01*
X171513336Y-84454361D01*
X171454210Y-84421914D01*
X171402999Y-84379501D01*
X171360737Y-84327999D01*
X171328260Y-84267576D01*
X171307934Y-84201273D01*
X171301027Y-84129091D01*
X171418264Y-84129091D01*
X171422774Y-84177750D01*
X171435727Y-84220010D01*
X171456551Y-84257766D01*
X171483233Y-84288581D01*
X171515978Y-84313139D01*
X171555895Y-84331934D01*
X171599842Y-84343375D01*
X171648829Y-84347322D01*
X171697816Y-84343375D01*
X171741764Y-84331934D01*
X171781680Y-84313139D01*
X171814426Y-84288581D01*
X171841108Y-84257766D01*
X171861931Y-84220010D01*
X171874885Y-84177750D01*
X171879394Y-84129091D01*
X171874886Y-84080423D01*
X171861931Y-84038110D01*
X171841111Y-84000406D01*
X171814426Y-83969600D01*
X171781680Y-83945043D01*
X171741764Y-83926247D01*
X171697816Y-83914806D01*
X171648829Y-83910860D01*
X171599842Y-83914806D01*
X171555895Y-83926247D01*
X171515978Y-83945043D01*
X171483233Y-83969600D01*
X171456547Y-84000406D01*
X171435727Y-84038110D01*
X171422772Y-84080423D01*
X171418264Y-84129091D01*
X171301027Y-84129091D01*
X171307934Y-84056908D01*
X171328260Y-83990605D01*
X171360737Y-83930182D01*
X171402999Y-83878681D01*
X171454210Y-83836268D01*
X171513336Y-83803820D01*
X171578138Y-83783448D01*
X171648829Y-83776526D01*
X171719624Y-83783431D01*
G37*
G36*
X171316659Y-84640108D02*
G01*
X171316659Y-84766015D01*
X171419974Y-84766015D01*
X171419974Y-84768824D01*
X171394707Y-84783443D01*
X171371736Y-84802346D01*
X171351578Y-84824582D01*
X171334611Y-84849241D01*
X171310125Y-84905905D01*
X171303279Y-84936835D01*
X171301027Y-84967454D01*
X171303183Y-84997401D01*
X171309332Y-85023447D01*
X171443726Y-85017829D01*
X171436704Y-84987055D01*
X171433896Y-84956280D01*
X171440271Y-84896889D01*
X171457865Y-84850819D01*
X171485797Y-84814986D01*
X171523501Y-84789331D01*
X171575714Y-84772377D01*
X171647120Y-84766015D01*
X171981000Y-84766015D01*
X171981000Y-84640108D01*
X171316659Y-84640108D01*
G37*
G36*
X171720953Y-85099365D02*
G01*
X171786399Y-85117053D01*
X171846142Y-85146157D01*
X171896797Y-85184952D01*
X171938202Y-85233462D01*
X171970131Y-85292664D01*
X171989796Y-85358898D01*
X171996631Y-85434691D01*
X171990821Y-85509485D01*
X171974179Y-85574861D01*
X171947336Y-85632414D01*
X171910168Y-85683373D01*
X171861809Y-85728515D01*
X171789513Y-85633382D01*
X171829737Y-85594683D01*
X171860405Y-85553576D01*
X171880269Y-85507281D01*
X171887210Y-85451482D01*
X171883736Y-85408764D01*
X171873349Y-85367524D01*
X171856526Y-85329083D01*
X171834515Y-85296205D01*
X171806940Y-85268424D01*
X171774126Y-85246502D01*
X171737149Y-85232431D01*
X171695724Y-85227634D01*
X171695724Y-85759290D01*
X171650905Y-85759290D01*
X171587107Y-85754914D01*
X171524265Y-85741765D01*
X171464992Y-85718791D01*
X171412341Y-85685101D01*
X171367741Y-85640987D01*
X171331863Y-85585083D01*
X171315305Y-85543396D01*
X171304773Y-85494208D01*
X171301027Y-85436095D01*
X171301291Y-85433286D01*
X171402632Y-85433286D01*
X171406478Y-85478985D01*
X171417226Y-85516512D01*
X171434792Y-85549595D01*
X171457465Y-85575985D01*
X171485200Y-85596707D01*
X171517793Y-85611645D01*
X171553611Y-85620820D01*
X171594119Y-85624956D01*
X171594119Y-85227634D01*
X171561100Y-85231202D01*
X171526830Y-85242288D01*
X171494523Y-85259877D01*
X171465098Y-85283566D01*
X171440180Y-85312782D01*
X171419974Y-85348656D01*
X171407064Y-85388582D01*
X171402632Y-85433286D01*
X171301291Y-85433286D01*
X171307802Y-85364026D01*
X171327589Y-85298953D01*
X171359374Y-85240068D01*
X171400923Y-85190509D01*
X171451550Y-85150187D01*
X171511259Y-85119190D01*
X171576802Y-85099892D01*
X171648829Y-85093300D01*
X171720953Y-85099365D01*
G37*
G36*
X171840316Y-86268231D02*
G01*
X171443604Y-86665553D01*
X171400923Y-86706097D01*
X171352563Y-86741085D01*
X171299318Y-86765570D01*
X171270750Y-86772369D01*
X171240455Y-86774668D01*
X171205319Y-86771242D01*
X171174632Y-86761357D01*
X171147341Y-86745539D01*
X171124928Y-86725026D01*
X171107045Y-86700115D01*
X171093421Y-86670437D01*
X171085026Y-86638293D01*
X171082186Y-86604003D01*
X171086970Y-86556973D01*
X171100591Y-86517373D01*
X171122730Y-86483653D01*
X171152484Y-86456323D01*
X171189271Y-86436260D01*
X171234593Y-86423508D01*
X171222015Y-86278000D01*
X171159543Y-86292909D01*
X171108198Y-86316469D01*
X171063744Y-86348866D01*
X171027842Y-86387787D01*
X171000080Y-86433195D01*
X170980337Y-86485729D01*
X170968905Y-86542465D01*
X170964949Y-86605408D01*
X170969417Y-86668391D01*
X170982474Y-86726369D01*
X171004402Y-86780019D01*
X171034253Y-86825715D01*
X171072540Y-86863704D01*
X171119616Y-86892882D01*
X171173605Y-86910947D01*
X171239234Y-86917367D01*
X171287139Y-86913614D01*
X171330947Y-86902651D01*
X171372456Y-86885684D01*
X171411425Y-86864183D01*
X171448082Y-86838741D01*
X171482805Y-86809656D01*
X171548568Y-86745298D01*
X171863763Y-86419295D01*
X171863763Y-86917367D01*
X171981000Y-86917367D01*
X171981000Y-86268231D01*
X171840316Y-86268231D01*
G37*
G36*
X171109541Y-87518754D02*
G01*
X171109541Y-87040282D01*
X170992304Y-87040282D01*
X170992304Y-87662857D01*
X171106732Y-87662857D01*
X171981000Y-87268344D01*
X171981000Y-87117219D01*
X171109541Y-87518754D01*
G37*
G36*
X171336198Y-88008217D02*
G01*
X171336198Y-87899101D01*
X170992304Y-87899101D01*
X170992304Y-88008217D01*
X171336198Y-88008217D01*
G37*
D11*
X176064057Y-103942761D02*
X176016438Y-103847523D01*
X176016438Y-103847523D02*
X175921200Y-103752285D01*
X175921200Y-103752285D02*
X175778342Y-103609428D01*
X175778342Y-103609428D02*
X175730723Y-103514190D01*
X175730723Y-103514190D02*
X175730723Y-103418952D01*
X175968819Y-103466571D02*
X175921200Y-103371333D01*
X175921200Y-103371333D02*
X175825961Y-103276095D01*
X175825961Y-103276095D02*
X175635485Y-103228476D01*
X175635485Y-103228476D02*
X175302152Y-103228476D01*
X175302152Y-103228476D02*
X175111676Y-103276095D01*
X175111676Y-103276095D02*
X175016438Y-103371333D01*
X175016438Y-103371333D02*
X174968819Y-103466571D01*
X174968819Y-103466571D02*
X174968819Y-103657047D01*
X174968819Y-103657047D02*
X175016438Y-103752285D01*
X175016438Y-103752285D02*
X175111676Y-103847523D01*
X175111676Y-103847523D02*
X175302152Y-103895142D01*
X175302152Y-103895142D02*
X175635485Y-103895142D01*
X175635485Y-103895142D02*
X175825961Y-103847523D01*
X175825961Y-103847523D02*
X175921200Y-103752285D01*
X175921200Y-103752285D02*
X175968819Y-103657047D01*
X175968819Y-103657047D02*
X175968819Y-103466571D01*
X175968819Y-104847523D02*
X175968819Y-104276095D01*
X175968819Y-104561809D02*
X174968819Y-104561809D01*
X174968819Y-104561809D02*
X175111676Y-104466571D01*
X175111676Y-104466571D02*
X175206914Y-104371333D01*
X175206914Y-104371333D02*
X175254533Y-104276095D01*
X173799166Y-99006819D02*
X174132499Y-98530628D01*
X174370594Y-99006819D02*
X174370594Y-98006819D01*
X174370594Y-98006819D02*
X173989642Y-98006819D01*
X173989642Y-98006819D02*
X173894404Y-98054438D01*
X173894404Y-98054438D02*
X173846785Y-98102057D01*
X173846785Y-98102057D02*
X173799166Y-98197295D01*
X173799166Y-98197295D02*
X173799166Y-98340152D01*
X173799166Y-98340152D02*
X173846785Y-98435390D01*
X173846785Y-98435390D02*
X173894404Y-98483009D01*
X173894404Y-98483009D02*
X173989642Y-98530628D01*
X173989642Y-98530628D02*
X174370594Y-98530628D01*
X173227737Y-98435390D02*
X173322975Y-98387771D01*
X173322975Y-98387771D02*
X173370594Y-98340152D01*
X173370594Y-98340152D02*
X173418213Y-98244914D01*
X173418213Y-98244914D02*
X173418213Y-98197295D01*
X173418213Y-98197295D02*
X173370594Y-98102057D01*
X173370594Y-98102057D02*
X173322975Y-98054438D01*
X173322975Y-98054438D02*
X173227737Y-98006819D01*
X173227737Y-98006819D02*
X173037261Y-98006819D01*
X173037261Y-98006819D02*
X172942023Y-98054438D01*
X172942023Y-98054438D02*
X172894404Y-98102057D01*
X172894404Y-98102057D02*
X172846785Y-98197295D01*
X172846785Y-98197295D02*
X172846785Y-98244914D01*
X172846785Y-98244914D02*
X172894404Y-98340152D01*
X172894404Y-98340152D02*
X172942023Y-98387771D01*
X172942023Y-98387771D02*
X173037261Y-98435390D01*
X173037261Y-98435390D02*
X173227737Y-98435390D01*
X173227737Y-98435390D02*
X173322975Y-98483009D01*
X173322975Y-98483009D02*
X173370594Y-98530628D01*
X173370594Y-98530628D02*
X173418213Y-98625866D01*
X173418213Y-98625866D02*
X173418213Y-98816342D01*
X173418213Y-98816342D02*
X173370594Y-98911580D01*
X173370594Y-98911580D02*
X173322975Y-98959200D01*
X173322975Y-98959200D02*
X173227737Y-99006819D01*
X173227737Y-99006819D02*
X173037261Y-99006819D01*
X173037261Y-99006819D02*
X172942023Y-98959200D01*
X172942023Y-98959200D02*
X172894404Y-98911580D01*
X172894404Y-98911580D02*
X172846785Y-98816342D01*
X172846785Y-98816342D02*
X172846785Y-98625866D01*
X172846785Y-98625866D02*
X172894404Y-98530628D01*
X172894404Y-98530628D02*
X172942023Y-98483009D01*
X172942023Y-98483009D02*
X173037261Y-98435390D01*
X180982857Y-87830819D02*
X181316190Y-87354628D01*
X181554285Y-87830819D02*
X181554285Y-86830819D01*
X181554285Y-86830819D02*
X181173333Y-86830819D01*
X181173333Y-86830819D02*
X181078095Y-86878438D01*
X181078095Y-86878438D02*
X181030476Y-86926057D01*
X181030476Y-86926057D02*
X180982857Y-87021295D01*
X180982857Y-87021295D02*
X180982857Y-87164152D01*
X180982857Y-87164152D02*
X181030476Y-87259390D01*
X181030476Y-87259390D02*
X181078095Y-87307009D01*
X181078095Y-87307009D02*
X181173333Y-87354628D01*
X181173333Y-87354628D02*
X181554285Y-87354628D01*
X180030476Y-87830819D02*
X180601904Y-87830819D01*
X180316190Y-87830819D02*
X180316190Y-86830819D01*
X180316190Y-86830819D02*
X180411428Y-86973676D01*
X180411428Y-86973676D02*
X180506666Y-87068914D01*
X180506666Y-87068914D02*
X180601904Y-87116533D01*
X179649523Y-86926057D02*
X179601904Y-86878438D01*
X179601904Y-86878438D02*
X179506666Y-86830819D01*
X179506666Y-86830819D02*
X179268571Y-86830819D01*
X179268571Y-86830819D02*
X179173333Y-86878438D01*
X179173333Y-86878438D02*
X179125714Y-86926057D01*
X179125714Y-86926057D02*
X179078095Y-87021295D01*
X179078095Y-87021295D02*
X179078095Y-87116533D01*
X179078095Y-87116533D02*
X179125714Y-87259390D01*
X179125714Y-87259390D02*
X179697142Y-87830819D01*
X179697142Y-87830819D02*
X179078095Y-87830819D01*
X170126819Y-108680642D02*
X169650628Y-108347309D01*
X170126819Y-108109214D02*
X169126819Y-108109214D01*
X169126819Y-108109214D02*
X169126819Y-108490166D01*
X169126819Y-108490166D02*
X169174438Y-108585404D01*
X169174438Y-108585404D02*
X169222057Y-108633023D01*
X169222057Y-108633023D02*
X169317295Y-108680642D01*
X169317295Y-108680642D02*
X169460152Y-108680642D01*
X169460152Y-108680642D02*
X169555390Y-108633023D01*
X169555390Y-108633023D02*
X169603009Y-108585404D01*
X169603009Y-108585404D02*
X169650628Y-108490166D01*
X169650628Y-108490166D02*
X169650628Y-108109214D01*
X170126819Y-109633023D02*
X170126819Y-109061595D01*
X170126819Y-109347309D02*
X169126819Y-109347309D01*
X169126819Y-109347309D02*
X169269676Y-109252071D01*
X169269676Y-109252071D02*
X169364914Y-109156833D01*
X169364914Y-109156833D02*
X169412533Y-109061595D01*
X169126819Y-109966357D02*
X169126819Y-110585404D01*
X169126819Y-110585404D02*
X169507771Y-110252071D01*
X169507771Y-110252071D02*
X169507771Y-110394928D01*
X169507771Y-110394928D02*
X169555390Y-110490166D01*
X169555390Y-110490166D02*
X169603009Y-110537785D01*
X169603009Y-110537785D02*
X169698247Y-110585404D01*
X169698247Y-110585404D02*
X169936342Y-110585404D01*
X169936342Y-110585404D02*
X170031580Y-110537785D01*
X170031580Y-110537785D02*
X170079200Y-110490166D01*
X170079200Y-110490166D02*
X170126819Y-110394928D01*
X170126819Y-110394928D02*
X170126819Y-110109214D01*
X170126819Y-110109214D02*
X170079200Y-110013976D01*
X170079200Y-110013976D02*
X170031580Y-109966357D01*
X175968819Y-67325642D02*
X175492628Y-66992309D01*
X175968819Y-66754214D02*
X174968819Y-66754214D01*
X174968819Y-66754214D02*
X174968819Y-67135166D01*
X174968819Y-67135166D02*
X175016438Y-67230404D01*
X175016438Y-67230404D02*
X175064057Y-67278023D01*
X175064057Y-67278023D02*
X175159295Y-67325642D01*
X175159295Y-67325642D02*
X175302152Y-67325642D01*
X175302152Y-67325642D02*
X175397390Y-67278023D01*
X175397390Y-67278023D02*
X175445009Y-67230404D01*
X175445009Y-67230404D02*
X175492628Y-67135166D01*
X175492628Y-67135166D02*
X175492628Y-66754214D01*
X175968819Y-68278023D02*
X175968819Y-67706595D01*
X175968819Y-67992309D02*
X174968819Y-67992309D01*
X174968819Y-67992309D02*
X175111676Y-67897071D01*
X175111676Y-67897071D02*
X175206914Y-67801833D01*
X175206914Y-67801833D02*
X175254533Y-67706595D01*
X174968819Y-69135166D02*
X174968819Y-68944690D01*
X174968819Y-68944690D02*
X175016438Y-68849452D01*
X175016438Y-68849452D02*
X175064057Y-68801833D01*
X175064057Y-68801833D02*
X175206914Y-68706595D01*
X175206914Y-68706595D02*
X175397390Y-68658976D01*
X175397390Y-68658976D02*
X175778342Y-68658976D01*
X175778342Y-68658976D02*
X175873580Y-68706595D01*
X175873580Y-68706595D02*
X175921200Y-68754214D01*
X175921200Y-68754214D02*
X175968819Y-68849452D01*
X175968819Y-68849452D02*
X175968819Y-69039928D01*
X175968819Y-69039928D02*
X175921200Y-69135166D01*
X175921200Y-69135166D02*
X175873580Y-69182785D01*
X175873580Y-69182785D02*
X175778342Y-69230404D01*
X175778342Y-69230404D02*
X175540247Y-69230404D01*
X175540247Y-69230404D02*
X175445009Y-69182785D01*
X175445009Y-69182785D02*
X175397390Y-69135166D01*
X175397390Y-69135166D02*
X175349771Y-69039928D01*
X175349771Y-69039928D02*
X175349771Y-68849452D01*
X175349771Y-68849452D02*
X175397390Y-68754214D01*
X175397390Y-68754214D02*
X175445009Y-68706595D01*
X175445009Y-68706595D02*
X175540247Y-68658976D01*
X170126819Y-112744642D02*
X169650628Y-112411309D01*
X170126819Y-112173214D02*
X169126819Y-112173214D01*
X169126819Y-112173214D02*
X169126819Y-112554166D01*
X169126819Y-112554166D02*
X169174438Y-112649404D01*
X169174438Y-112649404D02*
X169222057Y-112697023D01*
X169222057Y-112697023D02*
X169317295Y-112744642D01*
X169317295Y-112744642D02*
X169460152Y-112744642D01*
X169460152Y-112744642D02*
X169555390Y-112697023D01*
X169555390Y-112697023D02*
X169603009Y-112649404D01*
X169603009Y-112649404D02*
X169650628Y-112554166D01*
X169650628Y-112554166D02*
X169650628Y-112173214D01*
X170126819Y-113697023D02*
X170126819Y-113125595D01*
X170126819Y-113411309D02*
X169126819Y-113411309D01*
X169126819Y-113411309D02*
X169269676Y-113316071D01*
X169269676Y-113316071D02*
X169364914Y-113220833D01*
X169364914Y-113220833D02*
X169412533Y-113125595D01*
X169460152Y-114554166D02*
X170126819Y-114554166D01*
X169079200Y-114316071D02*
X169793485Y-114077976D01*
X169793485Y-114077976D02*
X169793485Y-114697023D01*
X169688738Y-92130057D02*
X169783976Y-92082438D01*
X169783976Y-92082438D02*
X169879214Y-91987200D01*
X169879214Y-91987200D02*
X170022071Y-91844342D01*
X170022071Y-91844342D02*
X170117309Y-91796723D01*
X170117309Y-91796723D02*
X170212547Y-91796723D01*
X170164928Y-92034819D02*
X170260166Y-91987200D01*
X170260166Y-91987200D02*
X170355404Y-91891961D01*
X170355404Y-91891961D02*
X170403023Y-91701485D01*
X170403023Y-91701485D02*
X170403023Y-91368152D01*
X170403023Y-91368152D02*
X170355404Y-91177676D01*
X170355404Y-91177676D02*
X170260166Y-91082438D01*
X170260166Y-91082438D02*
X170164928Y-91034819D01*
X170164928Y-91034819D02*
X169974452Y-91034819D01*
X169974452Y-91034819D02*
X169879214Y-91082438D01*
X169879214Y-91082438D02*
X169783976Y-91177676D01*
X169783976Y-91177676D02*
X169736357Y-91368152D01*
X169736357Y-91368152D02*
X169736357Y-91701485D01*
X169736357Y-91701485D02*
X169783976Y-91891961D01*
X169783976Y-91891961D02*
X169879214Y-91987200D01*
X169879214Y-91987200D02*
X169974452Y-92034819D01*
X169974452Y-92034819D02*
X170164928Y-92034819D01*
X169403023Y-91034819D02*
X168783976Y-91034819D01*
X168783976Y-91034819D02*
X169117309Y-91415771D01*
X169117309Y-91415771D02*
X168974452Y-91415771D01*
X168974452Y-91415771D02*
X168879214Y-91463390D01*
X168879214Y-91463390D02*
X168831595Y-91511009D01*
X168831595Y-91511009D02*
X168783976Y-91606247D01*
X168783976Y-91606247D02*
X168783976Y-91844342D01*
X168783976Y-91844342D02*
X168831595Y-91939580D01*
X168831595Y-91939580D02*
X168879214Y-91987200D01*
X168879214Y-91987200D02*
X168974452Y-92034819D01*
X168974452Y-92034819D02*
X169260166Y-92034819D01*
X169260166Y-92034819D02*
X169355404Y-91987200D01*
X169355404Y-91987200D02*
X169403023Y-91939580D01*
X161490819Y-112542905D02*
X160490819Y-112542905D01*
X160490819Y-112542905D02*
X160490819Y-112781000D01*
X160490819Y-112781000D02*
X160538438Y-112923857D01*
X160538438Y-112923857D02*
X160633676Y-113019095D01*
X160633676Y-113019095D02*
X160728914Y-113066714D01*
X160728914Y-113066714D02*
X160919390Y-113114333D01*
X160919390Y-113114333D02*
X161062247Y-113114333D01*
X161062247Y-113114333D02*
X161252723Y-113066714D01*
X161252723Y-113066714D02*
X161347961Y-113019095D01*
X161347961Y-113019095D02*
X161443200Y-112923857D01*
X161443200Y-112923857D02*
X161490819Y-112781000D01*
X161490819Y-112781000D02*
X161490819Y-112542905D01*
X160490819Y-114019095D02*
X160490819Y-113542905D01*
X160490819Y-113542905D02*
X160967009Y-113495286D01*
X160967009Y-113495286D02*
X160919390Y-113542905D01*
X160919390Y-113542905D02*
X160871771Y-113638143D01*
X160871771Y-113638143D02*
X160871771Y-113876238D01*
X160871771Y-113876238D02*
X160919390Y-113971476D01*
X160919390Y-113971476D02*
X160967009Y-114019095D01*
X160967009Y-114019095D02*
X161062247Y-114066714D01*
X161062247Y-114066714D02*
X161300342Y-114066714D01*
X161300342Y-114066714D02*
X161395580Y-114019095D01*
X161395580Y-114019095D02*
X161443200Y-113971476D01*
X161443200Y-113971476D02*
X161490819Y-113876238D01*
X161490819Y-113876238D02*
X161490819Y-113638143D01*
X161490819Y-113638143D02*
X161443200Y-113542905D01*
X161443200Y-113542905D02*
X161395580Y-113495286D01*
X160998819Y-102870095D02*
X161808342Y-102870095D01*
X161808342Y-102870095D02*
X161903580Y-102917714D01*
X161903580Y-102917714D02*
X161951200Y-102965333D01*
X161951200Y-102965333D02*
X161998819Y-103060571D01*
X161998819Y-103060571D02*
X161998819Y-103251047D01*
X161998819Y-103251047D02*
X161951200Y-103346285D01*
X161951200Y-103346285D02*
X161903580Y-103393904D01*
X161903580Y-103393904D02*
X161808342Y-103441523D01*
X161808342Y-103441523D02*
X160998819Y-103441523D01*
X161332152Y-104346285D02*
X161998819Y-104346285D01*
X160951200Y-104108190D02*
X161665485Y-103870095D01*
X161665485Y-103870095D02*
X161665485Y-104489142D01*
X177492819Y-58388642D02*
X177016628Y-58055309D01*
X177492819Y-57817214D02*
X176492819Y-57817214D01*
X176492819Y-57817214D02*
X176492819Y-58198166D01*
X176492819Y-58198166D02*
X176540438Y-58293404D01*
X176540438Y-58293404D02*
X176588057Y-58341023D01*
X176588057Y-58341023D02*
X176683295Y-58388642D01*
X176683295Y-58388642D02*
X176826152Y-58388642D01*
X176826152Y-58388642D02*
X176921390Y-58341023D01*
X176921390Y-58341023D02*
X176969009Y-58293404D01*
X176969009Y-58293404D02*
X177016628Y-58198166D01*
X177016628Y-58198166D02*
X177016628Y-57817214D01*
X177492819Y-59341023D02*
X177492819Y-58769595D01*
X177492819Y-59055309D02*
X176492819Y-59055309D01*
X176492819Y-59055309D02*
X176635676Y-58960071D01*
X176635676Y-58960071D02*
X176730914Y-58864833D01*
X176730914Y-58864833D02*
X176778533Y-58769595D01*
X176492819Y-60245785D02*
X176492819Y-59769595D01*
X176492819Y-59769595D02*
X176969009Y-59721976D01*
X176969009Y-59721976D02*
X176921390Y-59769595D01*
X176921390Y-59769595D02*
X176873771Y-59864833D01*
X176873771Y-59864833D02*
X176873771Y-60102928D01*
X176873771Y-60102928D02*
X176921390Y-60198166D01*
X176921390Y-60198166D02*
X176969009Y-60245785D01*
X176969009Y-60245785D02*
X177064247Y-60293404D01*
X177064247Y-60293404D02*
X177302342Y-60293404D01*
X177302342Y-60293404D02*
X177397580Y-60245785D01*
X177397580Y-60245785D02*
X177445200Y-60198166D01*
X177445200Y-60198166D02*
X177492819Y-60102928D01*
X177492819Y-60102928D02*
X177492819Y-59864833D01*
X177492819Y-59864833D02*
X177445200Y-59769595D01*
X177445200Y-59769595D02*
X177397580Y-59721976D01*
X163935580Y-113559333D02*
X163983200Y-113511714D01*
X163983200Y-113511714D02*
X164030819Y-113368857D01*
X164030819Y-113368857D02*
X164030819Y-113273619D01*
X164030819Y-113273619D02*
X163983200Y-113130762D01*
X163983200Y-113130762D02*
X163887961Y-113035524D01*
X163887961Y-113035524D02*
X163792723Y-112987905D01*
X163792723Y-112987905D02*
X163602247Y-112940286D01*
X163602247Y-112940286D02*
X163459390Y-112940286D01*
X163459390Y-112940286D02*
X163268914Y-112987905D01*
X163268914Y-112987905D02*
X163173676Y-113035524D01*
X163173676Y-113035524D02*
X163078438Y-113130762D01*
X163078438Y-113130762D02*
X163030819Y-113273619D01*
X163030819Y-113273619D02*
X163030819Y-113368857D01*
X163030819Y-113368857D02*
X163078438Y-113511714D01*
X163078438Y-113511714D02*
X163126057Y-113559333D01*
X163364152Y-114416476D02*
X164030819Y-114416476D01*
X162983200Y-114178381D02*
X163697485Y-113940286D01*
X163697485Y-113940286D02*
X163697485Y-114559333D01*
X162284666Y-109071580D02*
X162332285Y-109119200D01*
X162332285Y-109119200D02*
X162475142Y-109166819D01*
X162475142Y-109166819D02*
X162570380Y-109166819D01*
X162570380Y-109166819D02*
X162713237Y-109119200D01*
X162713237Y-109119200D02*
X162808475Y-109023961D01*
X162808475Y-109023961D02*
X162856094Y-108928723D01*
X162856094Y-108928723D02*
X162903713Y-108738247D01*
X162903713Y-108738247D02*
X162903713Y-108595390D01*
X162903713Y-108595390D02*
X162856094Y-108404914D01*
X162856094Y-108404914D02*
X162808475Y-108309676D01*
X162808475Y-108309676D02*
X162713237Y-108214438D01*
X162713237Y-108214438D02*
X162570380Y-108166819D01*
X162570380Y-108166819D02*
X162475142Y-108166819D01*
X162475142Y-108166819D02*
X162332285Y-108214438D01*
X162332285Y-108214438D02*
X162284666Y-108262057D01*
X161951332Y-108166819D02*
X161332285Y-108166819D01*
X161332285Y-108166819D02*
X161665618Y-108547771D01*
X161665618Y-108547771D02*
X161522761Y-108547771D01*
X161522761Y-108547771D02*
X161427523Y-108595390D01*
X161427523Y-108595390D02*
X161379904Y-108643009D01*
X161379904Y-108643009D02*
X161332285Y-108738247D01*
X161332285Y-108738247D02*
X161332285Y-108976342D01*
X161332285Y-108976342D02*
X161379904Y-109071580D01*
X161379904Y-109071580D02*
X161427523Y-109119200D01*
X161427523Y-109119200D02*
X161522761Y-109166819D01*
X161522761Y-109166819D02*
X161808475Y-109166819D01*
X161808475Y-109166819D02*
X161903713Y-109119200D01*
X161903713Y-109119200D02*
X161951332Y-109071580D01*
G36*
X182258835Y-55979821D02*
G01*
X182646262Y-55979821D01*
X182675892Y-55981782D01*
X182707421Y-55987871D01*
X182737855Y-55998604D01*
X182765883Y-56014718D01*
X182790035Y-56036261D01*
X182809612Y-56063958D01*
X182818729Y-56084906D01*
X182824514Y-56109722D01*
X182826572Y-56139184D01*
X182824513Y-56168647D01*
X182818728Y-56193449D01*
X182809612Y-56214372D01*
X182790030Y-56242094D01*
X182765883Y-56263612D01*
X182737852Y-56279756D01*
X182707421Y-56290498D01*
X182675892Y-56296587D01*
X182646262Y-56298548D01*
X182258835Y-56298548D01*
X182258835Y-56384522D01*
X182659471Y-56384522D01*
X182695956Y-56382340D01*
X182729264Y-56376008D01*
X182759826Y-56365725D01*
X182802077Y-56343208D01*
X182837905Y-56313789D01*
X182867043Y-56277881D01*
X182888786Y-56235866D01*
X182902068Y-56189767D01*
X182906606Y-56139184D01*
X182902069Y-56088597D01*
X182888786Y-56042464D01*
X182867045Y-56000482D01*
X182837905Y-55964580D01*
X182802077Y-55935161D01*
X182759826Y-55912644D01*
X182729264Y-55902361D01*
X182695956Y-55896029D01*
X182659471Y-55893847D01*
X182258835Y-55893847D01*
X182258835Y-55979821D01*
G37*
G36*
X182357157Y-56696019D02*
G01*
X182463921Y-56579642D01*
X182403895Y-56529504D01*
X182258835Y-56705867D01*
X182258835Y-56781993D01*
X182891600Y-56781993D01*
X182891600Y-56696019D01*
X182357157Y-56696019D01*
G37*
X166115904Y-64732819D02*
X166115904Y-65542342D01*
X166115904Y-65542342D02*
X166068285Y-65637580D01*
X166068285Y-65637580D02*
X166020666Y-65685200D01*
X166020666Y-65685200D02*
X165925428Y-65732819D01*
X165925428Y-65732819D02*
X165734952Y-65732819D01*
X165734952Y-65732819D02*
X165639714Y-65685200D01*
X165639714Y-65685200D02*
X165592095Y-65637580D01*
X165592095Y-65637580D02*
X165544476Y-65542342D01*
X165544476Y-65542342D02*
X165544476Y-64732819D01*
X165163523Y-64732819D02*
X164544476Y-64732819D01*
X164544476Y-64732819D02*
X164877809Y-65113771D01*
X164877809Y-65113771D02*
X164734952Y-65113771D01*
X164734952Y-65113771D02*
X164639714Y-65161390D01*
X164639714Y-65161390D02*
X164592095Y-65209009D01*
X164592095Y-65209009D02*
X164544476Y-65304247D01*
X164544476Y-65304247D02*
X164544476Y-65542342D01*
X164544476Y-65542342D02*
X164592095Y-65637580D01*
X164592095Y-65637580D02*
X164639714Y-65685200D01*
X164639714Y-65685200D02*
X164734952Y-65732819D01*
X164734952Y-65732819D02*
X165020666Y-65732819D01*
X165020666Y-65732819D02*
X165115904Y-65685200D01*
X165115904Y-65685200D02*
X165163523Y-65637580D01*
X155140819Y-64277642D02*
X154664628Y-63944309D01*
X155140819Y-63706214D02*
X154140819Y-63706214D01*
X154140819Y-63706214D02*
X154140819Y-64087166D01*
X154140819Y-64087166D02*
X154188438Y-64182404D01*
X154188438Y-64182404D02*
X154236057Y-64230023D01*
X154236057Y-64230023D02*
X154331295Y-64277642D01*
X154331295Y-64277642D02*
X154474152Y-64277642D01*
X154474152Y-64277642D02*
X154569390Y-64230023D01*
X154569390Y-64230023D02*
X154617009Y-64182404D01*
X154617009Y-64182404D02*
X154664628Y-64087166D01*
X154664628Y-64087166D02*
X154664628Y-63706214D01*
X155140819Y-65230023D02*
X155140819Y-64658595D01*
X155140819Y-64944309D02*
X154140819Y-64944309D01*
X154140819Y-64944309D02*
X154283676Y-64849071D01*
X154283676Y-64849071D02*
X154378914Y-64753833D01*
X154378914Y-64753833D02*
X154426533Y-64658595D01*
X154569390Y-65801452D02*
X154521771Y-65706214D01*
X154521771Y-65706214D02*
X154474152Y-65658595D01*
X154474152Y-65658595D02*
X154378914Y-65610976D01*
X154378914Y-65610976D02*
X154331295Y-65610976D01*
X154331295Y-65610976D02*
X154236057Y-65658595D01*
X154236057Y-65658595D02*
X154188438Y-65706214D01*
X154188438Y-65706214D02*
X154140819Y-65801452D01*
X154140819Y-65801452D02*
X154140819Y-65991928D01*
X154140819Y-65991928D02*
X154188438Y-66087166D01*
X154188438Y-66087166D02*
X154236057Y-66134785D01*
X154236057Y-66134785D02*
X154331295Y-66182404D01*
X154331295Y-66182404D02*
X154378914Y-66182404D01*
X154378914Y-66182404D02*
X154474152Y-66134785D01*
X154474152Y-66134785D02*
X154521771Y-66087166D01*
X154521771Y-66087166D02*
X154569390Y-65991928D01*
X154569390Y-65991928D02*
X154569390Y-65801452D01*
X154569390Y-65801452D02*
X154617009Y-65706214D01*
X154617009Y-65706214D02*
X154664628Y-65658595D01*
X154664628Y-65658595D02*
X154759866Y-65610976D01*
X154759866Y-65610976D02*
X154950342Y-65610976D01*
X154950342Y-65610976D02*
X155045580Y-65658595D01*
X155045580Y-65658595D02*
X155093200Y-65706214D01*
X155093200Y-65706214D02*
X155140819Y-65801452D01*
X155140819Y-65801452D02*
X155140819Y-65991928D01*
X155140819Y-65991928D02*
X155093200Y-66087166D01*
X155093200Y-66087166D02*
X155045580Y-66134785D01*
X155045580Y-66134785D02*
X154950342Y-66182404D01*
X154950342Y-66182404D02*
X154759866Y-66182404D01*
X154759866Y-66182404D02*
X154664628Y-66134785D01*
X154664628Y-66134785D02*
X154617009Y-66087166D01*
X154617009Y-66087166D02*
X154569390Y-65991928D01*
G36*
X173162304Y-52661799D02*
G01*
X173162304Y-52796071D01*
X173867739Y-52796071D01*
X173929608Y-52792389D01*
X173979821Y-52782250D01*
X174020391Y-52766701D01*
X174074349Y-52732871D01*
X174113814Y-52693245D01*
X174142922Y-52647195D01*
X174161197Y-52598784D01*
X174171315Y-52549268D01*
X174174447Y-52506460D01*
X174168101Y-52438315D01*
X174149979Y-52379970D01*
X174120591Y-52329506D01*
X174091269Y-52297687D01*
X174055119Y-52271819D01*
X174011069Y-52251748D01*
X173957620Y-52237854D01*
X173928250Y-52369379D01*
X173964294Y-52379925D01*
X173993503Y-52395364D01*
X174017032Y-52415541D01*
X174034687Y-52440574D01*
X174045558Y-52470456D01*
X174049394Y-52506521D01*
X174044071Y-52553539D01*
X174029855Y-52586938D01*
X174007328Y-52613737D01*
X173978930Y-52633833D01*
X173945893Y-52647626D01*
X173907123Y-52656181D01*
X173824813Y-52661799D01*
X173162304Y-52661799D01*
G37*
G36*
X173315933Y-53277107D02*
G01*
X173482751Y-53095269D01*
X173388962Y-53016928D01*
X173162304Y-53292495D01*
X173162304Y-53411441D01*
X174151000Y-53411441D01*
X174151000Y-53277107D01*
X173315933Y-53277107D01*
G37*
G36*
X173734244Y-53727986D02*
G01*
X173822554Y-53738604D01*
X173909485Y-53758700D01*
X173989005Y-53790323D01*
X174037638Y-53818906D01*
X174079884Y-53853543D01*
X174116317Y-53894553D01*
X174143476Y-53941296D01*
X174160548Y-53997643D01*
X174166631Y-54065951D01*
X174160545Y-54134300D01*
X174143471Y-54190642D01*
X174116317Y-54237348D01*
X174079878Y-54278391D01*
X174037632Y-54313027D01*
X173989005Y-54341579D01*
X173909481Y-54373248D01*
X173822554Y-54393358D01*
X173734244Y-54403977D01*
X173654698Y-54407341D01*
X173541430Y-54401724D01*
X173483111Y-54393865D01*
X173426026Y-54381451D01*
X173370452Y-54364286D01*
X173317643Y-54342311D01*
X173268914Y-54314122D01*
X173227395Y-54279297D01*
X173192968Y-54237619D01*
X173165846Y-54188377D01*
X173148830Y-54133085D01*
X173142771Y-54066012D01*
X173260002Y-54066012D01*
X173265115Y-54109886D01*
X173279602Y-54145757D01*
X173302424Y-54176600D01*
X173332114Y-54202421D01*
X173366710Y-54223039D01*
X173406303Y-54239485D01*
X173491666Y-54261162D01*
X173578433Y-54270931D01*
X173654698Y-54273069D01*
X173770897Y-54266779D01*
X173837044Y-54256769D01*
X173900345Y-54239485D01*
X173958512Y-54213057D01*
X174006041Y-54177203D01*
X174029720Y-54147240D01*
X174044250Y-54110808D01*
X174049394Y-54066012D01*
X174044252Y-54021214D01*
X174029722Y-53984760D01*
X174006041Y-53954759D01*
X173958516Y-53918954D01*
X173900345Y-53892538D01*
X173837044Y-53875255D01*
X173770897Y-53865244D01*
X173654698Y-53858955D01*
X173578433Y-53861031D01*
X173491666Y-53870862D01*
X173406303Y-53892538D01*
X173366710Y-53908984D01*
X173332114Y-53929602D01*
X173302424Y-53955423D01*
X173279602Y-53986266D01*
X173265115Y-54022137D01*
X173260002Y-54066012D01*
X173142771Y-54066012D01*
X173142765Y-54065951D01*
X173148828Y-53998870D01*
X173165846Y-53943585D01*
X173192965Y-53894332D01*
X173227395Y-53852605D01*
X173268910Y-53817828D01*
X173317643Y-53789651D01*
X173370450Y-53767662D01*
X173426026Y-53750450D01*
X173483108Y-53738067D01*
X173541430Y-53730178D01*
X173654698Y-53724621D01*
X173734244Y-53727986D01*
G37*
X166316819Y-112539905D02*
X165316819Y-112539905D01*
X165316819Y-112539905D02*
X165316819Y-112778000D01*
X165316819Y-112778000D02*
X165364438Y-112920857D01*
X165364438Y-112920857D02*
X165459676Y-113016095D01*
X165459676Y-113016095D02*
X165554914Y-113063714D01*
X165554914Y-113063714D02*
X165745390Y-113111333D01*
X165745390Y-113111333D02*
X165888247Y-113111333D01*
X165888247Y-113111333D02*
X166078723Y-113063714D01*
X166078723Y-113063714D02*
X166173961Y-113016095D01*
X166173961Y-113016095D02*
X166269200Y-112920857D01*
X166269200Y-112920857D02*
X166316819Y-112778000D01*
X166316819Y-112778000D02*
X166316819Y-112539905D01*
X165650152Y-113968476D02*
X166316819Y-113968476D01*
X165269200Y-113730381D02*
X165983485Y-113492286D01*
X165983485Y-113492286D02*
X165983485Y-114111333D01*
X170793580Y-98483142D02*
X170841200Y-98435523D01*
X170841200Y-98435523D02*
X170888819Y-98292666D01*
X170888819Y-98292666D02*
X170888819Y-98197428D01*
X170888819Y-98197428D02*
X170841200Y-98054571D01*
X170841200Y-98054571D02*
X170745961Y-97959333D01*
X170745961Y-97959333D02*
X170650723Y-97911714D01*
X170650723Y-97911714D02*
X170460247Y-97864095D01*
X170460247Y-97864095D02*
X170317390Y-97864095D01*
X170317390Y-97864095D02*
X170126914Y-97911714D01*
X170126914Y-97911714D02*
X170031676Y-97959333D01*
X170031676Y-97959333D02*
X169936438Y-98054571D01*
X169936438Y-98054571D02*
X169888819Y-98197428D01*
X169888819Y-98197428D02*
X169888819Y-98292666D01*
X169888819Y-98292666D02*
X169936438Y-98435523D01*
X169936438Y-98435523D02*
X169984057Y-98483142D01*
X170888819Y-99435523D02*
X170888819Y-98864095D01*
X170888819Y-99149809D02*
X169888819Y-99149809D01*
X169888819Y-99149809D02*
X170031676Y-99054571D01*
X170031676Y-99054571D02*
X170126914Y-98959333D01*
X170126914Y-98959333D02*
X170174533Y-98864095D01*
X170888819Y-100387904D02*
X170888819Y-99816476D01*
X170888819Y-100102190D02*
X169888819Y-100102190D01*
X169888819Y-100102190D02*
X170031676Y-100006952D01*
X170031676Y-100006952D02*
X170126914Y-99911714D01*
X170126914Y-99911714D02*
X170174533Y-99816476D01*
X155140819Y-60825142D02*
X154664628Y-60491809D01*
X155140819Y-60253714D02*
X154140819Y-60253714D01*
X154140819Y-60253714D02*
X154140819Y-60634666D01*
X154140819Y-60634666D02*
X154188438Y-60729904D01*
X154188438Y-60729904D02*
X154236057Y-60777523D01*
X154236057Y-60777523D02*
X154331295Y-60825142D01*
X154331295Y-60825142D02*
X154474152Y-60825142D01*
X154474152Y-60825142D02*
X154569390Y-60777523D01*
X154569390Y-60777523D02*
X154617009Y-60729904D01*
X154617009Y-60729904D02*
X154664628Y-60634666D01*
X154664628Y-60634666D02*
X154664628Y-60253714D01*
X155140819Y-61777523D02*
X155140819Y-61206095D01*
X155140819Y-61491809D02*
X154140819Y-61491809D01*
X154140819Y-61491809D02*
X154283676Y-61396571D01*
X154283676Y-61396571D02*
X154378914Y-61301333D01*
X154378914Y-61301333D02*
X154426533Y-61206095D01*
X155140819Y-62253714D02*
X155140819Y-62444190D01*
X155140819Y-62444190D02*
X155093200Y-62539428D01*
X155093200Y-62539428D02*
X155045580Y-62587047D01*
X155045580Y-62587047D02*
X154902723Y-62682285D01*
X154902723Y-62682285D02*
X154712247Y-62729904D01*
X154712247Y-62729904D02*
X154331295Y-62729904D01*
X154331295Y-62729904D02*
X154236057Y-62682285D01*
X154236057Y-62682285D02*
X154188438Y-62634666D01*
X154188438Y-62634666D02*
X154140819Y-62539428D01*
X154140819Y-62539428D02*
X154140819Y-62348952D01*
X154140819Y-62348952D02*
X154188438Y-62253714D01*
X154188438Y-62253714D02*
X154236057Y-62206095D01*
X154236057Y-62206095D02*
X154331295Y-62158476D01*
X154331295Y-62158476D02*
X154569390Y-62158476D01*
X154569390Y-62158476D02*
X154664628Y-62206095D01*
X154664628Y-62206095D02*
X154712247Y-62253714D01*
X154712247Y-62253714D02*
X154759866Y-62348952D01*
X154759866Y-62348952D02*
X154759866Y-62539428D01*
X154759866Y-62539428D02*
X154712247Y-62634666D01*
X154712247Y-62634666D02*
X154664628Y-62682285D01*
X154664628Y-62682285D02*
X154569390Y-62729904D01*
X157426819Y-109246905D02*
X156426819Y-109246905D01*
X156426819Y-109246905D02*
X156426819Y-109485000D01*
X156426819Y-109485000D02*
X156474438Y-109627857D01*
X156474438Y-109627857D02*
X156569676Y-109723095D01*
X156569676Y-109723095D02*
X156664914Y-109770714D01*
X156664914Y-109770714D02*
X156855390Y-109818333D01*
X156855390Y-109818333D02*
X156998247Y-109818333D01*
X156998247Y-109818333D02*
X157188723Y-109770714D01*
X157188723Y-109770714D02*
X157283961Y-109723095D01*
X157283961Y-109723095D02*
X157379200Y-109627857D01*
X157379200Y-109627857D02*
X157426819Y-109485000D01*
X157426819Y-109485000D02*
X157426819Y-109246905D01*
X156426819Y-110151667D02*
X156426819Y-110770714D01*
X156426819Y-110770714D02*
X156807771Y-110437381D01*
X156807771Y-110437381D02*
X156807771Y-110580238D01*
X156807771Y-110580238D02*
X156855390Y-110675476D01*
X156855390Y-110675476D02*
X156903009Y-110723095D01*
X156903009Y-110723095D02*
X156998247Y-110770714D01*
X156998247Y-110770714D02*
X157236342Y-110770714D01*
X157236342Y-110770714D02*
X157331580Y-110723095D01*
X157331580Y-110723095D02*
X157379200Y-110675476D01*
X157379200Y-110675476D02*
X157426819Y-110580238D01*
X157426819Y-110580238D02*
X157426819Y-110294524D01*
X157426819Y-110294524D02*
X157379200Y-110199286D01*
X157379200Y-110199286D02*
X157331580Y-110151667D01*
X179490666Y-53699580D02*
X179538285Y-53747200D01*
X179538285Y-53747200D02*
X179681142Y-53794819D01*
X179681142Y-53794819D02*
X179776380Y-53794819D01*
X179776380Y-53794819D02*
X179919237Y-53747200D01*
X179919237Y-53747200D02*
X180014475Y-53651961D01*
X180014475Y-53651961D02*
X180062094Y-53556723D01*
X180062094Y-53556723D02*
X180109713Y-53366247D01*
X180109713Y-53366247D02*
X180109713Y-53223390D01*
X180109713Y-53223390D02*
X180062094Y-53032914D01*
X180062094Y-53032914D02*
X180014475Y-52937676D01*
X180014475Y-52937676D02*
X179919237Y-52842438D01*
X179919237Y-52842438D02*
X179776380Y-52794819D01*
X179776380Y-52794819D02*
X179681142Y-52794819D01*
X179681142Y-52794819D02*
X179538285Y-52842438D01*
X179538285Y-52842438D02*
X179490666Y-52890057D01*
X179109713Y-52890057D02*
X179062094Y-52842438D01*
X179062094Y-52842438D02*
X178966856Y-52794819D01*
X178966856Y-52794819D02*
X178728761Y-52794819D01*
X178728761Y-52794819D02*
X178633523Y-52842438D01*
X178633523Y-52842438D02*
X178585904Y-52890057D01*
X178585904Y-52890057D02*
X178538285Y-52985295D01*
X178538285Y-52985295D02*
X178538285Y-53080533D01*
X178538285Y-53080533D02*
X178585904Y-53223390D01*
X178585904Y-53223390D02*
X179157332Y-53794819D01*
X179157332Y-53794819D02*
X178538285Y-53794819D01*
X177426857Y-87830819D02*
X177760190Y-87354628D01*
X177998285Y-87830819D02*
X177998285Y-86830819D01*
X177998285Y-86830819D02*
X177617333Y-86830819D01*
X177617333Y-86830819D02*
X177522095Y-86878438D01*
X177522095Y-86878438D02*
X177474476Y-86926057D01*
X177474476Y-86926057D02*
X177426857Y-87021295D01*
X177426857Y-87021295D02*
X177426857Y-87164152D01*
X177426857Y-87164152D02*
X177474476Y-87259390D01*
X177474476Y-87259390D02*
X177522095Y-87307009D01*
X177522095Y-87307009D02*
X177617333Y-87354628D01*
X177617333Y-87354628D02*
X177998285Y-87354628D01*
X176474476Y-87830819D02*
X177045904Y-87830819D01*
X176760190Y-87830819D02*
X176760190Y-86830819D01*
X176760190Y-86830819D02*
X176855428Y-86973676D01*
X176855428Y-86973676D02*
X176950666Y-87068914D01*
X176950666Y-87068914D02*
X177045904Y-87116533D01*
X175522095Y-87830819D02*
X176093523Y-87830819D01*
X175807809Y-87830819D02*
X175807809Y-86830819D01*
X175807809Y-86830819D02*
X175903047Y-86973676D01*
X175903047Y-86973676D02*
X175998285Y-87068914D01*
X175998285Y-87068914D02*
X176093523Y-87116533D01*
X177562166Y-99006819D02*
X177895499Y-98530628D01*
X178133594Y-99006819D02*
X178133594Y-98006819D01*
X178133594Y-98006819D02*
X177752642Y-98006819D01*
X177752642Y-98006819D02*
X177657404Y-98054438D01*
X177657404Y-98054438D02*
X177609785Y-98102057D01*
X177609785Y-98102057D02*
X177562166Y-98197295D01*
X177562166Y-98197295D02*
X177562166Y-98340152D01*
X177562166Y-98340152D02*
X177609785Y-98435390D01*
X177609785Y-98435390D02*
X177657404Y-98483009D01*
X177657404Y-98483009D02*
X177752642Y-98530628D01*
X177752642Y-98530628D02*
X178133594Y-98530628D01*
X177228832Y-98006819D02*
X176562166Y-98006819D01*
X176562166Y-98006819D02*
X176990737Y-99006819D01*
X176064057Y-93122761D02*
X176016438Y-93027523D01*
X176016438Y-93027523D02*
X175921200Y-92932285D01*
X175921200Y-92932285D02*
X175778342Y-92789428D01*
X175778342Y-92789428D02*
X175730723Y-92694190D01*
X175730723Y-92694190D02*
X175730723Y-92598952D01*
X175968819Y-92646571D02*
X175921200Y-92551333D01*
X175921200Y-92551333D02*
X175825961Y-92456095D01*
X175825961Y-92456095D02*
X175635485Y-92408476D01*
X175635485Y-92408476D02*
X175302152Y-92408476D01*
X175302152Y-92408476D02*
X175111676Y-92456095D01*
X175111676Y-92456095D02*
X175016438Y-92551333D01*
X175016438Y-92551333D02*
X174968819Y-92646571D01*
X174968819Y-92646571D02*
X174968819Y-92837047D01*
X174968819Y-92837047D02*
X175016438Y-92932285D01*
X175016438Y-92932285D02*
X175111676Y-93027523D01*
X175111676Y-93027523D02*
X175302152Y-93075142D01*
X175302152Y-93075142D02*
X175635485Y-93075142D01*
X175635485Y-93075142D02*
X175825961Y-93027523D01*
X175825961Y-93027523D02*
X175921200Y-92932285D01*
X175921200Y-92932285D02*
X175968819Y-92837047D01*
X175968819Y-92837047D02*
X175968819Y-92646571D01*
X174968819Y-93979904D02*
X174968819Y-93503714D01*
X174968819Y-93503714D02*
X175445009Y-93456095D01*
X175445009Y-93456095D02*
X175397390Y-93503714D01*
X175397390Y-93503714D02*
X175349771Y-93598952D01*
X175349771Y-93598952D02*
X175349771Y-93837047D01*
X175349771Y-93837047D02*
X175397390Y-93932285D01*
X175397390Y-93932285D02*
X175445009Y-93979904D01*
X175445009Y-93979904D02*
X175540247Y-94027523D01*
X175540247Y-94027523D02*
X175778342Y-94027523D01*
X175778342Y-94027523D02*
X175873580Y-93979904D01*
X175873580Y-93979904D02*
X175921200Y-93932285D01*
X175921200Y-93932285D02*
X175968819Y-93837047D01*
X175968819Y-93837047D02*
X175968819Y-93598952D01*
X175968819Y-93598952D02*
X175921200Y-93503714D01*
X175921200Y-93503714D02*
X175873580Y-93456095D01*
X158884857Y-95609580D02*
X158932476Y-95657200D01*
X158932476Y-95657200D02*
X159075333Y-95704819D01*
X159075333Y-95704819D02*
X159170571Y-95704819D01*
X159170571Y-95704819D02*
X159313428Y-95657200D01*
X159313428Y-95657200D02*
X159408666Y-95561961D01*
X159408666Y-95561961D02*
X159456285Y-95466723D01*
X159456285Y-95466723D02*
X159503904Y-95276247D01*
X159503904Y-95276247D02*
X159503904Y-95133390D01*
X159503904Y-95133390D02*
X159456285Y-94942914D01*
X159456285Y-94942914D02*
X159408666Y-94847676D01*
X159408666Y-94847676D02*
X159313428Y-94752438D01*
X159313428Y-94752438D02*
X159170571Y-94704819D01*
X159170571Y-94704819D02*
X159075333Y-94704819D01*
X159075333Y-94704819D02*
X158932476Y-94752438D01*
X158932476Y-94752438D02*
X158884857Y-94800057D01*
X157932476Y-95704819D02*
X158503904Y-95704819D01*
X158218190Y-95704819D02*
X158218190Y-94704819D01*
X158218190Y-94704819D02*
X158313428Y-94847676D01*
X158313428Y-94847676D02*
X158408666Y-94942914D01*
X158408666Y-94942914D02*
X158503904Y-94990533D01*
X157313428Y-94704819D02*
X157218190Y-94704819D01*
X157218190Y-94704819D02*
X157122952Y-94752438D01*
X157122952Y-94752438D02*
X157075333Y-94800057D01*
X157075333Y-94800057D02*
X157027714Y-94895295D01*
X157027714Y-94895295D02*
X156980095Y-95085771D01*
X156980095Y-95085771D02*
X156980095Y-95323866D01*
X156980095Y-95323866D02*
X157027714Y-95514342D01*
X157027714Y-95514342D02*
X157075333Y-95609580D01*
X157075333Y-95609580D02*
X157122952Y-95657200D01*
X157122952Y-95657200D02*
X157218190Y-95704819D01*
X157218190Y-95704819D02*
X157313428Y-95704819D01*
X157313428Y-95704819D02*
X157408666Y-95657200D01*
X157408666Y-95657200D02*
X157456285Y-95609580D01*
X157456285Y-95609580D02*
X157503904Y-95514342D01*
X157503904Y-95514342D02*
X157551523Y-95323866D01*
X157551523Y-95323866D02*
X157551523Y-95085771D01*
X157551523Y-95085771D02*
X157503904Y-94895295D01*
X157503904Y-94895295D02*
X157456285Y-94800057D01*
X157456285Y-94800057D02*
X157408666Y-94752438D01*
X157408666Y-94752438D02*
X157313428Y-94704819D01*
X175873580Y-64283333D02*
X175921200Y-64235714D01*
X175921200Y-64235714D02*
X175968819Y-64092857D01*
X175968819Y-64092857D02*
X175968819Y-63997619D01*
X175968819Y-63997619D02*
X175921200Y-63854762D01*
X175921200Y-63854762D02*
X175825961Y-63759524D01*
X175825961Y-63759524D02*
X175730723Y-63711905D01*
X175730723Y-63711905D02*
X175540247Y-63664286D01*
X175540247Y-63664286D02*
X175397390Y-63664286D01*
X175397390Y-63664286D02*
X175206914Y-63711905D01*
X175206914Y-63711905D02*
X175111676Y-63759524D01*
X175111676Y-63759524D02*
X175016438Y-63854762D01*
X175016438Y-63854762D02*
X174968819Y-63997619D01*
X174968819Y-63997619D02*
X174968819Y-64092857D01*
X174968819Y-64092857D02*
X175016438Y-64235714D01*
X175016438Y-64235714D02*
X175064057Y-64283333D01*
X175397390Y-64854762D02*
X175349771Y-64759524D01*
X175349771Y-64759524D02*
X175302152Y-64711905D01*
X175302152Y-64711905D02*
X175206914Y-64664286D01*
X175206914Y-64664286D02*
X175159295Y-64664286D01*
X175159295Y-64664286D02*
X175064057Y-64711905D01*
X175064057Y-64711905D02*
X175016438Y-64759524D01*
X175016438Y-64759524D02*
X174968819Y-64854762D01*
X174968819Y-64854762D02*
X174968819Y-65045238D01*
X174968819Y-65045238D02*
X175016438Y-65140476D01*
X175016438Y-65140476D02*
X175064057Y-65188095D01*
X175064057Y-65188095D02*
X175159295Y-65235714D01*
X175159295Y-65235714D02*
X175206914Y-65235714D01*
X175206914Y-65235714D02*
X175302152Y-65188095D01*
X175302152Y-65188095D02*
X175349771Y-65140476D01*
X175349771Y-65140476D02*
X175397390Y-65045238D01*
X175397390Y-65045238D02*
X175397390Y-64854762D01*
X175397390Y-64854762D02*
X175445009Y-64759524D01*
X175445009Y-64759524D02*
X175492628Y-64711905D01*
X175492628Y-64711905D02*
X175587866Y-64664286D01*
X175587866Y-64664286D02*
X175778342Y-64664286D01*
X175778342Y-64664286D02*
X175873580Y-64711905D01*
X175873580Y-64711905D02*
X175921200Y-64759524D01*
X175921200Y-64759524D02*
X175968819Y-64854762D01*
X175968819Y-64854762D02*
X175968819Y-65045238D01*
X175968819Y-65045238D02*
X175921200Y-65140476D01*
X175921200Y-65140476D02*
X175873580Y-65188095D01*
X175873580Y-65188095D02*
X175778342Y-65235714D01*
X175778342Y-65235714D02*
X175587866Y-65235714D01*
X175587866Y-65235714D02*
X175492628Y-65188095D01*
X175492628Y-65188095D02*
X175445009Y-65140476D01*
X175445009Y-65140476D02*
X175397390Y-65045238D01*
D12*
%TO.C,Q1*%
X171850000Y-102128000D02*
X173110000Y-102128000D01*
X171850000Y-105888000D02*
X171850000Y-102128000D01*
X178670000Y-102128000D02*
X177410000Y-102128000D01*
X178670000Y-105888000D02*
X178670000Y-102128000D01*
X178900000Y-107408000D02*
X178570000Y-107168000D01*
X178900000Y-106928000D01*
X178900000Y-107408000D01*
G36*
X178900000Y-107408000D02*
G01*
X178570000Y-107168000D01*
X178900000Y-106928000D01*
X178900000Y-107408000D01*
G37*
%TO.C,R8*%
X173405436Y-97817000D02*
X173859564Y-97817000D01*
X173405436Y-99287000D02*
X173859564Y-99287000D01*
%TO.C,R12*%
X180623564Y-86641000D02*
X180169436Y-86641000D01*
X180623564Y-88111000D02*
X180169436Y-88111000D01*
%TO.C,R13*%
X168937000Y-109096436D02*
X168937000Y-109550564D01*
X170407000Y-109096436D02*
X170407000Y-109550564D01*
%TO.C,R16*%
X174779000Y-67741436D02*
X174779000Y-68195564D01*
X176249000Y-67741436D02*
X176249000Y-68195564D01*
%TO.C,R14*%
X168937000Y-113614564D02*
X168937000Y-113160436D01*
X170407000Y-113614564D02*
X170407000Y-113160436D01*
%TO.C,Q3*%
X169593500Y-92420000D02*
X168943500Y-92420000D01*
X169593500Y-92420000D02*
X170243500Y-92420000D01*
X169593500Y-95540000D02*
X168943500Y-95540000D01*
X169593500Y-95540000D02*
X170243500Y-95540000D01*
X170756000Y-92470000D02*
X170516000Y-92140000D01*
X170996000Y-92140000D01*
X170756000Y-92470000D01*
G36*
X170756000Y-92470000D02*
G01*
X170516000Y-92140000D01*
X170996000Y-92140000D01*
X170756000Y-92470000D01*
G37*
%TO.C,D5*%
X160036000Y-111198000D02*
X160036000Y-115058000D01*
X160036000Y-111198000D02*
X162036000Y-111198000D01*
X162036000Y-111198000D02*
X162036000Y-115058000D01*
D13*
%TO.C,U4*%
X158076000Y-101350000D02*
X158076000Y-104850000D01*
X158456000Y-101350000D02*
X158076000Y-101350000D01*
X164576000Y-101350000D02*
X164196000Y-101350000D01*
X164576000Y-104850000D02*
X164576000Y-101350000D01*
D10*
X164826000Y-106600000D02*
G75*
G02*
X164626000Y-106600000I-100000J0D01*
G01*
X164626000Y-106600000D02*
G75*
G02*
X164826000Y-106600000I100000J0D01*
G01*
D12*
%TO.C,R15*%
X176303000Y-58804436D02*
X176303000Y-59258564D01*
X177773000Y-58804436D02*
X177773000Y-59258564D01*
%TO.C,C4*%
X162841000Y-113464748D02*
X162841000Y-113987252D01*
X164311000Y-113464748D02*
X164311000Y-113987252D01*
%TO.C,C3*%
X162379252Y-107977000D02*
X161856748Y-107977000D01*
X162379252Y-109447000D02*
X161856748Y-109447000D01*
D13*
%TO.C,U1*%
X178332000Y-55034500D02*
X178887000Y-55034500D01*
X178332000Y-55089500D02*
X178332000Y-55034500D01*
X178332000Y-57534500D02*
X178332000Y-57479500D01*
X178332000Y-57534500D02*
X178887000Y-57534500D01*
X180777000Y-55034500D02*
X181332000Y-55034500D01*
X180777000Y-57534500D02*
X181332000Y-57534500D01*
X181332000Y-55089500D02*
X181332000Y-55034500D01*
X181332000Y-57534500D02*
X181332000Y-57479500D01*
D11*
X177907000Y-57184500D02*
G75*
G02*
X177757000Y-57184500I-75000J0D01*
G01*
X177757000Y-57184500D02*
G75*
G02*
X177907000Y-57184500I75000J0D01*
G01*
D13*
%TO.C,U3*%
X157072000Y-57008000D02*
X157072000Y-57288000D01*
X157072000Y-73008000D02*
X157072000Y-72728000D01*
X173072000Y-57008000D02*
X157072000Y-57008000D01*
X173072000Y-57288000D02*
X173072000Y-57008000D01*
X173072000Y-72728000D02*
X173072000Y-73008000D01*
X173072000Y-73008000D02*
X157072000Y-73008000D01*
D10*
X155372000Y-72008000D02*
G75*
G02*
X155172000Y-72008000I-100000J0D01*
G01*
X155172000Y-72008000D02*
G75*
G02*
X155372000Y-72008000I100000J0D01*
G01*
D12*
%TO.C,R18*%
X153951000Y-64693436D02*
X153951000Y-65147564D01*
X155421000Y-64693436D02*
X155421000Y-65147564D01*
%TO.C,J10*%
X171454000Y-57078500D02*
X171704000Y-56578500D01*
X171704000Y-56578500D02*
X171954000Y-57078500D01*
X171954000Y-57078500D02*
X171454000Y-57078500D01*
%TO.C,D4*%
X164862000Y-111198000D02*
X164862000Y-115058000D01*
X164862000Y-111198000D02*
X166862000Y-111198000D01*
X166862000Y-111198000D02*
X166862000Y-115058000D01*
%TO.C,C11*%
X169699000Y-99387252D02*
X169699000Y-98864748D01*
X171169000Y-99387252D02*
X171169000Y-98864748D01*
%TO.C,R19*%
X153951000Y-61591564D02*
X153951000Y-61137436D01*
X155421000Y-61591564D02*
X155421000Y-61137436D01*
%TO.C,D3*%
X155972000Y-107902000D02*
X155972000Y-111762000D01*
X155972000Y-107902000D02*
X157972000Y-107902000D01*
X157972000Y-107902000D02*
X157972000Y-111762000D01*
%TO.C,C2*%
X178996748Y-52605000D02*
X179519252Y-52605000D01*
X178996748Y-54075000D02*
X179519252Y-54075000D01*
%TO.C,R11*%
X176406436Y-86641000D02*
X176860564Y-86641000D01*
X176406436Y-88111000D02*
X176860564Y-88111000D01*
%TO.C,R7*%
X177622564Y-97817000D02*
X177168436Y-97817000D01*
X177622564Y-99287000D02*
X177168436Y-99287000D01*
%TO.C,Q5*%
X171850000Y-91156000D02*
X173110000Y-91156000D01*
X171850000Y-94916000D02*
X171850000Y-91156000D01*
X178670000Y-91156000D02*
X177410000Y-91156000D01*
X178670000Y-94916000D02*
X178670000Y-91156000D01*
X178900000Y-96436000D02*
X178570000Y-96196000D01*
X178900000Y-95956000D01*
X178900000Y-96436000D01*
G36*
X178900000Y-96436000D02*
G01*
X178570000Y-96196000D01*
X178900000Y-95956000D01*
X178900000Y-96436000D01*
G37*
%TO.C,C10*%
X157980748Y-94515000D02*
X158503252Y-94515000D01*
X157980748Y-95985000D02*
X158503252Y-95985000D01*
%TO.C,C8*%
X174779000Y-64711252D02*
X174779000Y-64188748D01*
X176249000Y-64711252D02*
X176249000Y-64188748D01*
%TD*%
%LPC*%
D14*
%TO.C,U4*%
X159156000Y-107370000D02*
X158416000Y-107370000D01*
X158416000Y-105030000D01*
X159156000Y-105030000D01*
X159156000Y-107370000D01*
G36*
X159156000Y-107370000D02*
G01*
X158416000Y-107370000D01*
X158416000Y-105030000D01*
X159156000Y-105030000D01*
X159156000Y-107370000D01*
G37*
X160426000Y-107370000D02*
X159686000Y-107370000D01*
X159686000Y-105030000D01*
X160426000Y-105030000D01*
X160426000Y-107370000D01*
G36*
X160426000Y-107370000D02*
G01*
X159686000Y-107370000D01*
X159686000Y-105030000D01*
X160426000Y-105030000D01*
X160426000Y-107370000D01*
G37*
X161696000Y-107370000D02*
X160956000Y-107370000D01*
X160956000Y-105030000D01*
X161696000Y-105030000D01*
X161696000Y-107370000D01*
G36*
X161696000Y-107370000D02*
G01*
X160956000Y-107370000D01*
X160956000Y-105030000D01*
X161696000Y-105030000D01*
X161696000Y-107370000D01*
G37*
X162966000Y-107370000D02*
X162226000Y-107370000D01*
X162226000Y-105030000D01*
X162966000Y-105030000D01*
X162966000Y-107370000D01*
G36*
X162966000Y-107370000D02*
G01*
X162226000Y-107370000D01*
X162226000Y-105030000D01*
X162966000Y-105030000D01*
X162966000Y-107370000D01*
G37*
X163076000Y-101100000D02*
X159576000Y-101100000D01*
X159576000Y-98900000D01*
X163076000Y-98900000D01*
X163076000Y-101100000D01*
G36*
X163076000Y-101100000D02*
G01*
X159576000Y-101100000D01*
X159576000Y-98900000D01*
X163076000Y-98900000D01*
X163076000Y-101100000D01*
G37*
X164236000Y-107370000D02*
X163496000Y-107370000D01*
X163496000Y-105030000D01*
X164236000Y-105030000D01*
X164236000Y-107370000D01*
G36*
X164236000Y-107370000D02*
G01*
X163496000Y-107370000D01*
X163496000Y-105030000D01*
X164236000Y-105030000D01*
X164236000Y-107370000D01*
G37*
%TD*%
D15*
%TO.C,I2c1*%
X180340000Y-59944000D03*
D16*
X180340000Y-65024000D03*
%TD*%
D17*
%TO.C,P1*%
X160434000Y-110620000D03*
X166214000Y-110620000D03*
D18*
X159004000Y-110120000D03*
D19*
X159004000Y-114300000D03*
D18*
X167644000Y-110120000D03*
D19*
X167644000Y-114300000D03*
%TD*%
D15*
%TO.C,PYR1*%
X180340000Y-89916000D03*
D16*
X180340000Y-94996000D03*
%TD*%
D20*
%TO.C,C9*%
X155497500Y-91694000D03*
D21*
X160497500Y-91694000D03*
%TD*%
D15*
%TO.C,BT1*%
X179324000Y-113030000D03*
D16*
X174244000Y-113030000D03*
%TD*%
D22*
%TO.C,BZ1*%
X168148000Y-90932000D03*
D23*
X168148000Y-97182000D03*
%TD*%
D15*
%TO.C,PYR2*%
X180340000Y-100584000D03*
D16*
X180340000Y-105664000D03*
%TD*%
D15*
%TO.C,A33*%
X156464000Y-105636000D03*
D16*
X156464000Y-100556000D03*
%TD*%
D24*
%TO.C,U2*%
X181610000Y-85344000D03*
D25*
X181610000Y-82804000D03*
X181610000Y-80264000D03*
X181610000Y-77724000D03*
X173990000Y-77724000D03*
X173990000Y-80264000D03*
X173990000Y-82804000D03*
X173990000Y-85344000D03*
%TD*%
D15*
%TO.C,ARM1*%
X157988000Y-53848000D03*
D16*
X163068000Y-53848000D03*
%TD*%
D26*
%TO.C,Q1*%
X177560000Y-107188000D03*
X175260000Y-107188000D03*
D27*
X175260000Y-100888000D03*
D26*
X172960000Y-107188000D03*
%TD*%
D28*
%TO.C,R8*%
X172720000Y-98552000D03*
X174545000Y-98552000D03*
%TD*%
D29*
%TO.C,R12*%
X181309000Y-87376000D03*
X179484000Y-87376000D03*
%TD*%
D30*
%TO.C,R13*%
X169672000Y-108411000D03*
X169672000Y-110236000D03*
%TD*%
%TO.C,R16*%
X175514000Y-67056000D03*
X175514000Y-68881000D03*
%TD*%
D31*
%TO.C,R14*%
X169672000Y-114300000D03*
X169672000Y-112475000D03*
%TD*%
D32*
%TO.C,Q3*%
X170531000Y-93030000D03*
X170531000Y-94930000D03*
X168656000Y-93980000D03*
%TD*%
D33*
%TO.C,D5*%
X161036000Y-112008000D03*
X161036000Y-114808000D03*
%TD*%
D30*
%TO.C,R15*%
X177038000Y-58119000D03*
X177038000Y-59944000D03*
%TD*%
D34*
%TO.C,C4*%
X163576000Y-112776000D03*
X163576000Y-114676000D03*
%TD*%
D35*
%TO.C,C3*%
X163068000Y-108712000D03*
X161168000Y-108712000D03*
%TD*%
D36*
%TO.C,U1*%
X178669500Y-57034500D03*
X178669500Y-56534500D03*
X178669500Y-56034500D03*
X178669500Y-55534500D03*
D37*
X179332000Y-55372000D03*
X179832000Y-55372000D03*
X180332000Y-55372000D03*
D36*
X180994500Y-55534500D03*
X180994500Y-56034500D03*
X180994500Y-56534500D03*
X180994500Y-57034500D03*
D37*
X180332000Y-57197000D03*
X179832000Y-57197000D03*
X179332000Y-57197000D03*
%TD*%
D38*
%TO.C,U3*%
X156972000Y-72008000D03*
X156972000Y-70008000D03*
X156972000Y-68008000D03*
X156972000Y-66008000D03*
X156972000Y-64008000D03*
X156972000Y-62008000D03*
X156972000Y-60008000D03*
X156972000Y-58008000D03*
X173172000Y-58008000D03*
X173172000Y-60008000D03*
X173172000Y-62008000D03*
X173172000Y-64008000D03*
X173172000Y-66008000D03*
X173172000Y-68008000D03*
X173172000Y-70008000D03*
X173172000Y-72008000D03*
%TD*%
D30*
%TO.C,R18*%
X154686000Y-64008000D03*
X154686000Y-65833000D03*
%TD*%
D39*
%TO.C,J10*%
X171704000Y-53368500D03*
X167454000Y-53368500D03*
X175954000Y-53368500D03*
%TD*%
D33*
%TO.C,D4*%
X165862000Y-112008000D03*
X165862000Y-114808000D03*
%TD*%
D40*
%TO.C,C11*%
X170434000Y-100076000D03*
X170434000Y-98176000D03*
%TD*%
D31*
%TO.C,R19*%
X154686000Y-62277000D03*
X154686000Y-60452000D03*
%TD*%
D33*
%TO.C,D3*%
X156972000Y-108712000D03*
X156972000Y-111512000D03*
%TD*%
D41*
%TO.C,C2*%
X178308000Y-53340000D03*
X180208000Y-53340000D03*
%TD*%
D28*
%TO.C,R11*%
X175721000Y-87376000D03*
X177546000Y-87376000D03*
%TD*%
D29*
%TO.C,R7*%
X178308000Y-98552000D03*
X176483000Y-98552000D03*
%TD*%
D26*
%TO.C,Q5*%
X177560000Y-96216000D03*
X175260000Y-96216000D03*
D27*
X175260000Y-89916000D03*
D26*
X172960000Y-96216000D03*
%TD*%
D41*
%TO.C,C10*%
X157292000Y-95250000D03*
X159192000Y-95250000D03*
%TD*%
D40*
%TO.C,C8*%
X175514000Y-65400000D03*
X175514000Y-63500000D03*
%TD*%
%LPD*%
M02*
