%TF.GenerationSoftware,KiCad,Pcbnew,9.0.0*%
%TF.CreationDate,2025-12-14T14:18:45-07:00*%
%TF.ProjectId,BCP FC,42435020-4643-42e6-9b69-6361645f7063,rev?*%
%TF.SameCoordinates,Original*%
%TF.FileFunction,Legend,Top*%
%TF.FilePolarity,Positive*%
%FSLAX46Y46*%
G04 Gerber Fmt 4.6, Leading zero omitted, Abs format (unit mm)*
G04 Created by KiCad (PCBNEW 9.0.0) date 2025-12-14 14:18:45*
%MOMM*%
%LPD*%
G01*
G04 APERTURE LIST*
G04 Aperture macros list*
%AMRoundRect*
0 Rectangle with rounded corners*
0 $1 Rounding radius*
0 $2 $3 $4 $5 $6 $7 $8 $9 X,Y pos of 4 corners*
0 Add a 4 corners polygon primitive as box body*
4,1,4,$2,$3,$4,$5,$6,$7,$8,$9,$2,$3,0*
0 Add four circle primitives for the rounded corners*
1,1,$1+$1,$2,$3*
1,1,$1+$1,$4,$5*
1,1,$1+$1,$6,$7*
1,1,$1+$1,$8,$9*
0 Add four rect primitives between the rounded corners*
20,1,$1+$1,$2,$3,$4,$5,0*
20,1,$1+$1,$4,$5,$6,$7,0*
20,1,$1+$1,$6,$7,$8,$9,0*
20,1,$1+$1,$8,$9,$2,$3,0*%
%AMFreePoly0*
4,1,6,0.725000,-0.725000,-0.725000,-0.725000,-0.725000,0.125000,-0.125000,0.725000,0.725000,0.725000,0.725000,-0.725000,0.725000,-0.725000,$1*%
G04 Aperture macros list end*
%ADD10C,0.200000*%
%ADD11C,0.150000*%
%ADD12C,0.125000*%
%ADD13C,0.080109*%
%ADD14C,0.120000*%
%ADD15C,0.000000*%
%ADD16C,0.127000*%
%ADD17RoundRect,0.250000X0.450000X-0.262500X0.450000X0.262500X-0.450000X0.262500X-0.450000X-0.262500X0*%
%ADD18R,3.000000X3.000000*%
%ADD19C,3.000000*%
%ADD20RoundRect,0.250000X0.475000X-0.250000X0.475000X0.250000X-0.475000X0.250000X-0.475000X-0.250000X0*%
%ADD21C,0.650000*%
%ADD22RoundRect,0.150000X-0.150000X-0.425000X0.150000X-0.425000X0.150000X0.425000X-0.150000X0.425000X0*%
%ADD23RoundRect,0.075000X-0.075000X-0.500000X0.075000X-0.500000X0.075000X0.500000X-0.075000X0.500000X0*%
%ADD24O,1.000000X2.100000*%
%ADD25O,1.000000X1.800000*%
%ADD26R,1.350000X2.150000*%
%ADD27O,1.350000X2.150000*%
%ADD28R,2.000000X2.000000*%
%ADD29C,2.000000*%
%ADD30RoundRect,0.243750X0.456250X-0.243750X0.456250X0.243750X-0.456250X0.243750X-0.456250X-0.243750X0*%
%ADD31RoundRect,0.250000X-0.475000X0.250000X-0.475000X-0.250000X0.475000X-0.250000X0.475000X0.250000X0*%
%ADD32R,0.400000X0.800000*%
%ADD33R,0.800000X0.400000*%
%ADD34FreePoly0,90.000000*%
%ADD35R,1.450000X1.450000*%
%ADD36R,0.700000X0.700000*%
%ADD37RoundRect,0.250000X0.550000X0.550000X-0.550000X0.550000X-0.550000X-0.550000X0.550000X-0.550000X0*%
%ADD38C,1.600000*%
%ADD39RoundRect,0.250000X0.250000X0.475000X-0.250000X0.475000X-0.250000X-0.475000X0.250000X-0.475000X0*%
%ADD40RoundRect,0.200000X0.800000X-0.200000X0.800000X0.200000X-0.800000X0.200000X-0.800000X-0.200000X0*%
%ADD41RoundRect,0.250000X-0.450000X0.262500X-0.450000X-0.262500X0.450000X-0.262500X0.450000X0.262500X0*%
%ADD42RoundRect,0.024930X-0.252070X-0.267070X0.252070X-0.267070X0.252070X0.267070X-0.252070X0.267070X0*%
%ADD43RoundRect,0.000001X-0.900000X-0.750000X0.900000X-0.750000X0.900000X0.750000X-0.900000X0.750000X0*%
%ADD44RoundRect,0.000001X-0.750000X-0.900000X0.750000X-0.900000X0.750000X0.900000X-0.750000X0.900000X0*%
%ADD45R,1.500000X5.080000*%
G04 APERTURE END LIST*
D10*
X181308000Y-71968000D02*
G75*
G02*
X175308000Y-71968000I-3000000J0D01*
G01*
X175308000Y-71968000D02*
G75*
G02*
X181308000Y-71968000I3000000J0D01*
G01*
X171338000Y-104394000D02*
G75*
G02*
X165338000Y-104394000I-3000000J0D01*
G01*
X165338000Y-104394000D02*
G75*
G02*
X171338000Y-104394000I3000000J0D01*
G01*
G36*
X155012340Y-110759387D02*
G01*
X155012340Y-110904894D01*
X154503582Y-111103525D01*
X155012340Y-111293790D01*
X155012340Y-111428124D01*
X154348000Y-111167883D01*
X154348000Y-111029397D01*
X155012340Y-110759387D01*
G37*
G36*
X155183066Y-111821233D02*
G01*
X155016248Y-111639394D01*
X155110037Y-111561053D01*
X155336695Y-111836620D01*
X155336695Y-111955566D01*
X154348000Y-111955566D01*
X154348000Y-111821233D01*
X155183066Y-111821233D01*
G37*
G36*
X154340184Y-112415659D02*
G01*
X154346931Y-112380562D01*
X154367295Y-112350568D01*
X154397163Y-112330101D01*
X154432019Y-112323335D01*
X154466865Y-112330103D01*
X154496682Y-112350568D01*
X154517094Y-112380566D01*
X154523854Y-112415659D01*
X154517092Y-112450740D01*
X154496682Y-112480688D01*
X154466860Y-112501201D01*
X154432019Y-112507982D01*
X154397167Y-112501203D01*
X154367295Y-112480688D01*
X154346933Y-112450745D01*
X154340184Y-112415659D01*
G37*
G36*
X154957569Y-112663138D02*
G01*
X155015891Y-112671027D01*
X155072973Y-112683410D01*
X155128549Y-112700621D01*
X155181356Y-112722611D01*
X155230089Y-112750788D01*
X155271604Y-112785564D01*
X155306034Y-112827292D01*
X155333153Y-112876545D01*
X155350171Y-112931830D01*
X155356234Y-112998911D01*
X155350169Y-113066045D01*
X155333153Y-113121337D01*
X155306031Y-113170579D01*
X155271604Y-113212257D01*
X155230085Y-113247081D01*
X155181356Y-113275271D01*
X155128547Y-113297246D01*
X155072973Y-113314411D01*
X155015888Y-113326825D01*
X154957569Y-113334683D01*
X154844301Y-113340301D01*
X154764755Y-113336936D01*
X154676445Y-113326318D01*
X154589518Y-113306208D01*
X154509994Y-113274539D01*
X154461367Y-113245986D01*
X154419121Y-113211351D01*
X154382682Y-113170308D01*
X154355528Y-113123602D01*
X154338454Y-113067259D01*
X154332373Y-112998972D01*
X154449605Y-112998972D01*
X154454749Y-113043768D01*
X154469279Y-113080200D01*
X154492958Y-113110163D01*
X154540487Y-113146017D01*
X154598654Y-113172445D01*
X154661955Y-113189728D01*
X154728102Y-113199739D01*
X154844301Y-113206028D01*
X154920566Y-113203891D01*
X155007333Y-113194122D01*
X155092696Y-113172445D01*
X155132289Y-113155999D01*
X155166885Y-113135381D01*
X155196575Y-113109560D01*
X155219397Y-113078717D01*
X155233884Y-113042846D01*
X155238997Y-112998972D01*
X155233884Y-112955097D01*
X155219397Y-112919226D01*
X155196575Y-112888383D01*
X155166885Y-112862562D01*
X155132289Y-112841944D01*
X155092696Y-112825498D01*
X155007333Y-112803822D01*
X154920566Y-112793991D01*
X154844301Y-112791915D01*
X154728102Y-112798204D01*
X154661955Y-112808215D01*
X154598654Y-112825498D01*
X154540483Y-112851914D01*
X154492958Y-112887719D01*
X154469277Y-112917720D01*
X154454747Y-112954174D01*
X154449605Y-112998972D01*
X154332373Y-112998972D01*
X154332368Y-112998911D01*
X154338451Y-112930602D01*
X154355523Y-112874256D01*
X154382682Y-112827513D01*
X154419115Y-112786503D01*
X154461361Y-112751866D01*
X154509994Y-112723282D01*
X154589514Y-112691660D01*
X154676445Y-112671564D01*
X154764755Y-112660946D01*
X154844301Y-112657581D01*
X154957569Y-112663138D01*
G37*
D11*
G36*
X170775952Y-53662513D02*
G01*
X170743370Y-53627435D01*
X170701092Y-53603040D01*
X170653180Y-53588917D01*
X170602540Y-53584173D01*
X170543066Y-53591195D01*
X170515572Y-53600333D01*
X170491287Y-53613482D01*
X170470516Y-53631044D01*
X170454223Y-53653232D01*
X170443891Y-53679296D01*
X170440240Y-53711179D01*
X170444382Y-53742946D01*
X170456038Y-53767989D01*
X170475228Y-53787932D01*
X170513107Y-53812003D01*
X170561934Y-53833972D01*
X170675263Y-53871707D01*
X170734714Y-53893498D01*
X170788531Y-53921960D01*
X170835886Y-53959047D01*
X170875298Y-54007079D01*
X170893903Y-54044027D01*
X170905922Y-54090257D01*
X170910286Y-54148007D01*
X170906805Y-54200387D01*
X170896855Y-54246370D01*
X170880915Y-54286920D01*
X170846242Y-54341430D01*
X170801842Y-54385289D01*
X170748749Y-54419188D01*
X170686437Y-54443907D01*
X170619423Y-54458493D01*
X170547951Y-54463447D01*
X170486949Y-54459988D01*
X170427851Y-54449692D01*
X170370265Y-54432550D01*
X170316307Y-54407407D01*
X170267534Y-54372974D01*
X170223353Y-54328503D01*
X170356282Y-54199726D01*
X170393482Y-54243235D01*
X170440912Y-54275990D01*
X170494985Y-54296424D01*
X170552165Y-54303224D01*
X170582807Y-54301150D01*
X170613714Y-54294858D01*
X170643267Y-54284319D01*
X170669645Y-54269762D01*
X170692425Y-54250691D01*
X170710251Y-54227142D01*
X170721688Y-54199799D01*
X170725638Y-54167852D01*
X170721447Y-54133162D01*
X170709716Y-54105815D01*
X170690650Y-54084077D01*
X170652548Y-54057664D01*
X170603883Y-54034556D01*
X170490554Y-53996210D01*
X170431048Y-53974542D01*
X170377226Y-53946629D01*
X170329900Y-53910210D01*
X170290519Y-53862915D01*
X170271937Y-53826352D01*
X170259908Y-53780349D01*
X170255532Y-53722597D01*
X170259258Y-53672236D01*
X170269899Y-53628407D01*
X170286978Y-53590034D01*
X170323452Y-53538834D01*
X170369532Y-53497222D01*
X170423739Y-53465196D01*
X170486341Y-53442084D01*
X170552764Y-53428489D01*
X170620675Y-53423949D01*
X170697921Y-53429953D01*
X170772472Y-53447885D01*
X170819595Y-53467129D01*
X170863531Y-53493212D01*
X170904668Y-53526531D01*
X170775952Y-53662513D01*
G37*
G36*
X171097803Y-53451304D02*
G01*
X171366409Y-53451304D01*
X171630802Y-54143977D01*
X171898004Y-53451304D01*
X172163862Y-53451304D01*
X172163862Y-54440000D01*
X171995945Y-54440000D01*
X171995945Y-53618855D01*
X171993136Y-53618855D01*
X171692351Y-54440000D01*
X171569253Y-54440000D01*
X171268468Y-53618855D01*
X171265659Y-53618855D01*
X171265659Y-54440000D01*
X171097803Y-54440000D01*
X171097803Y-53451304D01*
G37*
G36*
X173288600Y-54440000D02*
G01*
X173087161Y-54440000D01*
X172994837Y-54213342D01*
X172565336Y-54213342D01*
X172475821Y-54440000D01*
X172278534Y-54440000D01*
X172443743Y-54060935D01*
X172625481Y-54060935D01*
X172933288Y-54060935D01*
X172780758Y-53657995D01*
X172625481Y-54060935D01*
X172443743Y-54060935D01*
X172709439Y-53451304D01*
X172861908Y-53451304D01*
X173288600Y-54440000D01*
G37*
D10*
G36*
X156932042Y-60435001D02*
G01*
X156927101Y-60518355D01*
X156912258Y-60600781D01*
X156885923Y-60678852D01*
X156847687Y-60746594D01*
X156796744Y-60804320D01*
X156732190Y-60850458D01*
X156656331Y-60879881D01*
X156561465Y-60890392D01*
X156480929Y-60881992D01*
X156413137Y-60858055D01*
X156355385Y-60819043D01*
X156307055Y-60767472D01*
X156268220Y-60705718D01*
X156238789Y-60632197D01*
X156234668Y-60632197D01*
X156220611Y-60699375D01*
X156195650Y-60761249D01*
X156160637Y-60816953D01*
X156117706Y-60863006D01*
X156066988Y-60900351D01*
X156008163Y-60929135D01*
X155944270Y-60947163D01*
X155874440Y-60953315D01*
X155794241Y-60947441D01*
X155727266Y-60930974D01*
X155671199Y-60905047D01*
X155597902Y-60849063D01*
X155540591Y-60778101D01*
X155498719Y-60694880D01*
X155470065Y-60597575D01*
X155454278Y-60495152D01*
X155449000Y-60390946D01*
X155449000Y-60363652D01*
X155677611Y-60363652D01*
X155683839Y-60471729D01*
X155694496Y-60527599D01*
X155713240Y-60577700D01*
X155741311Y-60621781D01*
X155779277Y-60657384D01*
X155827519Y-60680346D01*
X155895781Y-60688892D01*
X155969867Y-60679319D01*
X156022490Y-60653467D01*
X156059362Y-60612230D01*
X156082857Y-60558788D01*
X156099226Y-60481853D01*
X156105524Y-60374093D01*
X156105524Y-60361545D01*
X156334136Y-60361545D01*
X156340727Y-60448592D01*
X156358255Y-60512941D01*
X156384419Y-60559840D01*
X156421888Y-60596878D01*
X156465308Y-60618534D01*
X156516768Y-60625969D01*
X156576051Y-60617870D01*
X156621768Y-60595181D01*
X156657269Y-60557733D01*
X156680711Y-60509668D01*
X156697091Y-60439079D01*
X156703431Y-60338464D01*
X156703431Y-60120203D01*
X156334136Y-60120203D01*
X156334136Y-60361545D01*
X156105524Y-60361545D01*
X156105524Y-60120203D01*
X155677611Y-60120203D01*
X155677611Y-60363652D01*
X155449000Y-60363652D01*
X155449000Y-59855779D01*
X156932042Y-59855779D01*
X156932042Y-60435001D01*
G37*
G36*
X156585828Y-62235590D02*
G01*
X156641207Y-62177953D01*
X156679340Y-62125437D01*
X156703339Y-62077137D01*
X156725487Y-61999783D01*
X156732740Y-61922898D01*
X156722235Y-61811389D01*
X156691982Y-61714071D01*
X156643146Y-61626970D01*
X156579050Y-61553603D01*
X156501396Y-61494347D01*
X156410797Y-61449739D01*
X156311971Y-61422360D01*
X156203893Y-61413011D01*
X156087963Y-61422439D01*
X155984349Y-61449739D01*
X155890066Y-61494530D01*
X155810876Y-61553603D01*
X155745805Y-61626994D01*
X155695929Y-61714071D01*
X155664917Y-61811441D01*
X155654163Y-61922898D01*
X155664766Y-62011295D01*
X155697120Y-62098112D01*
X155730065Y-62151510D01*
X155775281Y-62204227D01*
X155834598Y-62256564D01*
X155679259Y-62474826D01*
X155593812Y-62401518D01*
X155526975Y-62319954D01*
X155477026Y-62229270D01*
X155442040Y-62131118D01*
X155420955Y-62028629D01*
X155413829Y-61920792D01*
X155420235Y-61807173D01*
X155438911Y-61702279D01*
X155469333Y-61604986D01*
X155512024Y-61512646D01*
X155564356Y-61430419D01*
X155626503Y-61357323D01*
X155698197Y-61293567D01*
X155779265Y-61239410D01*
X155870685Y-61194658D01*
X155967306Y-61162524D01*
X156072353Y-61142751D01*
X156187132Y-61135948D01*
X156304749Y-61142763D01*
X156412230Y-61162550D01*
X156510906Y-61194658D01*
X156604444Y-61239526D01*
X156686880Y-61293704D01*
X156759301Y-61357323D01*
X156822099Y-61430492D01*
X156874755Y-61512720D01*
X156917479Y-61604986D01*
X156947952Y-61702283D01*
X156966658Y-61807176D01*
X156973075Y-61920792D01*
X156966932Y-62020438D01*
X156948910Y-62113505D01*
X156919311Y-62200969D01*
X156876763Y-62282497D01*
X156816769Y-62362412D01*
X156736953Y-62441304D01*
X156585828Y-62235590D01*
G37*
G36*
X156932042Y-63152783D02*
G01*
X156926758Y-63258626D01*
X156911159Y-63359504D01*
X156882674Y-63454445D01*
X156841092Y-63534718D01*
X156783969Y-63602334D01*
X156709384Y-63655343D01*
X156652632Y-63679539D01*
X156584753Y-63694979D01*
X156503487Y-63700498D01*
X156410990Y-63694427D01*
X156336863Y-63677768D01*
X156277715Y-63652229D01*
X156224406Y-63615946D01*
X156180424Y-63572738D01*
X156144908Y-63522078D01*
X156106068Y-63435461D01*
X156081161Y-63332210D01*
X156068733Y-63222778D01*
X156064491Y-63106621D01*
X156064491Y-63077220D01*
X156293103Y-63077220D01*
X156297224Y-63194732D01*
X156305616Y-63253930D01*
X156321954Y-63307022D01*
X156347923Y-63354040D01*
X156383778Y-63391011D01*
X156430722Y-63414649D01*
X156499274Y-63423526D01*
X156562546Y-63415569D01*
X156607535Y-63394125D01*
X156643008Y-63360641D01*
X156669359Y-63318563D01*
X156686982Y-63270472D01*
X156697203Y-63215706D01*
X156703431Y-63106621D01*
X156703431Y-62917760D01*
X156293103Y-62917760D01*
X156293103Y-63077220D01*
X156064491Y-63077220D01*
X156064491Y-62917760D01*
X155449000Y-62917760D01*
X155449000Y-62653337D01*
X156932042Y-62653337D01*
X156932042Y-63152783D01*
G37*
G36*
X156932042Y-64556966D02*
G01*
X156932042Y-65516016D01*
X156691707Y-65516016D01*
X156691707Y-64821389D01*
X156304826Y-64821389D01*
X156304826Y-65476174D01*
X156064491Y-65476174D01*
X156064491Y-64821389D01*
X155449000Y-64821389D01*
X155449000Y-64556966D01*
X156932042Y-64556966D01*
G37*
G36*
X156585828Y-66781438D02*
G01*
X156641207Y-66723801D01*
X156679340Y-66671284D01*
X156703339Y-66622985D01*
X156725487Y-66545630D01*
X156732740Y-66468746D01*
X156722235Y-66357237D01*
X156691982Y-66259918D01*
X156643146Y-66172818D01*
X156579050Y-66099451D01*
X156501396Y-66040195D01*
X156410797Y-65995587D01*
X156311971Y-65968208D01*
X156203893Y-65958859D01*
X156087963Y-65968287D01*
X155984349Y-65995587D01*
X155890066Y-66040378D01*
X155810876Y-66099451D01*
X155745805Y-66172842D01*
X155695929Y-66259918D01*
X155664917Y-66357289D01*
X155654163Y-66468746D01*
X155664766Y-66557143D01*
X155697120Y-66643960D01*
X155730065Y-66697358D01*
X155775281Y-66750075D01*
X155834598Y-66802412D01*
X155679259Y-67020674D01*
X155593812Y-66947366D01*
X155526975Y-66865802D01*
X155477026Y-66775118D01*
X155442040Y-66676966D01*
X155420955Y-66574477D01*
X155413829Y-66466639D01*
X155420235Y-66353020D01*
X155438911Y-66248127D01*
X155469333Y-66150833D01*
X155512024Y-66058494D01*
X155564356Y-65976267D01*
X155626503Y-65903171D01*
X155698197Y-65839415D01*
X155779265Y-65785258D01*
X155870685Y-65740505D01*
X155967306Y-65708372D01*
X156072353Y-65688599D01*
X156187132Y-65681796D01*
X156304749Y-65688611D01*
X156412230Y-65708398D01*
X156510906Y-65740505D01*
X156604444Y-65785374D01*
X156686880Y-65839552D01*
X156759301Y-65903171D01*
X156822099Y-65976340D01*
X156874755Y-66058568D01*
X156917479Y-66150833D01*
X156947952Y-66248131D01*
X156966658Y-66353024D01*
X156973075Y-66466639D01*
X156966932Y-66566286D01*
X156948910Y-66659353D01*
X156919311Y-66746816D01*
X156876763Y-66828345D01*
X156816769Y-66908260D01*
X156736953Y-66987151D01*
X156585828Y-66781438D01*
G37*
D12*
G36*
X154718847Y-62995044D02*
G01*
X154718847Y-63064989D01*
X154323662Y-63174104D01*
X154323662Y-63175509D01*
X154718847Y-63292348D01*
X154718847Y-63369285D01*
X154323662Y-63486094D01*
X154323662Y-63487498D01*
X154718847Y-63596614D01*
X154718847Y-63666559D01*
X154224500Y-63522486D01*
X154224500Y-63451808D01*
X154628080Y-63331519D01*
X154628080Y-63330114D01*
X154224500Y-63210496D01*
X154224500Y-63139849D01*
X154718847Y-62995044D01*
G37*
G36*
X154336444Y-63667942D02*
G01*
X154354105Y-63672798D01*
X154369091Y-63680542D01*
X154388480Y-63697299D01*
X154404232Y-63719712D01*
X154415686Y-63746016D01*
X154423741Y-63777781D01*
X154428141Y-63811656D01*
X154429663Y-63848795D01*
X154429663Y-63894956D01*
X154443677Y-63894956D01*
X154456151Y-63893749D01*
X154468864Y-63890041D01*
X154480798Y-63883965D01*
X154491610Y-63875356D01*
X154500607Y-63864533D01*
X154507730Y-63850901D01*
X154512099Y-63835366D01*
X154513683Y-63815913D01*
X154512761Y-63798319D01*
X154510233Y-63784070D01*
X154501654Y-63759249D01*
X154489625Y-63738977D01*
X154476558Y-63721483D01*
X154515637Y-63683717D01*
X154536952Y-63712306D01*
X154552273Y-63745266D01*
X154561476Y-63780494D01*
X154564486Y-63815211D01*
X154562048Y-63850160D01*
X154555387Y-63877829D01*
X154544411Y-63902231D01*
X154530902Y-63920846D01*
X154514252Y-63935535D01*
X154495579Y-63945667D01*
X154475227Y-63951709D01*
X154453966Y-63953727D01*
X154284675Y-63953727D01*
X154252465Y-63954430D01*
X154224500Y-63956536D01*
X154224500Y-63900574D01*
X154275149Y-63898467D01*
X154275149Y-63897063D01*
X154255286Y-63881668D01*
X154240427Y-63865152D01*
X154229903Y-63847390D01*
X154220139Y-63817193D01*
X154218550Y-63800526D01*
X154267486Y-63800526D01*
X154269772Y-63825197D01*
X154276065Y-63844581D01*
X154286105Y-63861256D01*
X154298352Y-63873952D01*
X154312880Y-63883590D01*
X154328883Y-63890041D01*
X154345744Y-63893746D01*
X154362191Y-63894956D01*
X154382769Y-63894956D01*
X154382769Y-63861373D01*
X154380357Y-63815547D01*
X154376770Y-63792795D01*
X154371106Y-63772896D01*
X154362670Y-63755096D01*
X154351872Y-63741419D01*
X154338024Y-63732317D01*
X154320334Y-63729177D01*
X154302603Y-63731521D01*
X154289491Y-63737966D01*
X154279821Y-63748411D01*
X154273302Y-63761803D01*
X154269045Y-63778873D01*
X154267486Y-63800526D01*
X154218550Y-63800526D01*
X154216684Y-63780956D01*
X154218268Y-63758257D01*
X154222942Y-63736870D01*
X154230863Y-63717012D01*
X154241719Y-63700142D01*
X154255698Y-63686109D01*
X154272707Y-63675321D01*
X154292175Y-63668595D01*
X154315510Y-63666223D01*
X154336444Y-63667942D01*
G37*
G36*
X154556670Y-64005385D02*
G01*
X154556670Y-64078139D01*
X154297467Y-64176752D01*
X154297467Y-64178156D01*
X154556670Y-64271915D01*
X154556670Y-64339753D01*
X154153150Y-64182369D01*
X154113552Y-64164875D01*
X154096785Y-64154743D01*
X154083083Y-64143168D01*
X154071965Y-64129412D01*
X154063482Y-64112760D01*
X154058356Y-64093768D01*
X154056460Y-64069041D01*
X154058201Y-64040708D01*
X154060904Y-64026621D01*
X154065528Y-64013078D01*
X154122772Y-64020772D01*
X154116966Y-64039843D01*
X154115079Y-64058538D01*
X154116126Y-64072573D01*
X154118956Y-64083359D01*
X154123712Y-64092865D01*
X154130161Y-64100853D01*
X154147349Y-64113096D01*
X154169759Y-64122896D01*
X154222332Y-64143199D01*
X154556670Y-64005385D01*
G37*
G36*
X154718847Y-64348149D02*
G01*
X154718847Y-64418094D01*
X154323662Y-64527210D01*
X154323662Y-64528614D01*
X154718847Y-64645454D01*
X154718847Y-64722390D01*
X154323662Y-64839199D01*
X154323662Y-64840604D01*
X154718847Y-64949719D01*
X154718847Y-65019664D01*
X154224500Y-64875592D01*
X154224500Y-64804914D01*
X154628080Y-64684624D01*
X154628080Y-64683220D01*
X154224500Y-64563602D01*
X154224500Y-64492955D01*
X154718847Y-64348149D01*
G37*
G36*
X154336444Y-65021047D02*
G01*
X154354105Y-65025903D01*
X154369091Y-65033647D01*
X154388480Y-65050404D01*
X154404232Y-65072818D01*
X154415686Y-65099121D01*
X154423741Y-65130886D01*
X154428141Y-65164762D01*
X154429663Y-65201900D01*
X154429663Y-65248062D01*
X154443677Y-65248062D01*
X154456151Y-65246855D01*
X154468864Y-65243146D01*
X154480798Y-65237070D01*
X154491610Y-65228461D01*
X154500607Y-65217639D01*
X154507730Y-65204007D01*
X154512099Y-65188472D01*
X154513683Y-65169019D01*
X154512761Y-65151424D01*
X154510233Y-65137176D01*
X154501654Y-65112354D01*
X154489625Y-65092082D01*
X154476558Y-65074588D01*
X154515637Y-65036822D01*
X154536952Y-65065411D01*
X154552273Y-65098372D01*
X154561476Y-65133599D01*
X154564486Y-65168317D01*
X154562048Y-65203265D01*
X154555387Y-65230934D01*
X154544411Y-65255337D01*
X154530902Y-65273952D01*
X154514252Y-65288641D01*
X154495579Y-65298773D01*
X154475227Y-65304814D01*
X154453966Y-65306833D01*
X154284675Y-65306833D01*
X154252465Y-65307535D01*
X154224500Y-65309642D01*
X154224500Y-65253679D01*
X154275149Y-65251573D01*
X154275149Y-65250168D01*
X154255286Y-65234773D01*
X154240427Y-65218258D01*
X154229903Y-65200496D01*
X154220139Y-65170298D01*
X154218550Y-65153631D01*
X154267486Y-65153631D01*
X154269772Y-65178303D01*
X154276065Y-65197687D01*
X154286105Y-65214361D01*
X154298352Y-65227057D01*
X154312880Y-65236695D01*
X154328883Y-65243146D01*
X154345744Y-65246851D01*
X154362191Y-65248062D01*
X154382769Y-65248062D01*
X154382769Y-65214478D01*
X154380357Y-65168652D01*
X154376770Y-65145900D01*
X154371106Y-65126001D01*
X154362670Y-65108201D01*
X154351872Y-65094525D01*
X154338024Y-65085422D01*
X154320334Y-65082282D01*
X154302603Y-65084626D01*
X154289491Y-65091071D01*
X154279821Y-65101516D01*
X154273302Y-65114909D01*
X154269045Y-65131978D01*
X154267486Y-65153631D01*
X154218550Y-65153631D01*
X154216684Y-65134061D01*
X154218268Y-65111362D01*
X154222942Y-65089976D01*
X154230863Y-65070118D01*
X154241719Y-65053248D01*
X154255698Y-65039214D01*
X154272707Y-65028426D01*
X154292175Y-65021700D01*
X154315510Y-65019328D01*
X154336444Y-65021047D01*
G37*
G36*
X154556670Y-65358490D02*
G01*
X154556670Y-65431244D01*
X154297467Y-65529857D01*
X154297467Y-65531261D01*
X154556670Y-65625020D01*
X154556670Y-65692859D01*
X154153150Y-65535475D01*
X154113552Y-65517981D01*
X154096785Y-65507848D01*
X154083083Y-65496274D01*
X154071965Y-65482517D01*
X154063482Y-65465865D01*
X154058356Y-65446874D01*
X154056460Y-65422146D01*
X154058201Y-65393814D01*
X154060904Y-65379726D01*
X154065528Y-65366184D01*
X154122772Y-65373877D01*
X154116966Y-65392949D01*
X154115079Y-65411643D01*
X154116126Y-65425679D01*
X154118956Y-65436465D01*
X154123712Y-65445970D01*
X154130161Y-65453959D01*
X154147349Y-65466201D01*
X154169759Y-65476001D01*
X154222332Y-65496304D01*
X154556670Y-65358490D01*
G37*
G36*
X154718847Y-65701254D02*
G01*
X154718847Y-65771199D01*
X154323662Y-65880315D01*
X154323662Y-65881719D01*
X154718847Y-65998559D01*
X154718847Y-66075496D01*
X154323662Y-66192305D01*
X154323662Y-66193709D01*
X154718847Y-66302825D01*
X154718847Y-66372770D01*
X154224500Y-66228697D01*
X154224500Y-66158019D01*
X154628080Y-66037729D01*
X154628080Y-66036325D01*
X154224500Y-65916707D01*
X154224500Y-65846060D01*
X154718847Y-65701254D01*
G37*
G36*
X154336444Y-66374152D02*
G01*
X154354105Y-66379008D01*
X154369091Y-66386753D01*
X154388480Y-66403510D01*
X154404232Y-66425923D01*
X154415686Y-66452226D01*
X154423741Y-66483992D01*
X154428141Y-66517867D01*
X154429663Y-66555005D01*
X154429663Y-66601167D01*
X154443677Y-66601167D01*
X154456151Y-66599960D01*
X154468864Y-66596252D01*
X154480798Y-66590175D01*
X154491610Y-66581567D01*
X154500607Y-66570744D01*
X154507730Y-66557112D01*
X154512099Y-66541577D01*
X154513683Y-66522124D01*
X154512761Y-66504529D01*
X154510233Y-66490281D01*
X154501654Y-66465460D01*
X154489625Y-66445188D01*
X154476558Y-66427694D01*
X154515637Y-66389928D01*
X154536952Y-66418517D01*
X154552273Y-66451477D01*
X154561476Y-66486704D01*
X154564486Y-66521422D01*
X154562048Y-66556371D01*
X154555387Y-66584040D01*
X154544411Y-66608442D01*
X154530902Y-66627057D01*
X154514252Y-66641746D01*
X154495579Y-66651878D01*
X154475227Y-66657919D01*
X154453966Y-66659938D01*
X154284675Y-66659938D01*
X154252465Y-66660640D01*
X154224500Y-66662747D01*
X154224500Y-66606785D01*
X154275149Y-66604678D01*
X154275149Y-66603274D01*
X154255286Y-66587879D01*
X154240427Y-66571363D01*
X154229903Y-66553601D01*
X154220139Y-66523404D01*
X154218550Y-66506737D01*
X154267486Y-66506737D01*
X154269772Y-66531408D01*
X154276065Y-66550792D01*
X154286105Y-66567467D01*
X154298352Y-66580162D01*
X154312880Y-66589800D01*
X154328883Y-66596252D01*
X154345744Y-66599956D01*
X154362191Y-66601167D01*
X154382769Y-66601167D01*
X154382769Y-66567584D01*
X154380357Y-66521758D01*
X154376770Y-66499005D01*
X154371106Y-66479107D01*
X154362670Y-66461307D01*
X154351872Y-66447630D01*
X154338024Y-66438528D01*
X154320334Y-66435387D01*
X154302603Y-66437732D01*
X154289491Y-66444176D01*
X154279821Y-66454622D01*
X154273302Y-66468014D01*
X154269045Y-66485083D01*
X154267486Y-66506737D01*
X154218550Y-66506737D01*
X154216684Y-66487167D01*
X154218268Y-66464467D01*
X154222942Y-66443081D01*
X154230863Y-66423223D01*
X154241719Y-66406353D01*
X154255698Y-66392319D01*
X154272707Y-66381532D01*
X154292175Y-66374806D01*
X154315510Y-66372434D01*
X154336444Y-66374152D01*
G37*
G36*
X154556670Y-66711596D02*
G01*
X154556670Y-66784349D01*
X154297467Y-66882962D01*
X154297467Y-66884367D01*
X154556670Y-66978126D01*
X154556670Y-67045964D01*
X154153150Y-66888580D01*
X154113552Y-66871086D01*
X154096785Y-66860954D01*
X154083083Y-66849379D01*
X154071965Y-66835622D01*
X154063482Y-66818971D01*
X154058356Y-66799979D01*
X154056460Y-66775251D01*
X154058201Y-66746919D01*
X154060904Y-66732832D01*
X154065528Y-66719289D01*
X154122772Y-66726983D01*
X154116966Y-66746054D01*
X154115079Y-66764749D01*
X154116126Y-66778784D01*
X154118956Y-66789570D01*
X154123712Y-66799076D01*
X154130161Y-66807064D01*
X154147349Y-66819307D01*
X154169759Y-66829107D01*
X154222332Y-66849410D01*
X154556670Y-66711596D01*
G37*
D11*
X157426819Y-110656666D02*
X156950628Y-110989999D01*
X157426819Y-111228094D02*
X156426819Y-111228094D01*
X156426819Y-111228094D02*
X156426819Y-110847142D01*
X156426819Y-110847142D02*
X156474438Y-110751904D01*
X156474438Y-110751904D02*
X156522057Y-110704285D01*
X156522057Y-110704285D02*
X156617295Y-110656666D01*
X156617295Y-110656666D02*
X156760152Y-110656666D01*
X156760152Y-110656666D02*
X156855390Y-110704285D01*
X156855390Y-110704285D02*
X156903009Y-110751904D01*
X156903009Y-110751904D02*
X156950628Y-110847142D01*
X156950628Y-110847142D02*
X156950628Y-111228094D01*
X156426819Y-109799523D02*
X156426819Y-109989999D01*
X156426819Y-109989999D02*
X156474438Y-110085237D01*
X156474438Y-110085237D02*
X156522057Y-110132856D01*
X156522057Y-110132856D02*
X156664914Y-110228094D01*
X156664914Y-110228094D02*
X156855390Y-110275713D01*
X156855390Y-110275713D02*
X157236342Y-110275713D01*
X157236342Y-110275713D02*
X157331580Y-110228094D01*
X157331580Y-110228094D02*
X157379200Y-110180475D01*
X157379200Y-110180475D02*
X157426819Y-110085237D01*
X157426819Y-110085237D02*
X157426819Y-109894761D01*
X157426819Y-109894761D02*
X157379200Y-109799523D01*
X157379200Y-109799523D02*
X157331580Y-109751904D01*
X157331580Y-109751904D02*
X157236342Y-109704285D01*
X157236342Y-109704285D02*
X156998247Y-109704285D01*
X156998247Y-109704285D02*
X156903009Y-109751904D01*
X156903009Y-109751904D02*
X156855390Y-109799523D01*
X156855390Y-109799523D02*
X156807771Y-109894761D01*
X156807771Y-109894761D02*
X156807771Y-110085237D01*
X156807771Y-110085237D02*
X156855390Y-110180475D01*
X156855390Y-110180475D02*
X156903009Y-110228094D01*
X156903009Y-110228094D02*
X156998247Y-110275713D01*
G36*
X174940304Y-63665829D02*
G01*
X174940304Y-63531495D01*
X175929000Y-63531495D01*
X175929000Y-63665829D01*
X174940304Y-63665829D01*
G37*
G36*
X175788316Y-63339948D02*
G01*
X175391604Y-62942626D01*
X175348923Y-62902082D01*
X175300563Y-62867094D01*
X175247318Y-62842608D01*
X175218750Y-62835810D01*
X175188455Y-62833510D01*
X175153319Y-62836937D01*
X175122632Y-62846822D01*
X175095341Y-62862639D01*
X175072928Y-62883153D01*
X175055045Y-62908063D01*
X175041421Y-62937741D01*
X175033026Y-62969885D01*
X175030186Y-63004175D01*
X175034970Y-63051206D01*
X175048591Y-63090805D01*
X175070730Y-63124526D01*
X175100484Y-63151855D01*
X175137271Y-63171918D01*
X175182593Y-63184671D01*
X175170015Y-63330178D01*
X175107543Y-63315269D01*
X175056198Y-63291710D01*
X175011744Y-63259312D01*
X174975842Y-63220391D01*
X174948080Y-63174984D01*
X174928337Y-63122450D01*
X174916905Y-63065713D01*
X174912949Y-63002771D01*
X174917417Y-62939788D01*
X174930474Y-62881809D01*
X174952402Y-62828160D01*
X174982253Y-62782464D01*
X175020540Y-62744474D01*
X175067616Y-62715297D01*
X175121605Y-62697231D01*
X175187234Y-62690811D01*
X175235139Y-62694565D01*
X175278947Y-62705527D01*
X175320456Y-62722495D01*
X175359425Y-62743995D01*
X175396082Y-62769438D01*
X175430805Y-62798523D01*
X175496568Y-62862881D01*
X175811763Y-63188884D01*
X175811763Y-62690811D01*
X175929000Y-62690811D01*
X175929000Y-63339948D01*
X175788316Y-63339948D01*
G37*
G36*
X175440514Y-62057246D02*
G01*
X175407888Y-62093862D01*
X175385193Y-62130702D01*
X175371256Y-62171594D01*
X175366264Y-62222293D01*
X175371223Y-62271813D01*
X175385193Y-62312540D01*
X175407704Y-62347952D01*
X175437094Y-62376898D01*
X175472157Y-62399484D01*
X175512749Y-62416099D01*
X175556188Y-62426011D01*
X175601714Y-62429350D01*
X175647017Y-62425458D01*
X175689336Y-62413962D01*
X175728302Y-62395278D01*
X175761510Y-62370609D01*
X175788930Y-62339971D01*
X175809870Y-62303503D01*
X175822870Y-62262576D01*
X175827394Y-62215332D01*
X175822396Y-62164676D01*
X175808527Y-62124412D01*
X175785696Y-62088628D01*
X175753145Y-62054437D01*
X175842599Y-61964922D01*
X175875865Y-61999771D01*
X175901783Y-62037660D01*
X175920878Y-62078983D01*
X175938622Y-62145526D01*
X175944631Y-62216736D01*
X175938160Y-62291368D01*
X175919474Y-62357359D01*
X175888953Y-62416982D01*
X175848766Y-62467146D01*
X175799094Y-62507831D01*
X175739589Y-62538526D01*
X175673591Y-62557211D01*
X175598905Y-62563683D01*
X175524182Y-62557227D01*
X175457611Y-62538526D01*
X175397312Y-62507971D01*
X175347030Y-62467879D01*
X175306143Y-62418237D01*
X175274917Y-62358763D01*
X175255711Y-62292560D01*
X175249027Y-62216736D01*
X175255531Y-62145419D01*
X175274917Y-62077579D01*
X175295164Y-62035204D01*
X175321371Y-61996851D01*
X175353869Y-61962113D01*
X175440514Y-62057246D01*
G37*
G36*
X175093933Y-61574805D02*
G01*
X175260751Y-61756644D01*
X175166962Y-61834985D01*
X174940304Y-61559418D01*
X174940304Y-61440471D01*
X175929000Y-61440471D01*
X175929000Y-61574805D01*
X175093933Y-61574805D01*
G37*
X178921580Y-55350666D02*
X178969200Y-55398285D01*
X178969200Y-55398285D02*
X179016819Y-55541142D01*
X179016819Y-55541142D02*
X179016819Y-55636380D01*
X179016819Y-55636380D02*
X178969200Y-55779237D01*
X178969200Y-55779237D02*
X178873961Y-55874475D01*
X178873961Y-55874475D02*
X178778723Y-55922094D01*
X178778723Y-55922094D02*
X178588247Y-55969713D01*
X178588247Y-55969713D02*
X178445390Y-55969713D01*
X178445390Y-55969713D02*
X178254914Y-55922094D01*
X178254914Y-55922094D02*
X178159676Y-55874475D01*
X178159676Y-55874475D02*
X178064438Y-55779237D01*
X178064438Y-55779237D02*
X178016819Y-55636380D01*
X178016819Y-55636380D02*
X178016819Y-55541142D01*
X178016819Y-55541142D02*
X178064438Y-55398285D01*
X178064438Y-55398285D02*
X178112057Y-55350666D01*
X178016819Y-55017332D02*
X178016819Y-54350666D01*
X178016819Y-54350666D02*
X179016819Y-54779237D01*
X175968819Y-91328666D02*
X174968819Y-91328666D01*
X174968819Y-91328666D02*
X174968819Y-90947714D01*
X174968819Y-90947714D02*
X175016438Y-90852476D01*
X175016438Y-90852476D02*
X175064057Y-90804857D01*
X175064057Y-90804857D02*
X175159295Y-90757238D01*
X175159295Y-90757238D02*
X175302152Y-90757238D01*
X175302152Y-90757238D02*
X175397390Y-90804857D01*
X175397390Y-90804857D02*
X175445009Y-90852476D01*
X175445009Y-90852476D02*
X175492628Y-90947714D01*
X175492628Y-90947714D02*
X175492628Y-91328666D01*
X175492628Y-90138190D02*
X175968819Y-90138190D01*
X174968819Y-90471523D02*
X175492628Y-90138190D01*
X175492628Y-90138190D02*
X174968819Y-89804857D01*
X175968819Y-88900095D02*
X175492628Y-89233428D01*
X175968819Y-89471523D02*
X174968819Y-89471523D01*
X174968819Y-89471523D02*
X174968819Y-89090571D01*
X174968819Y-89090571D02*
X175016438Y-88995333D01*
X175016438Y-88995333D02*
X175064057Y-88947714D01*
X175064057Y-88947714D02*
X175159295Y-88900095D01*
X175159295Y-88900095D02*
X175302152Y-88900095D01*
X175302152Y-88900095D02*
X175397390Y-88947714D01*
X175397390Y-88947714D02*
X175445009Y-88995333D01*
X175445009Y-88995333D02*
X175492628Y-89090571D01*
X175492628Y-89090571D02*
X175492628Y-89471523D01*
X175968819Y-87947714D02*
X175968819Y-88519142D01*
X175968819Y-88233428D02*
X174968819Y-88233428D01*
X174968819Y-88233428D02*
X175111676Y-88328666D01*
X175111676Y-88328666D02*
X175206914Y-88423904D01*
X175206914Y-88423904D02*
X175254533Y-88519142D01*
X158308580Y-92114666D02*
X158356200Y-92162285D01*
X158356200Y-92162285D02*
X158403819Y-92305142D01*
X158403819Y-92305142D02*
X158403819Y-92400380D01*
X158403819Y-92400380D02*
X158356200Y-92543237D01*
X158356200Y-92543237D02*
X158260961Y-92638475D01*
X158260961Y-92638475D02*
X158165723Y-92686094D01*
X158165723Y-92686094D02*
X157975247Y-92733713D01*
X157975247Y-92733713D02*
X157832390Y-92733713D01*
X157832390Y-92733713D02*
X157641914Y-92686094D01*
X157641914Y-92686094D02*
X157546676Y-92638475D01*
X157546676Y-92638475D02*
X157451438Y-92543237D01*
X157451438Y-92543237D02*
X157403819Y-92400380D01*
X157403819Y-92400380D02*
X157403819Y-92305142D01*
X157403819Y-92305142D02*
X157451438Y-92162285D01*
X157451438Y-92162285D02*
X157499057Y-92114666D01*
X158403819Y-91638475D02*
X158403819Y-91447999D01*
X158403819Y-91447999D02*
X158356200Y-91352761D01*
X158356200Y-91352761D02*
X158308580Y-91305142D01*
X158308580Y-91305142D02*
X158165723Y-91209904D01*
X158165723Y-91209904D02*
X157975247Y-91162285D01*
X157975247Y-91162285D02*
X157594295Y-91162285D01*
X157594295Y-91162285D02*
X157499057Y-91209904D01*
X157499057Y-91209904D02*
X157451438Y-91257523D01*
X157451438Y-91257523D02*
X157403819Y-91352761D01*
X157403819Y-91352761D02*
X157403819Y-91543237D01*
X157403819Y-91543237D02*
X157451438Y-91638475D01*
X157451438Y-91638475D02*
X157499057Y-91686094D01*
X157499057Y-91686094D02*
X157594295Y-91733713D01*
X157594295Y-91733713D02*
X157832390Y-91733713D01*
X157832390Y-91733713D02*
X157927628Y-91686094D01*
X157927628Y-91686094D02*
X157975247Y-91638475D01*
X157975247Y-91638475D02*
X158022866Y-91543237D01*
X158022866Y-91543237D02*
X158022866Y-91352761D01*
X158022866Y-91352761D02*
X157975247Y-91257523D01*
X157975247Y-91257523D02*
X157927628Y-91209904D01*
X157927628Y-91209904D02*
X157832390Y-91162285D01*
G36*
X182829863Y-113452409D02*
G01*
X182883829Y-113472628D01*
X182930694Y-113504898D01*
X182969742Y-113547488D01*
X183000144Y-113598191D01*
X183022864Y-113658008D01*
X183036349Y-113722533D01*
X183041000Y-113793685D01*
X183041000Y-114133671D01*
X182052304Y-114133671D01*
X182052304Y-113789533D01*
X182052392Y-113788128D01*
X182169541Y-113788128D01*
X182169541Y-113999337D01*
X182462632Y-113999337D01*
X182462632Y-113816094D01*
X182461823Y-113800707D01*
X182579869Y-113800707D01*
X182579869Y-113999337D01*
X182923763Y-113999337D01*
X182923763Y-113802050D01*
X182917474Y-113734212D01*
X182908028Y-113698337D01*
X182892317Y-113664969D01*
X182870285Y-113635407D01*
X182841331Y-113610442D01*
X182805583Y-113594084D01*
X182756029Y-113588032D01*
X182700086Y-113594972D01*
X182657090Y-113614235D01*
X182623894Y-113645429D01*
X182600392Y-113685893D01*
X182585330Y-113736754D01*
X182579869Y-113800707D01*
X182461823Y-113800707D01*
X182460679Y-113778950D01*
X182455000Y-113744775D01*
X182444528Y-113712919D01*
X182429171Y-113686035D01*
X182408586Y-113663490D01*
X182383070Y-113646162D01*
X182353106Y-113635363D01*
X182314682Y-113631447D01*
X182277019Y-113635716D01*
X182243405Y-113648224D01*
X182212833Y-113669243D01*
X182189842Y-113697346D01*
X182175033Y-113735829D01*
X182169541Y-113788128D01*
X182052392Y-113788128D01*
X182056262Y-113726598D01*
X182067692Y-113669915D01*
X182087088Y-113617685D01*
X182113060Y-113574782D01*
X182147030Y-113539279D01*
X182189813Y-113511829D01*
X182239261Y-113494791D01*
X182299295Y-113488748D01*
X182354289Y-113494401D01*
X182399934Y-113510407D01*
X182438208Y-113536314D01*
X182470418Y-113570580D01*
X182496670Y-113611300D01*
X182517038Y-113659412D01*
X182519846Y-113659412D01*
X182527043Y-113615962D01*
X182542927Y-113575454D01*
X182566337Y-113538845D01*
X182595989Y-113507615D01*
X182631161Y-113482066D01*
X182672132Y-113462125D01*
X182716721Y-113449614D01*
X182765738Y-113445334D01*
X182829863Y-113452409D01*
G37*
G36*
X182177357Y-113045386D02*
G01*
X182177357Y-113364367D01*
X182052304Y-113364367D01*
X182052304Y-112592132D01*
X182177357Y-112592132D01*
X182177357Y-112911052D01*
X183041000Y-112911052D01*
X183041000Y-113045386D01*
X182177357Y-113045386D01*
G37*
G36*
X182205933Y-112198962D02*
G01*
X182372751Y-112380801D01*
X182278962Y-112459142D01*
X182052304Y-112183575D01*
X182052304Y-112064629D01*
X183041000Y-112064629D01*
X183041000Y-112198962D01*
X182205933Y-112198962D01*
G37*
X170086819Y-110730966D02*
X169610628Y-111064299D01*
X170086819Y-111302394D02*
X169086819Y-111302394D01*
X169086819Y-111302394D02*
X169086819Y-110921442D01*
X169086819Y-110921442D02*
X169134438Y-110826204D01*
X169134438Y-110826204D02*
X169182057Y-110778585D01*
X169182057Y-110778585D02*
X169277295Y-110730966D01*
X169277295Y-110730966D02*
X169420152Y-110730966D01*
X169420152Y-110730966D02*
X169515390Y-110778585D01*
X169515390Y-110778585D02*
X169563009Y-110826204D01*
X169563009Y-110826204D02*
X169610628Y-110921442D01*
X169610628Y-110921442D02*
X169610628Y-111302394D01*
X170086819Y-110254775D02*
X170086819Y-110064299D01*
X170086819Y-110064299D02*
X170039200Y-109969061D01*
X170039200Y-109969061D02*
X169991580Y-109921442D01*
X169991580Y-109921442D02*
X169848723Y-109826204D01*
X169848723Y-109826204D02*
X169658247Y-109778585D01*
X169658247Y-109778585D02*
X169277295Y-109778585D01*
X169277295Y-109778585D02*
X169182057Y-109826204D01*
X169182057Y-109826204D02*
X169134438Y-109873823D01*
X169134438Y-109873823D02*
X169086819Y-109969061D01*
X169086819Y-109969061D02*
X169086819Y-110159537D01*
X169086819Y-110159537D02*
X169134438Y-110254775D01*
X169134438Y-110254775D02*
X169182057Y-110302394D01*
X169182057Y-110302394D02*
X169277295Y-110350013D01*
X169277295Y-110350013D02*
X169515390Y-110350013D01*
X169515390Y-110350013D02*
X169610628Y-110302394D01*
X169610628Y-110302394D02*
X169658247Y-110254775D01*
X169658247Y-110254775D02*
X169705866Y-110159537D01*
X169705866Y-110159537D02*
X169705866Y-109969061D01*
X169705866Y-109969061D02*
X169658247Y-109873823D01*
X169658247Y-109873823D02*
X169610628Y-109826204D01*
X169610628Y-109826204D02*
X169515390Y-109778585D01*
X172539866Y-89026951D02*
X172539866Y-88265047D01*
X172920819Y-88645999D02*
X172158914Y-88645999D01*
G36*
X175264210Y-100945545D02*
G01*
X175313752Y-100956128D01*
X175360862Y-100975436D01*
X175403450Y-101005831D01*
X175438961Y-101046605D01*
X175469334Y-101103040D01*
X175483014Y-101144895D01*
X175491971Y-101196493D01*
X175495224Y-101259722D01*
X175495224Y-101473739D01*
X175929000Y-101473739D01*
X175929000Y-101608073D01*
X174940304Y-101608073D01*
X174940304Y-101297457D01*
X175057541Y-101297457D01*
X175057541Y-101473739D01*
X175377988Y-101473739D01*
X175377988Y-101297457D01*
X175371698Y-101219849D01*
X175362544Y-101182964D01*
X175348495Y-101151339D01*
X175328079Y-101124373D01*
X175300013Y-101103040D01*
X175265374Y-101089787D01*
X175217764Y-101084844D01*
X175170164Y-101089789D01*
X175135577Y-101103040D01*
X175107473Y-101124380D01*
X175087094Y-101151339D01*
X175073013Y-101182969D01*
X175063891Y-101219849D01*
X175057541Y-101297457D01*
X174940304Y-101297457D01*
X174940304Y-101259722D01*
X174943565Y-101196497D01*
X174952543Y-101144899D01*
X174966255Y-101103040D01*
X174996580Y-101046607D01*
X175032079Y-101005831D01*
X175074667Y-100975436D01*
X175121777Y-100956128D01*
X175171319Y-100945545D01*
X175217764Y-100942145D01*
X175264210Y-100945545D01*
G37*
G36*
X175507253Y-100545006D02*
G01*
X174940304Y-100919919D01*
X174940304Y-100747850D01*
X175374629Y-100477839D01*
X174940304Y-100199402D01*
X174940304Y-100035760D01*
X175507253Y-100410672D01*
X175929000Y-100410672D01*
X175929000Y-100545006D01*
X175507253Y-100545006D01*
G37*
G36*
X175929000Y-99386013D02*
G01*
X175495224Y-99637827D01*
X175495224Y-99787487D01*
X175929000Y-99787487D01*
X175929000Y-99921820D01*
X174940304Y-99921820D01*
X174940304Y-99611204D01*
X175057541Y-99611204D01*
X175057541Y-99787487D01*
X175377988Y-99787487D01*
X175377988Y-99611204D01*
X175371698Y-99533596D01*
X175362544Y-99496711D01*
X175348495Y-99465086D01*
X175328079Y-99438121D01*
X175300013Y-99416787D01*
X175265374Y-99403535D01*
X175217764Y-99398591D01*
X175170164Y-99403536D01*
X175135577Y-99416787D01*
X175107473Y-99438128D01*
X175087094Y-99465086D01*
X175073013Y-99496716D01*
X175063891Y-99533596D01*
X175057541Y-99611204D01*
X174940304Y-99611204D01*
X174940304Y-99573469D01*
X174943565Y-99510244D01*
X174952543Y-99458647D01*
X174966255Y-99416787D01*
X174996580Y-99360354D01*
X175032079Y-99319578D01*
X175074667Y-99289184D01*
X175121777Y-99269875D01*
X175171319Y-99259292D01*
X175217764Y-99255892D01*
X175264621Y-99260100D01*
X175309600Y-99272684D01*
X175351559Y-99293124D01*
X175389467Y-99320983D01*
X175422090Y-99355553D01*
X175449734Y-99397919D01*
X175469342Y-99445453D01*
X175479837Y-99499341D01*
X175929000Y-99218096D01*
X175929000Y-99386013D01*
G37*
G36*
X175788316Y-99129924D02*
G01*
X175391604Y-98732602D01*
X175348923Y-98692058D01*
X175300563Y-98657070D01*
X175247318Y-98632584D01*
X175218750Y-98625786D01*
X175188455Y-98623486D01*
X175153319Y-98626913D01*
X175122632Y-98636798D01*
X175095341Y-98652615D01*
X175072928Y-98673129D01*
X175055045Y-98698039D01*
X175041421Y-98727717D01*
X175033026Y-98759861D01*
X175030186Y-98794151D01*
X175034970Y-98841182D01*
X175048591Y-98880781D01*
X175070730Y-98914502D01*
X175100484Y-98941831D01*
X175137271Y-98961894D01*
X175182593Y-98974647D01*
X175170015Y-99120154D01*
X175107543Y-99105245D01*
X175056198Y-99081686D01*
X175011744Y-99049288D01*
X174975842Y-99010367D01*
X174948080Y-98964960D01*
X174928337Y-98912426D01*
X174916905Y-98855689D01*
X174912949Y-98792747D01*
X174917417Y-98729764D01*
X174930474Y-98671785D01*
X174952402Y-98618136D01*
X174982253Y-98572440D01*
X175020540Y-98534450D01*
X175067616Y-98505273D01*
X175121605Y-98487207D01*
X175187234Y-98480788D01*
X175235139Y-98484541D01*
X175278947Y-98495503D01*
X175320456Y-98512471D01*
X175359425Y-98533971D01*
X175396082Y-98559414D01*
X175430805Y-98588499D01*
X175496568Y-98652857D01*
X175811763Y-98978860D01*
X175811763Y-98480788D01*
X175929000Y-98480788D01*
X175929000Y-99129924D01*
X175788316Y-99129924D01*
G37*
X157426819Y-114809094D02*
X156426819Y-114809094D01*
X156426819Y-114809094D02*
X156426819Y-114570999D01*
X156426819Y-114570999D02*
X156474438Y-114428142D01*
X156474438Y-114428142D02*
X156569676Y-114332904D01*
X156569676Y-114332904D02*
X156664914Y-114285285D01*
X156664914Y-114285285D02*
X156855390Y-114237666D01*
X156855390Y-114237666D02*
X156998247Y-114237666D01*
X156998247Y-114237666D02*
X157188723Y-114285285D01*
X157188723Y-114285285D02*
X157283961Y-114332904D01*
X157283961Y-114332904D02*
X157379200Y-114428142D01*
X157379200Y-114428142D02*
X157426819Y-114570999D01*
X157426819Y-114570999D02*
X157426819Y-114809094D01*
X156426819Y-113380523D02*
X156426819Y-113570999D01*
X156426819Y-113570999D02*
X156474438Y-113666237D01*
X156474438Y-113666237D02*
X156522057Y-113713856D01*
X156522057Y-113713856D02*
X156664914Y-113809094D01*
X156664914Y-113809094D02*
X156855390Y-113856713D01*
X156855390Y-113856713D02*
X157236342Y-113856713D01*
X157236342Y-113856713D02*
X157331580Y-113809094D01*
X157331580Y-113809094D02*
X157379200Y-113761475D01*
X157379200Y-113761475D02*
X157426819Y-113666237D01*
X157426819Y-113666237D02*
X157426819Y-113475761D01*
X157426819Y-113475761D02*
X157379200Y-113380523D01*
X157379200Y-113380523D02*
X157331580Y-113332904D01*
X157331580Y-113332904D02*
X157236342Y-113285285D01*
X157236342Y-113285285D02*
X156998247Y-113285285D01*
X156998247Y-113285285D02*
X156903009Y-113332904D01*
X156903009Y-113332904D02*
X156855390Y-113380523D01*
X156855390Y-113380523D02*
X156807771Y-113475761D01*
X156807771Y-113475761D02*
X156807771Y-113666237D01*
X156807771Y-113666237D02*
X156855390Y-113761475D01*
X156855390Y-113761475D02*
X156903009Y-113809094D01*
X156903009Y-113809094D02*
X156998247Y-113856713D01*
X173841580Y-101004666D02*
X173889200Y-101052285D01*
X173889200Y-101052285D02*
X173936819Y-101195142D01*
X173936819Y-101195142D02*
X173936819Y-101290380D01*
X173936819Y-101290380D02*
X173889200Y-101433237D01*
X173889200Y-101433237D02*
X173793961Y-101528475D01*
X173793961Y-101528475D02*
X173698723Y-101576094D01*
X173698723Y-101576094D02*
X173508247Y-101623713D01*
X173508247Y-101623713D02*
X173365390Y-101623713D01*
X173365390Y-101623713D02*
X173174914Y-101576094D01*
X173174914Y-101576094D02*
X173079676Y-101528475D01*
X173079676Y-101528475D02*
X172984438Y-101433237D01*
X172984438Y-101433237D02*
X172936819Y-101290380D01*
X172936819Y-101290380D02*
X172936819Y-101195142D01*
X172936819Y-101195142D02*
X172984438Y-101052285D01*
X172984438Y-101052285D02*
X173032057Y-101004666D01*
X172936819Y-100099904D02*
X172936819Y-100576094D01*
X172936819Y-100576094D02*
X173413009Y-100623713D01*
X173413009Y-100623713D02*
X173365390Y-100576094D01*
X173365390Y-100576094D02*
X173317771Y-100480856D01*
X173317771Y-100480856D02*
X173317771Y-100242761D01*
X173317771Y-100242761D02*
X173365390Y-100147523D01*
X173365390Y-100147523D02*
X173413009Y-100099904D01*
X173413009Y-100099904D02*
X173508247Y-100052285D01*
X173508247Y-100052285D02*
X173746342Y-100052285D01*
X173746342Y-100052285D02*
X173841580Y-100099904D01*
X173841580Y-100099904D02*
X173889200Y-100147523D01*
X173889200Y-100147523D02*
X173936819Y-100242761D01*
X173936819Y-100242761D02*
X173936819Y-100480856D01*
X173936819Y-100480856D02*
X173889200Y-100576094D01*
X173889200Y-100576094D02*
X173841580Y-100623713D01*
G36*
X154112304Y-81517778D02*
G01*
X154717660Y-81517778D01*
X154763956Y-81514714D01*
X154813220Y-81505200D01*
X154860773Y-81488430D01*
X154904567Y-81463251D01*
X154942304Y-81429591D01*
X154972894Y-81386315D01*
X154987139Y-81353583D01*
X154996178Y-81314809D01*
X154999394Y-81268773D01*
X154996177Y-81222737D01*
X154987137Y-81183985D01*
X154972894Y-81151292D01*
X154942297Y-81107977D01*
X154904567Y-81074356D01*
X154860769Y-81049130D01*
X154813220Y-81032346D01*
X154763956Y-81022832D01*
X154717660Y-81019767D01*
X154112304Y-81019767D01*
X154112304Y-80885434D01*
X154738299Y-80885434D01*
X154795306Y-80888842D01*
X154847351Y-80898737D01*
X154895103Y-80914804D01*
X154961120Y-80949987D01*
X155017102Y-80995954D01*
X155062630Y-81052059D01*
X155096603Y-81117709D01*
X155117357Y-81189738D01*
X155124447Y-81268773D01*
X155117359Y-81347816D01*
X155096603Y-81419898D01*
X155062634Y-81485496D01*
X155017102Y-81541592D01*
X154961120Y-81587559D01*
X154895103Y-81622742D01*
X154847351Y-81638809D01*
X154795306Y-81648704D01*
X154738299Y-81652112D01*
X154112304Y-81652112D01*
X154112304Y-81517778D01*
G37*
G36*
X154229541Y-80239228D02*
G01*
X154229541Y-80717700D01*
X154112304Y-80717700D01*
X154112304Y-80095125D01*
X154226732Y-80095125D01*
X155101000Y-80489638D01*
X155101000Y-80640763D01*
X154229541Y-80239228D01*
G37*
G36*
X158431000Y-84407537D02*
G01*
X158184803Y-84506883D01*
X158184803Y-84978333D01*
X158431000Y-85076274D01*
X158431000Y-85232956D01*
X157442304Y-84796494D01*
X157442304Y-84740501D01*
X157615473Y-84740501D01*
X157615473Y-84743310D01*
X158067566Y-84930767D01*
X158067566Y-84555854D01*
X157615473Y-84740501D01*
X157442304Y-84740501D01*
X157442304Y-84674739D01*
X158431000Y-84250856D01*
X158431000Y-84407537D01*
G37*
G36*
X157766659Y-84154441D02*
G01*
X157766659Y-84028534D01*
X157869974Y-84028534D01*
X157869974Y-84025725D01*
X157837413Y-84006485D01*
X157808844Y-83979385D01*
X157783939Y-83943232D01*
X157765942Y-83902861D01*
X157754865Y-83857920D01*
X157751027Y-83807494D01*
X157754727Y-83760670D01*
X157765743Y-83715842D01*
X157784515Y-83674417D01*
X157811172Y-83638905D01*
X157845609Y-83609846D01*
X157890246Y-83586454D01*
X157941169Y-83572050D01*
X158004246Y-83566854D01*
X158431000Y-83566854D01*
X158431000Y-83692761D01*
X158039051Y-83692761D01*
X157994778Y-83696132D01*
X157959977Y-83705339D01*
X157929599Y-83720422D01*
X157906793Y-83738923D01*
X157889240Y-83761547D01*
X157877362Y-83787222D01*
X157870552Y-83814920D01*
X157868264Y-83843886D01*
X157871491Y-83882022D01*
X157880904Y-83916609D01*
X157897074Y-83947973D01*
X157920776Y-83975411D01*
X157950986Y-83997341D01*
X157990080Y-84014551D01*
X158034213Y-84024797D01*
X158089426Y-84028534D01*
X158431000Y-84028534D01*
X158431000Y-84154441D01*
X157766659Y-84154441D01*
G37*
G36*
X157876080Y-83021398D02*
G01*
X157876080Y-83201894D01*
X158176865Y-83201894D01*
X158232186Y-83200489D01*
X158258489Y-83197065D01*
X158281157Y-83189987D01*
X158300781Y-83178415D01*
X158316144Y-83162021D01*
X158325669Y-83140426D01*
X158329394Y-83106761D01*
X158325242Y-83060660D01*
X158319224Y-83037717D01*
X158309855Y-83017246D01*
X158424283Y-83017246D01*
X158434548Y-83041692D01*
X158441746Y-83075315D01*
X158446631Y-83130575D01*
X158440888Y-83198684D01*
X158426359Y-83243171D01*
X158402507Y-83278463D01*
X158373908Y-83301911D01*
X158340125Y-83316852D01*
X158301917Y-83324320D01*
X158221500Y-83327801D01*
X157876080Y-83327801D01*
X157876080Y-83473309D01*
X157766659Y-83473309D01*
X157766659Y-83327801D01*
X157579080Y-83327801D01*
X157579080Y-83201894D01*
X157766659Y-83201894D01*
X157766659Y-83021398D01*
X157876080Y-83021398D01*
G37*
G36*
X158145724Y-82763844D02*
G01*
X158187149Y-82759047D01*
X158224126Y-82744976D01*
X158256940Y-82723054D01*
X158284515Y-82695273D01*
X158306526Y-82662395D01*
X158323349Y-82623954D01*
X158333736Y-82582714D01*
X158337210Y-82539996D01*
X158330269Y-82484197D01*
X158310405Y-82437902D01*
X158279737Y-82396795D01*
X158239513Y-82358096D01*
X158311809Y-82262963D01*
X158360168Y-82308105D01*
X158397336Y-82359064D01*
X158424179Y-82416617D01*
X158440821Y-82481993D01*
X158446631Y-82556787D01*
X158439796Y-82632580D01*
X158420131Y-82698814D01*
X158388202Y-82758016D01*
X158346797Y-82806526D01*
X158296142Y-82845321D01*
X158236399Y-82874425D01*
X158170953Y-82892113D01*
X158098829Y-82898178D01*
X158026802Y-82891586D01*
X157961259Y-82872288D01*
X157901550Y-82841291D01*
X157850923Y-82800969D01*
X157809374Y-82751410D01*
X157777589Y-82692525D01*
X157757802Y-82627452D01*
X157751291Y-82558192D01*
X157852632Y-82558192D01*
X157857064Y-82602896D01*
X157869974Y-82642822D01*
X157890180Y-82678696D01*
X157915098Y-82707912D01*
X157944523Y-82731601D01*
X157976830Y-82749190D01*
X158011100Y-82760276D01*
X158044119Y-82763844D01*
X158044119Y-82366522D01*
X158003611Y-82370658D01*
X157967793Y-82379833D01*
X157935200Y-82394771D01*
X157907465Y-82415493D01*
X157884792Y-82441883D01*
X157867226Y-82474966D01*
X157856478Y-82512493D01*
X157852632Y-82558192D01*
X157751291Y-82558192D01*
X157751027Y-82555383D01*
X157754773Y-82497270D01*
X157765305Y-82448082D01*
X157781863Y-82406395D01*
X157817741Y-82350491D01*
X157862341Y-82306377D01*
X157914992Y-82272687D01*
X157974265Y-82249713D01*
X158037107Y-82236564D01*
X158100905Y-82232188D01*
X158145724Y-82232188D01*
X158145724Y-82763844D01*
G37*
G36*
X157766659Y-82081307D02*
G01*
X157766659Y-81955400D01*
X157869974Y-81955400D01*
X157869974Y-81952591D01*
X157837413Y-81933352D01*
X157808844Y-81906252D01*
X157783939Y-81870098D01*
X157765942Y-81829728D01*
X157754865Y-81784787D01*
X157751027Y-81734361D01*
X157754727Y-81687537D01*
X157765743Y-81642708D01*
X157784515Y-81601283D01*
X157811172Y-81565772D01*
X157845609Y-81536713D01*
X157890246Y-81513321D01*
X157941169Y-81498917D01*
X158004246Y-81493720D01*
X158431000Y-81493720D01*
X158431000Y-81619627D01*
X158039051Y-81619627D01*
X157994778Y-81622998D01*
X157959977Y-81632206D01*
X157929599Y-81647289D01*
X157906793Y-81665789D01*
X157889240Y-81688414D01*
X157877362Y-81714088D01*
X157870552Y-81741787D01*
X157868264Y-81770753D01*
X157871491Y-81808889D01*
X157880904Y-81843476D01*
X157897074Y-81874840D01*
X157920776Y-81902277D01*
X157950986Y-81924207D01*
X157990080Y-81941417D01*
X158034213Y-81951664D01*
X158089426Y-81955400D01*
X158431000Y-81955400D01*
X158431000Y-82081307D01*
X157766659Y-82081307D01*
G37*
G36*
X157766659Y-81303638D02*
G01*
X157766659Y-81177731D01*
X157869974Y-81177731D01*
X157869974Y-81174922D01*
X157837413Y-81155683D01*
X157808844Y-81128582D01*
X157783939Y-81092429D01*
X157765942Y-81052058D01*
X157754865Y-81007118D01*
X157751027Y-80956691D01*
X157754727Y-80909867D01*
X157765743Y-80865039D01*
X157784515Y-80823614D01*
X157811172Y-80788103D01*
X157845609Y-80759044D01*
X157890246Y-80735651D01*
X157941169Y-80721248D01*
X158004246Y-80716051D01*
X158431000Y-80716051D01*
X158431000Y-80841958D01*
X158039051Y-80841958D01*
X157994778Y-80845329D01*
X157959977Y-80854537D01*
X157929599Y-80869620D01*
X157906793Y-80888120D01*
X157889240Y-80910744D01*
X157877362Y-80936419D01*
X157870552Y-80964117D01*
X157868264Y-80993083D01*
X157871491Y-81031220D01*
X157880904Y-81065807D01*
X157897074Y-81097171D01*
X157920776Y-81124608D01*
X157950986Y-81146538D01*
X157990080Y-81163748D01*
X158034213Y-81173995D01*
X158089426Y-81177731D01*
X158431000Y-81177731D01*
X158431000Y-81303638D01*
X157766659Y-81303638D01*
G37*
G36*
X158431000Y-80089446D02*
G01*
X158329700Y-80093659D01*
X158329700Y-80096468D01*
X158369427Y-80127258D01*
X158399145Y-80160289D01*
X158420192Y-80195814D01*
X158439721Y-80256208D01*
X158446631Y-80328682D01*
X158443462Y-80374081D01*
X158434114Y-80416854D01*
X158418273Y-80456569D01*
X158396561Y-80490310D01*
X158368602Y-80518377D01*
X158334585Y-80539952D01*
X158295649Y-80553404D01*
X158248978Y-80558148D01*
X158207110Y-80554711D01*
X158171789Y-80544999D01*
X158141816Y-80529511D01*
X158103039Y-80495996D01*
X158071535Y-80451170D01*
X158048627Y-80398563D01*
X158032517Y-80335032D01*
X158023717Y-80267282D01*
X158020672Y-80193005D01*
X158020672Y-80167848D01*
X158114461Y-80167848D01*
X158119285Y-80259500D01*
X158126458Y-80305005D01*
X158137786Y-80344802D01*
X158154658Y-80380402D01*
X158176254Y-80407755D01*
X158203951Y-80425960D01*
X158239330Y-80432241D01*
X158274792Y-80427552D01*
X158301017Y-80414663D01*
X158320357Y-80393773D01*
X158333394Y-80366987D01*
X158341909Y-80332849D01*
X158345026Y-80289542D01*
X158340454Y-80240200D01*
X158327868Y-80201431D01*
X158307789Y-80168083D01*
X158283294Y-80142691D01*
X158254239Y-80123415D01*
X158222233Y-80110512D01*
X158188510Y-80103103D01*
X158155616Y-80100681D01*
X158114461Y-80100681D01*
X158114461Y-80167848D01*
X158020672Y-80167848D01*
X158020672Y-80100681D01*
X157992645Y-80100681D01*
X157967697Y-80103095D01*
X157942270Y-80110512D01*
X157918403Y-80122665D01*
X157896779Y-80139882D01*
X157878785Y-80161528D01*
X157864539Y-80188792D01*
X157855801Y-80219862D01*
X157852632Y-80258767D01*
X157854476Y-80293957D01*
X157859532Y-80322454D01*
X157876690Y-80372096D01*
X157900748Y-80412640D01*
X157926882Y-80447628D01*
X157848725Y-80523160D01*
X157806094Y-80465982D01*
X157775452Y-80400062D01*
X157757047Y-80329607D01*
X157751027Y-80260172D01*
X157755902Y-80190274D01*
X157769224Y-80134936D01*
X157791177Y-80086132D01*
X157818194Y-80048902D01*
X157851494Y-80019524D01*
X157888841Y-79999259D01*
X157929544Y-79987177D01*
X157972067Y-79983139D01*
X158310649Y-79983139D01*
X158375068Y-79981735D01*
X158431000Y-79977522D01*
X158431000Y-80089446D01*
G37*
G36*
X158431000Y-78679554D02*
G01*
X158184803Y-78778900D01*
X158184803Y-79250350D01*
X158431000Y-79348291D01*
X158431000Y-79504973D01*
X157442304Y-79068511D01*
X157442304Y-79012518D01*
X157615473Y-79012518D01*
X157615473Y-79015327D01*
X158067566Y-79202783D01*
X158067566Y-78827871D01*
X157615473Y-79012518D01*
X157442304Y-79012518D01*
X157442304Y-78946756D01*
X158431000Y-78522872D01*
X158431000Y-78679554D01*
G37*
G36*
X157766659Y-78426457D02*
G01*
X157766659Y-78300550D01*
X157869974Y-78300550D01*
X157869974Y-78297742D01*
X157844707Y-78283123D01*
X157821736Y-78264219D01*
X157801578Y-78241983D01*
X157784611Y-78217325D01*
X157760125Y-78160660D01*
X157753279Y-78129730D01*
X157751027Y-78099111D01*
X157753183Y-78069164D01*
X157759332Y-78043118D01*
X157893726Y-78048736D01*
X157886704Y-78079511D01*
X157883896Y-78110285D01*
X157890271Y-78169676D01*
X157907865Y-78215746D01*
X157935797Y-78251580D01*
X157973501Y-78277234D01*
X158025714Y-78294188D01*
X158097120Y-78300550D01*
X158431000Y-78300550D01*
X158431000Y-78426457D01*
X157766659Y-78426457D01*
G37*
G36*
X158145724Y-77838931D02*
G01*
X158187149Y-77834134D01*
X158224126Y-77820064D01*
X158256940Y-77798141D01*
X158284515Y-77770360D01*
X158306526Y-77737482D01*
X158323349Y-77699041D01*
X158333736Y-77657801D01*
X158337210Y-77615083D01*
X158330269Y-77559284D01*
X158310405Y-77512989D01*
X158279737Y-77471882D01*
X158239513Y-77433183D01*
X158311809Y-77338050D01*
X158360168Y-77383192D01*
X158397336Y-77434151D01*
X158424179Y-77491704D01*
X158440821Y-77557080D01*
X158446631Y-77631874D01*
X158439796Y-77707667D01*
X158420131Y-77773902D01*
X158388202Y-77833103D01*
X158346797Y-77881613D01*
X158296142Y-77920408D01*
X158236399Y-77949512D01*
X158170953Y-77967200D01*
X158098829Y-77973265D01*
X158026802Y-77966673D01*
X157961259Y-77947375D01*
X157901550Y-77916378D01*
X157850923Y-77876056D01*
X157809374Y-77826497D01*
X157777589Y-77767612D01*
X157757802Y-77702540D01*
X157751291Y-77633279D01*
X157852632Y-77633279D01*
X157857064Y-77677983D01*
X157869974Y-77717909D01*
X157890180Y-77753783D01*
X157915098Y-77783000D01*
X157944523Y-77806688D01*
X157976830Y-77824277D01*
X158011100Y-77835363D01*
X158044119Y-77838931D01*
X158044119Y-77441609D01*
X158003611Y-77445745D01*
X157967793Y-77454921D01*
X157935200Y-77469859D01*
X157907465Y-77490580D01*
X157884792Y-77516971D01*
X157867226Y-77550053D01*
X157856478Y-77587580D01*
X157852632Y-77633279D01*
X157751291Y-77633279D01*
X157751027Y-77630470D01*
X157754773Y-77572357D01*
X157765305Y-77523169D01*
X157781863Y-77481482D01*
X157817741Y-77425578D01*
X157862341Y-77381464D01*
X157914992Y-77347775D01*
X157974265Y-77324800D01*
X158037107Y-77311651D01*
X158100905Y-77307276D01*
X158145724Y-77307276D01*
X158145724Y-77838931D01*
G37*
G36*
X158431000Y-76719872D02*
G01*
X158329700Y-76724085D01*
X158329700Y-76726894D01*
X158369427Y-76757684D01*
X158399145Y-76790715D01*
X158420192Y-76826239D01*
X158439721Y-76886634D01*
X158446631Y-76959108D01*
X158443462Y-77004507D01*
X158434114Y-77047279D01*
X158418273Y-77086995D01*
X158396561Y-77120735D01*
X158368602Y-77148803D01*
X158334585Y-77170378D01*
X158295649Y-77183830D01*
X158248978Y-77188574D01*
X158207110Y-77185137D01*
X158171789Y-77175425D01*
X158141816Y-77159936D01*
X158103039Y-77126422D01*
X158071535Y-77081595D01*
X158048627Y-77028989D01*
X158032517Y-76965458D01*
X158023717Y-76897707D01*
X158020672Y-76823431D01*
X158020672Y-76798274D01*
X158114461Y-76798274D01*
X158119285Y-76889926D01*
X158126458Y-76935431D01*
X158137786Y-76975228D01*
X158154658Y-77010828D01*
X158176254Y-77038181D01*
X158203951Y-77056386D01*
X158239330Y-77062667D01*
X158274792Y-77057978D01*
X158301017Y-77045089D01*
X158320357Y-77024198D01*
X158333394Y-76997413D01*
X158341909Y-76963274D01*
X158345026Y-76919968D01*
X158340454Y-76870625D01*
X158327868Y-76831857D01*
X158307789Y-76798508D01*
X158283294Y-76773117D01*
X158254239Y-76753841D01*
X158222233Y-76740938D01*
X158188510Y-76733528D01*
X158155616Y-76731107D01*
X158114461Y-76731107D01*
X158114461Y-76798274D01*
X158020672Y-76798274D01*
X158020672Y-76731107D01*
X157992645Y-76731107D01*
X157967697Y-76733521D01*
X157942270Y-76740938D01*
X157918403Y-76753091D01*
X157896779Y-76770308D01*
X157878785Y-76791953D01*
X157864539Y-76819217D01*
X157855801Y-76850287D01*
X157852632Y-76889193D01*
X157854476Y-76924382D01*
X157859532Y-76952879D01*
X157876690Y-77002522D01*
X157900748Y-77043066D01*
X157926882Y-77078054D01*
X157848725Y-77153586D01*
X157806094Y-77096408D01*
X157775452Y-77030488D01*
X157757047Y-76960033D01*
X157751027Y-76890597D01*
X157755902Y-76820700D01*
X157769224Y-76765362D01*
X157791177Y-76716557D01*
X157818194Y-76679327D01*
X157851494Y-76649949D01*
X157888841Y-76629685D01*
X157929544Y-76617603D01*
X157972067Y-76613565D01*
X158310649Y-76613565D01*
X158375068Y-76612161D01*
X158431000Y-76607947D01*
X158431000Y-76719872D01*
G37*
G36*
X155101000Y-94392024D02*
G01*
X154854803Y-94489965D01*
X154854803Y-94961415D01*
X155101000Y-95060761D01*
X155101000Y-95217442D01*
X154112304Y-94793559D01*
X154112304Y-94724988D01*
X154285473Y-94724988D01*
X154285473Y-94727797D01*
X154737566Y-94912444D01*
X154737566Y-94537531D01*
X154285473Y-94724988D01*
X154112304Y-94724988D01*
X154112304Y-94671804D01*
X155101000Y-94235342D01*
X155101000Y-94392024D01*
G37*
G36*
X154858711Y-95424377D02*
G01*
X154904490Y-95443266D01*
X154939108Y-95464590D01*
X154964590Y-95488063D01*
X154982922Y-95516693D01*
X154994934Y-95555117D01*
X154999394Y-95606277D01*
X154996031Y-95644479D01*
X154986144Y-95679672D01*
X154970304Y-95712219D01*
X154949813Y-95740550D01*
X154924389Y-95764289D01*
X154893882Y-95782559D01*
X154859610Y-95793994D01*
X154820487Y-95797947D01*
X154780204Y-95794735D01*
X154747876Y-95785865D01*
X154721935Y-95772057D01*
X154689386Y-95742449D01*
X154666003Y-95705562D01*
X154650609Y-95663443D01*
X154641579Y-95616047D01*
X154635961Y-95519510D01*
X154518725Y-95519510D01*
X154515796Y-95592967D01*
X154508222Y-95645417D01*
X154494680Y-95691064D01*
X154478119Y-95722353D01*
X154455811Y-95746320D01*
X154429087Y-95761493D01*
X154398505Y-95769818D01*
X154363264Y-95772728D01*
X154312153Y-95766898D01*
X154272942Y-95750821D01*
X154242791Y-95725162D01*
X154220553Y-95691465D01*
X154206944Y-95652321D01*
X154202186Y-95606277D01*
X154205683Y-95570871D01*
X154216005Y-95538210D01*
X154233327Y-95507603D01*
X154269236Y-95469125D01*
X154315515Y-95441169D01*
X154269658Y-95304088D01*
X154211088Y-95335560D01*
X154165149Y-95375263D01*
X154130134Y-95423705D01*
X154105229Y-95478853D01*
X154090117Y-95538438D01*
X154084949Y-95603468D01*
X154089022Y-95662697D01*
X154101069Y-95718873D01*
X154121717Y-95771211D01*
X154150712Y-95816082D01*
X154188396Y-95853502D01*
X154235342Y-95882577D01*
X154289331Y-95900642D01*
X154354960Y-95907062D01*
X154405569Y-95901791D01*
X154451810Y-95886260D01*
X154494789Y-95860167D01*
X154531487Y-95825733D01*
X154559297Y-95785242D01*
X154578747Y-95737741D01*
X154581556Y-95737741D01*
X154593594Y-95781935D01*
X154612270Y-95820295D01*
X154637475Y-95853948D01*
X154668140Y-95881844D01*
X154703465Y-95903841D01*
X154742878Y-95919641D01*
X154784958Y-95929023D01*
X154830195Y-95932219D01*
X154898388Y-95925108D01*
X154955248Y-95904925D01*
X155004741Y-95872892D01*
X155044702Y-95832141D01*
X155075704Y-95783678D01*
X155098496Y-95727238D01*
X155112035Y-95666670D01*
X155116631Y-95602064D01*
X155110632Y-95527953D01*
X155093295Y-95461978D01*
X155065035Y-95402701D01*
X155036157Y-95363692D01*
X155000021Y-95330930D01*
X154955735Y-95304025D01*
X154901942Y-95283083D01*
X154858711Y-95424377D01*
G37*
G36*
X154858711Y-96202046D02*
G01*
X154904490Y-96220935D01*
X154939108Y-96242259D01*
X154964590Y-96265733D01*
X154982922Y-96294363D01*
X154994934Y-96332786D01*
X154999394Y-96383946D01*
X154996031Y-96422149D01*
X154986144Y-96457341D01*
X154970304Y-96489888D01*
X154949813Y-96518219D01*
X154924389Y-96541958D01*
X154893882Y-96560228D01*
X154859610Y-96571663D01*
X154820487Y-96575616D01*
X154780204Y-96572404D01*
X154747876Y-96563534D01*
X154721935Y-96549726D01*
X154689386Y-96520118D01*
X154666003Y-96483231D01*
X154650609Y-96441112D01*
X154641579Y-96393716D01*
X154635961Y-96297179D01*
X154518725Y-96297179D01*
X154515796Y-96370636D01*
X154508222Y-96423086D01*
X154494680Y-96468733D01*
X154478119Y-96500023D01*
X154455811Y-96523989D01*
X154429087Y-96539163D01*
X154398505Y-96547487D01*
X154363264Y-96550398D01*
X154312153Y-96544567D01*
X154272942Y-96528490D01*
X154242791Y-96502831D01*
X154220553Y-96469134D01*
X154206944Y-96429991D01*
X154202186Y-96383946D01*
X154205683Y-96348540D01*
X154216005Y-96315879D01*
X154233327Y-96285272D01*
X154269236Y-96246795D01*
X154315515Y-96218838D01*
X154269658Y-96081757D01*
X154211088Y-96113229D01*
X154165149Y-96152933D01*
X154130134Y-96201375D01*
X154105229Y-96256522D01*
X154090117Y-96316107D01*
X154084949Y-96381137D01*
X154089022Y-96440366D01*
X154101069Y-96496542D01*
X154121717Y-96548880D01*
X154150712Y-96593751D01*
X154188396Y-96631171D01*
X154235342Y-96660246D01*
X154289331Y-96678311D01*
X154354960Y-96684731D01*
X154405569Y-96679460D01*
X154451810Y-96663930D01*
X154494789Y-96637837D01*
X154531487Y-96603402D01*
X154559297Y-96562911D01*
X154578747Y-96515410D01*
X154581556Y-96515410D01*
X154593594Y-96559604D01*
X154612270Y-96597964D01*
X154637475Y-96631617D01*
X154668140Y-96659513D01*
X154703465Y-96681510D01*
X154742878Y-96697310D01*
X154784958Y-96706692D01*
X154830195Y-96709888D01*
X154898388Y-96702778D01*
X154955248Y-96682594D01*
X155004741Y-96650561D01*
X155044702Y-96609810D01*
X155075704Y-96561347D01*
X155098496Y-96504907D01*
X155112035Y-96444339D01*
X155116631Y-96379733D01*
X155110632Y-96305623D01*
X155093295Y-96239647D01*
X155065035Y-96180370D01*
X155036157Y-96141361D01*
X155000021Y-96108600D01*
X154955735Y-96081694D01*
X154901942Y-96060752D01*
X154858711Y-96202046D01*
G37*
X170126819Y-115038094D02*
X169126819Y-115038094D01*
X169126819Y-115038094D02*
X169126819Y-114799999D01*
X169126819Y-114799999D02*
X169174438Y-114657142D01*
X169174438Y-114657142D02*
X169269676Y-114561904D01*
X169269676Y-114561904D02*
X169364914Y-114514285D01*
X169364914Y-114514285D02*
X169555390Y-114466666D01*
X169555390Y-114466666D02*
X169698247Y-114466666D01*
X169698247Y-114466666D02*
X169888723Y-114514285D01*
X169888723Y-114514285D02*
X169983961Y-114561904D01*
X169983961Y-114561904D02*
X170079200Y-114657142D01*
X170079200Y-114657142D02*
X170126819Y-114799999D01*
X170126819Y-114799999D02*
X170126819Y-115038094D01*
X169126819Y-114133332D02*
X169126819Y-113466666D01*
X169126819Y-113466666D02*
X170126819Y-113895237D01*
G36*
X177480304Y-82171778D02*
G01*
X178085660Y-82171778D01*
X178131956Y-82168714D01*
X178181220Y-82159200D01*
X178228773Y-82142430D01*
X178272567Y-82117251D01*
X178310304Y-82083591D01*
X178340894Y-82040315D01*
X178355139Y-82007583D01*
X178364178Y-81968809D01*
X178367394Y-81922773D01*
X178364177Y-81876737D01*
X178355137Y-81837985D01*
X178340894Y-81805292D01*
X178310297Y-81761977D01*
X178272567Y-81728356D01*
X178228769Y-81703130D01*
X178181220Y-81686346D01*
X178131956Y-81676832D01*
X178085660Y-81673767D01*
X177480304Y-81673767D01*
X177480304Y-81539434D01*
X178106299Y-81539434D01*
X178163306Y-81542842D01*
X178215351Y-81552737D01*
X178263103Y-81568804D01*
X178329120Y-81603987D01*
X178385102Y-81649954D01*
X178430630Y-81706059D01*
X178464603Y-81771709D01*
X178485357Y-81843738D01*
X178492447Y-81922773D01*
X178485359Y-82001816D01*
X178464603Y-82073898D01*
X178430634Y-82139496D01*
X178385102Y-82195592D01*
X178329120Y-82241559D01*
X178263103Y-82276742D01*
X178215351Y-82292809D01*
X178163306Y-82302704D01*
X178106299Y-82306112D01*
X177480304Y-82306112D01*
X177480304Y-82171778D01*
G37*
G36*
X178328316Y-81366082D02*
G01*
X177931604Y-80968760D01*
X177888923Y-80928216D01*
X177840563Y-80893228D01*
X177787318Y-80868743D01*
X177758750Y-80861944D01*
X177728455Y-80859645D01*
X177693319Y-80863071D01*
X177662632Y-80872956D01*
X177635341Y-80888773D01*
X177612928Y-80909287D01*
X177595045Y-80934197D01*
X177581421Y-80963875D01*
X177573026Y-80996020D01*
X177570186Y-81030309D01*
X177574970Y-81077340D01*
X177588591Y-81116940D01*
X177610730Y-81150660D01*
X177640484Y-81177990D01*
X177677271Y-81198053D01*
X177722593Y-81210805D01*
X177710015Y-81356313D01*
X177647543Y-81341403D01*
X177596198Y-81317844D01*
X177551744Y-81285447D01*
X177515842Y-81246525D01*
X177488080Y-81201118D01*
X177468337Y-81148584D01*
X177456905Y-81091848D01*
X177452949Y-81028905D01*
X177457417Y-80965922D01*
X177470474Y-80907944D01*
X177492402Y-80854294D01*
X177522253Y-80808598D01*
X177560540Y-80770609D01*
X177607616Y-80741431D01*
X177661605Y-80723366D01*
X177727234Y-80716946D01*
X177775139Y-80720699D01*
X177818947Y-80731662D01*
X177860456Y-80748629D01*
X177899425Y-80770130D01*
X177936082Y-80795572D01*
X177970805Y-80824657D01*
X178036568Y-80889015D01*
X178351763Y-81215018D01*
X178351763Y-80716946D01*
X178469000Y-80716946D01*
X178469000Y-81366082D01*
X178328316Y-81366082D01*
G37*
X162200333Y-101832580D02*
X162152714Y-101880200D01*
X162152714Y-101880200D02*
X162009857Y-101927819D01*
X162009857Y-101927819D02*
X161914619Y-101927819D01*
X161914619Y-101927819D02*
X161771762Y-101880200D01*
X161771762Y-101880200D02*
X161676524Y-101784961D01*
X161676524Y-101784961D02*
X161628905Y-101689723D01*
X161628905Y-101689723D02*
X161581286Y-101499247D01*
X161581286Y-101499247D02*
X161581286Y-101356390D01*
X161581286Y-101356390D02*
X161628905Y-101165914D01*
X161628905Y-101165914D02*
X161676524Y-101070676D01*
X161676524Y-101070676D02*
X161771762Y-100975438D01*
X161771762Y-100975438D02*
X161914619Y-100927819D01*
X161914619Y-100927819D02*
X162009857Y-100927819D01*
X162009857Y-100927819D02*
X162152714Y-100975438D01*
X162152714Y-100975438D02*
X162200333Y-101023057D01*
X163057476Y-100927819D02*
X162867000Y-100927819D01*
X162867000Y-100927819D02*
X162771762Y-100975438D01*
X162771762Y-100975438D02*
X162724143Y-101023057D01*
X162724143Y-101023057D02*
X162628905Y-101165914D01*
X162628905Y-101165914D02*
X162581286Y-101356390D01*
X162581286Y-101356390D02*
X162581286Y-101737342D01*
X162581286Y-101737342D02*
X162628905Y-101832580D01*
X162628905Y-101832580D02*
X162676524Y-101880200D01*
X162676524Y-101880200D02*
X162771762Y-101927819D01*
X162771762Y-101927819D02*
X162962238Y-101927819D01*
X162962238Y-101927819D02*
X163057476Y-101880200D01*
X163057476Y-101880200D02*
X163105095Y-101832580D01*
X163105095Y-101832580D02*
X163152714Y-101737342D01*
X163152714Y-101737342D02*
X163152714Y-101499247D01*
X163152714Y-101499247D02*
X163105095Y-101404009D01*
X163105095Y-101404009D02*
X163057476Y-101356390D01*
X163057476Y-101356390D02*
X162962238Y-101308771D01*
X162962238Y-101308771D02*
X162771762Y-101308771D01*
X162771762Y-101308771D02*
X162676524Y-101356390D01*
X162676524Y-101356390D02*
X162628905Y-101404009D01*
X162628905Y-101404009D02*
X162581286Y-101499247D01*
G36*
X172695879Y-108665882D02*
G01*
X172722699Y-108699143D01*
X172753580Y-108725568D01*
X172788936Y-108745749D01*
X172846709Y-108765035D01*
X172905745Y-108771394D01*
X172939332Y-108768852D01*
X172974316Y-108761014D01*
X173007838Y-108747933D01*
X173037941Y-108729812D01*
X173064007Y-108706571D01*
X173084836Y-108678460D01*
X173098341Y-108646049D01*
X173103032Y-108607691D01*
X173098651Y-108571499D01*
X173086436Y-108543247D01*
X173066640Y-108521046D01*
X173027025Y-108494265D01*
X172976392Y-108471098D01*
X172858850Y-108432019D01*
X172797355Y-108409210D01*
X172741370Y-108379324D01*
X172692214Y-108340167D01*
X172651122Y-108288771D01*
X172631878Y-108249158D01*
X172619323Y-108198787D01*
X172614730Y-108135020D01*
X172619223Y-108091190D01*
X172633597Y-108042330D01*
X172657613Y-107995762D01*
X172693070Y-107952448D01*
X172738215Y-107915862D01*
X172797301Y-107884366D01*
X172840609Y-107869651D01*
X172891260Y-107860278D01*
X172950502Y-107856949D01*
X173030341Y-107862570D01*
X173105780Y-107879175D01*
X173152382Y-107898627D01*
X173195562Y-107928298D01*
X173235900Y-107969423D01*
X173126785Y-108067975D01*
X173096830Y-108033394D01*
X173055405Y-108005571D01*
X173006911Y-107988078D01*
X172950502Y-107982002D01*
X172897184Y-107986031D01*
X172857446Y-107996778D01*
X172823250Y-108014126D01*
X172797973Y-108034697D01*
X172778681Y-108059132D01*
X172766527Y-108084523D01*
X172759572Y-108110867D01*
X172757428Y-108133676D01*
X172761876Y-108174222D01*
X172774186Y-108205811D01*
X172793821Y-108230519D01*
X172833718Y-108260540D01*
X172884068Y-108285290D01*
X172939371Y-108304952D01*
X173001549Y-108323087D01*
X173063245Y-108343331D01*
X173119091Y-108369859D01*
X173168496Y-108405000D01*
X173209339Y-108450765D01*
X173228602Y-108486492D01*
X173241138Y-108532345D01*
X173245731Y-108590960D01*
X173238712Y-108659528D01*
X173218437Y-108719310D01*
X173186219Y-108772214D01*
X173144981Y-108815541D01*
X173095236Y-108849732D01*
X173035865Y-108875503D01*
X172971402Y-108891117D01*
X172901532Y-108896447D01*
X172838750Y-108892688D01*
X172778747Y-108881558D01*
X172721036Y-108863108D01*
X172667372Y-108836454D01*
X172622498Y-108802315D01*
X172585359Y-108760342D01*
X172695879Y-108665882D01*
G37*
G36*
X173318271Y-107884304D02*
G01*
X173458161Y-107884304D01*
X173676392Y-108674674D01*
X173679201Y-108674674D01*
X173912880Y-107884304D01*
X174066753Y-107884304D01*
X174300372Y-108674674D01*
X174303180Y-108674674D01*
X174521411Y-107884304D01*
X174661301Y-107884304D01*
X174373156Y-108873000D01*
X174231800Y-108873000D01*
X173991221Y-108065838D01*
X173988412Y-108065838D01*
X173749177Y-108873000D01*
X173607882Y-108873000D01*
X173318271Y-107884304D01*
G37*
G36*
X175040855Y-108037933D02*
G01*
X174859016Y-108204751D01*
X174780675Y-108110962D01*
X175056242Y-107884304D01*
X175175188Y-107884304D01*
X175175188Y-108873000D01*
X175040855Y-108873000D01*
X175040855Y-108037933D01*
G37*
G36*
X161011879Y-108665882D02*
G01*
X161038699Y-108699143D01*
X161069580Y-108725568D01*
X161104936Y-108745749D01*
X161162709Y-108765035D01*
X161221745Y-108771394D01*
X161255332Y-108768852D01*
X161290316Y-108761014D01*
X161323838Y-108747933D01*
X161353941Y-108729812D01*
X161380007Y-108706571D01*
X161400836Y-108678460D01*
X161414341Y-108646049D01*
X161419032Y-108607691D01*
X161414651Y-108571499D01*
X161402436Y-108543247D01*
X161382640Y-108521046D01*
X161343025Y-108494265D01*
X161292392Y-108471098D01*
X161174850Y-108432019D01*
X161113355Y-108409210D01*
X161057370Y-108379324D01*
X161008214Y-108340167D01*
X160967122Y-108288771D01*
X160947878Y-108249158D01*
X160935323Y-108198787D01*
X160930730Y-108135020D01*
X160935223Y-108091190D01*
X160949597Y-108042330D01*
X160973613Y-107995762D01*
X161009070Y-107952448D01*
X161054215Y-107915862D01*
X161113301Y-107884366D01*
X161156609Y-107869651D01*
X161207260Y-107860278D01*
X161266502Y-107856949D01*
X161346341Y-107862570D01*
X161421780Y-107879175D01*
X161468382Y-107898627D01*
X161511562Y-107928298D01*
X161551900Y-107969423D01*
X161442785Y-108067975D01*
X161412830Y-108033394D01*
X161371405Y-108005571D01*
X161322911Y-107988078D01*
X161266502Y-107982002D01*
X161213184Y-107986031D01*
X161173446Y-107996778D01*
X161139250Y-108014126D01*
X161113973Y-108034697D01*
X161094681Y-108059132D01*
X161082527Y-108084523D01*
X161075572Y-108110867D01*
X161073428Y-108133676D01*
X161077876Y-108174222D01*
X161090186Y-108205811D01*
X161109821Y-108230519D01*
X161149718Y-108260540D01*
X161200068Y-108285290D01*
X161255371Y-108304952D01*
X161317549Y-108323087D01*
X161379245Y-108343331D01*
X161435091Y-108369859D01*
X161484496Y-108405000D01*
X161525339Y-108450765D01*
X161544602Y-108486492D01*
X161557138Y-108532345D01*
X161561731Y-108590960D01*
X161554712Y-108659528D01*
X161534437Y-108719310D01*
X161502219Y-108772214D01*
X161460981Y-108815541D01*
X161411236Y-108849732D01*
X161351865Y-108875503D01*
X161287402Y-108891117D01*
X161217532Y-108896447D01*
X161154750Y-108892688D01*
X161094747Y-108881558D01*
X161037036Y-108863108D01*
X160983372Y-108836454D01*
X160938498Y-108802315D01*
X160901359Y-108760342D01*
X161011879Y-108665882D01*
G37*
G36*
X161634271Y-107884304D02*
G01*
X161774161Y-107884304D01*
X161992392Y-108674674D01*
X161995201Y-108674674D01*
X162228880Y-107884304D01*
X162382753Y-107884304D01*
X162616372Y-108674674D01*
X162619180Y-108674674D01*
X162837411Y-107884304D01*
X162977301Y-107884304D01*
X162689156Y-108873000D01*
X162547800Y-108873000D01*
X162307221Y-108065838D01*
X162304412Y-108065838D01*
X162065177Y-108873000D01*
X161923882Y-108873000D01*
X161634271Y-107884304D01*
G37*
G36*
X163043491Y-108732316D02*
G01*
X163440813Y-108335604D01*
X163481358Y-108292923D01*
X163516345Y-108244563D01*
X163540831Y-108191318D01*
X163547629Y-108162750D01*
X163549929Y-108132455D01*
X163546502Y-108097319D01*
X163536618Y-108066632D01*
X163520800Y-108039341D01*
X163500286Y-108016928D01*
X163475376Y-107999045D01*
X163445698Y-107985421D01*
X163413554Y-107977026D01*
X163379264Y-107974186D01*
X163332234Y-107978970D01*
X163292634Y-107992591D01*
X163258913Y-108014730D01*
X163231584Y-108044484D01*
X163211521Y-108081271D01*
X163198769Y-108126593D01*
X163053261Y-108114015D01*
X163068170Y-108051543D01*
X163091729Y-108000198D01*
X163124127Y-107955744D01*
X163163048Y-107919842D01*
X163208455Y-107892080D01*
X163260990Y-107872337D01*
X163317726Y-107860905D01*
X163380669Y-107856949D01*
X163443652Y-107861417D01*
X163501630Y-107874474D01*
X163555280Y-107896402D01*
X163600976Y-107926253D01*
X163638965Y-107964540D01*
X163668142Y-108011616D01*
X163686208Y-108065605D01*
X163692628Y-108131234D01*
X163688874Y-108179139D01*
X163677912Y-108222947D01*
X163660944Y-108264456D01*
X163639444Y-108303425D01*
X163614001Y-108340082D01*
X163584917Y-108374805D01*
X163520559Y-108440568D01*
X163194555Y-108755763D01*
X163692628Y-108755763D01*
X163692628Y-108873000D01*
X163043491Y-108873000D01*
X163043491Y-108732316D01*
G37*
X161998819Y-99194857D02*
X161522628Y-99528190D01*
X161998819Y-99766285D02*
X160998819Y-99766285D01*
X160998819Y-99766285D02*
X160998819Y-99385333D01*
X160998819Y-99385333D02*
X161046438Y-99290095D01*
X161046438Y-99290095D02*
X161094057Y-99242476D01*
X161094057Y-99242476D02*
X161189295Y-99194857D01*
X161189295Y-99194857D02*
X161332152Y-99194857D01*
X161332152Y-99194857D02*
X161427390Y-99242476D01*
X161427390Y-99242476D02*
X161475009Y-99290095D01*
X161475009Y-99290095D02*
X161522628Y-99385333D01*
X161522628Y-99385333D02*
X161522628Y-99766285D01*
X161094057Y-98813904D02*
X161046438Y-98766285D01*
X161046438Y-98766285D02*
X160998819Y-98671047D01*
X160998819Y-98671047D02*
X160998819Y-98432952D01*
X160998819Y-98432952D02*
X161046438Y-98337714D01*
X161046438Y-98337714D02*
X161094057Y-98290095D01*
X161094057Y-98290095D02*
X161189295Y-98242476D01*
X161189295Y-98242476D02*
X161284533Y-98242476D01*
X161284533Y-98242476D02*
X161427390Y-98290095D01*
X161427390Y-98290095D02*
X161998819Y-98861523D01*
X161998819Y-98861523D02*
X161998819Y-98242476D01*
X160998819Y-97623428D02*
X160998819Y-97528190D01*
X160998819Y-97528190D02*
X161046438Y-97432952D01*
X161046438Y-97432952D02*
X161094057Y-97385333D01*
X161094057Y-97385333D02*
X161189295Y-97337714D01*
X161189295Y-97337714D02*
X161379771Y-97290095D01*
X161379771Y-97290095D02*
X161617866Y-97290095D01*
X161617866Y-97290095D02*
X161808342Y-97337714D01*
X161808342Y-97337714D02*
X161903580Y-97385333D01*
X161903580Y-97385333D02*
X161951200Y-97432952D01*
X161951200Y-97432952D02*
X161998819Y-97528190D01*
X161998819Y-97528190D02*
X161998819Y-97623428D01*
X161998819Y-97623428D02*
X161951200Y-97718666D01*
X161951200Y-97718666D02*
X161903580Y-97766285D01*
X161903580Y-97766285D02*
X161808342Y-97813904D01*
X161808342Y-97813904D02*
X161617866Y-97861523D01*
X161617866Y-97861523D02*
X161379771Y-97861523D01*
X161379771Y-97861523D02*
X161189295Y-97813904D01*
X161189295Y-97813904D02*
X161094057Y-97766285D01*
X161094057Y-97766285D02*
X161046438Y-97718666D01*
X161046438Y-97718666D02*
X160998819Y-97623428D01*
D13*
G36*
X180897634Y-53664169D02*
G01*
X180897634Y-53858146D01*
X180898616Y-53872980D01*
X180901664Y-53888766D01*
X180907038Y-53904004D01*
X180915106Y-53918037D01*
X180925892Y-53930129D01*
X180939759Y-53939931D01*
X180950248Y-53944496D01*
X180962672Y-53947392D01*
X180977424Y-53948423D01*
X180992175Y-53947392D01*
X181004593Y-53944495D01*
X181015069Y-53939931D01*
X181028948Y-53930127D01*
X181039722Y-53918037D01*
X181047805Y-53904003D01*
X181053183Y-53888766D01*
X181056232Y-53872980D01*
X181057214Y-53858146D01*
X181057214Y-53664169D01*
X181100259Y-53664169D01*
X181100259Y-53864759D01*
X181099167Y-53883026D01*
X181095996Y-53899703D01*
X181090847Y-53915004D01*
X181079574Y-53936158D01*
X181064844Y-53954097D01*
X181046866Y-53968686D01*
X181025830Y-53979572D01*
X181002749Y-53986222D01*
X180977424Y-53988494D01*
X180952095Y-53986223D01*
X180928998Y-53979572D01*
X180907978Y-53968687D01*
X180890003Y-53954097D01*
X180875274Y-53936158D01*
X180864000Y-53915004D01*
X180858852Y-53899703D01*
X180855681Y-53883026D01*
X180854589Y-53864759D01*
X180854589Y-53664169D01*
X180897634Y-53664169D01*
G37*
G36*
X181281718Y-53659732D02*
G01*
X181301944Y-53665089D01*
X181320535Y-53673900D01*
X181336458Y-53685731D01*
X181349685Y-53700463D01*
X181359996Y-53718034D01*
X181366492Y-53737698D01*
X181368742Y-53760218D01*
X181368152Y-53774679D01*
X181366492Y-53787141D01*
X181359996Y-53810248D01*
X181349920Y-53832025D01*
X181336909Y-53853998D01*
X181256669Y-53980981D01*
X181206012Y-53980981D01*
X181285802Y-53858576D01*
X181284002Y-53858576D01*
X181268314Y-53863882D01*
X181249038Y-53865776D01*
X181232067Y-53864342D01*
X181214524Y-53859926D01*
X181197924Y-53852468D01*
X181182925Y-53841710D01*
X181170256Y-53827869D01*
X181159837Y-53810209D01*
X181154995Y-53797173D01*
X181151948Y-53782211D01*
X181150876Y-53764992D01*
X181151163Y-53761842D01*
X181193901Y-53761842D01*
X181195104Y-53775883D01*
X181198597Y-53788471D01*
X181204362Y-53799881D01*
X181212058Y-53809466D01*
X181221575Y-53817268D01*
X181232896Y-53823240D01*
X181245475Y-53826930D01*
X181259799Y-53828210D01*
X181274138Y-53826929D01*
X181286702Y-53823240D01*
X181298040Y-53817267D01*
X181307560Y-53809466D01*
X181315251Y-53799880D01*
X181321001Y-53788471D01*
X181324509Y-53775882D01*
X181325717Y-53761842D01*
X181324509Y-53747802D01*
X181321001Y-53735213D01*
X181315251Y-53723804D01*
X181307560Y-53714219D01*
X181298040Y-53706417D01*
X181286702Y-53700444D01*
X181274138Y-53696756D01*
X181259799Y-53695474D01*
X181245475Y-53696755D01*
X181232896Y-53700444D01*
X181221575Y-53706416D01*
X181212058Y-53714219D01*
X181204362Y-53723803D01*
X181198597Y-53735213D01*
X181195104Y-53747802D01*
X181193901Y-53761842D01*
X181151163Y-53761842D01*
X181153161Y-53739899D01*
X181159622Y-53718875D01*
X181170004Y-53700310D01*
X181183159Y-53685359D01*
X181199093Y-53673546D01*
X181217674Y-53664893D01*
X181237894Y-53659684D01*
X181259819Y-53657908D01*
X181281718Y-53659732D01*
G37*
D11*
X164929095Y-65240819D02*
X164929095Y-66050342D01*
X164929095Y-66050342D02*
X164976714Y-66145580D01*
X164976714Y-66145580D02*
X165024333Y-66193200D01*
X165024333Y-66193200D02*
X165119571Y-66240819D01*
X165119571Y-66240819D02*
X165310047Y-66240819D01*
X165310047Y-66240819D02*
X165405285Y-66193200D01*
X165405285Y-66193200D02*
X165452904Y-66145580D01*
X165452904Y-66145580D02*
X165500523Y-66050342D01*
X165500523Y-66050342D02*
X165500523Y-65240819D01*
X166452904Y-65240819D02*
X165976714Y-65240819D01*
X165976714Y-65240819D02*
X165929095Y-65717009D01*
X165929095Y-65717009D02*
X165976714Y-65669390D01*
X165976714Y-65669390D02*
X166071952Y-65621771D01*
X166071952Y-65621771D02*
X166310047Y-65621771D01*
X166310047Y-65621771D02*
X166405285Y-65669390D01*
X166405285Y-65669390D02*
X166452904Y-65717009D01*
X166452904Y-65717009D02*
X166500523Y-65812247D01*
X166500523Y-65812247D02*
X166500523Y-66050342D01*
X166500523Y-66050342D02*
X166452904Y-66145580D01*
X166452904Y-66145580D02*
X166405285Y-66193200D01*
X166405285Y-66193200D02*
X166310047Y-66240819D01*
X166310047Y-66240819D02*
X166071952Y-66240819D01*
X166071952Y-66240819D02*
X165976714Y-66193200D01*
X165976714Y-66193200D02*
X165929095Y-66145580D01*
G36*
X154847000Y-54963883D02*
G01*
X154600803Y-55063229D01*
X154600803Y-55534679D01*
X154847000Y-55632620D01*
X154847000Y-55789302D01*
X153858304Y-55352840D01*
X153858304Y-55296847D01*
X154031473Y-55296847D01*
X154031473Y-55299656D01*
X154483566Y-55487113D01*
X154483566Y-55112200D01*
X154031473Y-55296847D01*
X153858304Y-55296847D01*
X153858304Y-55231085D01*
X154847000Y-54807202D01*
X154847000Y-54963883D01*
G37*
G36*
X154847000Y-54142800D02*
G01*
X154413224Y-54394614D01*
X154413224Y-54544274D01*
X154847000Y-54544274D01*
X154847000Y-54678608D01*
X153858304Y-54678608D01*
X153858304Y-54367992D01*
X153975541Y-54367992D01*
X153975541Y-54544274D01*
X154295988Y-54544274D01*
X154295988Y-54367992D01*
X154289698Y-54290384D01*
X154280544Y-54253499D01*
X154266495Y-54221874D01*
X154246079Y-54194908D01*
X154218013Y-54173575D01*
X154183374Y-54160322D01*
X154135764Y-54155379D01*
X154088164Y-54160324D01*
X154053577Y-54173575D01*
X154025473Y-54194915D01*
X154005094Y-54221874D01*
X153991013Y-54253504D01*
X153981891Y-54290384D01*
X153975541Y-54367992D01*
X153858304Y-54367992D01*
X153858304Y-54330256D01*
X153861565Y-54267032D01*
X153870543Y-54215434D01*
X153884255Y-54173575D01*
X153914580Y-54117142D01*
X153950079Y-54076366D01*
X153992667Y-54045971D01*
X154039777Y-54026663D01*
X154089319Y-54016079D01*
X154135764Y-54012680D01*
X154182621Y-54016887D01*
X154227600Y-54029471D01*
X154269559Y-54049911D01*
X154307467Y-54077770D01*
X154340090Y-54112340D01*
X154367734Y-54154707D01*
X154387342Y-54202240D01*
X154397837Y-54256129D01*
X154847000Y-53974883D01*
X154847000Y-54142800D01*
G37*
G36*
X153858304Y-53833528D02*
G01*
X153858304Y-53633493D01*
X154606787Y-53318725D01*
X154606787Y-53313107D01*
X153858304Y-53001148D01*
X153858304Y-52801052D01*
X154847000Y-52801052D01*
X154847000Y-52935385D01*
X154034281Y-52935385D01*
X154034281Y-52938194D01*
X154847000Y-53272563D01*
X154847000Y-53362078D01*
X154034281Y-53696446D01*
X154034281Y-53699255D01*
X154847000Y-53699255D01*
X154847000Y-53833528D01*
X153858304Y-53833528D01*
G37*
G36*
X154011933Y-52305239D02*
G01*
X154178751Y-52487078D01*
X154084962Y-52565419D01*
X153858304Y-52289852D01*
X153858304Y-52170905D01*
X154847000Y-52170905D01*
X154847000Y-52305239D01*
X154011933Y-52305239D01*
G37*
D14*
%TO.C,R6*%
X156237000Y-110717064D02*
X156237000Y-110262936D01*
X157707000Y-110717064D02*
X157707000Y-110262936D01*
%TO.C,C7*%
X177827000Y-55445252D02*
X177827000Y-54922748D01*
X179297000Y-55445252D02*
X179297000Y-54922748D01*
%TO.C,P1*%
X158654000Y-113125000D02*
X158654000Y-111425000D01*
X167994000Y-113125000D02*
X167994000Y-111425000D01*
%TO.C,C9*%
X153567500Y-91694000D02*
X154567500Y-91694000D01*
X154067500Y-92194000D02*
X154067500Y-91194000D01*
%TO.C,R9*%
X168937000Y-110791364D02*
X168937000Y-110337236D01*
X170407000Y-110791364D02*
X170407000Y-110337236D01*
%TO.C,D6*%
X156012000Y-113071000D02*
X156012000Y-115756000D01*
X156012000Y-115756000D02*
X157932000Y-115756000D01*
X157932000Y-115756000D02*
X157932000Y-113071000D01*
%TO.C,C5*%
X172747000Y-100510748D02*
X172747000Y-101033252D01*
X174217000Y-100510748D02*
X174217000Y-101033252D01*
%TO.C,U7*%
X155366000Y-74080000D02*
X155966000Y-74080000D01*
X155366000Y-74830000D02*
X155366000Y-74080000D01*
X155366000Y-86805000D02*
X155366000Y-87655000D01*
X155566000Y-74280000D02*
X172166000Y-74280000D01*
X155566000Y-87480000D02*
X155566000Y-74280000D01*
X160966000Y-87480000D02*
X160966000Y-74280000D01*
X171566000Y-74080000D02*
X172366000Y-74080000D01*
X171566000Y-87680000D02*
X172366000Y-87680000D01*
X172166000Y-74280000D02*
X172166000Y-87480000D01*
X172166000Y-87480000D02*
X155566000Y-87480000D01*
X172366000Y-74080000D02*
X172366000Y-74880000D01*
X172366000Y-87680000D02*
X172366000Y-86880000D01*
%TO.C,D7*%
X168712000Y-113124500D02*
X168712000Y-115809500D01*
X168712000Y-115809500D02*
X170632000Y-115809500D01*
X170632000Y-115809500D02*
X170632000Y-113124500D01*
%TO.C,U2*%
X175150000Y-76394000D02*
X175150000Y-86674000D01*
X175150000Y-86674000D02*
X176800000Y-86674000D01*
X178800000Y-86674000D02*
X180450000Y-86674000D01*
X180450000Y-76394000D02*
X175150000Y-76394000D01*
X180450000Y-86674000D02*
X180450000Y-76394000D01*
X176800000Y-86674000D02*
G75*
G02*
X178800000Y-86674000I1000000J0D01*
G01*
%TO.C,C6*%
X162628252Y-100738000D02*
X162105748Y-100738000D01*
X162628252Y-102208000D02*
X162105748Y-102208000D01*
%TO.C,SW1*%
X172420000Y-103272000D02*
X172720000Y-103272000D01*
X172420000Y-107412000D02*
X172420000Y-103272000D01*
X172720000Y-107412000D02*
X172420000Y-107412000D01*
X175260000Y-103272000D02*
X175560000Y-103272000D01*
X175560000Y-103272000D02*
X175560000Y-107412000D01*
X175560000Y-107412000D02*
X175260000Y-107412000D01*
%TO.C,SW2*%
X160736000Y-103272000D02*
X161036000Y-103272000D01*
X160736000Y-107412000D02*
X160736000Y-103272000D01*
X161036000Y-107412000D02*
X160736000Y-107412000D01*
X163576000Y-103272000D02*
X163876000Y-103272000D01*
X163876000Y-103272000D02*
X163876000Y-107412000D01*
X163876000Y-107412000D02*
X163576000Y-107412000D01*
D15*
%TO.C,G\u002A\u002A\u002A*%
G36*
X155993779Y-68403181D02*
G01*
X156019693Y-68412125D01*
X156042274Y-68427805D01*
X156059823Y-68448154D01*
X156070640Y-68471107D01*
X156073027Y-68494599D01*
X156072421Y-68498778D01*
X156063695Y-68518788D01*
X156047561Y-68534371D01*
X156027044Y-68543041D01*
X156017395Y-68544024D01*
X155998051Y-68544024D01*
X156011170Y-68534982D01*
X156027077Y-68521644D01*
X156035068Y-68507350D01*
X156037383Y-68488067D01*
X156037386Y-68487769D01*
X156032530Y-68462186D01*
X156018540Y-68439220D01*
X155996888Y-68421174D01*
X155993630Y-68419333D01*
X155979344Y-68410366D01*
X155974702Y-68404367D01*
X155979699Y-68401838D01*
X155993779Y-68403181D01*
G37*
G36*
X156195404Y-68525453D02*
G01*
X156202128Y-68533343D01*
X156214063Y-68548498D01*
X156230217Y-68569576D01*
X156249597Y-68595233D01*
X156271209Y-68624128D01*
X156294059Y-68654916D01*
X156317154Y-68686256D01*
X156339501Y-68716804D01*
X156360106Y-68745218D01*
X156377976Y-68770154D01*
X156392118Y-68790270D01*
X156400872Y-68803197D01*
X156458266Y-68898202D01*
X156486025Y-68952486D01*
X156509230Y-68997865D01*
X156554701Y-69104131D01*
X156581423Y-69176937D01*
X156582822Y-69180749D01*
X156592834Y-69210559D01*
X156603198Y-69242799D01*
X156613475Y-69275944D01*
X156623225Y-69308468D01*
X156632009Y-69338842D01*
X156639387Y-69365542D01*
X156644920Y-69387041D01*
X156648168Y-69401813D01*
X156648691Y-69408330D01*
X156648414Y-69408507D01*
X156644322Y-69404301D01*
X156635150Y-69392935D01*
X156622019Y-69375860D01*
X156606052Y-69354526D01*
X156594688Y-69339068D01*
X156571973Y-69309220D01*
X156545692Y-69276680D01*
X156538577Y-69268299D01*
X156578770Y-69268299D01*
X156581423Y-69270952D01*
X156584076Y-69268299D01*
X156581423Y-69265645D01*
X156578770Y-69268299D01*
X156538577Y-69268299D01*
X156518850Y-69245061D01*
X156494453Y-69217978D01*
X156490700Y-69214017D01*
X156437120Y-69158004D01*
X156441775Y-69140734D01*
X156468064Y-69140734D01*
X156469308Y-69145727D01*
X156475690Y-69153554D01*
X156488449Y-69166099D01*
X156492706Y-69170123D01*
X156508901Y-69186085D01*
X156528160Y-69206094D01*
X156546638Y-69226143D01*
X156548746Y-69228503D01*
X156563603Y-69244636D01*
X156572554Y-69252853D01*
X156576198Y-69253623D01*
X156575846Y-69249727D01*
X156569635Y-69229838D01*
X156560082Y-69203023D01*
X156548252Y-69172011D01*
X156535213Y-69139529D01*
X156522030Y-69108304D01*
X156510636Y-69082913D01*
X156486025Y-69030178D01*
X156480062Y-69081746D01*
X156477190Y-69104097D01*
X156474309Y-69122307D01*
X156471840Y-69133914D01*
X156470721Y-69136691D01*
X156468064Y-69140734D01*
X156441775Y-69140734D01*
X156447283Y-69120296D01*
X156452987Y-69093809D01*
X156455566Y-69067010D01*
X156454721Y-69039122D01*
X156450152Y-69009367D01*
X156441559Y-68976966D01*
X156428644Y-68941141D01*
X156411106Y-68901115D01*
X156388646Y-68856109D01*
X156360965Y-68805345D01*
X156327764Y-68748046D01*
X156288742Y-68683434D01*
X156263247Y-68642176D01*
X156239177Y-68603350D01*
X156220502Y-68572904D01*
X156206899Y-68550279D01*
X156198043Y-68534917D01*
X156193608Y-68526260D01*
X156193271Y-68523748D01*
X156195404Y-68525453D01*
G37*
G36*
X156034048Y-68127826D02*
G01*
X156051271Y-68130333D01*
X156086415Y-68146081D01*
X156119639Y-68172094D01*
X156150769Y-68208255D01*
X156160957Y-68223009D01*
X156171942Y-68240550D01*
X156177917Y-68253407D01*
X156180061Y-68265516D01*
X156179550Y-68280817D01*
X156179266Y-68284226D01*
X156176722Y-68313606D01*
X156227012Y-68369122D01*
X156278261Y-68427656D01*
X156330838Y-68491314D01*
X156382618Y-68557356D01*
X156431476Y-68623044D01*
X156475286Y-68685639D01*
X156491070Y-68709425D01*
X156503829Y-68728629D01*
X156513104Y-68740735D01*
X156521088Y-68747612D01*
X156529972Y-68751130D01*
X156540001Y-68752825D01*
X156541952Y-68753155D01*
X156542478Y-68753225D01*
X156567434Y-68760492D01*
X156594608Y-68774965D01*
X156620813Y-68794717D01*
X156636183Y-68809879D01*
X156645293Y-68821426D01*
X156658162Y-68839591D01*
X156673087Y-68861893D01*
X156688365Y-68885851D01*
X156688533Y-68886122D01*
X156711844Y-68922850D01*
X156731025Y-68951097D01*
X156746845Y-68971796D01*
X156760070Y-68985883D01*
X156771467Y-68994289D01*
X156780185Y-68997644D01*
X156799687Y-69005150D01*
X156822445Y-69018714D01*
X156845254Y-69035971D01*
X156864910Y-69054559D01*
X156875759Y-69068109D01*
X156887189Y-69087496D01*
X156897361Y-69108258D01*
X156900882Y-69117001D01*
X156912666Y-69138967D01*
X156932309Y-69158689D01*
X156934666Y-69160556D01*
X156963585Y-69188383D01*
X156991262Y-69225291D01*
X157016860Y-69269757D01*
X157039541Y-69320257D01*
X157058468Y-69375270D01*
X157064372Y-69396540D01*
X157070007Y-69418913D01*
X157074438Y-69437803D01*
X157077070Y-69450602D01*
X157077538Y-69454263D01*
X157080930Y-69462171D01*
X157089476Y-69473816D01*
X157093963Y-69478886D01*
X157134154Y-69527930D01*
X157165394Y-69579942D01*
X157188090Y-69636024D01*
X157202645Y-69697278D01*
X157209464Y-69764802D01*
X157210119Y-69794923D01*
X157209917Y-69819777D01*
X157209317Y-69840244D01*
X157208408Y-69854294D01*
X157207282Y-69859898D01*
X157207202Y-69859922D01*
X157202599Y-69856294D01*
X157192302Y-69846424D01*
X157177853Y-69831835D01*
X157161374Y-69814663D01*
X157144534Y-69797156D01*
X157130502Y-69783103D01*
X157120760Y-69773952D01*
X157116802Y-69771135D01*
X157117106Y-69776762D01*
X157119696Y-69789496D01*
X157122764Y-69801802D01*
X157130922Y-69839651D01*
X157135002Y-69877839D01*
X157134816Y-69917660D01*
X157130173Y-69960410D01*
X157120882Y-70007381D01*
X157106755Y-70059870D01*
X157087602Y-70119171D01*
X157068313Y-70172978D01*
X157050423Y-70223159D01*
X157036928Y-70265910D01*
X157027367Y-70303235D01*
X157021276Y-70337138D01*
X157018195Y-70369625D01*
X157017581Y-70393178D01*
X157022346Y-70454674D01*
X157036920Y-70513425D01*
X157061600Y-70570384D01*
X157085058Y-70609715D01*
X157094833Y-70624921D01*
X157101693Y-70636512D01*
X157104068Y-70641707D01*
X157099749Y-70642312D01*
X157088207Y-70638802D01*
X157071562Y-70632091D01*
X157051938Y-70623091D01*
X157031454Y-70612717D01*
X157013865Y-70602859D01*
X156991067Y-70587948D01*
X156966824Y-70569987D01*
X156949828Y-70555862D01*
X156920279Y-70529347D01*
X156919639Y-70588608D01*
X156916203Y-70643425D01*
X156906652Y-70696023D01*
X156890283Y-70749129D01*
X156866392Y-70805470D01*
X156860504Y-70817661D01*
X156844250Y-70849385D01*
X156826819Y-70880541D01*
X156807290Y-70912516D01*
X156784740Y-70946696D01*
X156758247Y-70984469D01*
X156726891Y-71027223D01*
X156689747Y-71076344D01*
X156680834Y-71087978D01*
X156646094Y-71133518D01*
X156617211Y-71172086D01*
X156593331Y-71204934D01*
X156573599Y-71233310D01*
X156557162Y-71258466D01*
X156543166Y-71281651D01*
X156530756Y-71304116D01*
X156523292Y-71318613D01*
X156505074Y-71357543D01*
X156492651Y-71391166D01*
X156485216Y-71422482D01*
X156481959Y-71454489D01*
X156481651Y-71472957D01*
X156484712Y-71513351D01*
X156493807Y-71551015D01*
X156509688Y-71587365D01*
X156533107Y-71623820D01*
X156564817Y-71661796D01*
X156601676Y-71699027D01*
X156622705Y-71719221D01*
X156636644Y-71733227D01*
X156644248Y-71742003D01*
X156646272Y-71746505D01*
X156643474Y-71747692D01*
X156639717Y-71747196D01*
X156625177Y-71744777D01*
X156605706Y-71742019D01*
X156594688Y-71740625D01*
X156569259Y-71735942D01*
X156537306Y-71727607D01*
X156501863Y-71716579D01*
X156465966Y-71703819D01*
X156432647Y-71690284D01*
X156425957Y-71687294D01*
X156405128Y-71678198D01*
X156390515Y-71674069D01*
X156379853Y-71675889D01*
X156370876Y-71684638D01*
X156361321Y-71701299D01*
X156352662Y-71719052D01*
X156337501Y-71755662D01*
X156328464Y-71791063D01*
X156324830Y-71829144D01*
X156325397Y-71865580D01*
X156330101Y-71907949D01*
X156340217Y-71946057D01*
X156356776Y-71982172D01*
X156380809Y-72018563D01*
X156412008Y-72056013D01*
X156423747Y-72069301D01*
X156429745Y-72077515D01*
X156429183Y-72080866D01*
X156421242Y-72079563D01*
X156405104Y-72073817D01*
X156380565Y-72064085D01*
X156334903Y-72042731D01*
X156289137Y-72015851D01*
X156246017Y-71985360D01*
X156208293Y-71953176D01*
X156182824Y-71926279D01*
X156154353Y-71889639D01*
X156129209Y-71851510D01*
X156107011Y-71810788D01*
X156087378Y-71766368D01*
X156069931Y-71717147D01*
X156054289Y-71662019D01*
X156040072Y-71599882D01*
X156039543Y-71597058D01*
X156150768Y-71597058D01*
X156151691Y-71641586D01*
X156155350Y-71683968D01*
X156161634Y-71720746D01*
X156164545Y-71732043D01*
X156183477Y-71783952D01*
X156209457Y-71835358D01*
X156240291Y-71882167D01*
X156254692Y-71900093D01*
X156268367Y-71916012D01*
X156268442Y-71849686D01*
X156268870Y-71817999D01*
X156270330Y-71793631D01*
X156273206Y-71773306D01*
X156277883Y-71753750D01*
X156280915Y-71743565D01*
X156288721Y-71720939D01*
X156298344Y-71696570D01*
X156308611Y-71673078D01*
X156318348Y-71653086D01*
X156326380Y-71639214D01*
X156329351Y-71635433D01*
X156328452Y-71629344D01*
X156321596Y-71617523D01*
X156310014Y-71602043D01*
X156308164Y-71599796D01*
X156275136Y-71552797D01*
X156251158Y-71501737D01*
X156235997Y-71445868D01*
X156229417Y-71384445D01*
X156229363Y-71348271D01*
X156230262Y-71319963D01*
X156282429Y-71319963D01*
X156282746Y-71351440D01*
X156284107Y-71383085D01*
X156286420Y-71411443D01*
X156289594Y-71433062D01*
X156289614Y-71433162D01*
X156305119Y-71483497D01*
X156329202Y-71530473D01*
X156360621Y-71572390D01*
X156398135Y-71607547D01*
X156434063Y-71630941D01*
X156450533Y-71639513D01*
X156463065Y-71645653D01*
X156468994Y-71648055D01*
X156469025Y-71648056D01*
X156467979Y-71643941D01*
X156462503Y-71633148D01*
X156453779Y-71618005D01*
X156453696Y-71617866D01*
X156432219Y-71577126D01*
X156418542Y-71537964D01*
X156411399Y-71496442D01*
X156410343Y-71482970D01*
X156409717Y-71451955D01*
X156411940Y-71421652D01*
X156417438Y-71391208D01*
X156426635Y-71359773D01*
X156439958Y-71326494D01*
X156457832Y-71290520D01*
X156480682Y-71251000D01*
X156508935Y-71207081D01*
X156543015Y-71157912D01*
X156583349Y-71102641D01*
X156630362Y-71040416D01*
X156633563Y-71036235D01*
X156680123Y-70974196D01*
X156719769Y-70918435D01*
X156753174Y-70867807D01*
X156781005Y-70821167D01*
X156803935Y-70777370D01*
X156822633Y-70735269D01*
X156837770Y-70693720D01*
X156842167Y-70679704D01*
X156848089Y-70658873D01*
X156852168Y-70640559D01*
X156854753Y-70621825D01*
X156856191Y-70599735D01*
X156856831Y-70571354D01*
X156856955Y-70555013D01*
X156856293Y-70512834D01*
X156853348Y-70477669D01*
X156847382Y-70446033D01*
X156837657Y-70414441D01*
X156823434Y-70379406D01*
X156816480Y-70363995D01*
X156800604Y-70329506D01*
X156793312Y-70345424D01*
X156788651Y-70356296D01*
X156781127Y-70374632D01*
X156771723Y-70398004D01*
X156761422Y-70423986D01*
X156759880Y-70427910D01*
X156731542Y-70496657D01*
X156701147Y-70563384D01*
X156667889Y-70629503D01*
X156630966Y-70696423D01*
X156589573Y-70765554D01*
X156542907Y-70838308D01*
X156490163Y-70916093D01*
X156445482Y-70979496D01*
X156424385Y-71009170D01*
X156404098Y-71037985D01*
X156385908Y-71064092D01*
X156371100Y-71085646D01*
X156360958Y-71100798D01*
X156359630Y-71102855D01*
X156336215Y-71142518D01*
X156315820Y-71182977D01*
X156299557Y-71221711D01*
X156288537Y-71256202D01*
X156285298Y-71271328D01*
X156283249Y-71292107D01*
X156282429Y-71319963D01*
X156230262Y-71319963D01*
X156231251Y-71288804D01*
X156217043Y-71322110D01*
X156203561Y-71356474D01*
X156189808Y-71396316D01*
X156176914Y-71437958D01*
X156166011Y-71477723D01*
X156158230Y-71511933D01*
X156157576Y-71515405D01*
X156152692Y-71553845D01*
X156150768Y-71597058D01*
X156039543Y-71597058D01*
X156026900Y-71529629D01*
X156014393Y-71450158D01*
X156011204Y-71427856D01*
X155999385Y-71344862D01*
X155988482Y-71271325D01*
X155978212Y-71206154D01*
X155968295Y-71148263D01*
X155958448Y-71096563D01*
X155948391Y-71049965D01*
X155937842Y-71007380D01*
X155926520Y-70967720D01*
X155914143Y-70929897D01*
X155900429Y-70892823D01*
X155885099Y-70855408D01*
X155867869Y-70816565D01*
X155848459Y-70775204D01*
X155835629Y-70748683D01*
X155810677Y-70698838D01*
X155785580Y-70651569D01*
X155759454Y-70605498D01*
X155731418Y-70559241D01*
X155700590Y-70511420D01*
X155666088Y-70460653D01*
X155627029Y-70405559D01*
X155582532Y-70344758D01*
X155548272Y-70298854D01*
X155522303Y-70264066D01*
X155496713Y-70229391D01*
X155493122Y-70224470D01*
X155612160Y-70224470D01*
X155613665Y-70229451D01*
X155614411Y-70230510D01*
X155619645Y-70237495D01*
X155630095Y-70251413D01*
X155644597Y-70270716D01*
X155661990Y-70293855D01*
X155678750Y-70316147D01*
X155753198Y-70419309D01*
X155818679Y-70519092D01*
X155875810Y-70616670D01*
X155925211Y-70713216D01*
X155967499Y-70809903D01*
X156003293Y-70907904D01*
X156021355Y-70965920D01*
X156033991Y-71010940D01*
X156045166Y-71054993D01*
X156055129Y-71099569D01*
X156064132Y-71146155D01*
X156072426Y-71196240D01*
X156080262Y-71251312D01*
X156087890Y-71312859D01*
X156095561Y-71382369D01*
X156101671Y-71442420D01*
X156104323Y-71467524D01*
X156106820Y-71488070D01*
X156108906Y-71502162D01*
X156110328Y-71507906D01*
X156110486Y-71507915D01*
X156112507Y-71502051D01*
X156115893Y-71488511D01*
X156119968Y-71470032D01*
X156120634Y-71466820D01*
X156134189Y-71412656D01*
X156152768Y-71355210D01*
X156174650Y-71299392D01*
X156193305Y-71259354D01*
X156209888Y-71228058D01*
X156228365Y-71195969D01*
X156231251Y-71191321D01*
X156249557Y-71161838D01*
X156274289Y-71124418D01*
X156303382Y-71082460D01*
X156337660Y-71034715D01*
X156374339Y-70984802D01*
X156411433Y-70934509D01*
X156442952Y-70891205D01*
X156469845Y-70853506D01*
X156493062Y-70820031D01*
X156513552Y-70789398D01*
X156532265Y-70760226D01*
X156550149Y-70731132D01*
X156560254Y-70714194D01*
X156621364Y-70605593D01*
X156673610Y-70501300D01*
X156717306Y-70400294D01*
X156752764Y-70301554D01*
X156766867Y-70251621D01*
X156823385Y-70251621D01*
X156825541Y-70260658D01*
X156831828Y-70276968D01*
X156841360Y-70298473D01*
X156853249Y-70323095D01*
X156857364Y-70331212D01*
X156869754Y-70353879D01*
X156884500Y-70378543D01*
X156900545Y-70403701D01*
X156916835Y-70427848D01*
X156932312Y-70449479D01*
X156945922Y-70467091D01*
X156956608Y-70479180D01*
X156963314Y-70484240D01*
X156964611Y-70483997D01*
X156964616Y-70478051D01*
X156962087Y-70465566D01*
X156960270Y-70458713D01*
X156957497Y-70443392D01*
X156955378Y-70421046D01*
X156954196Y-70395257D01*
X156954052Y-70379913D01*
X156954969Y-70352387D01*
X156957658Y-70325184D01*
X156962511Y-70296664D01*
X156969921Y-70265185D01*
X156980283Y-70229106D01*
X156993988Y-70186785D01*
X157011431Y-70136580D01*
X157014162Y-70128916D01*
X157030023Y-70084064D01*
X157042488Y-70047389D01*
X157051959Y-70017158D01*
X157058838Y-69991639D01*
X157063524Y-69969099D01*
X157066420Y-69947807D01*
X157067927Y-69926028D01*
X157068446Y-69902032D01*
X157068469Y-69894411D01*
X157065077Y-69832563D01*
X157054761Y-69778615D01*
X157037349Y-69732280D01*
X157012670Y-69693272D01*
X156980553Y-69661304D01*
X156940828Y-69636091D01*
X156905163Y-69621175D01*
X156886681Y-69615441D01*
X156870751Y-69611580D01*
X156862795Y-69610538D01*
X156851342Y-69610538D01*
X156859328Y-69662272D01*
X156862356Y-69687348D01*
X156864656Y-69719126D01*
X156866272Y-69758596D01*
X156867244Y-69806753D01*
X156867606Y-69859922D01*
X156867522Y-69911047D01*
X156866896Y-69953905D01*
X156865498Y-69990836D01*
X156863102Y-70024182D01*
X156859479Y-70056282D01*
X156854401Y-70089477D01*
X156847640Y-70126107D01*
X156838969Y-70168513D01*
X156836338Y-70180937D01*
X156831246Y-70205723D01*
X156827061Y-70227697D01*
X156824276Y-70244171D01*
X156823385Y-70251621D01*
X156766867Y-70251621D01*
X156780300Y-70204060D01*
X156800227Y-70106792D01*
X156800604Y-70103865D01*
X156812858Y-70008730D01*
X156818508Y-69908853D01*
X156818894Y-69873187D01*
X156814760Y-69760143D01*
X156802358Y-69646036D01*
X156781499Y-69529918D01*
X156751993Y-69410842D01*
X156713652Y-69287858D01*
X156697880Y-69243877D01*
X156749926Y-69243877D01*
X156770878Y-69305380D01*
X156779587Y-69332496D01*
X156789693Y-69366435D01*
X156800193Y-69403685D01*
X156810083Y-69440732D01*
X156814516Y-69458200D01*
X156837202Y-69549518D01*
X156861790Y-69553048D01*
X156862795Y-69553288D01*
X156912179Y-69565082D01*
X156964787Y-69586808D01*
X157018764Y-69617761D01*
X157073256Y-69657474D01*
X157108891Y-69688076D01*
X157142898Y-69719077D01*
X157139283Y-69691825D01*
X157129092Y-69646650D01*
X157111446Y-69602204D01*
X157095086Y-69573396D01*
X157076201Y-69548082D01*
X157051482Y-69519594D01*
X157023750Y-69490900D01*
X156995824Y-69464966D01*
X156978332Y-69450551D01*
X156962336Y-69436871D01*
X156949938Y-69422330D01*
X156938591Y-69403527D01*
X156929744Y-69385656D01*
X156905531Y-69342420D01*
X156877515Y-69308202D01*
X156844523Y-69281741D01*
X156821105Y-69268701D01*
X156800583Y-69259408D01*
X156781556Y-69251815D01*
X156767749Y-69247394D01*
X156766489Y-69247120D01*
X156749926Y-69243877D01*
X156697880Y-69243877D01*
X156687446Y-69214779D01*
X156658092Y-69141454D01*
X156713218Y-69141454D01*
X156715037Y-69151589D01*
X156721591Y-69169717D01*
X156724846Y-69177661D01*
X156729501Y-69186585D01*
X156736136Y-69192366D01*
X156747541Y-69196492D01*
X156749926Y-69196991D01*
X156766501Y-69200456D01*
X156767989Y-69200730D01*
X156805963Y-69210907D01*
X156844010Y-69226798D01*
X156878948Y-69246750D01*
X156907596Y-69269114D01*
X156915720Y-69277397D01*
X156941012Y-69310827D01*
X156962728Y-69349614D01*
X156976094Y-69382761D01*
X156982018Y-69394913D01*
X156991505Y-69408537D01*
X157002451Y-69421287D01*
X157012754Y-69430816D01*
X157020310Y-69434779D01*
X157022188Y-69434191D01*
X157022831Y-69427093D01*
X157020102Y-69412351D01*
X157014675Y-69392131D01*
X157007223Y-69368598D01*
X156998420Y-69343920D01*
X156988939Y-69320263D01*
X156982029Y-69304992D01*
X156954214Y-69257413D01*
X156920753Y-69218685D01*
X156881236Y-69188427D01*
X156835254Y-69166261D01*
X156830379Y-69164508D01*
X156812774Y-69159060D01*
X156790367Y-69153099D01*
X156766262Y-69147337D01*
X156743564Y-69142483D01*
X156725377Y-69139247D01*
X156715903Y-69138301D01*
X156713218Y-69141454D01*
X156658092Y-69141454D01*
X156637557Y-69090159D01*
X156595103Y-68997412D01*
X156649588Y-68997412D01*
X156669098Y-69042455D01*
X156688608Y-69087497D01*
X156715903Y-69091414D01*
X156737094Y-69094455D01*
X156763546Y-69098879D01*
X156790493Y-69104412D01*
X156813042Y-69110027D01*
X156817512Y-69111352D01*
X156849443Y-69121290D01*
X156837472Y-69099920D01*
X156815138Y-69070654D01*
X156784922Y-69047523D01*
X156749553Y-69032052D01*
X156730743Y-69026649D01*
X156715048Y-69022864D01*
X156706455Y-69021568D01*
X156696540Y-69019263D01*
X156681676Y-69013406D01*
X156673445Y-69009490D01*
X156649588Y-68997412D01*
X156595103Y-68997412D01*
X156583611Y-68972307D01*
X156524707Y-68859783D01*
X156484403Y-68792177D01*
X156540001Y-68792177D01*
X156552446Y-68812690D01*
X156560796Y-68826384D01*
X156572716Y-68845844D01*
X156586204Y-68867805D01*
X156592665Y-68878305D01*
X156607523Y-68900807D01*
X156623589Y-68922558D01*
X156638218Y-68940059D01*
X156643380Y-68945380D01*
X156649588Y-68950784D01*
X156658661Y-68958681D01*
X156674108Y-68969971D01*
X156687659Y-68978019D01*
X156697247Y-68981597D01*
X156700809Y-68979569D01*
X156696956Y-68972218D01*
X156695691Y-68971277D01*
X156691211Y-68965621D01*
X156682872Y-68952620D01*
X156671892Y-68934249D01*
X156660296Y-68913924D01*
X156646966Y-68890564D01*
X156634173Y-68869015D01*
X156623522Y-68851934D01*
X156617491Y-68843094D01*
X156601523Y-68826271D01*
X156581030Y-68810455D01*
X156560388Y-68798833D01*
X156552753Y-68795976D01*
X156540001Y-68792177D01*
X156484403Y-68792177D01*
X156459944Y-68751149D01*
X156388421Y-68644966D01*
X156309235Y-68539795D01*
X156221487Y-68434198D01*
X156145364Y-68349361D01*
X156096646Y-68296693D01*
X156112189Y-68290827D01*
X156127016Y-68281646D01*
X156132425Y-68268105D01*
X156130848Y-68254700D01*
X156123115Y-68238322D01*
X156109137Y-68221205D01*
X156091078Y-68204879D01*
X156071101Y-68190876D01*
X156051370Y-68180728D01*
X156034048Y-68175967D01*
X156022062Y-68177680D01*
X156013718Y-68184672D01*
X156010211Y-68196139D01*
X156009702Y-68204438D01*
X156010541Y-68210961D01*
X156012673Y-68223334D01*
X156012952Y-68224841D01*
X156016267Y-68242591D01*
X155996845Y-68231132D01*
X155977423Y-68219673D01*
X155961164Y-68235931D01*
X155952523Y-68245613D01*
X155947376Y-68255402D01*
X155944595Y-68268709D01*
X155943051Y-68288943D01*
X155942947Y-68290973D01*
X155940988Y-68329755D01*
X155960273Y-68346687D01*
X155972893Y-68356731D01*
X155982988Y-68362963D01*
X155986005Y-68363925D01*
X155984551Y-68365258D01*
X155974809Y-68368500D01*
X155958785Y-68372997D01*
X155955659Y-68373818D01*
X155924530Y-68385124D01*
X155903217Y-68400401D01*
X155891598Y-68419896D01*
X155889553Y-68443851D01*
X155896962Y-68472512D01*
X155901629Y-68483406D01*
X155917195Y-68508905D01*
X155939181Y-68534781D01*
X155964328Y-68557700D01*
X155989375Y-68574331D01*
X155991726Y-68575509D01*
X156017108Y-68584405D01*
X156041834Y-68587103D01*
X156062690Y-68583394D01*
X156068627Y-68580453D01*
X156081115Y-68567765D01*
X156092322Y-68547413D01*
X156100902Y-68522346D01*
X156104971Y-68500860D01*
X156108360Y-68472393D01*
X156115166Y-68488311D01*
X156120810Y-68510660D01*
X156121791Y-68536618D01*
X156117976Y-68560201D01*
X156116829Y-68563577D01*
X156109700Y-68576406D01*
X156098205Y-68591504D01*
X156092556Y-68597713D01*
X156073906Y-68616913D01*
X156116294Y-68673217D01*
X156212567Y-68808815D01*
X156299004Y-68946724D01*
X156375416Y-69086604D01*
X156441616Y-69228112D01*
X156491112Y-69353264D01*
X156498728Y-69374868D01*
X156504529Y-69392418D01*
X156507829Y-69403765D01*
X156508255Y-69406908D01*
X156505626Y-69402874D01*
X156499321Y-69390649D01*
X156490056Y-69371699D01*
X156478551Y-69347494D01*
X156465521Y-69319500D01*
X156465501Y-69319455D01*
X156412350Y-69209504D01*
X156358629Y-69108959D01*
X156304553Y-69018200D01*
X156250338Y-68937606D01*
X156240735Y-68924417D01*
X156227886Y-68908086D01*
X156210765Y-68887913D01*
X156190528Y-68865102D01*
X156168331Y-68840854D01*
X156145330Y-68816373D01*
X156122679Y-68792861D01*
X156101535Y-68771521D01*
X156083053Y-68753556D01*
X156068388Y-68740169D01*
X156058697Y-68732561D01*
X156055312Y-68731433D01*
X156055908Y-68737269D01*
X156060453Y-68748907D01*
X156063121Y-68754425D01*
X156078331Y-68788097D01*
X156094118Y-68829770D01*
X156109738Y-68876914D01*
X156124447Y-68926999D01*
X156137503Y-68977498D01*
X156148160Y-69025880D01*
X156155542Y-69068674D01*
X156162609Y-69118434D01*
X156204876Y-69132828D01*
X156242931Y-69146919D01*
X156274769Y-69161618D01*
X156304672Y-69179077D01*
X156326733Y-69194086D01*
X156344525Y-69207450D01*
X156360451Y-69220654D01*
X156372914Y-69232203D01*
X156380317Y-69240600D01*
X156381063Y-69244352D01*
X156380507Y-69244421D01*
X156373785Y-69242213D01*
X156361586Y-69236695D01*
X156357032Y-69234434D01*
X156343495Y-69228483D01*
X156323097Y-69220597D01*
X156299105Y-69212010D01*
X156284285Y-69207014D01*
X156258706Y-69199018D01*
X156237872Y-69193861D01*
X156217751Y-69190911D01*
X156194315Y-69189536D01*
X156170205Y-69189144D01*
X156142271Y-69189214D01*
X156122098Y-69190151D01*
X156106846Y-69192341D01*
X156093673Y-69196171D01*
X156081521Y-69201217D01*
X156050888Y-69220284D01*
X156023666Y-69247163D01*
X156002396Y-69279088D01*
X155995162Y-69295097D01*
X155985643Y-69330006D01*
X155980624Y-69371505D01*
X155980199Y-69416529D01*
X155984467Y-69462012D01*
X155989134Y-69487418D01*
X156007586Y-69552853D01*
X156032680Y-69614124D01*
X156063674Y-69670481D01*
X156099827Y-69721172D01*
X156140397Y-69765446D01*
X156184645Y-69802550D01*
X156231828Y-69831734D01*
X156281205Y-69852245D01*
X156332035Y-69863333D01*
X156361700Y-69865149D01*
X156391765Y-69862684D01*
X156426676Y-69855864D01*
X156462155Y-69845759D01*
X156493929Y-69833439D01*
X156499997Y-69830538D01*
X156528363Y-69816378D01*
X156501833Y-69843805D01*
X156485835Y-69857928D01*
X156465298Y-69872705D01*
X156442865Y-69886596D01*
X156421174Y-69898062D01*
X156402867Y-69905563D01*
X156392269Y-69907676D01*
X156387682Y-69911694D01*
X156382231Y-69924222D01*
X156375657Y-69945972D01*
X156369528Y-69970022D01*
X156347209Y-70051342D01*
X156320337Y-70128627D01*
X156287945Y-70204003D01*
X156249069Y-70279596D01*
X156202744Y-70357532D01*
X156172655Y-70403790D01*
X156156497Y-70427405D01*
X156137974Y-70453585D01*
X156118073Y-70481033D01*
X156097780Y-70508452D01*
X156078083Y-70534543D01*
X156059967Y-70558007D01*
X156044419Y-70577548D01*
X156032426Y-70591867D01*
X156024973Y-70599666D01*
X156023047Y-70600640D01*
X156024871Y-70595646D01*
X156030890Y-70582483D01*
X156040481Y-70562438D01*
X156053021Y-70536797D01*
X156067890Y-70506848D01*
X156081298Y-70480145D01*
X156119481Y-70402246D01*
X156151633Y-70331532D01*
X156178146Y-70266738D01*
X156199413Y-70206601D01*
X156215825Y-70149859D01*
X156227774Y-70095247D01*
X156235652Y-70041502D01*
X156239852Y-69987361D01*
X156240553Y-69966919D01*
X156241837Y-69912082D01*
X156199388Y-69897570D01*
X156162060Y-69883154D01*
X156124863Y-69865813D01*
X156090091Y-69846838D01*
X156060035Y-69827521D01*
X156036987Y-69809152D01*
X156030063Y-69802160D01*
X156019919Y-69790863D01*
X155993747Y-69839984D01*
X155947321Y-69919556D01*
X155897362Y-69989986D01*
X155842707Y-70052474D01*
X155782194Y-70108221D01*
X155714659Y-70158429D01*
X155643595Y-70201726D01*
X155625626Y-70212086D01*
X155615648Y-70219174D01*
X155612160Y-70224470D01*
X155493122Y-70224470D01*
X155472694Y-70196473D01*
X155451437Y-70166956D01*
X155434134Y-70142484D01*
X155421978Y-70124703D01*
X155421353Y-70123755D01*
X155378169Y-70050609D01*
X155344073Y-69976726D01*
X155319534Y-69903231D01*
X155308188Y-69852014D01*
X155304506Y-69825323D01*
X155301364Y-69792449D01*
X155299649Y-69767103D01*
X155429387Y-69767103D01*
X155429964Y-69796688D01*
X155432319Y-69829558D01*
X155436169Y-69862182D01*
X155441235Y-69891027D01*
X155443233Y-69899541D01*
X155450451Y-69924532D01*
X155459236Y-69950424D01*
X155467458Y-69971071D01*
X155481246Y-70001796D01*
X155520293Y-70005334D01*
X155584247Y-70005927D01*
X155648098Y-69996567D01*
X155710139Y-69977790D01*
X155768662Y-69950133D01*
X155821960Y-69914133D01*
X155829208Y-69908207D01*
X155853281Y-69885841D01*
X155880147Y-69857313D01*
X155907243Y-69825627D01*
X155932008Y-69793784D01*
X155951879Y-69764786D01*
X155952630Y-69763576D01*
X155967876Y-69738861D01*
X155946616Y-69710515D01*
X155934970Y-69694722D01*
X155925557Y-69681477D01*
X155920763Y-69674210D01*
X155916721Y-69670767D01*
X155910240Y-69673207D01*
X155899272Y-69682471D01*
X155895945Y-69685622D01*
X155875498Y-69702717D01*
X155848767Y-69721604D01*
X155819282Y-69740031D01*
X155790570Y-69755747D01*
X155774015Y-69763432D01*
X155723648Y-69780056D01*
X155669302Y-69788940D01*
X155626336Y-69790786D01*
X155570605Y-69787711D01*
X155522912Y-69778361D01*
X155482605Y-69762551D01*
X155449642Y-69740612D01*
X155433365Y-69726915D01*
X155430869Y-69744338D01*
X155429387Y-69767103D01*
X155299649Y-69767103D01*
X155298944Y-69756684D01*
X155297425Y-69721322D01*
X155296985Y-69689656D01*
X155297806Y-69664979D01*
X155297915Y-69663598D01*
X155303011Y-69612901D01*
X155309896Y-69559878D01*
X155318077Y-69507638D01*
X155327060Y-69459289D01*
X155336352Y-69417939D01*
X155337844Y-69412140D01*
X155343275Y-69391494D01*
X155375328Y-69449282D01*
X155412727Y-69512539D01*
X155449233Y-69565692D01*
X155485220Y-69609174D01*
X155521058Y-69643418D01*
X155557121Y-69668856D01*
X155569872Y-69675764D01*
X155603175Y-69689769D01*
X155635423Y-69697324D01*
X155667953Y-69698185D01*
X155702101Y-69692106D01*
X155739204Y-69678840D01*
X155780598Y-69658143D01*
X155827619Y-69629769D01*
X155830619Y-69627836D01*
X155849561Y-69615577D01*
X155864752Y-69605712D01*
X155874271Y-69599493D01*
X155876527Y-69597980D01*
X155875317Y-69593003D01*
X155871401Y-69580264D01*
X155865491Y-69562046D01*
X155862103Y-69551864D01*
X155847452Y-69496194D01*
X155839716Y-69438691D01*
X155838720Y-69381145D01*
X155844288Y-69325345D01*
X155856246Y-69273078D01*
X155874419Y-69226136D01*
X155897702Y-69187536D01*
X155904511Y-69177812D01*
X155907633Y-69169649D01*
X155907429Y-69159452D01*
X155904259Y-69143631D01*
X155902755Y-69137129D01*
X155878247Y-69054949D01*
X155843354Y-68974378D01*
X155798022Y-68895309D01*
X155754996Y-68834098D01*
X155735504Y-68810125D01*
X155718136Y-68793686D01*
X155699875Y-68783030D01*
X155677702Y-68776408D01*
X155648599Y-68772071D01*
X155647856Y-68771988D01*
X155623156Y-68767951D01*
X155608356Y-68762370D01*
X155604392Y-68758831D01*
X155597469Y-68746914D01*
X155588021Y-68727327D01*
X155577021Y-68702420D01*
X155565441Y-68674545D01*
X155554251Y-68646050D01*
X155544425Y-68619286D01*
X155536933Y-68596603D01*
X155535974Y-68593367D01*
X155527979Y-68563626D01*
X155523959Y-68541215D01*
X155524074Y-68523565D01*
X155528485Y-68508103D01*
X155537353Y-68492259D01*
X155542766Y-68484422D01*
X155562664Y-68456631D01*
X155562467Y-68446475D01*
X155680077Y-68446475D01*
X155683977Y-68494666D01*
X155688263Y-68514841D01*
X155694085Y-68533817D01*
X155702798Y-68554271D01*
X155715030Y-68577176D01*
X155731410Y-68603507D01*
X155752565Y-68634238D01*
X155779123Y-68670341D01*
X155811714Y-68712792D01*
X155835442Y-68743001D01*
X155871042Y-68792216D01*
X155897543Y-68838711D01*
X155915612Y-68883922D01*
X155916721Y-68888806D01*
X155925913Y-68929288D01*
X155927448Y-68941740D01*
X155928580Y-68948541D01*
X155931364Y-68950163D01*
X155937687Y-68945909D01*
X155949437Y-68935079D01*
X155951963Y-68932675D01*
X155964837Y-68919780D01*
X155971286Y-68910510D01*
X155972875Y-68901501D01*
X155971438Y-68890818D01*
X155964790Y-68869172D01*
X155952153Y-68841033D01*
X155934429Y-68807980D01*
X155912517Y-68771591D01*
X155887319Y-68733444D01*
X155859802Y-68695207D01*
X155843884Y-68674022D01*
X155875720Y-68701309D01*
X155900956Y-68723947D01*
X155925560Y-68747824D01*
X155947813Y-68771113D01*
X155965996Y-68791986D01*
X155978392Y-68808617D01*
X155981257Y-68813503D01*
X155988723Y-68824864D01*
X155995487Y-68826715D01*
X156002971Y-68818807D01*
X156008713Y-68808665D01*
X156013152Y-68796866D01*
X156013642Y-68784873D01*
X156009533Y-68771848D01*
X156000175Y-68756953D01*
X155984915Y-68739352D01*
X155963102Y-68718207D01*
X155934087Y-68692679D01*
X155897218Y-68661932D01*
X155890220Y-68656206D01*
X155850627Y-68621080D01*
X155817857Y-68586187D01*
X155792854Y-68552674D01*
X155776566Y-68521690D01*
X155774317Y-68515542D01*
X155766656Y-68477706D01*
X155767059Y-68437059D01*
X155775348Y-68397475D01*
X155780442Y-68383719D01*
X155789853Y-68360372D01*
X155794462Y-68344729D01*
X155794050Y-68334922D01*
X155788401Y-68329085D01*
X155777297Y-68325352D01*
X155773551Y-68324509D01*
X155748034Y-68321625D01*
X155728727Y-68326282D01*
X155713468Y-68339503D01*
X155702020Y-68358325D01*
X155686069Y-68401285D01*
X155680077Y-68446475D01*
X155562467Y-68446475D01*
X155561566Y-68399970D01*
X155560469Y-68343309D01*
X155599672Y-68306070D01*
X155622398Y-68284678D01*
X155639198Y-68269797D01*
X155651763Y-68260551D01*
X155661787Y-68256064D01*
X155670963Y-68255460D01*
X155680984Y-68257866D01*
X155688046Y-68260367D01*
X155723487Y-68272910D01*
X155748034Y-68280391D01*
X155751645Y-68281492D01*
X155774833Y-68286678D01*
X155795363Y-68289037D01*
X155806122Y-68289335D01*
X155839047Y-68289335D01*
X155848125Y-68259855D01*
X155856726Y-68237456D01*
X155868432Y-68214235D01*
X155881560Y-68192936D01*
X155894430Y-68176297D01*
X155904884Y-68167306D01*
X155918991Y-68163240D01*
X155929807Y-68162989D01*
X155941652Y-68161371D01*
X155954903Y-68152707D01*
X155963410Y-68144745D01*
X155975628Y-68133394D01*
X155986056Y-68127464D01*
X155999122Y-68125236D01*
X156014379Y-68124964D01*
X156034048Y-68127826D01*
G37*
D14*
%TO.C,R20*%
X160809000Y-98428436D02*
X160809000Y-98882564D01*
X162279000Y-98428436D02*
X162279000Y-98882564D01*
D16*
%TO.C,U9*%
X180069000Y-54600000D02*
X180249000Y-54600000D01*
X180069000Y-55000000D02*
X180069000Y-54600000D01*
X180069000Y-56660000D02*
X180069000Y-56260000D01*
X180249000Y-56660000D02*
X180069000Y-56660000D01*
X181949000Y-54600000D02*
X182129000Y-54600000D01*
X181949000Y-56660000D02*
X182129000Y-56660000D01*
X182129000Y-54600000D02*
X182129000Y-55000000D01*
X182129000Y-56660000D02*
X182129000Y-56260000D01*
D10*
X179699000Y-55330000D02*
G75*
G02*
X179499000Y-55330000I-100000J0D01*
G01*
X179499000Y-55330000D02*
G75*
G02*
X179699000Y-55330000I100000J0D01*
G01*
D14*
%TO.C,U5*%
X157831000Y-58176000D02*
X157831000Y-61886000D01*
X157831000Y-58176000D02*
X173551000Y-58176000D01*
X157831000Y-62586000D02*
X157831000Y-73896000D01*
X157831000Y-73896000D02*
X173551000Y-73896000D01*
X173551000Y-58176000D02*
X173551000Y-73896000D01*
X157831000Y-62236000D02*
X157501000Y-62476000D01*
X157501000Y-61996000D01*
X157831000Y-62236000D01*
G36*
X157831000Y-62236000D02*
G01*
X157501000Y-62476000D01*
X157501000Y-61996000D01*
X157831000Y-62236000D01*
G37*
%TD*%
%LPC*%
D17*
%TO.C,R6*%
X156972000Y-111402500D03*
X156972000Y-109577500D03*
%TD*%
D18*
%TO.C,I2c1*%
X180340000Y-59944000D03*
D19*
X180340000Y-65024000D03*
%TD*%
D20*
%TO.C,C7*%
X178562000Y-56134000D03*
X178562000Y-54234000D03*
%TD*%
D21*
%TO.C,P1*%
X160434000Y-110620000D03*
X166214000Y-110620000D03*
D22*
X160124000Y-109545000D03*
X160924000Y-109545000D03*
D23*
X162074000Y-109545000D03*
X163074000Y-109545000D03*
X163574000Y-109545000D03*
X164574000Y-109545000D03*
D22*
X165724000Y-109545000D03*
X166524000Y-109545000D03*
X166524000Y-109545000D03*
X165724000Y-109545000D03*
D23*
X165074000Y-109545000D03*
X164074000Y-109545000D03*
X162574000Y-109545000D03*
X161574000Y-109545000D03*
D22*
X160924000Y-109545000D03*
X160124000Y-109545000D03*
D24*
X159004000Y-110120000D03*
D25*
X159004000Y-114300000D03*
D24*
X167644000Y-110120000D03*
D25*
X167644000Y-114300000D03*
%TD*%
D18*
%TO.C,PYR1*%
X180340000Y-89916000D03*
D19*
X180340000Y-94996000D03*
%TD*%
D26*
%TO.C,C9*%
X155497500Y-91694000D03*
D27*
X160497500Y-91694000D03*
%TD*%
D18*
%TO.C,BT1*%
X179324000Y-113030000D03*
D19*
X174244000Y-113030000D03*
%TD*%
D17*
%TO.C,R9*%
X169672000Y-111476800D03*
X169672000Y-109651800D03*
%TD*%
D28*
%TO.C,BZ1*%
X168148000Y-90932000D03*
D29*
X168148000Y-97182000D03*
%TD*%
D18*
%TO.C,PYR2*%
X180340000Y-100584000D03*
D19*
X180340000Y-105664000D03*
%TD*%
D30*
%TO.C,D6*%
X156972000Y-115008500D03*
X156972000Y-113133500D03*
%TD*%
D31*
%TO.C,C5*%
X173482000Y-99822000D03*
X173482000Y-101722000D03*
%TD*%
D32*
%TO.C,U7*%
X162566000Y-86780000D03*
X163366000Y-86780000D03*
X164166000Y-86780000D03*
X164966000Y-86780000D03*
X165766000Y-86780000D03*
X166566000Y-86780000D03*
X167366000Y-86780000D03*
X168166000Y-86780000D03*
X168966000Y-86780000D03*
X169766000Y-86780000D03*
X170566000Y-86780000D03*
D33*
X171466000Y-85680000D03*
X171466000Y-84880000D03*
X171466000Y-84080000D03*
X171466000Y-83280000D03*
X171466000Y-82480000D03*
X171466000Y-81680000D03*
X171466000Y-80880000D03*
X171466000Y-80080000D03*
X171466000Y-79280000D03*
X171466000Y-78480000D03*
X171466000Y-77680000D03*
X171466000Y-76880000D03*
X171466000Y-76080000D03*
D32*
X170566000Y-74980000D03*
X169766000Y-74980000D03*
X168966000Y-74980000D03*
X168166000Y-74980000D03*
X167366000Y-74980000D03*
X166566000Y-74980000D03*
X165766000Y-74980000D03*
X164966000Y-74980000D03*
X164166000Y-74980000D03*
X163366000Y-74980000D03*
X162566000Y-74980000D03*
D33*
X161666000Y-76080000D03*
X161666000Y-76880000D03*
X161666000Y-77680000D03*
X161666000Y-78480000D03*
X161666000Y-79280000D03*
X161666000Y-80080000D03*
X161666000Y-80880000D03*
X161666000Y-81680000D03*
X161666000Y-82480000D03*
X161666000Y-83280000D03*
X161666000Y-84080000D03*
X161666000Y-84880000D03*
X161666000Y-85680000D03*
D34*
X164591000Y-82855000D03*
D35*
X166566000Y-82855000D03*
X168541000Y-82855000D03*
X164591000Y-80880000D03*
X166566000Y-80880000D03*
X168541000Y-80880000D03*
X164591000Y-78905000D03*
X166566000Y-78905000D03*
X168541000Y-78905000D03*
D36*
X161616000Y-74930000D03*
X171516000Y-74930000D03*
X171516000Y-86830000D03*
X161616000Y-86830000D03*
%TD*%
D18*
%TO.C,A33*%
X156464000Y-105636000D03*
D19*
X156464000Y-100556000D03*
%TD*%
D30*
%TO.C,D7*%
X169672000Y-115062000D03*
X169672000Y-113187000D03*
%TD*%
D37*
%TO.C,U2*%
X181610000Y-85344000D03*
D38*
X181610000Y-82804000D03*
X181610000Y-80264000D03*
X181610000Y-77724000D03*
X173990000Y-77724000D03*
X173990000Y-80264000D03*
X173990000Y-82804000D03*
X173990000Y-85344000D03*
%TD*%
D39*
%TO.C,C6*%
X163317000Y-101473000D03*
X161417000Y-101473000D03*
%TD*%
D40*
%TO.C,SW1*%
X173990000Y-107442000D03*
X173990000Y-103242000D03*
%TD*%
%TO.C,SW2*%
X162306000Y-107442000D03*
X162306000Y-103242000D03*
%TD*%
D41*
%TO.C,R20*%
X161544000Y-97743000D03*
X161544000Y-99568000D03*
%TD*%
D42*
%TO.C,U9*%
X180334000Y-55380000D03*
X180334000Y-55880000D03*
X180599000Y-56395000D03*
X181099000Y-56395000D03*
X181599000Y-56395000D03*
X181864000Y-55880000D03*
X181864000Y-55380000D03*
X181599000Y-54865000D03*
X181099000Y-54865000D03*
X180599000Y-54865000D03*
%TD*%
D43*
%TO.C,U5*%
X159091000Y-62236000D03*
X159091000Y-64136000D03*
X159091000Y-66036000D03*
X159091000Y-67936000D03*
X159091000Y-69836000D03*
D44*
X161891000Y-72636000D03*
X163791000Y-72636000D03*
X165691000Y-72636000D03*
X167591000Y-72636000D03*
X169491000Y-72636000D03*
D43*
X172291000Y-69836000D03*
X172291000Y-67936000D03*
X172291000Y-66036000D03*
X172291000Y-64136000D03*
X172291000Y-62236000D03*
D44*
X169491000Y-59436000D03*
X167591000Y-59436000D03*
X165691000Y-59436000D03*
X163791000Y-59436000D03*
X161891000Y-59436000D03*
%TD*%
D18*
%TO.C,ARM1*%
X157988000Y-53848000D03*
D19*
X163068000Y-53848000D03*
%TD*%
D45*
%TO.C,J10*%
X167454000Y-53368500D03*
X175954000Y-53368500D03*
%TD*%
%LPD*%
M02*
